G04 #@! TF.GenerationSoftware,KiCad,Pcbnew,(5.1.2)-2*
G04 #@! TF.CreationDate,2020-05-18T12:28:55+09:00*
G04 #@! TF.ProjectId,_5x4+3______Ver1.03,f3357834-2b33-4adf-9cdc-fcc95f566572,rev?*
G04 #@! TF.SameCoordinates,Original*
G04 #@! TF.FileFunction,Legend,Top*
G04 #@! TF.FilePolarity,Positive*
%FSLAX46Y46*%
G04 Gerber Fmt 4.6, Leading zero omitted, Abs format (unit mm)*
G04 Created by KiCad (PCBNEW (5.1.2)-2) date 2020-05-18 12:28:55*
%MOMM*%
%LPD*%
G04 APERTURE LIST*
%ADD10C,0.150000*%
%ADD11C,0.127000*%
%ADD12C,0.120000*%
%ADD13C,0.125000*%
%ADD14C,1.900000*%
%ADD15C,2.100000*%
%ADD16C,4.200000*%
%ADD17C,3.200000*%
%ADD18C,4.300000*%
%ADD19C,1.400000*%
G04 APERTURE END LIST*
D10*
X26752380Y83483333D02*
X26276190Y83150000D01*
X26752380Y82911904D02*
X25752380Y82911904D01*
X25752380Y83292857D01*
X25800000Y83388095D01*
X25847619Y83435714D01*
X25942857Y83483333D01*
X26085714Y83483333D01*
X26180952Y83435714D01*
X26228571Y83388095D01*
X26276190Y83292857D01*
X26276190Y82911904D01*
X26752380Y84435714D02*
X26752380Y83864285D01*
X26752380Y84150000D02*
X25752380Y84150000D01*
X25895238Y84054761D01*
X25990476Y83959523D01*
X26038095Y83864285D01*
X23912380Y83483333D02*
X23436190Y83150000D01*
X23912380Y82911904D02*
X22912380Y82911904D01*
X22912380Y83292857D01*
X22960000Y83388095D01*
X23007619Y83435714D01*
X23102857Y83483333D01*
X23245714Y83483333D01*
X23340952Y83435714D01*
X23388571Y83388095D01*
X23436190Y83292857D01*
X23436190Y82911904D01*
X23007619Y83864285D02*
X22960000Y83911904D01*
X22912380Y84007142D01*
X22912380Y84245238D01*
X22960000Y84340476D01*
X23007619Y84388095D01*
X23102857Y84435714D01*
X23198095Y84435714D01*
X23340952Y84388095D01*
X23912380Y83816666D01*
X23912380Y84435714D01*
D11*
X18750000Y86895238D02*
X18857142Y86847619D01*
X19035714Y86847619D01*
X19107142Y86895238D01*
X19142857Y86942857D01*
X19178571Y87038095D01*
X19178571Y87133333D01*
X19142857Y87228571D01*
X19107142Y87276190D01*
X19035714Y87323809D01*
X18892857Y87371428D01*
X18821428Y87419047D01*
X18785714Y87466666D01*
X18750000Y87561904D01*
X18750000Y87657142D01*
X18785714Y87752380D01*
X18821428Y87800000D01*
X18892857Y87847619D01*
X19071428Y87847619D01*
X19178571Y87800000D01*
X19785714Y86895238D02*
X19714285Y86847619D01*
X19571428Y86847619D01*
X19500000Y86895238D01*
X19464285Y86990476D01*
X19464285Y87371428D01*
X19500000Y87466666D01*
X19571428Y87514285D01*
X19714285Y87514285D01*
X19785714Y87466666D01*
X19821428Y87371428D01*
X19821428Y87276190D01*
X19464285Y87180952D01*
X20142857Y86847619D02*
X20142857Y87847619D01*
X20214285Y87228571D02*
X20428571Y86847619D01*
X20428571Y87514285D02*
X20142857Y87133333D01*
X20750000Y86847619D02*
X20750000Y87514285D01*
X20750000Y87847619D02*
X20714285Y87800000D01*
X20750000Y87752380D01*
X20785714Y87800000D01*
X20750000Y87847619D01*
X20750000Y87752380D01*
X21107142Y86847619D02*
X21107142Y87514285D01*
X21107142Y87419047D02*
X21142857Y87466666D01*
X21214285Y87514285D01*
X21321428Y87514285D01*
X21392857Y87466666D01*
X21428571Y87371428D01*
X21428571Y86847619D01*
X21428571Y87371428D02*
X21464285Y87466666D01*
X21535714Y87514285D01*
X21642857Y87514285D01*
X21714285Y87466666D01*
X21750000Y87371428D01*
X21750000Y86847619D01*
X22392857Y86895238D02*
X22321428Y86847619D01*
X22178571Y86847619D01*
X22107142Y86895238D01*
X22071428Y86990476D01*
X22071428Y87371428D01*
X22107142Y87466666D01*
X22178571Y87514285D01*
X22321428Y87514285D01*
X22392857Y87466666D01*
X22428571Y87371428D01*
X22428571Y87276190D01*
X22071428Y87180952D01*
X22750000Y87514285D02*
X22750000Y86847619D01*
X22750000Y87419047D02*
X22785714Y87466666D01*
X22857142Y87514285D01*
X22964285Y87514285D01*
X23035714Y87466666D01*
X23071428Y87371428D01*
X23071428Y86847619D01*
X24428571Y86847619D02*
X24178571Y87323809D01*
X24000000Y86847619D02*
X24000000Y87847619D01*
X24285714Y87847619D01*
X24357142Y87800000D01*
X24392857Y87752380D01*
X24428571Y87657142D01*
X24428571Y87514285D01*
X24392857Y87419047D01*
X24357142Y87371428D01*
X24285714Y87323809D01*
X24000000Y87323809D01*
X24750000Y86847619D02*
X24750000Y87514285D01*
X24750000Y87847619D02*
X24714285Y87800000D01*
X24750000Y87752380D01*
X24785714Y87800000D01*
X24750000Y87847619D01*
X24750000Y87752380D01*
X25428571Y87514285D02*
X25428571Y86704761D01*
X25392857Y86609523D01*
X25357142Y86561904D01*
X25285714Y86514285D01*
X25178571Y86514285D01*
X25107142Y86561904D01*
X25428571Y86895238D02*
X25357142Y86847619D01*
X25214285Y86847619D01*
X25142857Y86895238D01*
X25107142Y86942857D01*
X25071428Y87038095D01*
X25071428Y87323809D01*
X25107142Y87419047D01*
X25142857Y87466666D01*
X25214285Y87514285D01*
X25357142Y87514285D01*
X25428571Y87466666D01*
X25785714Y86847619D02*
X25785714Y87847619D01*
X26107142Y86847619D02*
X26107142Y87371428D01*
X26071428Y87466666D01*
X26000000Y87514285D01*
X25892857Y87514285D01*
X25821428Y87466666D01*
X25785714Y87419047D01*
X26357142Y87514285D02*
X26642857Y87514285D01*
X26464285Y87847619D02*
X26464285Y86990476D01*
X26500000Y86895238D01*
X26571428Y86847619D01*
X26642857Y86847619D01*
X27428571Y86895238D02*
X27500000Y86847619D01*
X27642857Y86847619D01*
X27714285Y86895238D01*
X27750000Y86990476D01*
X27750000Y87038095D01*
X27714285Y87133333D01*
X27642857Y87180952D01*
X27535714Y87180952D01*
X27464285Y87228571D01*
X27428571Y87323809D01*
X27428571Y87371428D01*
X27464285Y87466666D01*
X27535714Y87514285D01*
X27642857Y87514285D01*
X27714285Y87466666D01*
X28071428Y86847619D02*
X28071428Y87514285D01*
X28071428Y87847619D02*
X28035714Y87800000D01*
X28071428Y87752380D01*
X28107142Y87800000D01*
X28071428Y87847619D01*
X28071428Y87752380D01*
X28750000Y86847619D02*
X28750000Y87847619D01*
X28750000Y86895238D02*
X28678571Y86847619D01*
X28535714Y86847619D01*
X28464285Y86895238D01*
X28428571Y86942857D01*
X28392857Y87038095D01*
X28392857Y87323809D01*
X28428571Y87419047D01*
X28464285Y87466666D01*
X28535714Y87514285D01*
X28678571Y87514285D01*
X28750000Y87466666D01*
X29392857Y86895238D02*
X29321428Y86847619D01*
X29178571Y86847619D01*
X29107142Y86895238D01*
X29071428Y86990476D01*
X29071428Y87371428D01*
X29107142Y87466666D01*
X29178571Y87514285D01*
X29321428Y87514285D01*
X29392857Y87466666D01*
X29428571Y87371428D01*
X29428571Y87276190D01*
X29071428Y87180952D01*
X30214285Y87847619D02*
X30464285Y86847619D01*
X30714285Y87847619D01*
X31250000Y86895238D02*
X31178571Y86847619D01*
X31035714Y86847619D01*
X30964285Y86895238D01*
X30928571Y86990476D01*
X30928571Y87371428D01*
X30964285Y87466666D01*
X31035714Y87514285D01*
X31178571Y87514285D01*
X31250000Y87466666D01*
X31285714Y87371428D01*
X31285714Y87276190D01*
X30928571Y87180952D01*
X31607142Y86847619D02*
X31607142Y87514285D01*
X31607142Y87323809D02*
X31642857Y87419047D01*
X31678571Y87466666D01*
X31750000Y87514285D01*
X31821428Y87514285D01*
X32464285Y86847619D02*
X32035714Y86847619D01*
X32250000Y86847619D02*
X32250000Y87847619D01*
X32178571Y87704761D01*
X32107142Y87609523D01*
X32035714Y87561904D01*
X32785714Y86942857D02*
X32821428Y86895238D01*
X32785714Y86847619D01*
X32750000Y86895238D01*
X32785714Y86942857D01*
X32785714Y86847619D01*
X33285714Y87847619D02*
X33357142Y87847619D01*
X33428571Y87800000D01*
X33464285Y87752380D01*
X33500000Y87657142D01*
X33535714Y87466666D01*
X33535714Y87228571D01*
X33500000Y87038095D01*
X33464285Y86942857D01*
X33428571Y86895238D01*
X33357142Y86847619D01*
X33285714Y86847619D01*
X33214285Y86895238D01*
X33178571Y86942857D01*
X33142857Y87038095D01*
X33107142Y87228571D01*
X33107142Y87466666D01*
X33142857Y87657142D01*
X33178571Y87752380D01*
X33214285Y87800000D01*
X33285714Y87847619D01*
X33785714Y87847619D02*
X34250000Y87847619D01*
X34000000Y87466666D01*
X34107142Y87466666D01*
X34178571Y87419047D01*
X34214285Y87371428D01*
X34250000Y87276190D01*
X34250000Y87038095D01*
X34214285Y86942857D01*
X34178571Y86895238D01*
X34107142Y86847619D01*
X33892857Y86847619D01*
X33821428Y86895238D01*
X33785714Y86942857D01*
D10*
X3500000Y57650000D02*
X2500000Y57650000D01*
X2500000Y58650000D02*
X2500000Y57650000D01*
X16500000Y71650000D02*
X15500000Y71650000D01*
X16500000Y70650000D02*
X16500000Y71650000D01*
X16500000Y57650000D02*
X16500000Y58650000D01*
X15500000Y57650000D02*
X16500000Y57650000D01*
X2500000Y71650000D02*
X3500000Y71650000D01*
X2500000Y70650000D02*
X2500000Y71650000D01*
X79700000Y57650000D02*
X78700000Y57650000D01*
X78700000Y58650000D02*
X78700000Y57650000D01*
X92700000Y71650000D02*
X91700000Y71650000D01*
X92700000Y70650000D02*
X92700000Y71650000D01*
X92700000Y57650000D02*
X92700000Y58650000D01*
X91700000Y57650000D02*
X92700000Y57650000D01*
X78700000Y71650000D02*
X79700000Y71650000D01*
X78700000Y70650000D02*
X78700000Y71650000D01*
X41600000Y57650000D02*
X40600000Y57650000D01*
X40600000Y58650000D02*
X40600000Y57650000D01*
X54600000Y71650000D02*
X53600000Y71650000D01*
X54600000Y70650000D02*
X54600000Y71650000D01*
X54600000Y57650000D02*
X54600000Y58650000D01*
X53600000Y57650000D02*
X54600000Y57650000D01*
X40600000Y71650000D02*
X41600000Y71650000D01*
X40600000Y70650000D02*
X40600000Y71650000D01*
X79700000Y76700000D02*
X78700000Y76700000D01*
X78700000Y77700000D02*
X78700000Y76700000D01*
X92700000Y90700000D02*
X91700000Y90700000D01*
X92700000Y89700000D02*
X92700000Y90700000D01*
X92700000Y76700000D02*
X92700000Y77700000D01*
X91700000Y76700000D02*
X92700000Y76700000D01*
X78700000Y90700000D02*
X79700000Y90700000D01*
X78700000Y89700000D02*
X78700000Y90700000D01*
X22550000Y57650000D02*
X21550000Y57650000D01*
X21550000Y58650000D02*
X21550000Y57650000D01*
X35550000Y71650000D02*
X34550000Y71650000D01*
X35550000Y70650000D02*
X35550000Y71650000D01*
X35550000Y57650000D02*
X35550000Y58650000D01*
X34550000Y57650000D02*
X35550000Y57650000D01*
X21550000Y71650000D02*
X22550000Y71650000D01*
X21550000Y70650000D02*
X21550000Y71650000D01*
X60650000Y57650000D02*
X59650000Y57650000D01*
X59650000Y58650000D02*
X59650000Y57650000D01*
X73650000Y71650000D02*
X72650000Y71650000D01*
X73650000Y70650000D02*
X73650000Y71650000D01*
X73650000Y57650000D02*
X73650000Y58650000D01*
X72650000Y57650000D02*
X73650000Y57650000D01*
X59650000Y71650000D02*
X60650000Y71650000D01*
X59650000Y70650000D02*
X59650000Y71650000D01*
X79700000Y38600000D02*
X78700000Y38600000D01*
X78700000Y39600000D02*
X78700000Y38600000D01*
X92700000Y52600000D02*
X91700000Y52600000D01*
X92700000Y51600000D02*
X92700000Y52600000D01*
X92700000Y38600000D02*
X92700000Y39600000D01*
X91700000Y38600000D02*
X92700000Y38600000D01*
X78700000Y52600000D02*
X79700000Y52600000D01*
X78700000Y51600000D02*
X78700000Y52600000D01*
X79700000Y19550000D02*
X78700000Y19550000D01*
X78700000Y20550000D02*
X78700000Y19550000D01*
X92700000Y33550000D02*
X91700000Y33550000D01*
X92700000Y32550000D02*
X92700000Y33550000D01*
X92700000Y19550000D02*
X92700000Y20550000D01*
X91700000Y19550000D02*
X92700000Y19550000D01*
X78700000Y33550000D02*
X79700000Y33550000D01*
X78700000Y32550000D02*
X78700000Y33550000D01*
X79700000Y500000D02*
X78700000Y500000D01*
X78700000Y1500000D02*
X78700000Y500000D01*
X92700000Y14500000D02*
X91700000Y14500000D01*
X92700000Y13500000D02*
X92700000Y14500000D01*
X92700000Y500000D02*
X92700000Y1500000D01*
X91700000Y500000D02*
X92700000Y500000D01*
X78700000Y14500000D02*
X79700000Y14500000D01*
X78700000Y13500000D02*
X78700000Y14500000D01*
X60650000Y76700000D02*
X59650000Y76700000D01*
X59650000Y77700000D02*
X59650000Y76700000D01*
X73650000Y90700000D02*
X72650000Y90700000D01*
X73650000Y89700000D02*
X73650000Y90700000D01*
X73650000Y76700000D02*
X73650000Y77700000D01*
X72650000Y76700000D02*
X73650000Y76700000D01*
X59650000Y90700000D02*
X60650000Y90700000D01*
X59650000Y89700000D02*
X59650000Y90700000D01*
X60650000Y38600000D02*
X59650000Y38600000D01*
X59650000Y39600000D02*
X59650000Y38600000D01*
X73650000Y52600000D02*
X72650000Y52600000D01*
X73650000Y51600000D02*
X73650000Y52600000D01*
X73650000Y38600000D02*
X73650000Y39600000D01*
X72650000Y38600000D02*
X73650000Y38600000D01*
X59650000Y52600000D02*
X60650000Y52600000D01*
X59650000Y51600000D02*
X59650000Y52600000D01*
X60650000Y19550000D02*
X59650000Y19550000D01*
X59650000Y20550000D02*
X59650000Y19550000D01*
X73650000Y33550000D02*
X72650000Y33550000D01*
X73650000Y32550000D02*
X73650000Y33550000D01*
X73650000Y19550000D02*
X73650000Y20550000D01*
X72650000Y19550000D02*
X73650000Y19550000D01*
X59650000Y33550000D02*
X60650000Y33550000D01*
X59650000Y32550000D02*
X59650000Y33550000D01*
X60650000Y500000D02*
X59650000Y500000D01*
X59650000Y1500000D02*
X59650000Y500000D01*
X73650000Y14500000D02*
X72650000Y14500000D01*
X73650000Y13500000D02*
X73650000Y14500000D01*
X73650000Y500000D02*
X73650000Y1500000D01*
X72650000Y500000D02*
X73650000Y500000D01*
X59650000Y14500000D02*
X60650000Y14500000D01*
X59650000Y13500000D02*
X59650000Y14500000D01*
X41600000Y76700000D02*
X40600000Y76700000D01*
X40600000Y77700000D02*
X40600000Y76700000D01*
X54600000Y90700000D02*
X53600000Y90700000D01*
X54600000Y89700000D02*
X54600000Y90700000D01*
X54600000Y76700000D02*
X54600000Y77700000D01*
X53600000Y76700000D02*
X54600000Y76700000D01*
X40600000Y90700000D02*
X41600000Y90700000D01*
X40600000Y89700000D02*
X40600000Y90700000D01*
X41600000Y38600000D02*
X40600000Y38600000D01*
X40600000Y39600000D02*
X40600000Y38600000D01*
X54600000Y52600000D02*
X53600000Y52600000D01*
X54600000Y51600000D02*
X54600000Y52600000D01*
X54600000Y38600000D02*
X54600000Y39600000D01*
X53600000Y38600000D02*
X54600000Y38600000D01*
X40600000Y52600000D02*
X41600000Y52600000D01*
X40600000Y51600000D02*
X40600000Y52600000D01*
X41600000Y19550000D02*
X40600000Y19550000D01*
X40600000Y20550000D02*
X40600000Y19550000D01*
X54600000Y33550000D02*
X53600000Y33550000D01*
X54600000Y32550000D02*
X54600000Y33550000D01*
X54600000Y19550000D02*
X54600000Y20550000D01*
X53600000Y19550000D02*
X54600000Y19550000D01*
X40600000Y33550000D02*
X41600000Y33550000D01*
X40600000Y32550000D02*
X40600000Y33550000D01*
X41600000Y500000D02*
X40600000Y500000D01*
X40600000Y1500000D02*
X40600000Y500000D01*
X54600000Y14500000D02*
X53600000Y14500000D01*
X54600000Y13500000D02*
X54600000Y14500000D01*
X54600000Y500000D02*
X54600000Y1500000D01*
X53600000Y500000D02*
X54600000Y500000D01*
X40600000Y14500000D02*
X41600000Y14500000D01*
X40600000Y13500000D02*
X40600000Y14500000D01*
X22550000Y38600000D02*
X21550000Y38600000D01*
X21550000Y39600000D02*
X21550000Y38600000D01*
X35550000Y52600000D02*
X34550000Y52600000D01*
X35550000Y51600000D02*
X35550000Y52600000D01*
X35550000Y38600000D02*
X35550000Y39600000D01*
X34550000Y38600000D02*
X35550000Y38600000D01*
X21550000Y52600000D02*
X22550000Y52600000D01*
X21550000Y51600000D02*
X21550000Y52600000D01*
X22550000Y19550000D02*
X21550000Y19550000D01*
X21550000Y20550000D02*
X21550000Y19550000D01*
X35550000Y33550000D02*
X34550000Y33550000D01*
X35550000Y32550000D02*
X35550000Y33550000D01*
X35550000Y19550000D02*
X35550000Y20550000D01*
X34550000Y19550000D02*
X35550000Y19550000D01*
X21550000Y33550000D02*
X22550000Y33550000D01*
X21550000Y32550000D02*
X21550000Y33550000D01*
X22550000Y500000D02*
X21550000Y500000D01*
X21550000Y1500000D02*
X21550000Y500000D01*
X35550000Y14500000D02*
X34550000Y14500000D01*
X35550000Y13500000D02*
X35550000Y14500000D01*
X35550000Y500000D02*
X35550000Y1500000D01*
X34550000Y500000D02*
X35550000Y500000D01*
X21550000Y14500000D02*
X22550000Y14500000D01*
X21550000Y13500000D02*
X21550000Y14500000D01*
X3500000Y38600000D02*
X2500000Y38600000D01*
X2500000Y39600000D02*
X2500000Y38600000D01*
X16500000Y52600000D02*
X15500000Y52600000D01*
X16500000Y51600000D02*
X16500000Y52600000D01*
X16500000Y38600000D02*
X16500000Y39600000D01*
X15500000Y38600000D02*
X16500000Y38600000D01*
X2500000Y52600000D02*
X3500000Y52600000D01*
X2500000Y51600000D02*
X2500000Y52600000D01*
X3500000Y19550000D02*
X2500000Y19550000D01*
X2500000Y20550000D02*
X2500000Y19550000D01*
X16500000Y33550000D02*
X15500000Y33550000D01*
X16500000Y32550000D02*
X16500000Y33550000D01*
X16500000Y19550000D02*
X16500000Y20550000D01*
X15500000Y19550000D02*
X16500000Y19550000D01*
X2500000Y33550000D02*
X3500000Y33550000D01*
X2500000Y32550000D02*
X2500000Y33550000D01*
X3500000Y500000D02*
X2500000Y500000D01*
X2500000Y1500000D02*
X2500000Y500000D01*
X16500000Y14500000D02*
X15500000Y14500000D01*
X16500000Y13500000D02*
X16500000Y14500000D01*
X16500000Y500000D02*
X16500000Y1500000D01*
X15500000Y500000D02*
X16500000Y500000D01*
X2500000Y14500000D02*
X3500000Y14500000D01*
X2500000Y13500000D02*
X2500000Y14500000D01*
D12*
X95250000Y74810000D02*
X95250000Y54490000D01*
X92710000Y74810000D02*
X95250000Y74810000D01*
X92710000Y54490000D02*
X92710000Y74810000D01*
D10*
X95250000Y54490000D02*
X92710000Y54490000D01*
D12*
X3877000Y75741400D02*
X3877000Y77011400D01*
X3877000Y77011400D02*
X34357000Y77011400D01*
X34357000Y77011400D02*
X34357000Y74471400D01*
X34357000Y74471400D02*
X3877000Y74471400D01*
X3877000Y74471400D02*
X3877000Y77011400D01*
X3877000Y89711400D02*
X3877000Y92251400D01*
X3877000Y89711400D02*
X34357000Y89711400D01*
X34357000Y89711400D02*
X34357000Y92251400D01*
X34357000Y92251400D02*
X3877000Y92251400D01*
D10*
X37520000Y78130000D02*
X37520000Y88290000D01*
X34980000Y78130000D02*
X34980000Y88290000D01*
X34980000Y88290000D02*
X37520000Y88290000D01*
X37520000Y78130000D02*
X34980000Y78130000D01*
D12*
X17550000Y78900000D02*
X17550000Y86520000D01*
X17550000Y86520000D02*
X20090000Y86520000D01*
X20090000Y86520000D02*
X20090000Y78900000D01*
X17550000Y86520000D02*
X20090000Y86520000D01*
X20090000Y78900000D02*
X17550000Y78900000D01*
X17550000Y81440000D02*
X15010000Y81440000D01*
X15010000Y89060000D02*
X17550000Y89060000D01*
X17550000Y89060000D02*
X17550000Y81440000D01*
X15010000Y89060000D02*
X17550000Y89060000D01*
X15010000Y81440000D02*
X15010000Y89060000D01*
D10*
X7850000Y89250000D02*
X7850000Y89000000D01*
X1850000Y89250000D02*
X7850000Y89250000D01*
X1850000Y89250000D02*
X1850000Y89000000D01*
X1850000Y85750000D02*
X1850000Y86000000D01*
X7850000Y85750000D02*
X7850000Y86000000D01*
X1850000Y85750000D02*
X7850000Y85750000D01*
X1350000Y79450000D02*
X1350000Y85450000D01*
X1350000Y85450000D02*
X13350000Y85450000D01*
X13350000Y85450000D02*
X13350000Y79450000D01*
X13350000Y79450000D02*
X1350000Y79450000D01*
D12*
X27250000Y83630000D02*
X27250000Y81630000D01*
X27250000Y85630000D02*
X27250000Y83630000D01*
X25250000Y85630000D02*
X27250000Y85630000D01*
X25250000Y81630000D02*
X25250000Y85630000D01*
X27250000Y81630000D02*
X25250000Y81630000D01*
X24450000Y81630000D02*
X22450000Y81630000D01*
X22450000Y81630000D02*
X22450000Y85630000D01*
X22450000Y85630000D02*
X24450000Y85630000D01*
X24450000Y85630000D02*
X24450000Y83630000D01*
X24450000Y83630000D02*
X24450000Y81630000D01*
D13*
X30696428Y88663511D02*
X30732142Y88759226D01*
X30767857Y88791130D01*
X30839285Y88823035D01*
X30946428Y88823035D01*
X31017857Y88791130D01*
X31053571Y88759226D01*
X31089285Y88695416D01*
X31089285Y88440178D01*
X30339285Y88440178D01*
X30339285Y88663511D01*
X30375000Y88727321D01*
X30410714Y88759226D01*
X30482142Y88791130D01*
X30553571Y88791130D01*
X30625000Y88759226D01*
X30660714Y88727321D01*
X30696428Y88663511D01*
X30696428Y88440178D01*
X30589285Y89397321D02*
X31089285Y89397321D01*
X30303571Y89237797D02*
X30839285Y89078273D01*
X30839285Y89493035D01*
X8229285Y88349285D02*
X7872142Y88125952D01*
X8229285Y87966428D02*
X7479285Y87966428D01*
X7479285Y88221666D01*
X7515000Y88285476D01*
X7550714Y88317380D01*
X7622142Y88349285D01*
X7729285Y88349285D01*
X7800714Y88317380D01*
X7836428Y88285476D01*
X7872142Y88221666D01*
X7872142Y87966428D01*
X7479285Y88572619D02*
X8229285Y89019285D01*
X7479285Y89019285D02*
X8229285Y88572619D01*
X8229285Y89625476D02*
X8229285Y89242619D01*
X8229285Y89434047D02*
X7479285Y89434047D01*
X7586428Y89370238D01*
X7657857Y89306428D01*
X7693571Y89242619D01*
X33236428Y88663511D02*
X33272142Y88759226D01*
X33307857Y88791130D01*
X33379285Y88823035D01*
X33486428Y88823035D01*
X33557857Y88791130D01*
X33593571Y88759226D01*
X33629285Y88695416D01*
X33629285Y88440178D01*
X32879285Y88440178D01*
X32879285Y88663511D01*
X32915000Y88727321D01*
X32950714Y88759226D01*
X33022142Y88791130D01*
X33093571Y88791130D01*
X33165000Y88759226D01*
X33200714Y88727321D01*
X33236428Y88663511D01*
X33236428Y88440178D01*
X32879285Y89429226D02*
X32879285Y89110178D01*
X33236428Y89078273D01*
X33200714Y89110178D01*
X33165000Y89173988D01*
X33165000Y89333511D01*
X33200714Y89397321D01*
X33236428Y89429226D01*
X33307857Y89461130D01*
X33486428Y89461130D01*
X33557857Y89429226D01*
X33593571Y89397321D01*
X33629285Y89333511D01*
X33629285Y89173988D01*
X33593571Y89110178D01*
X33557857Y89078273D01*
X23397857Y88823035D02*
X23433571Y88791130D01*
X23469285Y88695416D01*
X23469285Y88631607D01*
X23433571Y88535892D01*
X23362142Y88472083D01*
X23290714Y88440178D01*
X23147857Y88408273D01*
X23040714Y88408273D01*
X22897857Y88440178D01*
X22826428Y88472083D01*
X22755000Y88535892D01*
X22719285Y88631607D01*
X22719285Y88695416D01*
X22755000Y88791130D01*
X22790714Y88823035D01*
X22719285Y89397321D02*
X22719285Y89269702D01*
X22755000Y89205892D01*
X22790714Y89173988D01*
X22897857Y89110178D01*
X23040714Y89078273D01*
X23326428Y89078273D01*
X23397857Y89110178D01*
X23433571Y89142083D01*
X23469285Y89205892D01*
X23469285Y89333511D01*
X23433571Y89397321D01*
X23397857Y89429226D01*
X23326428Y89461130D01*
X23147857Y89461130D01*
X23076428Y89429226D01*
X23040714Y89397321D01*
X23005000Y89333511D01*
X23005000Y89205892D01*
X23040714Y89142083D01*
X23076428Y89110178D01*
X23147857Y89078273D01*
X18353571Y87882380D02*
X18389285Y87978095D01*
X18389285Y88137619D01*
X18353571Y88201428D01*
X18317857Y88233333D01*
X18246428Y88265238D01*
X18175000Y88265238D01*
X18103571Y88233333D01*
X18067857Y88201428D01*
X18032142Y88137619D01*
X17996428Y88010000D01*
X17960714Y87946190D01*
X17925000Y87914285D01*
X17853571Y87882380D01*
X17782142Y87882380D01*
X17710714Y87914285D01*
X17675000Y87946190D01*
X17639285Y88010000D01*
X17639285Y88169523D01*
X17675000Y88265238D01*
X18317857Y88935238D02*
X18353571Y88903333D01*
X18389285Y88807619D01*
X18389285Y88743809D01*
X18353571Y88648095D01*
X18282142Y88584285D01*
X18210714Y88552380D01*
X18067857Y88520476D01*
X17960714Y88520476D01*
X17817857Y88552380D01*
X17746428Y88584285D01*
X17675000Y88648095D01*
X17639285Y88743809D01*
X17639285Y88807619D01*
X17675000Y88903333D01*
X17710714Y88935238D01*
X18389285Y89541428D02*
X18389285Y89222380D01*
X17639285Y89222380D01*
X15813571Y87866428D02*
X15849285Y87962142D01*
X15849285Y88121666D01*
X15813571Y88185476D01*
X15777857Y88217380D01*
X15706428Y88249285D01*
X15635000Y88249285D01*
X15563571Y88217380D01*
X15527857Y88185476D01*
X15492142Y88121666D01*
X15456428Y87994047D01*
X15420714Y87930238D01*
X15385000Y87898333D01*
X15313571Y87866428D01*
X15242142Y87866428D01*
X15170714Y87898333D01*
X15135000Y87930238D01*
X15099285Y87994047D01*
X15099285Y88153571D01*
X15135000Y88249285D01*
X15849285Y88536428D02*
X15099285Y88536428D01*
X15099285Y88695952D01*
X15135000Y88791666D01*
X15206428Y88855476D01*
X15277857Y88887380D01*
X15420714Y88919285D01*
X15527857Y88919285D01*
X15670714Y88887380D01*
X15742142Y88855476D01*
X15813571Y88791666D01*
X15849285Y88695952D01*
X15849285Y88536428D01*
X15635000Y89174523D02*
X15635000Y89493571D01*
X15849285Y89110714D02*
X15099285Y89334047D01*
X15849285Y89557380D01*
X20929285Y88440178D02*
X20179285Y88440178D01*
X20179285Y88599702D01*
X20215000Y88695416D01*
X20286428Y88759226D01*
X20357857Y88791130D01*
X20500714Y88823035D01*
X20607857Y88823035D01*
X20750714Y88791130D01*
X20822142Y88759226D01*
X20893571Y88695416D01*
X20929285Y88599702D01*
X20929285Y88440178D01*
X20429285Y89397321D02*
X20929285Y89397321D01*
X20143571Y89237797D02*
X20679285Y89078273D01*
X20679285Y89493035D01*
X4939285Y87950476D02*
X4939285Y88333333D01*
X5689285Y88141904D02*
X4939285Y88141904D01*
X4939285Y88492857D02*
X5689285Y88939523D01*
X4939285Y88939523D02*
X5689285Y88492857D01*
X4939285Y89322380D02*
X4939285Y89386190D01*
X4975000Y89450000D01*
X5010714Y89481904D01*
X5082142Y89513809D01*
X5225000Y89545714D01*
X5403571Y89545714D01*
X5546428Y89513809D01*
X5617857Y89481904D01*
X5653571Y89450000D01*
X5689285Y89386190D01*
X5689285Y89322380D01*
X5653571Y89258571D01*
X5617857Y89226666D01*
X5546428Y89194761D01*
X5403571Y89162857D01*
X5225000Y89162857D01*
X5082142Y89194761D01*
X5010714Y89226666D01*
X4975000Y89258571D01*
X4939285Y89322380D01*
X12595000Y88169523D02*
X12559285Y88105714D01*
X12559285Y88010000D01*
X12595000Y87914285D01*
X12666428Y87850476D01*
X12737857Y87818571D01*
X12880714Y87786666D01*
X12987857Y87786666D01*
X13130714Y87818571D01*
X13202142Y87850476D01*
X13273571Y87914285D01*
X13309285Y88010000D01*
X13309285Y88073809D01*
X13273571Y88169523D01*
X13237857Y88201428D01*
X12987857Y88201428D01*
X12987857Y88073809D01*
X13309285Y88488571D02*
X12559285Y88488571D01*
X13309285Y88871428D01*
X12559285Y88871428D01*
X13309285Y89190476D02*
X12559285Y89190476D01*
X12559285Y89350000D01*
X12595000Y89445714D01*
X12666428Y89509523D01*
X12737857Y89541428D01*
X12880714Y89573333D01*
X12987857Y89573333D01*
X13130714Y89541428D01*
X13202142Y89509523D01*
X13273571Y89445714D01*
X13309285Y89350000D01*
X13309285Y89190476D01*
X10055000Y88169523D02*
X10019285Y88105714D01*
X10019285Y88010000D01*
X10055000Y87914285D01*
X10126428Y87850476D01*
X10197857Y87818571D01*
X10340714Y87786666D01*
X10447857Y87786666D01*
X10590714Y87818571D01*
X10662142Y87850476D01*
X10733571Y87914285D01*
X10769285Y88010000D01*
X10769285Y88073809D01*
X10733571Y88169523D01*
X10697857Y88201428D01*
X10447857Y88201428D01*
X10447857Y88073809D01*
X10769285Y88488571D02*
X10019285Y88488571D01*
X10769285Y88871428D01*
X10019285Y88871428D01*
X10769285Y89190476D02*
X10019285Y89190476D01*
X10019285Y89350000D01*
X10055000Y89445714D01*
X10126428Y89509523D01*
X10197857Y89541428D01*
X10340714Y89573333D01*
X10447857Y89573333D01*
X10590714Y89541428D01*
X10662142Y89509523D01*
X10733571Y89445714D01*
X10769285Y89350000D01*
X10769285Y89190476D01*
X26009285Y88440178D02*
X25259285Y88440178D01*
X25259285Y88599702D01*
X25295000Y88695416D01*
X25366428Y88759226D01*
X25437857Y88791130D01*
X25580714Y88823035D01*
X25687857Y88823035D01*
X25830714Y88791130D01*
X25902142Y88759226D01*
X25973571Y88695416D01*
X26009285Y88599702D01*
X26009285Y88440178D01*
X25259285Y89046369D02*
X25259285Y89493035D01*
X26009285Y89205892D01*
X28156428Y88503988D02*
X28156428Y88727321D01*
X28549285Y88823035D02*
X28549285Y88503988D01*
X27799285Y88503988D01*
X27799285Y88823035D01*
X27799285Y89397321D02*
X27799285Y89269702D01*
X27835000Y89205892D01*
X27870714Y89173988D01*
X27977857Y89110178D01*
X28120714Y89078273D01*
X28406428Y89078273D01*
X28477857Y89110178D01*
X28513571Y89142083D01*
X28549285Y89205892D01*
X28549285Y89333511D01*
X28513571Y89397321D01*
X28477857Y89429226D01*
X28406428Y89461130D01*
X28227857Y89461130D01*
X28156428Y89429226D01*
X28120714Y89397321D01*
X28085000Y89333511D01*
X28085000Y89205892D01*
X28120714Y89142083D01*
X28156428Y89110178D01*
X28227857Y89078273D01*
X30493428Y77495507D02*
X30529142Y77591221D01*
X30564857Y77623126D01*
X30636285Y77655030D01*
X30743428Y77655030D01*
X30814857Y77623126D01*
X30850571Y77591221D01*
X30886285Y77527411D01*
X30886285Y77272173D01*
X30136285Y77272173D01*
X30136285Y77495507D01*
X30172000Y77559316D01*
X30207714Y77591221D01*
X30279142Y77623126D01*
X30350571Y77623126D01*
X30422000Y77591221D01*
X30457714Y77559316D01*
X30493428Y77495507D01*
X30493428Y77272173D01*
X30207714Y77910269D02*
X30172000Y77942173D01*
X30136285Y78005983D01*
X30136285Y78165507D01*
X30172000Y78229316D01*
X30207714Y78261221D01*
X30279142Y78293126D01*
X30350571Y78293126D01*
X30457714Y78261221D01*
X30886285Y77878364D01*
X30886285Y78293126D01*
X33033428Y77495507D02*
X33069142Y77591221D01*
X33104857Y77623126D01*
X33176285Y77655030D01*
X33283428Y77655030D01*
X33354857Y77623126D01*
X33390571Y77591221D01*
X33426285Y77527411D01*
X33426285Y77272173D01*
X32676285Y77272173D01*
X32676285Y77495507D01*
X32712000Y77559316D01*
X32747714Y77591221D01*
X32819142Y77623126D01*
X32890571Y77623126D01*
X32962000Y77591221D01*
X32997714Y77559316D01*
X33033428Y77495507D01*
X33033428Y77272173D01*
X32676285Y78229316D02*
X32676285Y78101697D01*
X32712000Y78037888D01*
X32747714Y78005983D01*
X32854857Y77942173D01*
X32997714Y77910269D01*
X33283428Y77910269D01*
X33354857Y77942173D01*
X33390571Y77974078D01*
X33426285Y78037888D01*
X33426285Y78165507D01*
X33390571Y78229316D01*
X33354857Y78261221D01*
X33283428Y78293126D01*
X33104857Y78293126D01*
X33033428Y78261221D01*
X32997714Y78229316D01*
X32962000Y78165507D01*
X32962000Y78037888D01*
X32997714Y77974078D01*
X33033428Y77942173D01*
X33104857Y77910269D01*
X27953428Y77495507D02*
X27989142Y77591221D01*
X28024857Y77623126D01*
X28096285Y77655030D01*
X28203428Y77655030D01*
X28274857Y77623126D01*
X28310571Y77591221D01*
X28346285Y77527411D01*
X28346285Y77272173D01*
X27596285Y77272173D01*
X27596285Y77495507D01*
X27632000Y77559316D01*
X27667714Y77591221D01*
X27739142Y77623126D01*
X27810571Y77623126D01*
X27882000Y77591221D01*
X27917714Y77559316D01*
X27953428Y77495507D01*
X27953428Y77272173D01*
X27596285Y77878364D02*
X27596285Y78293126D01*
X27882000Y78069792D01*
X27882000Y78165507D01*
X27917714Y78229316D01*
X27953428Y78261221D01*
X28024857Y78293126D01*
X28203428Y78293126D01*
X28274857Y78261221D01*
X28310571Y78229316D01*
X28346285Y78165507D01*
X28346285Y77974078D01*
X28310571Y77910269D01*
X28274857Y77878364D01*
X25413428Y77495507D02*
X25449142Y77591221D01*
X25484857Y77623126D01*
X25556285Y77655030D01*
X25663428Y77655030D01*
X25734857Y77623126D01*
X25770571Y77591221D01*
X25806285Y77527411D01*
X25806285Y77272173D01*
X25056285Y77272173D01*
X25056285Y77495507D01*
X25092000Y77559316D01*
X25127714Y77591221D01*
X25199142Y77623126D01*
X25270571Y77623126D01*
X25342000Y77591221D01*
X25377714Y77559316D01*
X25413428Y77495507D01*
X25413428Y77272173D01*
X25806285Y78293126D02*
X25806285Y77910269D01*
X25806285Y78101697D02*
X25056285Y78101697D01*
X25163428Y78037888D01*
X25234857Y77974078D01*
X25270571Y77910269D01*
X22873428Y77495507D02*
X22873428Y77272173D01*
X23266285Y77272173D02*
X22516285Y77272173D01*
X22516285Y77591221D01*
X22516285Y77782650D02*
X22516285Y78229316D01*
X23266285Y77942173D01*
X20333428Y77495507D02*
X20333428Y77272173D01*
X20726285Y77272173D02*
X19976285Y77272173D01*
X19976285Y77591221D01*
X19976285Y78133602D02*
X19976285Y78005983D01*
X20012000Y77942173D01*
X20047714Y77910269D01*
X20154857Y77846459D01*
X20297714Y77814554D01*
X20583428Y77814554D01*
X20654857Y77846459D01*
X20690571Y77878364D01*
X20726285Y77942173D01*
X20726285Y78069792D01*
X20690571Y78133602D01*
X20654857Y78165507D01*
X20583428Y78197411D01*
X20404857Y78197411D01*
X20333428Y78165507D01*
X20297714Y78133602D01*
X20262000Y78069792D01*
X20262000Y77942173D01*
X20297714Y77878364D01*
X20333428Y77846459D01*
X20404857Y77814554D01*
X17793428Y77495507D02*
X17793428Y77272173D01*
X18186285Y77272173D02*
X17436285Y77272173D01*
X17436285Y77591221D01*
X17436285Y78165507D02*
X17436285Y77846459D01*
X17793428Y77814554D01*
X17757714Y77846459D01*
X17722000Y77910269D01*
X17722000Y78069792D01*
X17757714Y78133602D01*
X17793428Y78165507D01*
X17864857Y78197411D01*
X18043428Y78197411D01*
X18114857Y78165507D01*
X18150571Y78133602D01*
X18186285Y78069792D01*
X18186285Y77910269D01*
X18150571Y77846459D01*
X18114857Y77814554D01*
X15253428Y77495507D02*
X15253428Y77272173D01*
X15646285Y77272173D02*
X14896285Y77272173D01*
X14896285Y77591221D01*
X15146285Y78133602D02*
X15646285Y78133602D01*
X14860571Y77974078D02*
X15396285Y77814554D01*
X15396285Y78229316D01*
X12356285Y77276459D02*
X13106285Y77499792D01*
X12356285Y77723126D01*
X13034857Y78329316D02*
X13070571Y78297411D01*
X13106285Y78201697D01*
X13106285Y78137888D01*
X13070571Y78042173D01*
X12999142Y77978364D01*
X12927714Y77946459D01*
X12784857Y77914554D01*
X12677714Y77914554D01*
X12534857Y77946459D01*
X12463428Y77978364D01*
X12392000Y78042173D01*
X12356285Y78137888D01*
X12356285Y78201697D01*
X12392000Y78297411D01*
X12427714Y78329316D01*
X13034857Y78999316D02*
X13070571Y78967411D01*
X13106285Y78871697D01*
X13106285Y78807888D01*
X13070571Y78712173D01*
X12999142Y78648364D01*
X12927714Y78616459D01*
X12784857Y78584554D01*
X12677714Y78584554D01*
X12534857Y78616459D01*
X12463428Y78648364D01*
X12392000Y78712173D01*
X12356285Y78807888D01*
X12356285Y78871697D01*
X12392000Y78967411D01*
X12427714Y78999316D01*
X10586285Y77735030D02*
X10229142Y77511697D01*
X10586285Y77352173D02*
X9836285Y77352173D01*
X9836285Y77607411D01*
X9872000Y77671221D01*
X9907714Y77703126D01*
X9979142Y77735030D01*
X10086285Y77735030D01*
X10157714Y77703126D01*
X10193428Y77671221D01*
X10229142Y77607411D01*
X10229142Y77352173D01*
X10550571Y77990269D02*
X10586285Y78085983D01*
X10586285Y78245507D01*
X10550571Y78309316D01*
X10514857Y78341221D01*
X10443428Y78373126D01*
X10372000Y78373126D01*
X10300571Y78341221D01*
X10264857Y78309316D01*
X10229142Y78245507D01*
X10193428Y78117888D01*
X10157714Y78054078D01*
X10122000Y78022173D01*
X10050571Y77990269D01*
X9979142Y77990269D01*
X9907714Y78022173D01*
X9872000Y78054078D01*
X9836285Y78117888D01*
X9836285Y78277411D01*
X9872000Y78373126D01*
X9836285Y78564554D02*
X9836285Y78947411D01*
X10586285Y78755983D02*
X9836285Y78755983D01*
X5486285Y77735030D02*
X5129142Y77511697D01*
X5486285Y77352173D02*
X4736285Y77352173D01*
X4736285Y77607411D01*
X4772000Y77671221D01*
X4807714Y77703126D01*
X4879142Y77735030D01*
X4986285Y77735030D01*
X5057714Y77703126D01*
X5093428Y77671221D01*
X5129142Y77607411D01*
X5129142Y77352173D01*
X5272000Y77990269D02*
X5272000Y78309316D01*
X5486285Y77926459D02*
X4736285Y78149792D01*
X5486285Y78373126D01*
X4736285Y78532650D02*
X5486285Y78692173D01*
X4950571Y78819792D01*
X5486285Y78947411D01*
X4736285Y79106935D01*
X7312000Y77703126D02*
X7276285Y77639316D01*
X7276285Y77543602D01*
X7312000Y77447888D01*
X7383428Y77384078D01*
X7454857Y77352173D01*
X7597714Y77320269D01*
X7704857Y77320269D01*
X7847714Y77352173D01*
X7919142Y77384078D01*
X7990571Y77447888D01*
X8026285Y77543602D01*
X8026285Y77607411D01*
X7990571Y77703126D01*
X7954857Y77735030D01*
X7704857Y77735030D01*
X7704857Y77607411D01*
X8026285Y78022173D02*
X7276285Y78022173D01*
X8026285Y78405030D01*
X7276285Y78405030D01*
X8026285Y78724078D02*
X7276285Y78724078D01*
X7276285Y78883602D01*
X7312000Y78979316D01*
X7383428Y79043126D01*
X7454857Y79075030D01*
X7597714Y79106935D01*
X7704857Y79106935D01*
X7847714Y79075030D01*
X7919142Y79043126D01*
X7990571Y78979316D01*
X8026285Y78883602D01*
X8026285Y78724078D01*
D10*
X33602380Y81747619D02*
X33602380Y81938095D01*
X33650000Y82033333D01*
X33745238Y82128571D01*
X33935714Y82176190D01*
X34269047Y82176190D01*
X34459523Y82128571D01*
X34554761Y82033333D01*
X34602380Y81938095D01*
X34602380Y81747619D01*
X34554761Y81652380D01*
X34459523Y81557142D01*
X34269047Y81509523D01*
X33935714Y81509523D01*
X33745238Y81557142D01*
X33650000Y81652380D01*
X33602380Y81747619D01*
X34602380Y83080952D02*
X34602380Y82604761D01*
X33602380Y82604761D01*
X34078571Y83414285D02*
X34078571Y83747619D01*
X34602380Y83890476D02*
X34602380Y83414285D01*
X33602380Y83414285D01*
X33602380Y83890476D01*
X34602380Y84319047D02*
X33602380Y84319047D01*
X33602380Y84557142D01*
X33650000Y84700000D01*
X33745238Y84795238D01*
X33840476Y84842857D01*
X34030952Y84890476D01*
X34173809Y84890476D01*
X34364285Y84842857D01*
X34459523Y84795238D01*
X34554761Y84700000D01*
X34602380Y84557142D01*
X34602380Y84319047D01*
X3397619Y86247619D02*
X3064285Y86723809D01*
X2826190Y86247619D02*
X2826190Y87247619D01*
X3207142Y87247619D01*
X3302380Y87200000D01*
X3350000Y87152380D01*
X3397619Y87057142D01*
X3397619Y86914285D01*
X3350000Y86819047D01*
X3302380Y86771428D01*
X3207142Y86723809D01*
X2826190Y86723809D01*
X3826190Y86771428D02*
X4159523Y86771428D01*
X4302380Y86247619D02*
X3826190Y86247619D01*
X3826190Y87247619D01*
X4302380Y87247619D01*
X4683333Y86295238D02*
X4826190Y86247619D01*
X5064285Y86247619D01*
X5159523Y86295238D01*
X5207142Y86342857D01*
X5254761Y86438095D01*
X5254761Y86533333D01*
X5207142Y86628571D01*
X5159523Y86676190D01*
X5064285Y86723809D01*
X4873809Y86771428D01*
X4778571Y86819047D01*
X4730952Y86866666D01*
X4683333Y86961904D01*
X4683333Y87057142D01*
X4730952Y87152380D01*
X4778571Y87200000D01*
X4873809Y87247619D01*
X5111904Y87247619D01*
X5254761Y87200000D01*
X5683333Y86771428D02*
X6016666Y86771428D01*
X6159523Y86247619D02*
X5683333Y86247619D01*
X5683333Y87247619D01*
X6159523Y87247619D01*
X6445238Y87247619D02*
X7016666Y87247619D01*
X6730952Y86247619D02*
X6730952Y87247619D01*
X7252380Y79938095D02*
X7252380Y80509523D01*
X8252380Y80223809D02*
X7252380Y80223809D01*
X8252380Y81414285D02*
X7776190Y81080952D01*
X8252380Y80842857D02*
X7252380Y80842857D01*
X7252380Y81223809D01*
X7300000Y81319047D01*
X7347619Y81366666D01*
X7442857Y81414285D01*
X7585714Y81414285D01*
X7680952Y81366666D01*
X7728571Y81319047D01*
X7776190Y81223809D01*
X7776190Y80842857D01*
X8252380Y82414285D02*
X7776190Y82080952D01*
X8252380Y81842857D02*
X7252380Y81842857D01*
X7252380Y82223809D01*
X7300000Y82319047D01*
X7347619Y82366666D01*
X7442857Y82414285D01*
X7585714Y82414285D01*
X7680952Y82366666D01*
X7728571Y82319047D01*
X7776190Y82223809D01*
X7776190Y81842857D01*
X8204761Y82795238D02*
X8252380Y82938095D01*
X8252380Y83176190D01*
X8204761Y83271428D01*
X8157142Y83319047D01*
X8061904Y83366666D01*
X7966666Y83366666D01*
X7871428Y83319047D01*
X7823809Y83271428D01*
X7776190Y83176190D01*
X7728571Y82985714D01*
X7680952Y82890476D01*
X7633333Y82842857D01*
X7538095Y82795238D01*
X7442857Y82795238D01*
X7347619Y82842857D01*
X7300000Y82890476D01*
X7252380Y82985714D01*
X7252380Y83223809D01*
X7300000Y83366666D01*
%LPC*%
D14*
X14580000Y64650000D03*
X4420000Y64650000D03*
D15*
X15000000Y64650000D03*
X4000000Y64650000D03*
D16*
X9500000Y64650000D03*
D14*
X90780000Y64650000D03*
X80620000Y64650000D03*
D15*
X91200000Y64650000D03*
X80200000Y64650000D03*
D16*
X85700000Y64650000D03*
D14*
X52680000Y64650000D03*
X42520000Y64650000D03*
D15*
X53100000Y64650000D03*
X42100000Y64650000D03*
D16*
X47600000Y64650000D03*
D14*
X90780000Y83700000D03*
X80620000Y83700000D03*
D15*
X91200000Y83700000D03*
X80200000Y83700000D03*
D16*
X85700000Y83700000D03*
D14*
X33630000Y64650000D03*
X23470000Y64650000D03*
D15*
X34050000Y64650000D03*
X23050000Y64650000D03*
D16*
X28550000Y64650000D03*
D14*
X71730000Y64650000D03*
X61570000Y64650000D03*
D15*
X72150000Y64650000D03*
X61150000Y64650000D03*
D16*
X66650000Y64650000D03*
D14*
X90780000Y45600000D03*
X80620000Y45600000D03*
D15*
X91200000Y45600000D03*
X80200000Y45600000D03*
D16*
X85700000Y45600000D03*
D14*
X90780000Y26550000D03*
X80620000Y26550000D03*
D15*
X91200000Y26550000D03*
X80200000Y26550000D03*
D16*
X85700000Y26550000D03*
D14*
X90780000Y7500000D03*
X80620000Y7500000D03*
D15*
X91200000Y7500000D03*
X80200000Y7500000D03*
D16*
X85700000Y7500000D03*
D14*
X71730000Y83700000D03*
X61570000Y83700000D03*
D15*
X72150000Y83700000D03*
X61150000Y83700000D03*
D16*
X66650000Y83700000D03*
D14*
X71730000Y45600000D03*
X61570000Y45600000D03*
D15*
X72150000Y45600000D03*
X61150000Y45600000D03*
D16*
X66650000Y45600000D03*
D14*
X71730000Y26550000D03*
X61570000Y26550000D03*
D15*
X72150000Y26550000D03*
X61150000Y26550000D03*
D16*
X66650000Y26550000D03*
D14*
X71730000Y7500000D03*
X61570000Y7500000D03*
D15*
X72150000Y7500000D03*
X61150000Y7500000D03*
D16*
X66650000Y7500000D03*
D14*
X52680000Y83700000D03*
X42520000Y83700000D03*
D15*
X53100000Y83700000D03*
X42100000Y83700000D03*
D16*
X47600000Y83700000D03*
D14*
X52680000Y45600000D03*
X42520000Y45600000D03*
D15*
X53100000Y45600000D03*
X42100000Y45600000D03*
D16*
X47600000Y45600000D03*
D14*
X52680000Y26550000D03*
X42520000Y26550000D03*
D15*
X53100000Y26550000D03*
X42100000Y26550000D03*
D16*
X47600000Y26550000D03*
D14*
X52680000Y7500000D03*
X42520000Y7500000D03*
D15*
X53100000Y7500000D03*
X42100000Y7500000D03*
D16*
X47600000Y7500000D03*
D14*
X33630000Y45600000D03*
X23470000Y45600000D03*
D15*
X34050000Y45600000D03*
X23050000Y45600000D03*
D16*
X28550000Y45600000D03*
D14*
X33630000Y26550000D03*
X23470000Y26550000D03*
D15*
X34050000Y26550000D03*
X23050000Y26550000D03*
D16*
X28550000Y26550000D03*
D14*
X33630000Y7500000D03*
X23470000Y7500000D03*
D15*
X34050000Y7500000D03*
X23050000Y7500000D03*
D16*
X28550000Y7500000D03*
D14*
X14580000Y45600000D03*
X4420000Y45600000D03*
D15*
X15000000Y45600000D03*
X4000000Y45600000D03*
D16*
X9500000Y45600000D03*
D14*
X14580000Y26550000D03*
X4420000Y26550000D03*
D15*
X15000000Y26550000D03*
X4000000Y26550000D03*
D16*
X9500000Y26550000D03*
D14*
X14580000Y7500000D03*
X4420000Y7500000D03*
D15*
X15000000Y7500000D03*
X4000000Y7500000D03*
D16*
X9500000Y7500000D03*
D17*
X36300000Y75870000D03*
D18*
X57150000Y74200000D03*
X76200000Y74200000D03*
X19050000Y55150000D03*
X38100000Y55150000D03*
X57150000Y55150000D03*
X76200000Y55150000D03*
X19050000Y36100000D03*
X38100000Y36100000D03*
X57150000Y36100000D03*
X76200000Y36100000D03*
X19050000Y17050000D03*
X38100000Y17050000D03*
X57150000Y17050000D03*
X76200000Y17050000D03*
D19*
X9850000Y82450000D03*
M02*
