G04 #@! TF.GenerationSoftware,KiCad,Pcbnew,(5.1.2)-2*
G04 #@! TF.CreationDate,2020-05-18T12:28:55+09:00*
G04 #@! TF.ProjectId,_5x4+3______Ver1.03,f3357834-2b33-4adf-9cdc-fcc95f566572,rev?*
G04 #@! TF.SameCoordinates,Original*
G04 #@! TF.FileFunction,Legend,Bot*
G04 #@! TF.FilePolarity,Positive*
%FSLAX46Y46*%
G04 Gerber Fmt 4.6, Leading zero omitted, Abs format (unit mm)*
G04 Created by KiCad (PCBNEW (5.1.2)-2) date 2020-05-18 12:28:55*
%MOMM*%
%LPD*%
G04 APERTURE LIST*
%ADD10C,0.125000*%
%ADD11C,0.120000*%
%ADD12C,0.200000*%
%ADD13C,0.150000*%
%ADD14R,1.800000X1.800000*%
%ADD15C,1.900000*%
%ADD16C,2.700000*%
%ADD17C,2.100000*%
%ADD18C,4.200000*%
%ADD19O,1.639000X2.000000*%
%ADD20O,2.000000X1.639000*%
%ADD21R,1.400000X1.400000*%
%ADD22C,1.800000*%
%ADD23C,2.400000*%
%ADD24C,1.400000*%
%ADD25O,2.500000X1.700000*%
%ADD26C,2.000000*%
G04 APERTURE END LIST*
D10*
X5693333Y41010714D02*
X5470000Y40260714D01*
X5246666Y41010714D01*
X4640476Y40332142D02*
X4672380Y40296428D01*
X4768095Y40260714D01*
X4831904Y40260714D01*
X4927619Y40296428D01*
X4991428Y40367857D01*
X5023333Y40439285D01*
X5055238Y40582142D01*
X5055238Y40689285D01*
X5023333Y40832142D01*
X4991428Y40903571D01*
X4927619Y40975000D01*
X4831904Y41010714D01*
X4768095Y41010714D01*
X4672380Y40975000D01*
X4640476Y40939285D01*
X3970476Y40332142D02*
X4002380Y40296428D01*
X4098095Y40260714D01*
X4161904Y40260714D01*
X4257619Y40296428D01*
X4321428Y40367857D01*
X4353333Y40439285D01*
X4385238Y40582142D01*
X4385238Y40689285D01*
X4353333Y40832142D01*
X4321428Y40903571D01*
X4257619Y40975000D01*
X4161904Y41010714D01*
X4098095Y41010714D01*
X4002380Y40975000D01*
X3970476Y40939285D01*
X5565714Y38470714D02*
X5182857Y38470714D01*
X5374285Y37720714D02*
X5374285Y38470714D01*
X5023333Y38470714D02*
X4576666Y37720714D01*
X4576666Y38470714D02*
X5023333Y37720714D01*
X5310476Y35895000D02*
X5374285Y35930714D01*
X5470000Y35930714D01*
X5565714Y35895000D01*
X5629523Y35823571D01*
X5661428Y35752142D01*
X5693333Y35609285D01*
X5693333Y35502142D01*
X5661428Y35359285D01*
X5629523Y35287857D01*
X5565714Y35216428D01*
X5470000Y35180714D01*
X5406190Y35180714D01*
X5310476Y35216428D01*
X5278571Y35252142D01*
X5278571Y35502142D01*
X5406190Y35502142D01*
X4991428Y35180714D02*
X4991428Y35930714D01*
X4608571Y35180714D01*
X4608571Y35930714D01*
X4289523Y35180714D02*
X4289523Y35930714D01*
X4130000Y35930714D01*
X4034285Y35895000D01*
X3970476Y35823571D01*
X3938571Y35752142D01*
X3906666Y35609285D01*
X3906666Y35502142D01*
X3938571Y35359285D01*
X3970476Y35287857D01*
X4034285Y35216428D01*
X4130000Y35180714D01*
X4289523Y35180714D01*
D11*
X1240000Y43220000D02*
X3840000Y43220000D01*
X1240000Y33180000D02*
X1240000Y43220000D01*
X3840000Y33180000D02*
X1240000Y33180000D01*
X3840000Y43220000D02*
X3840000Y33180000D01*
D12*
X90947500Y56750000D02*
X90947500Y51550000D01*
X90947500Y51550000D02*
X89147500Y51550000D01*
X89147500Y56750000D02*
X89147500Y51550000D01*
X90947500Y56750000D02*
X89147500Y56750000D01*
X90047500Y53750000D02*
X90547500Y54450000D01*
X90547500Y54450000D02*
X89547500Y54450000D01*
X89547500Y54450000D02*
X90047500Y53750000D01*
X90397500Y53750000D02*
X89647500Y53750000D01*
X90047500Y53850000D02*
X90047500Y53350000D01*
X90047500Y54450000D02*
X90047500Y54950000D01*
X88947500Y62450000D02*
X88947500Y57250000D01*
X88947500Y57250000D02*
X87147500Y57250000D01*
X87147500Y62450000D02*
X87147500Y57250000D01*
X88947500Y62450000D02*
X87147500Y62450000D01*
X88047500Y59450000D02*
X88547500Y60150000D01*
X88547500Y60150000D02*
X87547500Y60150000D01*
X87547500Y60150000D02*
X88047500Y59450000D01*
X88397500Y59450000D02*
X87647500Y59450000D01*
X88047500Y59550000D02*
X88047500Y59050000D01*
X88047500Y60150000D02*
X88047500Y60650000D01*
X84147500Y62550000D02*
X84147500Y57350000D01*
X84147500Y57350000D02*
X82347500Y57350000D01*
X82347500Y62550000D02*
X82347500Y57350000D01*
X84147500Y62550000D02*
X82347500Y62550000D01*
X83247500Y59550000D02*
X83747500Y60250000D01*
X83747500Y60250000D02*
X82747500Y60250000D01*
X82747500Y60250000D02*
X83247500Y59550000D01*
X83597500Y59550000D02*
X82847500Y59550000D01*
X83247500Y59650000D02*
X83247500Y59150000D01*
X83247500Y60250000D02*
X83247500Y60750000D01*
X86647500Y56550000D02*
X86647500Y51350000D01*
X86647500Y51350000D02*
X84847500Y51350000D01*
X84847500Y56550000D02*
X84847500Y51350000D01*
X86647500Y56550000D02*
X84847500Y56550000D01*
X85747500Y53550000D02*
X86247500Y54250000D01*
X86247500Y54250000D02*
X85247500Y54250000D01*
X85247500Y54250000D02*
X85747500Y53550000D01*
X86097500Y53550000D02*
X85347500Y53550000D01*
X85747500Y53650000D02*
X85747500Y53150000D01*
X85747500Y54250000D02*
X85747500Y54750000D01*
X81647500Y56550000D02*
X81647500Y51350000D01*
X81647500Y51350000D02*
X79847500Y51350000D01*
X79847500Y56550000D02*
X79847500Y51350000D01*
X81647500Y56550000D02*
X79847500Y56550000D01*
X80747500Y53550000D02*
X81247500Y54250000D01*
X81247500Y54250000D02*
X80247500Y54250000D01*
X80247500Y54250000D02*
X80747500Y53550000D01*
X81097500Y53550000D02*
X80347500Y53550000D01*
X80747500Y53650000D02*
X80747500Y53150000D01*
X80747500Y54250000D02*
X80747500Y54750000D01*
X70097500Y62550000D02*
X70097500Y57350000D01*
X70097500Y57350000D02*
X68297500Y57350000D01*
X68297500Y62550000D02*
X68297500Y57350000D01*
X70097500Y62550000D02*
X68297500Y62550000D01*
X69197500Y59550000D02*
X69697500Y60250000D01*
X69697500Y60250000D02*
X68697500Y60250000D01*
X68697500Y60250000D02*
X69197500Y59550000D01*
X69547500Y59550000D02*
X68797500Y59550000D01*
X69197500Y59650000D02*
X69197500Y59150000D01*
X69197500Y60250000D02*
X69197500Y60750000D01*
X65097500Y62550000D02*
X65097500Y57350000D01*
X65097500Y57350000D02*
X63297500Y57350000D01*
X63297500Y62550000D02*
X63297500Y57350000D01*
X65097500Y62550000D02*
X63297500Y62550000D01*
X64197500Y59550000D02*
X64697500Y60250000D01*
X64697500Y60250000D02*
X63697500Y60250000D01*
X63697500Y60250000D02*
X64197500Y59550000D01*
X64547500Y59550000D02*
X63797500Y59550000D01*
X64197500Y59650000D02*
X64197500Y59150000D01*
X64197500Y60250000D02*
X64197500Y60750000D01*
X72597500Y56450000D02*
X72597500Y51250000D01*
X72597500Y51250000D02*
X70797500Y51250000D01*
X70797500Y56450000D02*
X70797500Y51250000D01*
X72597500Y56450000D02*
X70797500Y56450000D01*
X71697500Y53450000D02*
X72197500Y54150000D01*
X72197500Y54150000D02*
X71197500Y54150000D01*
X71197500Y54150000D02*
X71697500Y53450000D01*
X72047500Y53450000D02*
X71297500Y53450000D01*
X71697500Y53550000D02*
X71697500Y53050000D01*
X71697500Y54150000D02*
X71697500Y54650000D01*
X67597500Y56450000D02*
X67597500Y51250000D01*
X67597500Y51250000D02*
X65797500Y51250000D01*
X65797500Y56450000D02*
X65797500Y51250000D01*
X67597500Y56450000D02*
X65797500Y56450000D01*
X66697500Y53450000D02*
X67197500Y54150000D01*
X67197500Y54150000D02*
X66197500Y54150000D01*
X66197500Y54150000D02*
X66697500Y53450000D01*
X67047500Y53450000D02*
X66297500Y53450000D01*
X66697500Y53550000D02*
X66697500Y53050000D01*
X66697500Y54150000D02*
X66697500Y54650000D01*
X62597500Y56450000D02*
X62597500Y51250000D01*
X62597500Y51250000D02*
X60797500Y51250000D01*
X60797500Y56450000D02*
X60797500Y51250000D01*
X62597500Y56450000D02*
X60797500Y56450000D01*
X61697500Y53450000D02*
X62197500Y54150000D01*
X62197500Y54150000D02*
X61197500Y54150000D01*
X61197500Y54150000D02*
X61697500Y53450000D01*
X62047500Y53450000D02*
X61297500Y53450000D01*
X61697500Y53550000D02*
X61697500Y53050000D01*
X61697500Y54150000D02*
X61697500Y54650000D01*
X51047500Y62550000D02*
X51047500Y57350000D01*
X51047500Y57350000D02*
X49247500Y57350000D01*
X49247500Y62550000D02*
X49247500Y57350000D01*
X51047500Y62550000D02*
X49247500Y62550000D01*
X50147500Y59550000D02*
X50647500Y60250000D01*
X50647500Y60250000D02*
X49647500Y60250000D01*
X49647500Y60250000D02*
X50147500Y59550000D01*
X50497500Y59550000D02*
X49747500Y59550000D01*
X50147500Y59650000D02*
X50147500Y59150000D01*
X50147500Y60250000D02*
X50147500Y60750000D01*
X46047500Y62550000D02*
X46047500Y57350000D01*
X46047500Y57350000D02*
X44247500Y57350000D01*
X44247500Y62550000D02*
X44247500Y57350000D01*
X46047500Y62550000D02*
X44247500Y62550000D01*
X45147500Y59550000D02*
X45647500Y60250000D01*
X45647500Y60250000D02*
X44647500Y60250000D01*
X44647500Y60250000D02*
X45147500Y59550000D01*
X45497500Y59550000D02*
X44747500Y59550000D01*
X45147500Y59650000D02*
X45147500Y59150000D01*
X45147500Y60250000D02*
X45147500Y60750000D01*
X53547500Y56450000D02*
X53547500Y51250000D01*
X53547500Y51250000D02*
X51747500Y51250000D01*
X51747500Y56450000D02*
X51747500Y51250000D01*
X53547500Y56450000D02*
X51747500Y56450000D01*
X52647500Y53450000D02*
X53147500Y54150000D01*
X53147500Y54150000D02*
X52147500Y54150000D01*
X52147500Y54150000D02*
X52647500Y53450000D01*
X52997500Y53450000D02*
X52247500Y53450000D01*
X52647500Y53550000D02*
X52647500Y53050000D01*
X52647500Y54150000D02*
X52647500Y54650000D01*
X48547500Y56450000D02*
X48547500Y51250000D01*
X48547500Y51250000D02*
X46747500Y51250000D01*
X46747500Y56450000D02*
X46747500Y51250000D01*
X48547500Y56450000D02*
X46747500Y56450000D01*
X47647500Y53450000D02*
X48147500Y54150000D01*
X48147500Y54150000D02*
X47147500Y54150000D01*
X47147500Y54150000D02*
X47647500Y53450000D01*
X47997500Y53450000D02*
X47247500Y53450000D01*
X47647500Y53550000D02*
X47647500Y53050000D01*
X47647500Y54150000D02*
X47647500Y54650000D01*
X43547500Y56450000D02*
X43547500Y51250000D01*
X43547500Y51250000D02*
X41747500Y51250000D01*
X41747500Y56450000D02*
X41747500Y51250000D01*
X43547500Y56450000D02*
X41747500Y56450000D01*
X42647500Y53450000D02*
X43147500Y54150000D01*
X43147500Y54150000D02*
X42147500Y54150000D01*
X42147500Y54150000D02*
X42647500Y53450000D01*
X42997500Y53450000D02*
X42247500Y53450000D01*
X42647500Y53550000D02*
X42647500Y53050000D01*
X42647500Y54150000D02*
X42647500Y54650000D01*
X31997500Y62550000D02*
X31997500Y57350000D01*
X31997500Y57350000D02*
X30197500Y57350000D01*
X30197500Y62550000D02*
X30197500Y57350000D01*
X31997500Y62550000D02*
X30197500Y62550000D01*
X31097500Y59550000D02*
X31597500Y60250000D01*
X31597500Y60250000D02*
X30597500Y60250000D01*
X30597500Y60250000D02*
X31097500Y59550000D01*
X31447500Y59550000D02*
X30697500Y59550000D01*
X31097500Y59650000D02*
X31097500Y59150000D01*
X31097500Y60250000D02*
X31097500Y60750000D01*
X34497500Y56450000D02*
X34497500Y51250000D01*
X34497500Y51250000D02*
X32697500Y51250000D01*
X32697500Y56450000D02*
X32697500Y51250000D01*
X34497500Y56450000D02*
X32697500Y56450000D01*
X33597500Y53450000D02*
X34097500Y54150000D01*
X34097500Y54150000D02*
X33097500Y54150000D01*
X33097500Y54150000D02*
X33597500Y53450000D01*
X33947500Y53450000D02*
X33197500Y53450000D01*
X33597500Y53550000D02*
X33597500Y53050000D01*
X33597500Y54150000D02*
X33597500Y54650000D01*
X29497500Y56450000D02*
X29497500Y51250000D01*
X29497500Y51250000D02*
X27697500Y51250000D01*
X27697500Y56450000D02*
X27697500Y51250000D01*
X29497500Y56450000D02*
X27697500Y56450000D01*
X28597500Y53450000D02*
X29097500Y54150000D01*
X29097500Y54150000D02*
X28097500Y54150000D01*
X28097500Y54150000D02*
X28597500Y53450000D01*
X28947500Y53450000D02*
X28197500Y53450000D01*
X28597500Y53550000D02*
X28597500Y53050000D01*
X28597500Y54150000D02*
X28597500Y54650000D01*
X24597500Y56450000D02*
X24597500Y51250000D01*
X24597500Y51250000D02*
X22797500Y51250000D01*
X22797500Y56450000D02*
X22797500Y51250000D01*
X24597500Y56450000D02*
X22797500Y56450000D01*
X23697500Y53450000D02*
X24197500Y54150000D01*
X24197500Y54150000D02*
X23197500Y54150000D01*
X23197500Y54150000D02*
X23697500Y53450000D01*
X24047500Y53450000D02*
X23297500Y53450000D01*
X23697500Y53550000D02*
X23697500Y53050000D01*
X23697500Y54150000D02*
X23697500Y54650000D01*
X7947500Y62550000D02*
X7947500Y57350000D01*
X7947500Y57350000D02*
X6147500Y57350000D01*
X6147500Y62550000D02*
X6147500Y57350000D01*
X7947500Y62550000D02*
X6147500Y62550000D01*
X7047500Y59550000D02*
X7547500Y60250000D01*
X7547500Y60250000D02*
X6547500Y60250000D01*
X6547500Y60250000D02*
X7047500Y59550000D01*
X7397500Y59550000D02*
X6647500Y59550000D01*
X7047500Y59650000D02*
X7047500Y59150000D01*
X7047500Y60250000D02*
X7047500Y60750000D01*
X15347500Y56450000D02*
X15347500Y51250000D01*
X15347500Y51250000D02*
X13547500Y51250000D01*
X13547500Y56450000D02*
X13547500Y51250000D01*
X15347500Y56450000D02*
X13547500Y56450000D01*
X14447500Y53450000D02*
X14947500Y54150000D01*
X14947500Y54150000D02*
X13947500Y54150000D01*
X13947500Y54150000D02*
X14447500Y53450000D01*
X14797500Y53450000D02*
X14047500Y53450000D01*
X14447500Y53550000D02*
X14447500Y53050000D01*
X14447500Y54150000D02*
X14447500Y54650000D01*
X10447500Y56450000D02*
X10447500Y51250000D01*
X10447500Y51250000D02*
X8647500Y51250000D01*
X8647500Y56450000D02*
X8647500Y51250000D01*
X10447500Y56450000D02*
X8647500Y56450000D01*
X9547500Y53450000D02*
X10047500Y54150000D01*
X10047500Y54150000D02*
X9047500Y54150000D01*
X9047500Y54150000D02*
X9547500Y53450000D01*
X9897500Y53450000D02*
X9147500Y53450000D01*
X9547500Y53550000D02*
X9547500Y53050000D01*
X9547500Y54150000D02*
X9547500Y54650000D01*
X5847500Y56450000D02*
X5847500Y51250000D01*
X5847500Y51250000D02*
X4047500Y51250000D01*
X4047500Y56450000D02*
X4047500Y51250000D01*
X5847500Y56450000D02*
X4047500Y56450000D01*
X4947500Y53450000D02*
X5447500Y54150000D01*
X5447500Y54150000D02*
X4447500Y54150000D01*
X4447500Y54150000D02*
X4947500Y53450000D01*
X5297500Y53450000D02*
X4547500Y53450000D01*
X4947500Y53550000D02*
X4947500Y53050000D01*
X4947500Y54150000D02*
X4947500Y54650000D01*
D13*
%LPC*%
D14*
X2540000Y35660000D03*
X2540000Y40740000D03*
X2540000Y38200000D03*
D15*
X14580000Y64650000D03*
X4420000Y64650000D03*
D16*
X5690000Y67190000D03*
X12040000Y69730000D03*
D17*
X15000000Y64650000D03*
X4000000Y64650000D03*
D18*
X9500000Y64650000D03*
D15*
X90780000Y64650000D03*
X80620000Y64650000D03*
D16*
X81890000Y67190000D03*
X88240000Y69730000D03*
D17*
X91200000Y64650000D03*
X80200000Y64650000D03*
D18*
X85700000Y64650000D03*
D15*
X52680000Y64650000D03*
X42520000Y64650000D03*
D16*
X43790000Y67190000D03*
X50140000Y69730000D03*
D17*
X53100000Y64650000D03*
X42100000Y64650000D03*
D18*
X47600000Y64650000D03*
D15*
X90780000Y83700000D03*
X80620000Y83700000D03*
D16*
X81890000Y86240000D03*
X88240000Y88780000D03*
D17*
X91200000Y83700000D03*
X80200000Y83700000D03*
D18*
X85700000Y83700000D03*
D15*
X33630000Y64650000D03*
X23470000Y64650000D03*
D16*
X24740000Y67190000D03*
X31090000Y69730000D03*
D17*
X34050000Y64650000D03*
X23050000Y64650000D03*
D18*
X28550000Y64650000D03*
D15*
X71730000Y64650000D03*
X61570000Y64650000D03*
D16*
X62840000Y67190000D03*
X69190000Y69730000D03*
D17*
X72150000Y64650000D03*
X61150000Y64650000D03*
D18*
X66650000Y64650000D03*
D15*
X90780000Y45600000D03*
X80620000Y45600000D03*
D16*
X81890000Y48140000D03*
X88240000Y50680000D03*
D17*
X91200000Y45600000D03*
X80200000Y45600000D03*
D18*
X85700000Y45600000D03*
D15*
X90780000Y26550000D03*
X80620000Y26550000D03*
D16*
X81890000Y29090000D03*
X88240000Y31630000D03*
D17*
X91200000Y26550000D03*
X80200000Y26550000D03*
D18*
X85700000Y26550000D03*
D15*
X90780000Y7500000D03*
X80620000Y7500000D03*
D16*
X81890000Y10040000D03*
X88240000Y12580000D03*
D17*
X91200000Y7500000D03*
X80200000Y7500000D03*
D18*
X85700000Y7500000D03*
D15*
X71730000Y83700000D03*
X61570000Y83700000D03*
D16*
X62840000Y86240000D03*
X69190000Y88780000D03*
D17*
X72150000Y83700000D03*
X61150000Y83700000D03*
D18*
X66650000Y83700000D03*
D15*
X71730000Y45600000D03*
X61570000Y45600000D03*
D16*
X62840000Y48140000D03*
X69190000Y50680000D03*
D17*
X72150000Y45600000D03*
X61150000Y45600000D03*
D18*
X66650000Y45600000D03*
D15*
X71730000Y26550000D03*
X61570000Y26550000D03*
D16*
X62840000Y29090000D03*
X69190000Y31630000D03*
D17*
X72150000Y26550000D03*
X61150000Y26550000D03*
D18*
X66650000Y26550000D03*
D15*
X71730000Y7500000D03*
X61570000Y7500000D03*
D16*
X62840000Y10040000D03*
X69190000Y12580000D03*
D17*
X72150000Y7500000D03*
X61150000Y7500000D03*
D18*
X66650000Y7500000D03*
D15*
X52680000Y83700000D03*
X42520000Y83700000D03*
D16*
X43790000Y86240000D03*
X50140000Y88780000D03*
D17*
X53100000Y83700000D03*
X42100000Y83700000D03*
D18*
X47600000Y83700000D03*
D15*
X52680000Y45600000D03*
X42520000Y45600000D03*
D16*
X43790000Y48140000D03*
X50140000Y50680000D03*
D17*
X53100000Y45600000D03*
X42100000Y45600000D03*
D18*
X47600000Y45600000D03*
D15*
X52680000Y26550000D03*
X42520000Y26550000D03*
D16*
X43790000Y29090000D03*
X50140000Y31630000D03*
D17*
X53100000Y26550000D03*
X42100000Y26550000D03*
D18*
X47600000Y26550000D03*
D15*
X52680000Y7500000D03*
X42520000Y7500000D03*
D16*
X43790000Y10040000D03*
X50140000Y12580000D03*
D17*
X53100000Y7500000D03*
X42100000Y7500000D03*
D18*
X47600000Y7500000D03*
D15*
X33630000Y45600000D03*
X23470000Y45600000D03*
D16*
X24740000Y48140000D03*
X31090000Y50680000D03*
D17*
X34050000Y45600000D03*
X23050000Y45600000D03*
D18*
X28550000Y45600000D03*
D15*
X33630000Y26550000D03*
X23470000Y26550000D03*
D16*
X24740000Y29090000D03*
X31090000Y31630000D03*
D17*
X34050000Y26550000D03*
X23050000Y26550000D03*
D18*
X28550000Y26550000D03*
D15*
X33630000Y7500000D03*
X23470000Y7500000D03*
D16*
X24740000Y10040000D03*
X31090000Y12580000D03*
D17*
X34050000Y7500000D03*
X23050000Y7500000D03*
D18*
X28550000Y7500000D03*
D15*
X14580000Y45600000D03*
X4420000Y45600000D03*
D16*
X5690000Y48140000D03*
X12040000Y50680000D03*
D17*
X15000000Y45600000D03*
X4000000Y45600000D03*
D18*
X9500000Y45600000D03*
D15*
X14580000Y26550000D03*
X4420000Y26550000D03*
D16*
X5690000Y29090000D03*
X12040000Y31630000D03*
D17*
X15000000Y26550000D03*
X4000000Y26550000D03*
D18*
X9500000Y26550000D03*
D15*
X14580000Y7500000D03*
X4420000Y7500000D03*
D16*
X5690000Y10040000D03*
X12040000Y12580000D03*
D17*
X15000000Y7500000D03*
X4000000Y7500000D03*
D18*
X9500000Y7500000D03*
D17*
X93980000Y73540000D03*
X93980000Y71000000D03*
X93980000Y68460000D03*
X93980000Y65920000D03*
X93980000Y63380000D03*
X93980000Y60840000D03*
X93980000Y58300000D03*
X93980000Y55760000D03*
D19*
X33087000Y75741400D03*
X30547000Y75741400D03*
X28007000Y75741400D03*
X25467000Y75741400D03*
X22927000Y75741400D03*
X20387000Y75741400D03*
X17847000Y75741400D03*
X15307000Y75741400D03*
X12767000Y75741400D03*
X10227000Y75741400D03*
X7687000Y75741400D03*
X33087000Y90961400D03*
X30547000Y90961400D03*
X28007000Y90961400D03*
X25467000Y90961400D03*
X22927000Y90961400D03*
X20387000Y90961400D03*
X17847000Y90961400D03*
X15307000Y90961400D03*
X12767000Y90961400D03*
X10227000Y90961400D03*
X7687000Y90961400D03*
X5147000Y90961400D03*
X5147000Y75741400D03*
D20*
X36250000Y79400000D03*
X36250000Y81940000D03*
X36250000Y84480000D03*
X36250000Y87020000D03*
D21*
X90047500Y52375000D03*
X90047500Y55925000D03*
X88047500Y58075000D03*
X88047500Y61625000D03*
X83247500Y58175000D03*
X83247500Y61725000D03*
X85747500Y52175000D03*
X85747500Y55725000D03*
X80747500Y52175000D03*
X80747500Y55725000D03*
X69197500Y58175000D03*
X69197500Y61725000D03*
X64197500Y58175000D03*
X64197500Y61725000D03*
X71697500Y52075000D03*
X71697500Y55625000D03*
X66697500Y52075000D03*
X66697500Y55625000D03*
X61697500Y52075000D03*
X61697500Y55625000D03*
X50147500Y58175000D03*
X50147500Y61725000D03*
X45147500Y58175000D03*
X45147500Y61725000D03*
X52647500Y52075000D03*
X52647500Y55625000D03*
X47647500Y52075000D03*
X47647500Y55625000D03*
X42647500Y52075000D03*
X42647500Y55625000D03*
X31097500Y58175000D03*
X31097500Y61725000D03*
X33597500Y52075000D03*
X33597500Y55625000D03*
X28597500Y52075000D03*
X28597500Y55625000D03*
X23697500Y52075000D03*
X23697500Y55625000D03*
X7047500Y58175000D03*
X7047500Y61725000D03*
X14447500Y52075000D03*
X14447500Y55625000D03*
X9547500Y52075000D03*
X9547500Y55625000D03*
X4947500Y52075000D03*
X4947500Y55625000D03*
D22*
X18820000Y85250000D03*
X18820000Y82710000D03*
X18820000Y80170000D03*
X16280000Y82710000D03*
X16280000Y85250000D03*
X16280000Y87790000D03*
D23*
X1600000Y87500000D03*
X8100000Y87500000D03*
D24*
X2850000Y82450000D03*
X9850000Y82450000D03*
D25*
X4650000Y84550000D03*
X7650000Y84550000D03*
X11650000Y84550000D03*
X13150000Y80350000D03*
D26*
X26250000Y87440000D03*
X26250000Y79820000D03*
X23450000Y79820000D03*
X23450000Y87440000D03*
M02*
