M48
; DRILL file {KiCad (5.1.2)-2} date 2020/05/18 12:29:49
; FORMAT={3:3/ absolute / metric / suppress leading zeros}
; #@! TF.CreationDate,2020-05-18T12:29:49+09:00
; #@! TF.GenerationSoftware,Kicad,Pcbnew,(5.1.2)-2
FMAT,2
METRIC,TZ
T1C0.600
T2C0.800
T3C0.900
T4C1.200
T5C1.500
T6C1.200
T7C1.700
T8C1.900
T9C3.000
T10C4.000
T11C4.100
%
G90
G05
T2
X36250Y87020
X36250Y84480
X36250Y81940
X36250Y79400
X26250Y87440
X26250Y79820
X23450Y87440
X23450Y79820
X5147Y90961
X5147Y75741
X7687Y90961
X7687Y75741
X10227Y90961
X10227Y75741
X12767Y90961
X12767Y75741
X15307Y90961
X15307Y75741
X17847Y90961
X17847Y75741
X20387Y90961
X20387Y75741
X22927Y90961
X22927Y75741
X25467Y90961
X25467Y75741
X28007Y90961
X28007Y75741
X30547Y90961
X30547Y75741
X33087Y90961
X33087Y75741
X16280Y87790
X16280Y85250
X16280Y82710
X18820Y85250
X18820Y82710
X18820Y80170
T3
X93980Y73540
X93980Y71000
X93980Y68460
X93980Y65920
X93980Y63380
X93980Y60840
X93980Y58300
X93980Y55760
T4
X1600Y87500
X8100Y87500
T5
X81890Y67190
X88240Y69730
X62840Y48140
X69190Y50680
X24740Y29090
X31090Y31630
X43790Y86240
X50140Y88780
X62840Y29090
X69190Y31630
X5690Y29090
X12040Y31630
X24740Y67190
X31090Y69730
X81890Y10040
X88240Y12580
X43790Y48140
X50140Y50680
X5690Y48140
X12040Y50680
X43790Y10040
X50140Y12580
X5690Y10040
X12040Y12580
X62840Y67190
X69190Y69730
X81890Y29090
X88240Y31630
X62840Y86240
X69190Y88780
X43790Y29090
X50140Y31630
X5690Y67190
X12040Y69730
X24740Y10040
X31090Y12580
X62840Y10040
X69190Y12580
X24740Y48140
X31090Y50680
X81890Y86240
X88240Y88780
X43790Y67190
X50140Y69730
X81890Y48140
X88240Y50680
T6
X2850Y82450
X9850Y82450
T7
X23470Y64650
X33630Y64650
X80620Y7500
X90780Y7500
X42520Y45600
X52680Y45600
X4420Y45600
X14580Y45600
X42520Y7500
X52680Y7500
X4420Y7500
X14580Y7500
X61570Y64650
X71730Y64650
X80620Y26550
X90780Y26550
X61570Y83700
X71730Y83700
X42520Y26550
X52680Y26550
X4420Y64650
X14580Y64650
X23470Y7500
X33630Y7500
X61570Y7500
X71730Y7500
X23470Y45600
X33630Y45600
X80620Y83700
X90780Y83700
X42520Y64650
X52680Y64650
X80620Y45600
X90780Y45600
X80620Y64650
X90780Y64650
X61570Y45600
X71730Y45600
X23470Y26550
X33630Y26550
X42520Y83700
X52680Y83700
X61570Y26550
X71730Y26550
X4420Y26550
X14580Y26550
T8
X61150Y64650
X72150Y64650
X80200Y26550
X91200Y26550
X61150Y83700
X72150Y83700
X42100Y26550
X53100Y26550
X4000Y64650
X15000Y64650
X23050Y7500
X34050Y7500
X61150Y7500
X72150Y7500
X23050Y45600
X34050Y45600
X80200Y83700
X91200Y83700
X42100Y64650
X53100Y64650
X80200Y45600
X91200Y45600
X80200Y64650
X91200Y64650
X61150Y45600
X72150Y45600
X23050Y26550
X34050Y26550
X42100Y83700
X53100Y83700
X61150Y26550
X72150Y26550
X4000Y26550
X15000Y26550
X23050Y64650
X34050Y64650
X80200Y7500
X91200Y7500
X42100Y45600
X53100Y45600
X4000Y45600
X15000Y45600
X42100Y7500
X53100Y7500
X4000Y7500
X15000Y7500
T9
X36300Y75870
T10
X47600Y64650
X85700Y45600
X85700Y64650
X66650Y45600
X28550Y26550
X47600Y83700
X66650Y26550
X9500Y26550
X28550Y64650
X85700Y7500
X47600Y45600
X9500Y45600
X47600Y7500
X9500Y7500
X66650Y64650
X85700Y26550
X66650Y83700
X47600Y26550
X9500Y64650
X28550Y7500
X66650Y7500
X28550Y45600
X85700Y83700
T11
X19050Y17050
X57150Y36100
X76200Y74200
X76200Y36100
X57150Y74200
X19050Y36100
X38100Y55150
X38100Y17050
X57150Y55150
X38100Y36100
X19050Y55150
X76200Y55150
X76200Y17050
X57150Y17050
T1
G00X4200Y84550
M15
G01X5100Y84550
M16
G05
G00X7200Y84550
M15
G01X8100Y84550
M16
G05
G00X11200Y84550
M15
G01X12100Y84550
M16
G05
G00X12700Y80350
M15
G01X13600Y80350
M16
G05
T0
M30
