G04 #@! TF.GenerationSoftware,KiCad,Pcbnew,(5.1.2)-2*
G04 #@! TF.CreationDate,2020-05-18T12:28:55+09:00*
G04 #@! TF.ProjectId,_5x4+3______Ver1.03,f3357834-2b33-4adf-9cdc-fcc95f566572,rev?*
G04 #@! TF.SameCoordinates,Original*
G04 #@! TF.FileFunction,Soldermask,Top*
G04 #@! TF.FilePolarity,Negative*
%FSLAX46Y46*%
G04 Gerber Fmt 4.6, Leading zero omitted, Abs format (unit mm)*
G04 Created by KiCad (PCBNEW (5.1.2)-2) date 2020-05-18 12:28:55*
%MOMM*%
%LPD*%
G04 APERTURE LIST*
%ADD10C,1.900000*%
%ADD11C,2.100000*%
%ADD12C,4.200000*%
%ADD13C,3.200000*%
%ADD14C,4.300000*%
%ADD15C,1.400000*%
G04 APERTURE END LIST*
D10*
X14580000Y64650000D03*
X4420000Y64650000D03*
D11*
X15000000Y64650000D03*
X4000000Y64650000D03*
D12*
X9500000Y64650000D03*
D10*
X90780000Y64650000D03*
X80620000Y64650000D03*
D11*
X91200000Y64650000D03*
X80200000Y64650000D03*
D12*
X85700000Y64650000D03*
D10*
X52680000Y64650000D03*
X42520000Y64650000D03*
D11*
X53100000Y64650000D03*
X42100000Y64650000D03*
D12*
X47600000Y64650000D03*
D10*
X90780000Y83700000D03*
X80620000Y83700000D03*
D11*
X91200000Y83700000D03*
X80200000Y83700000D03*
D12*
X85700000Y83700000D03*
D10*
X33630000Y64650000D03*
X23470000Y64650000D03*
D11*
X34050000Y64650000D03*
X23050000Y64650000D03*
D12*
X28550000Y64650000D03*
D10*
X71730000Y64650000D03*
X61570000Y64650000D03*
D11*
X72150000Y64650000D03*
X61150000Y64650000D03*
D12*
X66650000Y64650000D03*
D10*
X90780000Y45600000D03*
X80620000Y45600000D03*
D11*
X91200000Y45600000D03*
X80200000Y45600000D03*
D12*
X85700000Y45600000D03*
D10*
X90780000Y26550000D03*
X80620000Y26550000D03*
D11*
X91200000Y26550000D03*
X80200000Y26550000D03*
D12*
X85700000Y26550000D03*
D10*
X90780000Y7500000D03*
X80620000Y7500000D03*
D11*
X91200000Y7500000D03*
X80200000Y7500000D03*
D12*
X85700000Y7500000D03*
D10*
X71730000Y83700000D03*
X61570000Y83700000D03*
D11*
X72150000Y83700000D03*
X61150000Y83700000D03*
D12*
X66650000Y83700000D03*
D10*
X71730000Y45600000D03*
X61570000Y45600000D03*
D11*
X72150000Y45600000D03*
X61150000Y45600000D03*
D12*
X66650000Y45600000D03*
D10*
X71730000Y26550000D03*
X61570000Y26550000D03*
D11*
X72150000Y26550000D03*
X61150000Y26550000D03*
D12*
X66650000Y26550000D03*
D10*
X71730000Y7500000D03*
X61570000Y7500000D03*
D11*
X72150000Y7500000D03*
X61150000Y7500000D03*
D12*
X66650000Y7500000D03*
D10*
X52680000Y83700000D03*
X42520000Y83700000D03*
D11*
X53100000Y83700000D03*
X42100000Y83700000D03*
D12*
X47600000Y83700000D03*
D10*
X52680000Y45600000D03*
X42520000Y45600000D03*
D11*
X53100000Y45600000D03*
X42100000Y45600000D03*
D12*
X47600000Y45600000D03*
D10*
X52680000Y26550000D03*
X42520000Y26550000D03*
D11*
X53100000Y26550000D03*
X42100000Y26550000D03*
D12*
X47600000Y26550000D03*
D10*
X52680000Y7500000D03*
X42520000Y7500000D03*
D11*
X53100000Y7500000D03*
X42100000Y7500000D03*
D12*
X47600000Y7500000D03*
D10*
X33630000Y45600000D03*
X23470000Y45600000D03*
D11*
X34050000Y45600000D03*
X23050000Y45600000D03*
D12*
X28550000Y45600000D03*
D10*
X33630000Y26550000D03*
X23470000Y26550000D03*
D11*
X34050000Y26550000D03*
X23050000Y26550000D03*
D12*
X28550000Y26550000D03*
D10*
X33630000Y7500000D03*
X23470000Y7500000D03*
D11*
X34050000Y7500000D03*
X23050000Y7500000D03*
D12*
X28550000Y7500000D03*
D10*
X14580000Y45600000D03*
X4420000Y45600000D03*
D11*
X15000000Y45600000D03*
X4000000Y45600000D03*
D12*
X9500000Y45600000D03*
D10*
X14580000Y26550000D03*
X4420000Y26550000D03*
D11*
X15000000Y26550000D03*
X4000000Y26550000D03*
D12*
X9500000Y26550000D03*
D10*
X14580000Y7500000D03*
X4420000Y7500000D03*
D11*
X15000000Y7500000D03*
X4000000Y7500000D03*
D12*
X9500000Y7500000D03*
D13*
X36300000Y75870000D03*
D14*
X57150000Y74200000D03*
X76200000Y74200000D03*
X19050000Y55150000D03*
X38100000Y55150000D03*
X57150000Y55150000D03*
X76200000Y55150000D03*
X19050000Y36100000D03*
X38100000Y36100000D03*
X57150000Y36100000D03*
X76200000Y36100000D03*
X19050000Y17050000D03*
X38100000Y17050000D03*
X57150000Y17050000D03*
X76200000Y17050000D03*
D15*
X9850000Y82450000D03*
M02*
