G04 #@! TF.GenerationSoftware,KiCad,Pcbnew,(5.1.2)-2*
G04 #@! TF.CreationDate,2020-05-18T21:57:40+09:00*
G04 #@! TF.ProjectId,sekimen______________,73656b69-6d65-46ee-9135-d7ecfcc828c8,rev?*
G04 #@! TF.SameCoordinates,Original*
G04 #@! TF.FileFunction,Copper,L2,Bot*
G04 #@! TF.FilePolarity,Positive*
%FSLAX46Y46*%
G04 Gerber Fmt 4.6, Leading zero omitted, Abs format (unit mm)*
G04 Created by KiCad (PCBNEW (5.1.2)-2) date 2020-05-18 21:57:40*
%MOMM*%
%LPD*%
G04 APERTURE LIST*
%ADD10C,1.400000*%
%ADD11C,0.500000*%
%ADD12C,0.254000*%
G04 APERTURE END LIST*
D10*
X1270000Y89480000D03*
X1270000Y39820000D03*
X1270000Y1720000D03*
X-3270000Y89480000D03*
X-3270000Y39820000D03*
X-3270000Y1720000D03*
D11*
X16884688Y73615470D02*
X16884688Y75841990D01*
X17358010Y73142148D02*
X16884688Y73615470D01*
X17358010Y57265312D02*
X17358010Y73142148D01*
X16884688Y56791990D02*
X17358010Y57265312D01*
X16884688Y53458010D02*
X16884688Y56791990D01*
X1270000Y38587302D02*
X2115312Y37741990D01*
X16884688Y75841990D02*
X17358010Y76315312D01*
X2115312Y37741990D02*
X16884688Y37741990D01*
X16884688Y37741990D02*
X17358010Y38215312D01*
X1270000Y39820000D02*
X1270000Y38587302D01*
X17358010Y38215312D02*
X17358010Y52984688D01*
X17358010Y76315312D02*
X17358010Y91084688D01*
X17358010Y52984688D02*
X16884688Y53458010D01*
X2378651Y91821349D02*
X16621349Y91821349D01*
X1270000Y90712698D02*
X2378651Y91821349D01*
X1270000Y89480000D02*
X1270000Y90712698D01*
X17358010Y91084688D02*
X16621349Y91821349D01*
X-3270000Y38637302D02*
X-3270000Y38830051D01*
X-18934688Y37741990D02*
X-4165312Y37741990D01*
X-3270000Y38830051D02*
X-3270000Y39820000D01*
X-19408010Y38215312D02*
X-18934688Y37741990D01*
X-18934688Y53458010D02*
X-19408010Y52984688D01*
X-18934688Y55784530D02*
X-18934688Y53458010D01*
X-19408010Y56257852D02*
X-18934688Y55784530D01*
X-19408010Y72034688D02*
X-19408010Y56257852D01*
X-18934688Y72508010D02*
X-19408010Y72034688D01*
X-18934688Y75841990D02*
X-18934688Y72508010D01*
X-4165312Y37741990D02*
X-3270000Y38637302D01*
X-19408010Y76315312D02*
X-18934688Y75841990D01*
X-19408010Y52984688D02*
X-19408010Y38215312D01*
X-19408010Y91084688D02*
X-19408010Y76315312D01*
X-18934688Y91558010D02*
X-19408010Y91084688D01*
X-4165312Y91558010D02*
X-18934688Y91558010D01*
X-3270000Y90662698D02*
X-4165312Y91558010D01*
X-3270000Y89480000D02*
X-3270000Y90662698D01*
D12*
G36*
X36354782Y92486733D02*
G01*
X36599855Y92412741D01*
X36825890Y92292557D01*
X37024281Y92130752D01*
X37187460Y91933503D01*
X37309220Y91708313D01*
X37384924Y91463753D01*
X37415000Y91177602D01*
X37415001Y33516D01*
X37386733Y-254782D01*
X37312741Y-499855D01*
X37192554Y-725893D01*
X37030754Y-924279D01*
X36833503Y-1087460D01*
X36608310Y-1209221D01*
X36363753Y-1284924D01*
X36077602Y-1315000D01*
X2033505Y-1315000D01*
X1745218Y-1286733D01*
X1500145Y-1212741D01*
X1274107Y-1092554D01*
X1075721Y-930754D01*
X912540Y-733503D01*
X790779Y-508310D01*
X715076Y-263753D01*
X685000Y22398D01*
X685000Y519755D01*
X826242Y454066D01*
X1081740Y391817D01*
X1344473Y380610D01*
X1604344Y420875D01*
X1764580Y479378D01*
X1761686Y450000D01*
X1774912Y315717D01*
X1814081Y186594D01*
X1877688Y67593D01*
X1963289Y-36711D01*
X2046512Y-105011D01*
X2067593Y-122312D01*
X2186594Y-185919D01*
X2315717Y-225088D01*
X2450000Y-238314D01*
X2483647Y-235000D01*
X16516353Y-235000D01*
X16550000Y-238314D01*
X16684283Y-225088D01*
X16813406Y-185919D01*
X16932407Y-122312D01*
X17036711Y-36711D01*
X17122312Y67593D01*
X17185919Y186594D01*
X17225088Y315717D01*
X17235000Y416353D01*
X17235000Y416354D01*
X17238314Y450000D01*
X17235000Y483647D01*
X17235000Y14516353D01*
X17238314Y14550000D01*
X20811686Y14550000D01*
X20815001Y14516343D01*
X20815000Y483647D01*
X20811686Y450000D01*
X20824912Y315717D01*
X20864081Y186594D01*
X20927688Y67593D01*
X21013289Y-36711D01*
X21096512Y-105011D01*
X21117593Y-122312D01*
X21236594Y-185919D01*
X21365717Y-225088D01*
X21500000Y-238314D01*
X21533647Y-235000D01*
X35566353Y-235000D01*
X35600000Y-238314D01*
X35734283Y-225088D01*
X35863406Y-185919D01*
X35982407Y-122312D01*
X36086711Y-36711D01*
X36172312Y67593D01*
X36235919Y186594D01*
X36275088Y315717D01*
X36285000Y416353D01*
X36285000Y416354D01*
X36288314Y450000D01*
X36285000Y483647D01*
X36285000Y14516353D01*
X36288314Y14550000D01*
X36275088Y14684283D01*
X36235919Y14813406D01*
X36172312Y14932407D01*
X36086711Y15036711D01*
X35982407Y15122312D01*
X35863406Y15185919D01*
X35734283Y15225088D01*
X35633647Y15235000D01*
X35600000Y15238314D01*
X35566353Y15235000D01*
X21533647Y15235000D01*
X21500000Y15238314D01*
X21466353Y15235000D01*
X21365717Y15225088D01*
X21236594Y15185919D01*
X21117593Y15122312D01*
X21013289Y15036711D01*
X20927688Y14932407D01*
X20864081Y14813406D01*
X20824912Y14684283D01*
X20811686Y14550000D01*
X17238314Y14550000D01*
X17225088Y14684283D01*
X17185919Y14813406D01*
X17122312Y14932407D01*
X17036711Y15036711D01*
X16932407Y15122312D01*
X16813406Y15185919D01*
X16684283Y15225088D01*
X16583647Y15235000D01*
X16550000Y15238314D01*
X16516353Y15235000D01*
X2483647Y15235000D01*
X2450000Y15238314D01*
X2416353Y15235000D01*
X2315717Y15225088D01*
X2186594Y15185919D01*
X2067593Y15122312D01*
X1963289Y15036711D01*
X1877688Y14932407D01*
X1814081Y14813406D01*
X1774912Y14684283D01*
X1761686Y14550000D01*
X1765001Y14516343D01*
X1765000Y2962102D01*
X1713758Y2985934D01*
X1458260Y3048183D01*
X1195527Y3059390D01*
X999636Y3029038D01*
X1072312Y3117593D01*
X1135919Y3236594D01*
X1175088Y3365717D01*
X1178560Y3400971D01*
X1189803Y3410197D01*
X1205597Y3429443D01*
X1217333Y3451399D01*
X1224560Y3475224D01*
X1227000Y3500000D01*
X1227000Y11500000D01*
X1224560Y11524776D01*
X1217333Y11548601D01*
X1205597Y11570557D01*
X1189803Y11589803D01*
X1178560Y11599029D01*
X1175088Y11634283D01*
X1135919Y11763406D01*
X1072312Y11882407D01*
X986711Y11986711D01*
X882407Y12072312D01*
X763406Y12135919D01*
X685000Y12159703D01*
X685000Y17220883D01*
X17315000Y17220883D01*
X17315000Y16879117D01*
X17381675Y16543919D01*
X17512463Y16228169D01*
X17702337Y15944002D01*
X17944002Y15702337D01*
X18228169Y15512463D01*
X18543919Y15381675D01*
X18879117Y15315000D01*
X19220883Y15315000D01*
X19556081Y15381675D01*
X19871831Y15512463D01*
X20155998Y15702337D01*
X20397663Y15944002D01*
X20587537Y16228169D01*
X20718325Y16543919D01*
X20785000Y16879117D01*
X20785000Y17220883D01*
X20718325Y17556081D01*
X20587537Y17871831D01*
X20397663Y18155998D01*
X20155998Y18397663D01*
X19871831Y18587537D01*
X19556081Y18718325D01*
X19220883Y18785000D01*
X18879117Y18785000D01*
X18543919Y18718325D01*
X18228169Y18587537D01*
X17944002Y18397663D01*
X17702337Y18155998D01*
X17512463Y17871831D01*
X17381675Y17556081D01*
X17315000Y17220883D01*
X685000Y17220883D01*
X685000Y33600000D01*
X1761686Y33600000D01*
X1765001Y33566343D01*
X1765000Y19533647D01*
X1761686Y19500000D01*
X1774912Y19365717D01*
X1814081Y19236594D01*
X1877688Y19117593D01*
X1963289Y19013289D01*
X2067593Y18927688D01*
X2186594Y18864081D01*
X2315717Y18824912D01*
X2450000Y18811686D01*
X2483647Y18815000D01*
X16516353Y18815000D01*
X16550000Y18811686D01*
X16684283Y18824912D01*
X16813406Y18864081D01*
X16932407Y18927688D01*
X17036711Y19013289D01*
X17122312Y19117593D01*
X17185919Y19236594D01*
X17225088Y19365717D01*
X17235000Y19466353D01*
X17235000Y19466354D01*
X17238314Y19500000D01*
X17235000Y19533647D01*
X17235000Y33566353D01*
X17238314Y33600000D01*
X20811686Y33600000D01*
X20815001Y33566343D01*
X20815000Y19533647D01*
X20811686Y19500000D01*
X20824912Y19365717D01*
X20864081Y19236594D01*
X20927688Y19117593D01*
X21013289Y19013289D01*
X21117593Y18927688D01*
X21236594Y18864081D01*
X21365717Y18824912D01*
X21500000Y18811686D01*
X21533647Y18815000D01*
X35566353Y18815000D01*
X35600000Y18811686D01*
X35734283Y18824912D01*
X35863406Y18864081D01*
X35982407Y18927688D01*
X36086711Y19013289D01*
X36172312Y19117593D01*
X36235919Y19236594D01*
X36275088Y19365717D01*
X36285000Y19466353D01*
X36285000Y19466354D01*
X36288314Y19500000D01*
X36285000Y19533647D01*
X36285000Y33566353D01*
X36288314Y33600000D01*
X36275088Y33734283D01*
X36235919Y33863406D01*
X36172312Y33982407D01*
X36086711Y34086711D01*
X35982407Y34172312D01*
X35863406Y34235919D01*
X35734283Y34275088D01*
X35633647Y34285000D01*
X35600000Y34288314D01*
X35566353Y34285000D01*
X21533647Y34285000D01*
X21500000Y34288314D01*
X21466353Y34285000D01*
X21365717Y34275088D01*
X21236594Y34235919D01*
X21117593Y34172312D01*
X21013289Y34086711D01*
X20927688Y33982407D01*
X20864081Y33863406D01*
X20824912Y33734283D01*
X20811686Y33600000D01*
X17238314Y33600000D01*
X17225088Y33734283D01*
X17185919Y33863406D01*
X17122312Y33982407D01*
X17036711Y34086711D01*
X16932407Y34172312D01*
X16813406Y34235919D01*
X16684283Y34275088D01*
X16583647Y34285000D01*
X16550000Y34288314D01*
X16516353Y34285000D01*
X2483647Y34285000D01*
X2450000Y34288314D01*
X2416353Y34285000D01*
X2315717Y34275088D01*
X2186594Y34235919D01*
X2067593Y34172312D01*
X1963289Y34086711D01*
X1877688Y33982407D01*
X1814081Y33863406D01*
X1774912Y33734283D01*
X1761686Y33600000D01*
X685000Y33600000D01*
X685000Y36270883D01*
X17315000Y36270883D01*
X17315000Y35929117D01*
X17381675Y35593919D01*
X17512463Y35278169D01*
X17702337Y34994002D01*
X17944002Y34752337D01*
X18228169Y34562463D01*
X18543919Y34431675D01*
X18879117Y34365000D01*
X19220883Y34365000D01*
X19556081Y34431675D01*
X19871831Y34562463D01*
X20155998Y34752337D01*
X20397663Y34994002D01*
X20587537Y35278169D01*
X20718325Y35593919D01*
X20785000Y35929117D01*
X20785000Y36270883D01*
X20718325Y36606081D01*
X20587537Y36921831D01*
X20397663Y37205998D01*
X20155998Y37447663D01*
X19871831Y37637537D01*
X19556081Y37768325D01*
X19220883Y37835000D01*
X18879117Y37835000D01*
X18543919Y37768325D01*
X18228169Y37637537D01*
X17944002Y37447663D01*
X17702337Y37205998D01*
X17512463Y36921831D01*
X17381675Y36606081D01*
X17315000Y36270883D01*
X685000Y36270883D01*
X685000Y38619755D01*
X826242Y38554066D01*
X1081740Y38491817D01*
X1344473Y38480610D01*
X1604344Y38520875D01*
X1764580Y38579378D01*
X1761686Y38550000D01*
X1774912Y38415717D01*
X1814081Y38286594D01*
X1877688Y38167593D01*
X1963289Y38063289D01*
X2067593Y37977688D01*
X2186594Y37914081D01*
X2315717Y37874912D01*
X2450000Y37861686D01*
X2483647Y37865000D01*
X16516353Y37865000D01*
X16550000Y37861686D01*
X16684283Y37874912D01*
X16813406Y37914081D01*
X16932407Y37977688D01*
X17036711Y38063289D01*
X17122312Y38167593D01*
X17185919Y38286594D01*
X17225088Y38415717D01*
X17235000Y38516353D01*
X17235000Y38516354D01*
X17238314Y38550000D01*
X17235000Y38583647D01*
X17235000Y52616353D01*
X17238314Y52650000D01*
X20811686Y52650000D01*
X20815001Y52616343D01*
X20815000Y38583647D01*
X20811686Y38550000D01*
X20824912Y38415717D01*
X20864081Y38286594D01*
X20927688Y38167593D01*
X21013289Y38063289D01*
X21117593Y37977688D01*
X21236594Y37914081D01*
X21365717Y37874912D01*
X21500000Y37861686D01*
X21533647Y37865000D01*
X35566353Y37865000D01*
X35600000Y37861686D01*
X35734283Y37874912D01*
X35863406Y37914081D01*
X35982407Y37977688D01*
X36086711Y38063289D01*
X36172312Y38167593D01*
X36235919Y38286594D01*
X36275088Y38415717D01*
X36285000Y38516353D01*
X36285000Y38516354D01*
X36288314Y38550000D01*
X36285000Y38583647D01*
X36285000Y52616353D01*
X36288314Y52650000D01*
X36275088Y52784283D01*
X36235919Y52913406D01*
X36172312Y53032407D01*
X36086711Y53136711D01*
X35982407Y53222312D01*
X35863406Y53285919D01*
X35734283Y53325088D01*
X35633647Y53335000D01*
X35600000Y53338314D01*
X35566353Y53335000D01*
X21533647Y53335000D01*
X21500000Y53338314D01*
X21466353Y53335000D01*
X21365717Y53325088D01*
X21236594Y53285919D01*
X21117593Y53222312D01*
X21013289Y53136711D01*
X20927688Y53032407D01*
X20864081Y52913406D01*
X20824912Y52784283D01*
X20811686Y52650000D01*
X17238314Y52650000D01*
X17225088Y52784283D01*
X17185919Y52913406D01*
X17122312Y53032407D01*
X17036711Y53136711D01*
X16932407Y53222312D01*
X16813406Y53285919D01*
X16684283Y53325088D01*
X16583647Y53335000D01*
X16550000Y53338314D01*
X16516353Y53335000D01*
X2483647Y53335000D01*
X2450000Y53338314D01*
X2416353Y53335000D01*
X2315717Y53325088D01*
X2186594Y53285919D01*
X2067593Y53222312D01*
X1963289Y53136711D01*
X1877688Y53032407D01*
X1814081Y52913406D01*
X1774912Y52784283D01*
X1761686Y52650000D01*
X1765001Y52616343D01*
X1765000Y41062102D01*
X1713758Y41085934D01*
X1458260Y41148183D01*
X1195527Y41159390D01*
X999636Y41129038D01*
X1072312Y41217593D01*
X1135919Y41336594D01*
X1175088Y41465717D01*
X1178560Y41500971D01*
X1189803Y41510197D01*
X1205597Y41529443D01*
X1217333Y41551399D01*
X1224560Y41575224D01*
X1227000Y41600000D01*
X1227000Y49600000D01*
X1224560Y49624776D01*
X1217333Y49648601D01*
X1205597Y49670557D01*
X1189803Y49689803D01*
X1178560Y49699029D01*
X1175088Y49734283D01*
X1135919Y49863406D01*
X1072312Y49982407D01*
X986711Y50086711D01*
X882407Y50172312D01*
X763406Y50235919D01*
X685000Y50259703D01*
X685000Y52266495D01*
X713267Y52554782D01*
X787259Y52799855D01*
X907443Y53025890D01*
X1069248Y53224281D01*
X1266497Y53387460D01*
X1491687Y53509220D01*
X1736247Y53584924D01*
X2022398Y53615000D01*
X2691353Y53615000D01*
X2725000Y53611686D01*
X2796254Y53618704D01*
X2859283Y53624912D01*
X2988406Y53664081D01*
X3107407Y53727688D01*
X3211711Y53813289D01*
X3297312Y53917593D01*
X3360919Y54036594D01*
X3400088Y54165717D01*
X3413314Y54300000D01*
X3410000Y54333647D01*
X3410000Y55320883D01*
X17315000Y55320883D01*
X17315000Y54979117D01*
X17381675Y54643919D01*
X17512463Y54328169D01*
X17702337Y54044002D01*
X17944002Y53802337D01*
X18228169Y53612463D01*
X18543919Y53481675D01*
X18879117Y53415000D01*
X19220883Y53415000D01*
X19556081Y53481675D01*
X19871831Y53612463D01*
X20155998Y53802337D01*
X20397663Y54044002D01*
X20587537Y54328169D01*
X20718325Y54643919D01*
X20785000Y54979117D01*
X20785000Y55320883D01*
X20718325Y55656081D01*
X20587537Y55971831D01*
X20397663Y56255998D01*
X20155998Y56497663D01*
X19871831Y56687537D01*
X19556081Y56818325D01*
X19220883Y56885000D01*
X18879117Y56885000D01*
X18543919Y56818325D01*
X18228169Y56687537D01*
X17944002Y56497663D01*
X17702337Y56255998D01*
X17512463Y55971831D01*
X17381675Y55656081D01*
X17315000Y55320883D01*
X3410000Y55320883D01*
X3410000Y55566495D01*
X3438267Y55854782D01*
X3512259Y56099855D01*
X3632443Y56325890D01*
X3794248Y56524281D01*
X3991497Y56687460D01*
X4216687Y56809220D01*
X4461247Y56884924D01*
X4747398Y56915000D01*
X16516353Y56915000D01*
X16550000Y56911686D01*
X16621254Y56918704D01*
X16684283Y56924912D01*
X16813406Y56964081D01*
X16932407Y57027688D01*
X17036711Y57113289D01*
X17122312Y57217593D01*
X17185919Y57336594D01*
X17225088Y57465717D01*
X17238314Y57600000D01*
X17235000Y57633647D01*
X17235000Y71666353D01*
X17238314Y71700000D01*
X20811686Y71700000D01*
X20815001Y71666343D01*
X20815000Y57633647D01*
X20811686Y57600000D01*
X20824912Y57465717D01*
X20864081Y57336594D01*
X20927688Y57217593D01*
X21013289Y57113289D01*
X21117593Y57027688D01*
X21236594Y56964081D01*
X21365717Y56924912D01*
X21428747Y56918704D01*
X21500000Y56911686D01*
X21533647Y56915000D01*
X35566353Y56915000D01*
X35600000Y56911686D01*
X35671254Y56918704D01*
X35734283Y56924912D01*
X35863406Y56964081D01*
X35982407Y57027688D01*
X36086711Y57113289D01*
X36172312Y57217593D01*
X36235919Y57336594D01*
X36275088Y57465717D01*
X36288314Y57600000D01*
X36285000Y57633647D01*
X36285000Y71666353D01*
X36288314Y71700000D01*
X36275088Y71834283D01*
X36235919Y71963406D01*
X36172312Y72082407D01*
X36086711Y72186711D01*
X35982407Y72272312D01*
X35863406Y72335919D01*
X35734283Y72375088D01*
X35633647Y72385000D01*
X35600000Y72388314D01*
X35566353Y72385000D01*
X21533647Y72385000D01*
X21500000Y72388314D01*
X21466353Y72385000D01*
X21365717Y72375088D01*
X21236594Y72335919D01*
X21117593Y72272312D01*
X21013289Y72186711D01*
X20927688Y72082407D01*
X20864081Y71963406D01*
X20824912Y71834283D01*
X20811686Y71700000D01*
X17238314Y71700000D01*
X17225088Y71834283D01*
X17185919Y71963406D01*
X17122312Y72082407D01*
X17036711Y72186711D01*
X16932407Y72272312D01*
X16813406Y72335919D01*
X16684283Y72375088D01*
X16583647Y72385000D01*
X16550000Y72388314D01*
X16516353Y72385000D01*
X4758505Y72385000D01*
X4470218Y72413267D01*
X4225145Y72487259D01*
X3999107Y72607446D01*
X3800721Y72769246D01*
X3637540Y72966497D01*
X3515779Y73191690D01*
X3440076Y73436247D01*
X3410000Y73722398D01*
X3410000Y74370883D01*
X17315000Y74370883D01*
X17315000Y74029117D01*
X17381675Y73693919D01*
X17512463Y73378169D01*
X17702337Y73094002D01*
X17944002Y72852337D01*
X18228169Y72662463D01*
X18543919Y72531675D01*
X18879117Y72465000D01*
X19220883Y72465000D01*
X19556081Y72531675D01*
X19871831Y72662463D01*
X20155998Y72852337D01*
X20397663Y73094002D01*
X20587537Y73378169D01*
X20718325Y73693919D01*
X20785000Y74029117D01*
X20785000Y74370883D01*
X20718325Y74706081D01*
X20587537Y75021831D01*
X20397663Y75305998D01*
X20155998Y75547663D01*
X19871831Y75737537D01*
X19556081Y75868325D01*
X19220883Y75935000D01*
X18879117Y75935000D01*
X18543919Y75868325D01*
X18228169Y75737537D01*
X17944002Y75547663D01*
X17702337Y75305998D01*
X17512463Y75021831D01*
X17381675Y74706081D01*
X17315000Y74370883D01*
X3410000Y74370883D01*
X3410000Y74966353D01*
X3413314Y75000000D01*
X3400088Y75134283D01*
X3360919Y75263406D01*
X3297312Y75382407D01*
X3211711Y75486711D01*
X3107407Y75572312D01*
X2988406Y75635919D01*
X2859283Y75675088D01*
X2758647Y75685000D01*
X2725000Y75688314D01*
X2691353Y75685000D01*
X2033505Y75685000D01*
X1745218Y75713267D01*
X1500145Y75787259D01*
X1274107Y75907446D01*
X1075721Y76069246D01*
X912540Y76266497D01*
X790779Y76491690D01*
X715076Y76736247D01*
X685000Y77022398D01*
X685000Y79040297D01*
X763406Y79064081D01*
X882407Y79127688D01*
X986711Y79213289D01*
X1072312Y79317593D01*
X1135919Y79436594D01*
X1175088Y79565717D01*
X1178560Y79600971D01*
X1189803Y79610197D01*
X1205597Y79629443D01*
X1217333Y79651399D01*
X1224560Y79675224D01*
X1227000Y79700000D01*
X1227000Y87700000D01*
X1224560Y87724776D01*
X1217333Y87748601D01*
X1205597Y87770557D01*
X1189803Y87789803D01*
X1178560Y87799029D01*
X1175088Y87834283D01*
X1135919Y87963406D01*
X1072312Y88082407D01*
X998755Y88172035D01*
X1081740Y88151817D01*
X1344473Y88140610D01*
X1604344Y88180875D01*
X1765001Y88239532D01*
X1765000Y76683647D01*
X1761686Y76650000D01*
X1774912Y76515717D01*
X1814081Y76386594D01*
X1877688Y76267593D01*
X1963289Y76163289D01*
X2026155Y76111696D01*
X2067593Y76077688D01*
X2186594Y76014081D01*
X2315717Y75974912D01*
X2450000Y75961686D01*
X2483647Y75965000D01*
X16516353Y75965000D01*
X16550000Y75961686D01*
X16684283Y75974912D01*
X16813406Y76014081D01*
X16932407Y76077688D01*
X17036711Y76163289D01*
X17122312Y76267593D01*
X17185919Y76386594D01*
X17225088Y76515717D01*
X17235000Y76616353D01*
X17235000Y76616354D01*
X17238314Y76650000D01*
X17235000Y76683647D01*
X17235000Y90716353D01*
X17238314Y90750000D01*
X20811686Y90750000D01*
X20815001Y90716343D01*
X20815000Y76683647D01*
X20811686Y76650000D01*
X20824912Y76515717D01*
X20864081Y76386594D01*
X20927688Y76267593D01*
X21013289Y76163289D01*
X21076155Y76111696D01*
X21117593Y76077688D01*
X21236594Y76014081D01*
X21365717Y75974912D01*
X21500000Y75961686D01*
X21533647Y75965000D01*
X35566353Y75965000D01*
X35600000Y75961686D01*
X35734283Y75974912D01*
X35863406Y76014081D01*
X35982407Y76077688D01*
X36086711Y76163289D01*
X36172312Y76267593D01*
X36235919Y76386594D01*
X36275088Y76515717D01*
X36285000Y76616353D01*
X36285000Y76616354D01*
X36288314Y76650000D01*
X36285000Y76683647D01*
X36285000Y90716353D01*
X36288314Y90750000D01*
X36281914Y90814984D01*
X36275088Y90884283D01*
X36235919Y91013406D01*
X36172312Y91132407D01*
X36153337Y91155528D01*
X36086711Y91236711D01*
X35982407Y91322312D01*
X35863406Y91385919D01*
X35734283Y91425088D01*
X35633647Y91435000D01*
X35600000Y91438314D01*
X35566353Y91435000D01*
X21533647Y91435000D01*
X21500000Y91438314D01*
X21466353Y91435000D01*
X21365717Y91425088D01*
X21236594Y91385919D01*
X21117593Y91322312D01*
X21013289Y91236711D01*
X20927688Y91132407D01*
X20864081Y91013406D01*
X20824912Y90884283D01*
X20811686Y90750000D01*
X17238314Y90750000D01*
X17231914Y90814984D01*
X17225088Y90884283D01*
X17185919Y91013406D01*
X17122312Y91132407D01*
X17103337Y91155528D01*
X17036711Y91236711D01*
X16932407Y91322312D01*
X16813406Y91385919D01*
X16684283Y91425088D01*
X16583647Y91435000D01*
X16550000Y91438314D01*
X16516353Y91435000D01*
X2483647Y91435000D01*
X2450000Y91438314D01*
X2416353Y91435000D01*
X2315717Y91425088D01*
X2186594Y91385919D01*
X2067593Y91322312D01*
X1963289Y91236711D01*
X1877688Y91132407D01*
X1814081Y91013406D01*
X1774912Y90884283D01*
X1761686Y90750000D01*
X1764407Y90722378D01*
X1713758Y90745934D01*
X1458260Y90808183D01*
X1195527Y90819390D01*
X935656Y90779125D01*
X688634Y90688935D01*
X685000Y90686993D01*
X685000Y91166495D01*
X713267Y91454782D01*
X787259Y91699855D01*
X907443Y91925890D01*
X1069248Y92124281D01*
X1266497Y92287460D01*
X1491687Y92409220D01*
X1736247Y92484924D01*
X2022398Y92515000D01*
X36066495Y92515000D01*
X36354782Y92486733D01*
X36354782Y92486733D01*
G37*
X36354782Y92486733D02*
X36599855Y92412741D01*
X36825890Y92292557D01*
X37024281Y92130752D01*
X37187460Y91933503D01*
X37309220Y91708313D01*
X37384924Y91463753D01*
X37415000Y91177602D01*
X37415001Y33516D01*
X37386733Y-254782D01*
X37312741Y-499855D01*
X37192554Y-725893D01*
X37030754Y-924279D01*
X36833503Y-1087460D01*
X36608310Y-1209221D01*
X36363753Y-1284924D01*
X36077602Y-1315000D01*
X2033505Y-1315000D01*
X1745218Y-1286733D01*
X1500145Y-1212741D01*
X1274107Y-1092554D01*
X1075721Y-930754D01*
X912540Y-733503D01*
X790779Y-508310D01*
X715076Y-263753D01*
X685000Y22398D01*
X685000Y519755D01*
X826242Y454066D01*
X1081740Y391817D01*
X1344473Y380610D01*
X1604344Y420875D01*
X1764580Y479378D01*
X1761686Y450000D01*
X1774912Y315717D01*
X1814081Y186594D01*
X1877688Y67593D01*
X1963289Y-36711D01*
X2046512Y-105011D01*
X2067593Y-122312D01*
X2186594Y-185919D01*
X2315717Y-225088D01*
X2450000Y-238314D01*
X2483647Y-235000D01*
X16516353Y-235000D01*
X16550000Y-238314D01*
X16684283Y-225088D01*
X16813406Y-185919D01*
X16932407Y-122312D01*
X17036711Y-36711D01*
X17122312Y67593D01*
X17185919Y186594D01*
X17225088Y315717D01*
X17235000Y416353D01*
X17235000Y416354D01*
X17238314Y450000D01*
X17235000Y483647D01*
X17235000Y14516353D01*
X17238314Y14550000D01*
X20811686Y14550000D01*
X20815001Y14516343D01*
X20815000Y483647D01*
X20811686Y450000D01*
X20824912Y315717D01*
X20864081Y186594D01*
X20927688Y67593D01*
X21013289Y-36711D01*
X21096512Y-105011D01*
X21117593Y-122312D01*
X21236594Y-185919D01*
X21365717Y-225088D01*
X21500000Y-238314D01*
X21533647Y-235000D01*
X35566353Y-235000D01*
X35600000Y-238314D01*
X35734283Y-225088D01*
X35863406Y-185919D01*
X35982407Y-122312D01*
X36086711Y-36711D01*
X36172312Y67593D01*
X36235919Y186594D01*
X36275088Y315717D01*
X36285000Y416353D01*
X36285000Y416354D01*
X36288314Y450000D01*
X36285000Y483647D01*
X36285000Y14516353D01*
X36288314Y14550000D01*
X36275088Y14684283D01*
X36235919Y14813406D01*
X36172312Y14932407D01*
X36086711Y15036711D01*
X35982407Y15122312D01*
X35863406Y15185919D01*
X35734283Y15225088D01*
X35633647Y15235000D01*
X35600000Y15238314D01*
X35566353Y15235000D01*
X21533647Y15235000D01*
X21500000Y15238314D01*
X21466353Y15235000D01*
X21365717Y15225088D01*
X21236594Y15185919D01*
X21117593Y15122312D01*
X21013289Y15036711D01*
X20927688Y14932407D01*
X20864081Y14813406D01*
X20824912Y14684283D01*
X20811686Y14550000D01*
X17238314Y14550000D01*
X17225088Y14684283D01*
X17185919Y14813406D01*
X17122312Y14932407D01*
X17036711Y15036711D01*
X16932407Y15122312D01*
X16813406Y15185919D01*
X16684283Y15225088D01*
X16583647Y15235000D01*
X16550000Y15238314D01*
X16516353Y15235000D01*
X2483647Y15235000D01*
X2450000Y15238314D01*
X2416353Y15235000D01*
X2315717Y15225088D01*
X2186594Y15185919D01*
X2067593Y15122312D01*
X1963289Y15036711D01*
X1877688Y14932407D01*
X1814081Y14813406D01*
X1774912Y14684283D01*
X1761686Y14550000D01*
X1765001Y14516343D01*
X1765000Y2962102D01*
X1713758Y2985934D01*
X1458260Y3048183D01*
X1195527Y3059390D01*
X999636Y3029038D01*
X1072312Y3117593D01*
X1135919Y3236594D01*
X1175088Y3365717D01*
X1178560Y3400971D01*
X1189803Y3410197D01*
X1205597Y3429443D01*
X1217333Y3451399D01*
X1224560Y3475224D01*
X1227000Y3500000D01*
X1227000Y11500000D01*
X1224560Y11524776D01*
X1217333Y11548601D01*
X1205597Y11570557D01*
X1189803Y11589803D01*
X1178560Y11599029D01*
X1175088Y11634283D01*
X1135919Y11763406D01*
X1072312Y11882407D01*
X986711Y11986711D01*
X882407Y12072312D01*
X763406Y12135919D01*
X685000Y12159703D01*
X685000Y17220883D01*
X17315000Y17220883D01*
X17315000Y16879117D01*
X17381675Y16543919D01*
X17512463Y16228169D01*
X17702337Y15944002D01*
X17944002Y15702337D01*
X18228169Y15512463D01*
X18543919Y15381675D01*
X18879117Y15315000D01*
X19220883Y15315000D01*
X19556081Y15381675D01*
X19871831Y15512463D01*
X20155998Y15702337D01*
X20397663Y15944002D01*
X20587537Y16228169D01*
X20718325Y16543919D01*
X20785000Y16879117D01*
X20785000Y17220883D01*
X20718325Y17556081D01*
X20587537Y17871831D01*
X20397663Y18155998D01*
X20155998Y18397663D01*
X19871831Y18587537D01*
X19556081Y18718325D01*
X19220883Y18785000D01*
X18879117Y18785000D01*
X18543919Y18718325D01*
X18228169Y18587537D01*
X17944002Y18397663D01*
X17702337Y18155998D01*
X17512463Y17871831D01*
X17381675Y17556081D01*
X17315000Y17220883D01*
X685000Y17220883D01*
X685000Y33600000D01*
X1761686Y33600000D01*
X1765001Y33566343D01*
X1765000Y19533647D01*
X1761686Y19500000D01*
X1774912Y19365717D01*
X1814081Y19236594D01*
X1877688Y19117593D01*
X1963289Y19013289D01*
X2067593Y18927688D01*
X2186594Y18864081D01*
X2315717Y18824912D01*
X2450000Y18811686D01*
X2483647Y18815000D01*
X16516353Y18815000D01*
X16550000Y18811686D01*
X16684283Y18824912D01*
X16813406Y18864081D01*
X16932407Y18927688D01*
X17036711Y19013289D01*
X17122312Y19117593D01*
X17185919Y19236594D01*
X17225088Y19365717D01*
X17235000Y19466353D01*
X17235000Y19466354D01*
X17238314Y19500000D01*
X17235000Y19533647D01*
X17235000Y33566353D01*
X17238314Y33600000D01*
X20811686Y33600000D01*
X20815001Y33566343D01*
X20815000Y19533647D01*
X20811686Y19500000D01*
X20824912Y19365717D01*
X20864081Y19236594D01*
X20927688Y19117593D01*
X21013289Y19013289D01*
X21117593Y18927688D01*
X21236594Y18864081D01*
X21365717Y18824912D01*
X21500000Y18811686D01*
X21533647Y18815000D01*
X35566353Y18815000D01*
X35600000Y18811686D01*
X35734283Y18824912D01*
X35863406Y18864081D01*
X35982407Y18927688D01*
X36086711Y19013289D01*
X36172312Y19117593D01*
X36235919Y19236594D01*
X36275088Y19365717D01*
X36285000Y19466353D01*
X36285000Y19466354D01*
X36288314Y19500000D01*
X36285000Y19533647D01*
X36285000Y33566353D01*
X36288314Y33600000D01*
X36275088Y33734283D01*
X36235919Y33863406D01*
X36172312Y33982407D01*
X36086711Y34086711D01*
X35982407Y34172312D01*
X35863406Y34235919D01*
X35734283Y34275088D01*
X35633647Y34285000D01*
X35600000Y34288314D01*
X35566353Y34285000D01*
X21533647Y34285000D01*
X21500000Y34288314D01*
X21466353Y34285000D01*
X21365717Y34275088D01*
X21236594Y34235919D01*
X21117593Y34172312D01*
X21013289Y34086711D01*
X20927688Y33982407D01*
X20864081Y33863406D01*
X20824912Y33734283D01*
X20811686Y33600000D01*
X17238314Y33600000D01*
X17225088Y33734283D01*
X17185919Y33863406D01*
X17122312Y33982407D01*
X17036711Y34086711D01*
X16932407Y34172312D01*
X16813406Y34235919D01*
X16684283Y34275088D01*
X16583647Y34285000D01*
X16550000Y34288314D01*
X16516353Y34285000D01*
X2483647Y34285000D01*
X2450000Y34288314D01*
X2416353Y34285000D01*
X2315717Y34275088D01*
X2186594Y34235919D01*
X2067593Y34172312D01*
X1963289Y34086711D01*
X1877688Y33982407D01*
X1814081Y33863406D01*
X1774912Y33734283D01*
X1761686Y33600000D01*
X685000Y33600000D01*
X685000Y36270883D01*
X17315000Y36270883D01*
X17315000Y35929117D01*
X17381675Y35593919D01*
X17512463Y35278169D01*
X17702337Y34994002D01*
X17944002Y34752337D01*
X18228169Y34562463D01*
X18543919Y34431675D01*
X18879117Y34365000D01*
X19220883Y34365000D01*
X19556081Y34431675D01*
X19871831Y34562463D01*
X20155998Y34752337D01*
X20397663Y34994002D01*
X20587537Y35278169D01*
X20718325Y35593919D01*
X20785000Y35929117D01*
X20785000Y36270883D01*
X20718325Y36606081D01*
X20587537Y36921831D01*
X20397663Y37205998D01*
X20155998Y37447663D01*
X19871831Y37637537D01*
X19556081Y37768325D01*
X19220883Y37835000D01*
X18879117Y37835000D01*
X18543919Y37768325D01*
X18228169Y37637537D01*
X17944002Y37447663D01*
X17702337Y37205998D01*
X17512463Y36921831D01*
X17381675Y36606081D01*
X17315000Y36270883D01*
X685000Y36270883D01*
X685000Y38619755D01*
X826242Y38554066D01*
X1081740Y38491817D01*
X1344473Y38480610D01*
X1604344Y38520875D01*
X1764580Y38579378D01*
X1761686Y38550000D01*
X1774912Y38415717D01*
X1814081Y38286594D01*
X1877688Y38167593D01*
X1963289Y38063289D01*
X2067593Y37977688D01*
X2186594Y37914081D01*
X2315717Y37874912D01*
X2450000Y37861686D01*
X2483647Y37865000D01*
X16516353Y37865000D01*
X16550000Y37861686D01*
X16684283Y37874912D01*
X16813406Y37914081D01*
X16932407Y37977688D01*
X17036711Y38063289D01*
X17122312Y38167593D01*
X17185919Y38286594D01*
X17225088Y38415717D01*
X17235000Y38516353D01*
X17235000Y38516354D01*
X17238314Y38550000D01*
X17235000Y38583647D01*
X17235000Y52616353D01*
X17238314Y52650000D01*
X20811686Y52650000D01*
X20815001Y52616343D01*
X20815000Y38583647D01*
X20811686Y38550000D01*
X20824912Y38415717D01*
X20864081Y38286594D01*
X20927688Y38167593D01*
X21013289Y38063289D01*
X21117593Y37977688D01*
X21236594Y37914081D01*
X21365717Y37874912D01*
X21500000Y37861686D01*
X21533647Y37865000D01*
X35566353Y37865000D01*
X35600000Y37861686D01*
X35734283Y37874912D01*
X35863406Y37914081D01*
X35982407Y37977688D01*
X36086711Y38063289D01*
X36172312Y38167593D01*
X36235919Y38286594D01*
X36275088Y38415717D01*
X36285000Y38516353D01*
X36285000Y38516354D01*
X36288314Y38550000D01*
X36285000Y38583647D01*
X36285000Y52616353D01*
X36288314Y52650000D01*
X36275088Y52784283D01*
X36235919Y52913406D01*
X36172312Y53032407D01*
X36086711Y53136711D01*
X35982407Y53222312D01*
X35863406Y53285919D01*
X35734283Y53325088D01*
X35633647Y53335000D01*
X35600000Y53338314D01*
X35566353Y53335000D01*
X21533647Y53335000D01*
X21500000Y53338314D01*
X21466353Y53335000D01*
X21365717Y53325088D01*
X21236594Y53285919D01*
X21117593Y53222312D01*
X21013289Y53136711D01*
X20927688Y53032407D01*
X20864081Y52913406D01*
X20824912Y52784283D01*
X20811686Y52650000D01*
X17238314Y52650000D01*
X17225088Y52784283D01*
X17185919Y52913406D01*
X17122312Y53032407D01*
X17036711Y53136711D01*
X16932407Y53222312D01*
X16813406Y53285919D01*
X16684283Y53325088D01*
X16583647Y53335000D01*
X16550000Y53338314D01*
X16516353Y53335000D01*
X2483647Y53335000D01*
X2450000Y53338314D01*
X2416353Y53335000D01*
X2315717Y53325088D01*
X2186594Y53285919D01*
X2067593Y53222312D01*
X1963289Y53136711D01*
X1877688Y53032407D01*
X1814081Y52913406D01*
X1774912Y52784283D01*
X1761686Y52650000D01*
X1765001Y52616343D01*
X1765000Y41062102D01*
X1713758Y41085934D01*
X1458260Y41148183D01*
X1195527Y41159390D01*
X999636Y41129038D01*
X1072312Y41217593D01*
X1135919Y41336594D01*
X1175088Y41465717D01*
X1178560Y41500971D01*
X1189803Y41510197D01*
X1205597Y41529443D01*
X1217333Y41551399D01*
X1224560Y41575224D01*
X1227000Y41600000D01*
X1227000Y49600000D01*
X1224560Y49624776D01*
X1217333Y49648601D01*
X1205597Y49670557D01*
X1189803Y49689803D01*
X1178560Y49699029D01*
X1175088Y49734283D01*
X1135919Y49863406D01*
X1072312Y49982407D01*
X986711Y50086711D01*
X882407Y50172312D01*
X763406Y50235919D01*
X685000Y50259703D01*
X685000Y52266495D01*
X713267Y52554782D01*
X787259Y52799855D01*
X907443Y53025890D01*
X1069248Y53224281D01*
X1266497Y53387460D01*
X1491687Y53509220D01*
X1736247Y53584924D01*
X2022398Y53615000D01*
X2691353Y53615000D01*
X2725000Y53611686D01*
X2796254Y53618704D01*
X2859283Y53624912D01*
X2988406Y53664081D01*
X3107407Y53727688D01*
X3211711Y53813289D01*
X3297312Y53917593D01*
X3360919Y54036594D01*
X3400088Y54165717D01*
X3413314Y54300000D01*
X3410000Y54333647D01*
X3410000Y55320883D01*
X17315000Y55320883D01*
X17315000Y54979117D01*
X17381675Y54643919D01*
X17512463Y54328169D01*
X17702337Y54044002D01*
X17944002Y53802337D01*
X18228169Y53612463D01*
X18543919Y53481675D01*
X18879117Y53415000D01*
X19220883Y53415000D01*
X19556081Y53481675D01*
X19871831Y53612463D01*
X20155998Y53802337D01*
X20397663Y54044002D01*
X20587537Y54328169D01*
X20718325Y54643919D01*
X20785000Y54979117D01*
X20785000Y55320883D01*
X20718325Y55656081D01*
X20587537Y55971831D01*
X20397663Y56255998D01*
X20155998Y56497663D01*
X19871831Y56687537D01*
X19556081Y56818325D01*
X19220883Y56885000D01*
X18879117Y56885000D01*
X18543919Y56818325D01*
X18228169Y56687537D01*
X17944002Y56497663D01*
X17702337Y56255998D01*
X17512463Y55971831D01*
X17381675Y55656081D01*
X17315000Y55320883D01*
X3410000Y55320883D01*
X3410000Y55566495D01*
X3438267Y55854782D01*
X3512259Y56099855D01*
X3632443Y56325890D01*
X3794248Y56524281D01*
X3991497Y56687460D01*
X4216687Y56809220D01*
X4461247Y56884924D01*
X4747398Y56915000D01*
X16516353Y56915000D01*
X16550000Y56911686D01*
X16621254Y56918704D01*
X16684283Y56924912D01*
X16813406Y56964081D01*
X16932407Y57027688D01*
X17036711Y57113289D01*
X17122312Y57217593D01*
X17185919Y57336594D01*
X17225088Y57465717D01*
X17238314Y57600000D01*
X17235000Y57633647D01*
X17235000Y71666353D01*
X17238314Y71700000D01*
X20811686Y71700000D01*
X20815001Y71666343D01*
X20815000Y57633647D01*
X20811686Y57600000D01*
X20824912Y57465717D01*
X20864081Y57336594D01*
X20927688Y57217593D01*
X21013289Y57113289D01*
X21117593Y57027688D01*
X21236594Y56964081D01*
X21365717Y56924912D01*
X21428747Y56918704D01*
X21500000Y56911686D01*
X21533647Y56915000D01*
X35566353Y56915000D01*
X35600000Y56911686D01*
X35671254Y56918704D01*
X35734283Y56924912D01*
X35863406Y56964081D01*
X35982407Y57027688D01*
X36086711Y57113289D01*
X36172312Y57217593D01*
X36235919Y57336594D01*
X36275088Y57465717D01*
X36288314Y57600000D01*
X36285000Y57633647D01*
X36285000Y71666353D01*
X36288314Y71700000D01*
X36275088Y71834283D01*
X36235919Y71963406D01*
X36172312Y72082407D01*
X36086711Y72186711D01*
X35982407Y72272312D01*
X35863406Y72335919D01*
X35734283Y72375088D01*
X35633647Y72385000D01*
X35600000Y72388314D01*
X35566353Y72385000D01*
X21533647Y72385000D01*
X21500000Y72388314D01*
X21466353Y72385000D01*
X21365717Y72375088D01*
X21236594Y72335919D01*
X21117593Y72272312D01*
X21013289Y72186711D01*
X20927688Y72082407D01*
X20864081Y71963406D01*
X20824912Y71834283D01*
X20811686Y71700000D01*
X17238314Y71700000D01*
X17225088Y71834283D01*
X17185919Y71963406D01*
X17122312Y72082407D01*
X17036711Y72186711D01*
X16932407Y72272312D01*
X16813406Y72335919D01*
X16684283Y72375088D01*
X16583647Y72385000D01*
X16550000Y72388314D01*
X16516353Y72385000D01*
X4758505Y72385000D01*
X4470218Y72413267D01*
X4225145Y72487259D01*
X3999107Y72607446D01*
X3800721Y72769246D01*
X3637540Y72966497D01*
X3515779Y73191690D01*
X3440076Y73436247D01*
X3410000Y73722398D01*
X3410000Y74370883D01*
X17315000Y74370883D01*
X17315000Y74029117D01*
X17381675Y73693919D01*
X17512463Y73378169D01*
X17702337Y73094002D01*
X17944002Y72852337D01*
X18228169Y72662463D01*
X18543919Y72531675D01*
X18879117Y72465000D01*
X19220883Y72465000D01*
X19556081Y72531675D01*
X19871831Y72662463D01*
X20155998Y72852337D01*
X20397663Y73094002D01*
X20587537Y73378169D01*
X20718325Y73693919D01*
X20785000Y74029117D01*
X20785000Y74370883D01*
X20718325Y74706081D01*
X20587537Y75021831D01*
X20397663Y75305998D01*
X20155998Y75547663D01*
X19871831Y75737537D01*
X19556081Y75868325D01*
X19220883Y75935000D01*
X18879117Y75935000D01*
X18543919Y75868325D01*
X18228169Y75737537D01*
X17944002Y75547663D01*
X17702337Y75305998D01*
X17512463Y75021831D01*
X17381675Y74706081D01*
X17315000Y74370883D01*
X3410000Y74370883D01*
X3410000Y74966353D01*
X3413314Y75000000D01*
X3400088Y75134283D01*
X3360919Y75263406D01*
X3297312Y75382407D01*
X3211711Y75486711D01*
X3107407Y75572312D01*
X2988406Y75635919D01*
X2859283Y75675088D01*
X2758647Y75685000D01*
X2725000Y75688314D01*
X2691353Y75685000D01*
X2033505Y75685000D01*
X1745218Y75713267D01*
X1500145Y75787259D01*
X1274107Y75907446D01*
X1075721Y76069246D01*
X912540Y76266497D01*
X790779Y76491690D01*
X715076Y76736247D01*
X685000Y77022398D01*
X685000Y79040297D01*
X763406Y79064081D01*
X882407Y79127688D01*
X986711Y79213289D01*
X1072312Y79317593D01*
X1135919Y79436594D01*
X1175088Y79565717D01*
X1178560Y79600971D01*
X1189803Y79610197D01*
X1205597Y79629443D01*
X1217333Y79651399D01*
X1224560Y79675224D01*
X1227000Y79700000D01*
X1227000Y87700000D01*
X1224560Y87724776D01*
X1217333Y87748601D01*
X1205597Y87770557D01*
X1189803Y87789803D01*
X1178560Y87799029D01*
X1175088Y87834283D01*
X1135919Y87963406D01*
X1072312Y88082407D01*
X998755Y88172035D01*
X1081740Y88151817D01*
X1344473Y88140610D01*
X1604344Y88180875D01*
X1765001Y88239532D01*
X1765000Y76683647D01*
X1761686Y76650000D01*
X1774912Y76515717D01*
X1814081Y76386594D01*
X1877688Y76267593D01*
X1963289Y76163289D01*
X2026155Y76111696D01*
X2067593Y76077688D01*
X2186594Y76014081D01*
X2315717Y75974912D01*
X2450000Y75961686D01*
X2483647Y75965000D01*
X16516353Y75965000D01*
X16550000Y75961686D01*
X16684283Y75974912D01*
X16813406Y76014081D01*
X16932407Y76077688D01*
X17036711Y76163289D01*
X17122312Y76267593D01*
X17185919Y76386594D01*
X17225088Y76515717D01*
X17235000Y76616353D01*
X17235000Y76616354D01*
X17238314Y76650000D01*
X17235000Y76683647D01*
X17235000Y90716353D01*
X17238314Y90750000D01*
X20811686Y90750000D01*
X20815001Y90716343D01*
X20815000Y76683647D01*
X20811686Y76650000D01*
X20824912Y76515717D01*
X20864081Y76386594D01*
X20927688Y76267593D01*
X21013289Y76163289D01*
X21076155Y76111696D01*
X21117593Y76077688D01*
X21236594Y76014081D01*
X21365717Y75974912D01*
X21500000Y75961686D01*
X21533647Y75965000D01*
X35566353Y75965000D01*
X35600000Y75961686D01*
X35734283Y75974912D01*
X35863406Y76014081D01*
X35982407Y76077688D01*
X36086711Y76163289D01*
X36172312Y76267593D01*
X36235919Y76386594D01*
X36275088Y76515717D01*
X36285000Y76616353D01*
X36285000Y76616354D01*
X36288314Y76650000D01*
X36285000Y76683647D01*
X36285000Y90716353D01*
X36288314Y90750000D01*
X36281914Y90814984D01*
X36275088Y90884283D01*
X36235919Y91013406D01*
X36172312Y91132407D01*
X36153337Y91155528D01*
X36086711Y91236711D01*
X35982407Y91322312D01*
X35863406Y91385919D01*
X35734283Y91425088D01*
X35633647Y91435000D01*
X35600000Y91438314D01*
X35566353Y91435000D01*
X21533647Y91435000D01*
X21500000Y91438314D01*
X21466353Y91435000D01*
X21365717Y91425088D01*
X21236594Y91385919D01*
X21117593Y91322312D01*
X21013289Y91236711D01*
X20927688Y91132407D01*
X20864081Y91013406D01*
X20824912Y90884283D01*
X20811686Y90750000D01*
X17238314Y90750000D01*
X17231914Y90814984D01*
X17225088Y90884283D01*
X17185919Y91013406D01*
X17122312Y91132407D01*
X17103337Y91155528D01*
X17036711Y91236711D01*
X16932407Y91322312D01*
X16813406Y91385919D01*
X16684283Y91425088D01*
X16583647Y91435000D01*
X16550000Y91438314D01*
X16516353Y91435000D01*
X2483647Y91435000D01*
X2450000Y91438314D01*
X2416353Y91435000D01*
X2315717Y91425088D01*
X2186594Y91385919D01*
X2067593Y91322312D01*
X1963289Y91236711D01*
X1877688Y91132407D01*
X1814081Y91013406D01*
X1774912Y90884283D01*
X1761686Y90750000D01*
X1764407Y90722378D01*
X1713758Y90745934D01*
X1458260Y90808183D01*
X1195527Y90819390D01*
X935656Y90779125D01*
X688634Y90688935D01*
X685000Y90686993D01*
X685000Y91166495D01*
X713267Y91454782D01*
X787259Y91699855D01*
X907443Y91925890D01*
X1069248Y92124281D01*
X1266497Y92287460D01*
X1491687Y92409220D01*
X1736247Y92484924D01*
X2022398Y92515000D01*
X36066495Y92515000D01*
X36354782Y92486733D01*
G36*
X1463748Y1734143D02*
G01*
X1449605Y1720000D01*
X1463748Y1705858D01*
X1284143Y1526253D01*
X1270000Y1540395D01*
X1255858Y1526253D01*
X1076253Y1705858D01*
X1090395Y1720000D01*
X1076253Y1734143D01*
X1255858Y1913748D01*
X1270000Y1899605D01*
X1284143Y1913748D01*
X1463748Y1734143D01*
X1463748Y1734143D01*
G37*
X1463748Y1734143D02*
X1449605Y1720000D01*
X1463748Y1705858D01*
X1284143Y1526253D01*
X1270000Y1540395D01*
X1255858Y1526253D01*
X1076253Y1705858D01*
X1090395Y1720000D01*
X1076253Y1734143D01*
X1255858Y1913748D01*
X1270000Y1899605D01*
X1284143Y1913748D01*
X1463748Y1734143D01*
G36*
X1463748Y39834143D02*
G01*
X1449605Y39820000D01*
X1463748Y39805858D01*
X1284143Y39626253D01*
X1270000Y39640395D01*
X1255858Y39626253D01*
X1076253Y39805858D01*
X1090395Y39820000D01*
X1076253Y39834143D01*
X1255858Y40013748D01*
X1270000Y39999605D01*
X1284143Y40013748D01*
X1463748Y39834143D01*
X1463748Y39834143D01*
G37*
X1463748Y39834143D02*
X1449605Y39820000D01*
X1463748Y39805858D01*
X1284143Y39626253D01*
X1270000Y39640395D01*
X1255858Y39626253D01*
X1076253Y39805858D01*
X1090395Y39820000D01*
X1076253Y39834143D01*
X1255858Y40013748D01*
X1270000Y39999605D01*
X1284143Y40013748D01*
X1463748Y39834143D01*
G36*
X1463748Y89494143D02*
G01*
X1449605Y89480000D01*
X1463748Y89465858D01*
X1284143Y89286253D01*
X1270000Y89300395D01*
X1255858Y89286253D01*
X1076253Y89465858D01*
X1090395Y89480000D01*
X1076253Y89494143D01*
X1255858Y89673748D01*
X1270000Y89659605D01*
X1284143Y89673748D01*
X1463748Y89494143D01*
X1463748Y89494143D01*
G37*
X1463748Y89494143D02*
X1449605Y89480000D01*
X1463748Y89465858D01*
X1284143Y89286253D01*
X1270000Y89300395D01*
X1255858Y89286253D01*
X1076253Y89465858D01*
X1090395Y89480000D01*
X1076253Y89494143D01*
X1255858Y89673748D01*
X1270000Y89659605D01*
X1284143Y89673748D01*
X1463748Y89494143D01*
G36*
X-3745218Y92486733D02*
G01*
X-3500145Y92412741D01*
X-3274110Y92292557D01*
X-3075719Y92130752D01*
X-2912540Y91933503D01*
X-2790780Y91708313D01*
X-2715076Y91463753D01*
X-2685000Y91177602D01*
X-2685000Y90680245D01*
X-2826242Y90745934D01*
X-3081740Y90808183D01*
X-3344473Y90819390D01*
X-3604344Y90779125D01*
X-3815000Y90702213D01*
X-3815000Y90716353D01*
X-3811686Y90750000D01*
X-3818086Y90814984D01*
X-3824912Y90884283D01*
X-3864081Y91013406D01*
X-3927688Y91132407D01*
X-3946663Y91155528D01*
X-4013289Y91236711D01*
X-4117593Y91322312D01*
X-4236594Y91385919D01*
X-4365717Y91425088D01*
X-4466353Y91435000D01*
X-4500000Y91438314D01*
X-4533647Y91435000D01*
X-18566353Y91435000D01*
X-18600000Y91438314D01*
X-18633647Y91435000D01*
X-18734283Y91425088D01*
X-18863406Y91385919D01*
X-18982407Y91322312D01*
X-19086711Y91236711D01*
X-19172312Y91132407D01*
X-19235919Y91013406D01*
X-19275088Y90884283D01*
X-19288314Y90750000D01*
X-19284999Y90716343D01*
X-19285000Y76683647D01*
X-19288314Y76650000D01*
X-19275088Y76515717D01*
X-19235919Y76386594D01*
X-19172312Y76267593D01*
X-19086711Y76163289D01*
X-19032177Y76118534D01*
X-18982407Y76077688D01*
X-18863406Y76014081D01*
X-18734283Y75974912D01*
X-18600000Y75961686D01*
X-18566353Y75965000D01*
X-4533647Y75965000D01*
X-4500000Y75961686D01*
X-4365717Y75974912D01*
X-4236594Y76014081D01*
X-4117593Y76077688D01*
X-4013289Y76163289D01*
X-3927688Y76267593D01*
X-3864081Y76386594D01*
X-3824912Y76515717D01*
X-3815000Y76616353D01*
X-3815000Y76616354D01*
X-3811686Y76650000D01*
X-3815000Y76683647D01*
X-3815000Y88261152D01*
X-3713758Y88214066D01*
X-3458260Y88151817D01*
X-3195527Y88140610D01*
X-2999636Y88170962D01*
X-3072312Y88082407D01*
X-3135919Y87963406D01*
X-3175088Y87834283D01*
X-3178560Y87799029D01*
X-3189803Y87789803D01*
X-3205597Y87770557D01*
X-3217333Y87748601D01*
X-3224560Y87724776D01*
X-3227000Y87700000D01*
X-3227000Y79700000D01*
X-3224560Y79675224D01*
X-3217333Y79651399D01*
X-3205597Y79629443D01*
X-3189803Y79610197D01*
X-3178560Y79600971D01*
X-3175088Y79565717D01*
X-3135919Y79436594D01*
X-3072312Y79317593D01*
X-2986711Y79213289D01*
X-2882407Y79127688D01*
X-2763406Y79064081D01*
X-2685000Y79040297D01*
X-2684999Y77033515D01*
X-2713267Y76745218D01*
X-2787259Y76500145D01*
X-2907446Y76274107D01*
X-3069246Y76075721D01*
X-3266497Y75912540D01*
X-3491690Y75790779D01*
X-3736247Y75715076D01*
X-4022398Y75685000D01*
X-4691353Y75685000D01*
X-4725000Y75688314D01*
X-4758647Y75685000D01*
X-4859283Y75675088D01*
X-4988406Y75635919D01*
X-5107407Y75572312D01*
X-5211711Y75486711D01*
X-5297312Y75382407D01*
X-5360919Y75263406D01*
X-5400088Y75134283D01*
X-5413314Y75000000D01*
X-5410000Y74966353D01*
X-5409999Y73733515D01*
X-5438267Y73445218D01*
X-5512259Y73200145D01*
X-5632446Y72974107D01*
X-5794246Y72775721D01*
X-5991497Y72612540D01*
X-6216690Y72490779D01*
X-6461247Y72415076D01*
X-6747398Y72385000D01*
X-18566353Y72385000D01*
X-18600000Y72388314D01*
X-18633647Y72385000D01*
X-18734283Y72375088D01*
X-18863406Y72335919D01*
X-18982407Y72272312D01*
X-19086711Y72186711D01*
X-19172312Y72082407D01*
X-19235919Y71963406D01*
X-19275088Y71834283D01*
X-19288314Y71700000D01*
X-19284999Y71666343D01*
X-19285000Y57633647D01*
X-19288314Y57600000D01*
X-19275088Y57465717D01*
X-19235919Y57336594D01*
X-19172312Y57217593D01*
X-19086711Y57113289D01*
X-18992224Y57035745D01*
X-18982407Y57027688D01*
X-18863406Y56964081D01*
X-18734283Y56924912D01*
X-18600000Y56911686D01*
X-18566353Y56915000D01*
X-6758505Y56915000D01*
X-6470218Y56886733D01*
X-6225145Y56812741D01*
X-5999110Y56692557D01*
X-5800719Y56530752D01*
X-5637540Y56333503D01*
X-5515780Y56108313D01*
X-5440076Y55863753D01*
X-5410000Y55577602D01*
X-5409999Y54333657D01*
X-5413314Y54300000D01*
X-5400088Y54165717D01*
X-5360919Y54036594D01*
X-5297312Y53917593D01*
X-5211711Y53813289D01*
X-5107407Y53727688D01*
X-4988406Y53664081D01*
X-4859283Y53624912D01*
X-4758647Y53615000D01*
X-4725000Y53611686D01*
X-4691353Y53615000D01*
X-4033505Y53615000D01*
X-3745218Y53586733D01*
X-3500145Y53512741D01*
X-3274110Y53392557D01*
X-3075719Y53230752D01*
X-2912540Y53033503D01*
X-2790780Y52808313D01*
X-2715076Y52563753D01*
X-2685000Y52277602D01*
X-2684999Y50259703D01*
X-2763406Y50235919D01*
X-2882407Y50172312D01*
X-2986711Y50086711D01*
X-3072312Y49982407D01*
X-3135919Y49863406D01*
X-3175088Y49734283D01*
X-3178560Y49699029D01*
X-3189803Y49689803D01*
X-3205597Y49670557D01*
X-3217333Y49648601D01*
X-3224560Y49624776D01*
X-3227000Y49600000D01*
X-3227000Y41600000D01*
X-3224560Y41575224D01*
X-3217333Y41551399D01*
X-3205597Y41529443D01*
X-3189803Y41510197D01*
X-3178560Y41500971D01*
X-3175088Y41465717D01*
X-3135919Y41336594D01*
X-3072312Y41217593D01*
X-2998755Y41127965D01*
X-3081740Y41148183D01*
X-3344473Y41159390D01*
X-3604344Y41119125D01*
X-3815000Y41042213D01*
X-3815000Y52616353D01*
X-3811686Y52650000D01*
X-3824912Y52784283D01*
X-3864081Y52913406D01*
X-3927688Y53032407D01*
X-4013289Y53136711D01*
X-4117593Y53222312D01*
X-4236594Y53285919D01*
X-4365717Y53325088D01*
X-4466353Y53335000D01*
X-4500000Y53338314D01*
X-4533647Y53335000D01*
X-18566353Y53335000D01*
X-18600000Y53338314D01*
X-18633647Y53335000D01*
X-18734283Y53325088D01*
X-18863406Y53285919D01*
X-18982407Y53222312D01*
X-19086711Y53136711D01*
X-19172312Y53032407D01*
X-19235919Y52913406D01*
X-19275088Y52784283D01*
X-19288314Y52650000D01*
X-19284999Y52616343D01*
X-19285000Y38583647D01*
X-19288314Y38550000D01*
X-19275088Y38415717D01*
X-19235919Y38286594D01*
X-19172312Y38167593D01*
X-19086711Y38063289D01*
X-18982407Y37977688D01*
X-18863406Y37914081D01*
X-18734283Y37874912D01*
X-18600000Y37861686D01*
X-18566353Y37865000D01*
X-4533647Y37865000D01*
X-4500000Y37861686D01*
X-4365717Y37874912D01*
X-4236594Y37914081D01*
X-4117593Y37977688D01*
X-4013289Y38063289D01*
X-3927688Y38167593D01*
X-3864081Y38286594D01*
X-3824912Y38415717D01*
X-3815000Y38516353D01*
X-3815000Y38516354D01*
X-3811686Y38550000D01*
X-3815000Y38583647D01*
X-3815000Y38601152D01*
X-3713758Y38554066D01*
X-3458260Y38491817D01*
X-3195527Y38480610D01*
X-2935656Y38520875D01*
X-2688634Y38611065D01*
X-2685000Y38613007D01*
X-2684999Y12159703D01*
X-2763406Y12135919D01*
X-2882407Y12072312D01*
X-2986711Y11986711D01*
X-3072312Y11882407D01*
X-3135919Y11763406D01*
X-3175088Y11634283D01*
X-3178560Y11599029D01*
X-3189803Y11589803D01*
X-3205597Y11570557D01*
X-3217333Y11548601D01*
X-3224560Y11524776D01*
X-3227000Y11500000D01*
X-3227000Y3500000D01*
X-3224560Y3475224D01*
X-3217333Y3451399D01*
X-3205597Y3429443D01*
X-3189803Y3410197D01*
X-3178560Y3400971D01*
X-3175088Y3365717D01*
X-3135919Y3236594D01*
X-3072312Y3117593D01*
X-2998755Y3027965D01*
X-3081740Y3048183D01*
X-3344473Y3059390D01*
X-3604344Y3019125D01*
X-3815000Y2942213D01*
X-3815000Y14516353D01*
X-3811686Y14550000D01*
X-3824912Y14684283D01*
X-3864081Y14813406D01*
X-3927688Y14932407D01*
X-4013289Y15036711D01*
X-4117593Y15122312D01*
X-4236594Y15185919D01*
X-4365717Y15225088D01*
X-4466353Y15235000D01*
X-4500000Y15238314D01*
X-4533647Y15235000D01*
X-18566353Y15235000D01*
X-18600000Y15238314D01*
X-18633647Y15235000D01*
X-18734283Y15225088D01*
X-18863406Y15185919D01*
X-18982407Y15122312D01*
X-19086711Y15036711D01*
X-19172312Y14932407D01*
X-19235919Y14813406D01*
X-19275088Y14684283D01*
X-19288314Y14550000D01*
X-19284999Y14516343D01*
X-19285000Y483647D01*
X-19288314Y450000D01*
X-19275088Y315717D01*
X-19235919Y186594D01*
X-19172312Y67593D01*
X-19086711Y-36711D01*
X-19003488Y-105011D01*
X-18982407Y-122312D01*
X-18863406Y-185919D01*
X-18734283Y-225088D01*
X-18600000Y-238314D01*
X-18566353Y-235000D01*
X-4533647Y-235000D01*
X-4500000Y-238314D01*
X-4365717Y-225088D01*
X-4236594Y-185919D01*
X-4117593Y-122312D01*
X-4013289Y-36711D01*
X-3927688Y67593D01*
X-3864081Y186594D01*
X-3824912Y315717D01*
X-3815000Y416353D01*
X-3815000Y416354D01*
X-3811686Y450000D01*
X-3815000Y483647D01*
X-3815000Y501152D01*
X-3713758Y454066D01*
X-3458260Y391817D01*
X-3195527Y380610D01*
X-2935656Y420875D01*
X-2688634Y511065D01*
X-2684999Y513008D01*
X-2684999Y33515D01*
X-2713267Y-254782D01*
X-2787259Y-499855D01*
X-2907446Y-725893D01*
X-3069246Y-924279D01*
X-3266497Y-1087460D01*
X-3491690Y-1209221D01*
X-3736247Y-1284924D01*
X-4022398Y-1315000D01*
X-38066495Y-1315000D01*
X-38354782Y-1286733D01*
X-38599855Y-1212741D01*
X-38825893Y-1092554D01*
X-39024279Y-930754D01*
X-39187460Y-733503D01*
X-39309221Y-508310D01*
X-39384924Y-263753D01*
X-39415000Y22398D01*
X-39415000Y14550000D01*
X-38338314Y14550000D01*
X-38334999Y14516343D01*
X-38335000Y483647D01*
X-38338314Y450000D01*
X-38325088Y315717D01*
X-38285919Y186594D01*
X-38222312Y67593D01*
X-38136711Y-36711D01*
X-38053488Y-105011D01*
X-38032407Y-122312D01*
X-37913406Y-185919D01*
X-37784283Y-225088D01*
X-37650000Y-238314D01*
X-37616353Y-235000D01*
X-23583647Y-235000D01*
X-23550000Y-238314D01*
X-23415717Y-225088D01*
X-23286594Y-185919D01*
X-23167593Y-122312D01*
X-23063289Y-36711D01*
X-22977688Y67593D01*
X-22914081Y186594D01*
X-22874912Y315717D01*
X-22865000Y416353D01*
X-22865000Y416354D01*
X-22861686Y450000D01*
X-22865000Y483647D01*
X-22865000Y14516353D01*
X-22861686Y14550000D01*
X-22874912Y14684283D01*
X-22914081Y14813406D01*
X-22977688Y14932407D01*
X-23063289Y15036711D01*
X-23167593Y15122312D01*
X-23286594Y15185919D01*
X-23415717Y15225088D01*
X-23516353Y15235000D01*
X-23550000Y15238314D01*
X-23583647Y15235000D01*
X-37616353Y15235000D01*
X-37650000Y15238314D01*
X-37683647Y15235000D01*
X-37784283Y15225088D01*
X-37913406Y15185919D01*
X-38032407Y15122312D01*
X-38136711Y15036711D01*
X-38222312Y14932407D01*
X-38285919Y14813406D01*
X-38325088Y14684283D01*
X-38338314Y14550000D01*
X-39415000Y14550000D01*
X-39415000Y17220883D01*
X-22785000Y17220883D01*
X-22785000Y16879117D01*
X-22718325Y16543919D01*
X-22587537Y16228169D01*
X-22397663Y15944002D01*
X-22155998Y15702337D01*
X-21871831Y15512463D01*
X-21556081Y15381675D01*
X-21220883Y15315000D01*
X-20879117Y15315000D01*
X-20543919Y15381675D01*
X-20228169Y15512463D01*
X-19944002Y15702337D01*
X-19702337Y15944002D01*
X-19512463Y16228169D01*
X-19381675Y16543919D01*
X-19315000Y16879117D01*
X-19315000Y17220883D01*
X-19381675Y17556081D01*
X-19512463Y17871831D01*
X-19702337Y18155998D01*
X-19944002Y18397663D01*
X-20228169Y18587537D01*
X-20543919Y18718325D01*
X-20879117Y18785000D01*
X-21220883Y18785000D01*
X-21556081Y18718325D01*
X-21871831Y18587537D01*
X-22155998Y18397663D01*
X-22397663Y18155998D01*
X-22587537Y17871831D01*
X-22718325Y17556081D01*
X-22785000Y17220883D01*
X-39415000Y17220883D01*
X-39415000Y33600000D01*
X-38338314Y33600000D01*
X-38334999Y33566343D01*
X-38335000Y19533647D01*
X-38338314Y19500000D01*
X-38325088Y19365717D01*
X-38285919Y19236594D01*
X-38222312Y19117593D01*
X-38136711Y19013289D01*
X-38032407Y18927688D01*
X-37913406Y18864081D01*
X-37784283Y18824912D01*
X-37650000Y18811686D01*
X-37616353Y18815000D01*
X-23583647Y18815000D01*
X-23550000Y18811686D01*
X-23415717Y18824912D01*
X-23286594Y18864081D01*
X-23167593Y18927688D01*
X-23063289Y19013289D01*
X-22977688Y19117593D01*
X-22914081Y19236594D01*
X-22874912Y19365717D01*
X-22865000Y19466353D01*
X-22865000Y19466354D01*
X-22861686Y19500000D01*
X-22865000Y19533647D01*
X-22865000Y33566353D01*
X-22861686Y33600000D01*
X-19288314Y33600000D01*
X-19284999Y33566343D01*
X-19285000Y19533647D01*
X-19288314Y19500000D01*
X-19275088Y19365717D01*
X-19235919Y19236594D01*
X-19172312Y19117593D01*
X-19086711Y19013289D01*
X-18982407Y18927688D01*
X-18863406Y18864081D01*
X-18734283Y18824912D01*
X-18600000Y18811686D01*
X-18566353Y18815000D01*
X-4533647Y18815000D01*
X-4500000Y18811686D01*
X-4365717Y18824912D01*
X-4236594Y18864081D01*
X-4117593Y18927688D01*
X-4013289Y19013289D01*
X-3927688Y19117593D01*
X-3864081Y19236594D01*
X-3824912Y19365717D01*
X-3815000Y19466353D01*
X-3815000Y19466354D01*
X-3811686Y19500000D01*
X-3815000Y19533647D01*
X-3815000Y33566353D01*
X-3811686Y33600000D01*
X-3824912Y33734283D01*
X-3864081Y33863406D01*
X-3927688Y33982407D01*
X-4013289Y34086711D01*
X-4117593Y34172312D01*
X-4236594Y34235919D01*
X-4365717Y34275088D01*
X-4466353Y34285000D01*
X-4500000Y34288314D01*
X-4533647Y34285000D01*
X-18566353Y34285000D01*
X-18600000Y34288314D01*
X-18633647Y34285000D01*
X-18734283Y34275088D01*
X-18863406Y34235919D01*
X-18982407Y34172312D01*
X-19086711Y34086711D01*
X-19172312Y33982407D01*
X-19235919Y33863406D01*
X-19275088Y33734283D01*
X-19288314Y33600000D01*
X-22861686Y33600000D01*
X-22874912Y33734283D01*
X-22914081Y33863406D01*
X-22977688Y33982407D01*
X-23063289Y34086711D01*
X-23167593Y34172312D01*
X-23286594Y34235919D01*
X-23415717Y34275088D01*
X-23516353Y34285000D01*
X-23550000Y34288314D01*
X-23583647Y34285000D01*
X-37616353Y34285000D01*
X-37650000Y34288314D01*
X-37683647Y34285000D01*
X-37784283Y34275088D01*
X-37913406Y34235919D01*
X-38032407Y34172312D01*
X-38136711Y34086711D01*
X-38222312Y33982407D01*
X-38285919Y33863406D01*
X-38325088Y33734283D01*
X-38338314Y33600000D01*
X-39415000Y33600000D01*
X-39415000Y36270883D01*
X-22785000Y36270883D01*
X-22785000Y35929117D01*
X-22718325Y35593919D01*
X-22587537Y35278169D01*
X-22397663Y34994002D01*
X-22155998Y34752337D01*
X-21871831Y34562463D01*
X-21556081Y34431675D01*
X-21220883Y34365000D01*
X-20879117Y34365000D01*
X-20543919Y34431675D01*
X-20228169Y34562463D01*
X-19944002Y34752337D01*
X-19702337Y34994002D01*
X-19512463Y35278169D01*
X-19381675Y35593919D01*
X-19315000Y35929117D01*
X-19315000Y36270883D01*
X-19381675Y36606081D01*
X-19512463Y36921831D01*
X-19702337Y37205998D01*
X-19944002Y37447663D01*
X-20228169Y37637537D01*
X-20543919Y37768325D01*
X-20879117Y37835000D01*
X-21220883Y37835000D01*
X-21556081Y37768325D01*
X-21871831Y37637537D01*
X-22155998Y37447663D01*
X-22397663Y37205998D01*
X-22587537Y36921831D01*
X-22718325Y36606081D01*
X-22785000Y36270883D01*
X-39415000Y36270883D01*
X-39415000Y52650000D01*
X-38338314Y52650000D01*
X-38334999Y52616343D01*
X-38335000Y38583647D01*
X-38338314Y38550000D01*
X-38325088Y38415717D01*
X-38285919Y38286594D01*
X-38222312Y38167593D01*
X-38136711Y38063289D01*
X-38032407Y37977688D01*
X-37913406Y37914081D01*
X-37784283Y37874912D01*
X-37650000Y37861686D01*
X-37616353Y37865000D01*
X-23583647Y37865000D01*
X-23550000Y37861686D01*
X-23415717Y37874912D01*
X-23286594Y37914081D01*
X-23167593Y37977688D01*
X-23063289Y38063289D01*
X-22977688Y38167593D01*
X-22914081Y38286594D01*
X-22874912Y38415717D01*
X-22865000Y38516353D01*
X-22865000Y38516354D01*
X-22861686Y38550000D01*
X-22865000Y38583647D01*
X-22865000Y52616353D01*
X-22861686Y52650000D01*
X-22874912Y52784283D01*
X-22914081Y52913406D01*
X-22977688Y53032407D01*
X-23063289Y53136711D01*
X-23167593Y53222312D01*
X-23286594Y53285919D01*
X-23415717Y53325088D01*
X-23516353Y53335000D01*
X-23550000Y53338314D01*
X-23583647Y53335000D01*
X-37616353Y53335000D01*
X-37650000Y53338314D01*
X-37683647Y53335000D01*
X-37784283Y53325088D01*
X-37913406Y53285919D01*
X-38032407Y53222312D01*
X-38136711Y53136711D01*
X-38222312Y53032407D01*
X-38285919Y52913406D01*
X-38325088Y52784283D01*
X-38338314Y52650000D01*
X-39415000Y52650000D01*
X-39415000Y55320883D01*
X-22785000Y55320883D01*
X-22785000Y54979117D01*
X-22718325Y54643919D01*
X-22587537Y54328169D01*
X-22397663Y54044002D01*
X-22155998Y53802337D01*
X-21871831Y53612463D01*
X-21556081Y53481675D01*
X-21220883Y53415000D01*
X-20879117Y53415000D01*
X-20543919Y53481675D01*
X-20228169Y53612463D01*
X-19944002Y53802337D01*
X-19702337Y54044002D01*
X-19512463Y54328169D01*
X-19381675Y54643919D01*
X-19315000Y54979117D01*
X-19315000Y55320883D01*
X-19381675Y55656081D01*
X-19512463Y55971831D01*
X-19702337Y56255998D01*
X-19944002Y56497663D01*
X-20228169Y56687537D01*
X-20543919Y56818325D01*
X-20879117Y56885000D01*
X-21220883Y56885000D01*
X-21556081Y56818325D01*
X-21871831Y56687537D01*
X-22155998Y56497663D01*
X-22397663Y56255998D01*
X-22587537Y55971831D01*
X-22718325Y55656081D01*
X-22785000Y55320883D01*
X-39415000Y55320883D01*
X-39415000Y71700000D01*
X-38338314Y71700000D01*
X-38334999Y71666343D01*
X-38335000Y57633647D01*
X-38338314Y57600000D01*
X-38325088Y57465717D01*
X-38285919Y57336594D01*
X-38222312Y57217593D01*
X-38136711Y57113289D01*
X-38042224Y57035745D01*
X-38032407Y57027688D01*
X-37913406Y56964081D01*
X-37784283Y56924912D01*
X-37650000Y56911686D01*
X-37616353Y56915000D01*
X-23583647Y56915000D01*
X-23550000Y56911686D01*
X-23415717Y56924912D01*
X-23286594Y56964081D01*
X-23167593Y57027688D01*
X-23063289Y57113289D01*
X-22977688Y57217593D01*
X-22914081Y57336594D01*
X-22874912Y57465717D01*
X-22865000Y57566353D01*
X-22865000Y57566354D01*
X-22861686Y57600000D01*
X-22865000Y57633647D01*
X-22865000Y71666353D01*
X-22861686Y71700000D01*
X-22874912Y71834283D01*
X-22914081Y71963406D01*
X-22977688Y72082407D01*
X-23063289Y72186711D01*
X-23167593Y72272312D01*
X-23286594Y72335919D01*
X-23415717Y72375088D01*
X-23516353Y72385000D01*
X-23550000Y72388314D01*
X-23583647Y72385000D01*
X-37616353Y72385000D01*
X-37650000Y72388314D01*
X-37683647Y72385000D01*
X-37784283Y72375088D01*
X-37913406Y72335919D01*
X-38032407Y72272312D01*
X-38136711Y72186711D01*
X-38222312Y72082407D01*
X-38285919Y71963406D01*
X-38325088Y71834283D01*
X-38338314Y71700000D01*
X-39415000Y71700000D01*
X-39415000Y74370883D01*
X-22785000Y74370883D01*
X-22785000Y74029117D01*
X-22718325Y73693919D01*
X-22587537Y73378169D01*
X-22397663Y73094002D01*
X-22155998Y72852337D01*
X-21871831Y72662463D01*
X-21556081Y72531675D01*
X-21220883Y72465000D01*
X-20879117Y72465000D01*
X-20543919Y72531675D01*
X-20228169Y72662463D01*
X-19944002Y72852337D01*
X-19702337Y73094002D01*
X-19512463Y73378169D01*
X-19381675Y73693919D01*
X-19315000Y74029117D01*
X-19315000Y74370883D01*
X-19381675Y74706081D01*
X-19512463Y75021831D01*
X-19702337Y75305998D01*
X-19944002Y75547663D01*
X-20228169Y75737537D01*
X-20543919Y75868325D01*
X-20879117Y75935000D01*
X-21220883Y75935000D01*
X-21556081Y75868325D01*
X-21871831Y75737537D01*
X-22155998Y75547663D01*
X-22397663Y75305998D01*
X-22587537Y75021831D01*
X-22718325Y74706081D01*
X-22785000Y74370883D01*
X-39415000Y74370883D01*
X-39415000Y90750000D01*
X-38338314Y90750000D01*
X-38334999Y90716343D01*
X-38335000Y76683647D01*
X-38338314Y76650000D01*
X-38325088Y76515717D01*
X-38285919Y76386594D01*
X-38222312Y76267593D01*
X-38136711Y76163289D01*
X-38082177Y76118534D01*
X-38032407Y76077688D01*
X-37913406Y76014081D01*
X-37784283Y75974912D01*
X-37650000Y75961686D01*
X-37616353Y75965000D01*
X-23583647Y75965000D01*
X-23550000Y75961686D01*
X-23415717Y75974912D01*
X-23286594Y76014081D01*
X-23167593Y76077688D01*
X-23063289Y76163289D01*
X-22977688Y76267593D01*
X-22914081Y76386594D01*
X-22874912Y76515717D01*
X-22865000Y76616353D01*
X-22865000Y76616354D01*
X-22861686Y76650000D01*
X-22865000Y76683647D01*
X-22865000Y90716353D01*
X-22861686Y90750000D01*
X-22868086Y90814984D01*
X-22874912Y90884283D01*
X-22914081Y91013406D01*
X-22977688Y91132407D01*
X-22996663Y91155528D01*
X-23063289Y91236711D01*
X-23167593Y91322312D01*
X-23286594Y91385919D01*
X-23415717Y91425088D01*
X-23516353Y91435000D01*
X-23550000Y91438314D01*
X-23583647Y91435000D01*
X-37616353Y91435000D01*
X-37650000Y91438314D01*
X-37683647Y91435000D01*
X-37784283Y91425088D01*
X-37913406Y91385919D01*
X-38032407Y91322312D01*
X-38136711Y91236711D01*
X-38222312Y91132407D01*
X-38285919Y91013406D01*
X-38325088Y90884283D01*
X-38338314Y90750000D01*
X-39415000Y90750000D01*
X-39415000Y91166495D01*
X-39386733Y91454782D01*
X-39312741Y91699855D01*
X-39192557Y91925890D01*
X-39030752Y92124281D01*
X-38833503Y92287460D01*
X-38608313Y92409220D01*
X-38363753Y92484924D01*
X-38077602Y92515000D01*
X-4033505Y92515000D01*
X-3745218Y92486733D01*
X-3745218Y92486733D01*
G37*
X-3745218Y92486733D02*
X-3500145Y92412741D01*
X-3274110Y92292557D01*
X-3075719Y92130752D01*
X-2912540Y91933503D01*
X-2790780Y91708313D01*
X-2715076Y91463753D01*
X-2685000Y91177602D01*
X-2685000Y90680245D01*
X-2826242Y90745934D01*
X-3081740Y90808183D01*
X-3344473Y90819390D01*
X-3604344Y90779125D01*
X-3815000Y90702213D01*
X-3815000Y90716353D01*
X-3811686Y90750000D01*
X-3818086Y90814984D01*
X-3824912Y90884283D01*
X-3864081Y91013406D01*
X-3927688Y91132407D01*
X-3946663Y91155528D01*
X-4013289Y91236711D01*
X-4117593Y91322312D01*
X-4236594Y91385919D01*
X-4365717Y91425088D01*
X-4466353Y91435000D01*
X-4500000Y91438314D01*
X-4533647Y91435000D01*
X-18566353Y91435000D01*
X-18600000Y91438314D01*
X-18633647Y91435000D01*
X-18734283Y91425088D01*
X-18863406Y91385919D01*
X-18982407Y91322312D01*
X-19086711Y91236711D01*
X-19172312Y91132407D01*
X-19235919Y91013406D01*
X-19275088Y90884283D01*
X-19288314Y90750000D01*
X-19284999Y90716343D01*
X-19285000Y76683647D01*
X-19288314Y76650000D01*
X-19275088Y76515717D01*
X-19235919Y76386594D01*
X-19172312Y76267593D01*
X-19086711Y76163289D01*
X-19032177Y76118534D01*
X-18982407Y76077688D01*
X-18863406Y76014081D01*
X-18734283Y75974912D01*
X-18600000Y75961686D01*
X-18566353Y75965000D01*
X-4533647Y75965000D01*
X-4500000Y75961686D01*
X-4365717Y75974912D01*
X-4236594Y76014081D01*
X-4117593Y76077688D01*
X-4013289Y76163289D01*
X-3927688Y76267593D01*
X-3864081Y76386594D01*
X-3824912Y76515717D01*
X-3815000Y76616353D01*
X-3815000Y76616354D01*
X-3811686Y76650000D01*
X-3815000Y76683647D01*
X-3815000Y88261152D01*
X-3713758Y88214066D01*
X-3458260Y88151817D01*
X-3195527Y88140610D01*
X-2999636Y88170962D01*
X-3072312Y88082407D01*
X-3135919Y87963406D01*
X-3175088Y87834283D01*
X-3178560Y87799029D01*
X-3189803Y87789803D01*
X-3205597Y87770557D01*
X-3217333Y87748601D01*
X-3224560Y87724776D01*
X-3227000Y87700000D01*
X-3227000Y79700000D01*
X-3224560Y79675224D01*
X-3217333Y79651399D01*
X-3205597Y79629443D01*
X-3189803Y79610197D01*
X-3178560Y79600971D01*
X-3175088Y79565717D01*
X-3135919Y79436594D01*
X-3072312Y79317593D01*
X-2986711Y79213289D01*
X-2882407Y79127688D01*
X-2763406Y79064081D01*
X-2685000Y79040297D01*
X-2684999Y77033515D01*
X-2713267Y76745218D01*
X-2787259Y76500145D01*
X-2907446Y76274107D01*
X-3069246Y76075721D01*
X-3266497Y75912540D01*
X-3491690Y75790779D01*
X-3736247Y75715076D01*
X-4022398Y75685000D01*
X-4691353Y75685000D01*
X-4725000Y75688314D01*
X-4758647Y75685000D01*
X-4859283Y75675088D01*
X-4988406Y75635919D01*
X-5107407Y75572312D01*
X-5211711Y75486711D01*
X-5297312Y75382407D01*
X-5360919Y75263406D01*
X-5400088Y75134283D01*
X-5413314Y75000000D01*
X-5410000Y74966353D01*
X-5409999Y73733515D01*
X-5438267Y73445218D01*
X-5512259Y73200145D01*
X-5632446Y72974107D01*
X-5794246Y72775721D01*
X-5991497Y72612540D01*
X-6216690Y72490779D01*
X-6461247Y72415076D01*
X-6747398Y72385000D01*
X-18566353Y72385000D01*
X-18600000Y72388314D01*
X-18633647Y72385000D01*
X-18734283Y72375088D01*
X-18863406Y72335919D01*
X-18982407Y72272312D01*
X-19086711Y72186711D01*
X-19172312Y72082407D01*
X-19235919Y71963406D01*
X-19275088Y71834283D01*
X-19288314Y71700000D01*
X-19284999Y71666343D01*
X-19285000Y57633647D01*
X-19288314Y57600000D01*
X-19275088Y57465717D01*
X-19235919Y57336594D01*
X-19172312Y57217593D01*
X-19086711Y57113289D01*
X-18992224Y57035745D01*
X-18982407Y57027688D01*
X-18863406Y56964081D01*
X-18734283Y56924912D01*
X-18600000Y56911686D01*
X-18566353Y56915000D01*
X-6758505Y56915000D01*
X-6470218Y56886733D01*
X-6225145Y56812741D01*
X-5999110Y56692557D01*
X-5800719Y56530752D01*
X-5637540Y56333503D01*
X-5515780Y56108313D01*
X-5440076Y55863753D01*
X-5410000Y55577602D01*
X-5409999Y54333657D01*
X-5413314Y54300000D01*
X-5400088Y54165717D01*
X-5360919Y54036594D01*
X-5297312Y53917593D01*
X-5211711Y53813289D01*
X-5107407Y53727688D01*
X-4988406Y53664081D01*
X-4859283Y53624912D01*
X-4758647Y53615000D01*
X-4725000Y53611686D01*
X-4691353Y53615000D01*
X-4033505Y53615000D01*
X-3745218Y53586733D01*
X-3500145Y53512741D01*
X-3274110Y53392557D01*
X-3075719Y53230752D01*
X-2912540Y53033503D01*
X-2790780Y52808313D01*
X-2715076Y52563753D01*
X-2685000Y52277602D01*
X-2684999Y50259703D01*
X-2763406Y50235919D01*
X-2882407Y50172312D01*
X-2986711Y50086711D01*
X-3072312Y49982407D01*
X-3135919Y49863406D01*
X-3175088Y49734283D01*
X-3178560Y49699029D01*
X-3189803Y49689803D01*
X-3205597Y49670557D01*
X-3217333Y49648601D01*
X-3224560Y49624776D01*
X-3227000Y49600000D01*
X-3227000Y41600000D01*
X-3224560Y41575224D01*
X-3217333Y41551399D01*
X-3205597Y41529443D01*
X-3189803Y41510197D01*
X-3178560Y41500971D01*
X-3175088Y41465717D01*
X-3135919Y41336594D01*
X-3072312Y41217593D01*
X-2998755Y41127965D01*
X-3081740Y41148183D01*
X-3344473Y41159390D01*
X-3604344Y41119125D01*
X-3815000Y41042213D01*
X-3815000Y52616353D01*
X-3811686Y52650000D01*
X-3824912Y52784283D01*
X-3864081Y52913406D01*
X-3927688Y53032407D01*
X-4013289Y53136711D01*
X-4117593Y53222312D01*
X-4236594Y53285919D01*
X-4365717Y53325088D01*
X-4466353Y53335000D01*
X-4500000Y53338314D01*
X-4533647Y53335000D01*
X-18566353Y53335000D01*
X-18600000Y53338314D01*
X-18633647Y53335000D01*
X-18734283Y53325088D01*
X-18863406Y53285919D01*
X-18982407Y53222312D01*
X-19086711Y53136711D01*
X-19172312Y53032407D01*
X-19235919Y52913406D01*
X-19275088Y52784283D01*
X-19288314Y52650000D01*
X-19284999Y52616343D01*
X-19285000Y38583647D01*
X-19288314Y38550000D01*
X-19275088Y38415717D01*
X-19235919Y38286594D01*
X-19172312Y38167593D01*
X-19086711Y38063289D01*
X-18982407Y37977688D01*
X-18863406Y37914081D01*
X-18734283Y37874912D01*
X-18600000Y37861686D01*
X-18566353Y37865000D01*
X-4533647Y37865000D01*
X-4500000Y37861686D01*
X-4365717Y37874912D01*
X-4236594Y37914081D01*
X-4117593Y37977688D01*
X-4013289Y38063289D01*
X-3927688Y38167593D01*
X-3864081Y38286594D01*
X-3824912Y38415717D01*
X-3815000Y38516353D01*
X-3815000Y38516354D01*
X-3811686Y38550000D01*
X-3815000Y38583647D01*
X-3815000Y38601152D01*
X-3713758Y38554066D01*
X-3458260Y38491817D01*
X-3195527Y38480610D01*
X-2935656Y38520875D01*
X-2688634Y38611065D01*
X-2685000Y38613007D01*
X-2684999Y12159703D01*
X-2763406Y12135919D01*
X-2882407Y12072312D01*
X-2986711Y11986711D01*
X-3072312Y11882407D01*
X-3135919Y11763406D01*
X-3175088Y11634283D01*
X-3178560Y11599029D01*
X-3189803Y11589803D01*
X-3205597Y11570557D01*
X-3217333Y11548601D01*
X-3224560Y11524776D01*
X-3227000Y11500000D01*
X-3227000Y3500000D01*
X-3224560Y3475224D01*
X-3217333Y3451399D01*
X-3205597Y3429443D01*
X-3189803Y3410197D01*
X-3178560Y3400971D01*
X-3175088Y3365717D01*
X-3135919Y3236594D01*
X-3072312Y3117593D01*
X-2998755Y3027965D01*
X-3081740Y3048183D01*
X-3344473Y3059390D01*
X-3604344Y3019125D01*
X-3815000Y2942213D01*
X-3815000Y14516353D01*
X-3811686Y14550000D01*
X-3824912Y14684283D01*
X-3864081Y14813406D01*
X-3927688Y14932407D01*
X-4013289Y15036711D01*
X-4117593Y15122312D01*
X-4236594Y15185919D01*
X-4365717Y15225088D01*
X-4466353Y15235000D01*
X-4500000Y15238314D01*
X-4533647Y15235000D01*
X-18566353Y15235000D01*
X-18600000Y15238314D01*
X-18633647Y15235000D01*
X-18734283Y15225088D01*
X-18863406Y15185919D01*
X-18982407Y15122312D01*
X-19086711Y15036711D01*
X-19172312Y14932407D01*
X-19235919Y14813406D01*
X-19275088Y14684283D01*
X-19288314Y14550000D01*
X-19284999Y14516343D01*
X-19285000Y483647D01*
X-19288314Y450000D01*
X-19275088Y315717D01*
X-19235919Y186594D01*
X-19172312Y67593D01*
X-19086711Y-36711D01*
X-19003488Y-105011D01*
X-18982407Y-122312D01*
X-18863406Y-185919D01*
X-18734283Y-225088D01*
X-18600000Y-238314D01*
X-18566353Y-235000D01*
X-4533647Y-235000D01*
X-4500000Y-238314D01*
X-4365717Y-225088D01*
X-4236594Y-185919D01*
X-4117593Y-122312D01*
X-4013289Y-36711D01*
X-3927688Y67593D01*
X-3864081Y186594D01*
X-3824912Y315717D01*
X-3815000Y416353D01*
X-3815000Y416354D01*
X-3811686Y450000D01*
X-3815000Y483647D01*
X-3815000Y501152D01*
X-3713758Y454066D01*
X-3458260Y391817D01*
X-3195527Y380610D01*
X-2935656Y420875D01*
X-2688634Y511065D01*
X-2684999Y513008D01*
X-2684999Y33515D01*
X-2713267Y-254782D01*
X-2787259Y-499855D01*
X-2907446Y-725893D01*
X-3069246Y-924279D01*
X-3266497Y-1087460D01*
X-3491690Y-1209221D01*
X-3736247Y-1284924D01*
X-4022398Y-1315000D01*
X-38066495Y-1315000D01*
X-38354782Y-1286733D01*
X-38599855Y-1212741D01*
X-38825893Y-1092554D01*
X-39024279Y-930754D01*
X-39187460Y-733503D01*
X-39309221Y-508310D01*
X-39384924Y-263753D01*
X-39415000Y22398D01*
X-39415000Y14550000D01*
X-38338314Y14550000D01*
X-38334999Y14516343D01*
X-38335000Y483647D01*
X-38338314Y450000D01*
X-38325088Y315717D01*
X-38285919Y186594D01*
X-38222312Y67593D01*
X-38136711Y-36711D01*
X-38053488Y-105011D01*
X-38032407Y-122312D01*
X-37913406Y-185919D01*
X-37784283Y-225088D01*
X-37650000Y-238314D01*
X-37616353Y-235000D01*
X-23583647Y-235000D01*
X-23550000Y-238314D01*
X-23415717Y-225088D01*
X-23286594Y-185919D01*
X-23167593Y-122312D01*
X-23063289Y-36711D01*
X-22977688Y67593D01*
X-22914081Y186594D01*
X-22874912Y315717D01*
X-22865000Y416353D01*
X-22865000Y416354D01*
X-22861686Y450000D01*
X-22865000Y483647D01*
X-22865000Y14516353D01*
X-22861686Y14550000D01*
X-22874912Y14684283D01*
X-22914081Y14813406D01*
X-22977688Y14932407D01*
X-23063289Y15036711D01*
X-23167593Y15122312D01*
X-23286594Y15185919D01*
X-23415717Y15225088D01*
X-23516353Y15235000D01*
X-23550000Y15238314D01*
X-23583647Y15235000D01*
X-37616353Y15235000D01*
X-37650000Y15238314D01*
X-37683647Y15235000D01*
X-37784283Y15225088D01*
X-37913406Y15185919D01*
X-38032407Y15122312D01*
X-38136711Y15036711D01*
X-38222312Y14932407D01*
X-38285919Y14813406D01*
X-38325088Y14684283D01*
X-38338314Y14550000D01*
X-39415000Y14550000D01*
X-39415000Y17220883D01*
X-22785000Y17220883D01*
X-22785000Y16879117D01*
X-22718325Y16543919D01*
X-22587537Y16228169D01*
X-22397663Y15944002D01*
X-22155998Y15702337D01*
X-21871831Y15512463D01*
X-21556081Y15381675D01*
X-21220883Y15315000D01*
X-20879117Y15315000D01*
X-20543919Y15381675D01*
X-20228169Y15512463D01*
X-19944002Y15702337D01*
X-19702337Y15944002D01*
X-19512463Y16228169D01*
X-19381675Y16543919D01*
X-19315000Y16879117D01*
X-19315000Y17220883D01*
X-19381675Y17556081D01*
X-19512463Y17871831D01*
X-19702337Y18155998D01*
X-19944002Y18397663D01*
X-20228169Y18587537D01*
X-20543919Y18718325D01*
X-20879117Y18785000D01*
X-21220883Y18785000D01*
X-21556081Y18718325D01*
X-21871831Y18587537D01*
X-22155998Y18397663D01*
X-22397663Y18155998D01*
X-22587537Y17871831D01*
X-22718325Y17556081D01*
X-22785000Y17220883D01*
X-39415000Y17220883D01*
X-39415000Y33600000D01*
X-38338314Y33600000D01*
X-38334999Y33566343D01*
X-38335000Y19533647D01*
X-38338314Y19500000D01*
X-38325088Y19365717D01*
X-38285919Y19236594D01*
X-38222312Y19117593D01*
X-38136711Y19013289D01*
X-38032407Y18927688D01*
X-37913406Y18864081D01*
X-37784283Y18824912D01*
X-37650000Y18811686D01*
X-37616353Y18815000D01*
X-23583647Y18815000D01*
X-23550000Y18811686D01*
X-23415717Y18824912D01*
X-23286594Y18864081D01*
X-23167593Y18927688D01*
X-23063289Y19013289D01*
X-22977688Y19117593D01*
X-22914081Y19236594D01*
X-22874912Y19365717D01*
X-22865000Y19466353D01*
X-22865000Y19466354D01*
X-22861686Y19500000D01*
X-22865000Y19533647D01*
X-22865000Y33566353D01*
X-22861686Y33600000D01*
X-19288314Y33600000D01*
X-19284999Y33566343D01*
X-19285000Y19533647D01*
X-19288314Y19500000D01*
X-19275088Y19365717D01*
X-19235919Y19236594D01*
X-19172312Y19117593D01*
X-19086711Y19013289D01*
X-18982407Y18927688D01*
X-18863406Y18864081D01*
X-18734283Y18824912D01*
X-18600000Y18811686D01*
X-18566353Y18815000D01*
X-4533647Y18815000D01*
X-4500000Y18811686D01*
X-4365717Y18824912D01*
X-4236594Y18864081D01*
X-4117593Y18927688D01*
X-4013289Y19013289D01*
X-3927688Y19117593D01*
X-3864081Y19236594D01*
X-3824912Y19365717D01*
X-3815000Y19466353D01*
X-3815000Y19466354D01*
X-3811686Y19500000D01*
X-3815000Y19533647D01*
X-3815000Y33566353D01*
X-3811686Y33600000D01*
X-3824912Y33734283D01*
X-3864081Y33863406D01*
X-3927688Y33982407D01*
X-4013289Y34086711D01*
X-4117593Y34172312D01*
X-4236594Y34235919D01*
X-4365717Y34275088D01*
X-4466353Y34285000D01*
X-4500000Y34288314D01*
X-4533647Y34285000D01*
X-18566353Y34285000D01*
X-18600000Y34288314D01*
X-18633647Y34285000D01*
X-18734283Y34275088D01*
X-18863406Y34235919D01*
X-18982407Y34172312D01*
X-19086711Y34086711D01*
X-19172312Y33982407D01*
X-19235919Y33863406D01*
X-19275088Y33734283D01*
X-19288314Y33600000D01*
X-22861686Y33600000D01*
X-22874912Y33734283D01*
X-22914081Y33863406D01*
X-22977688Y33982407D01*
X-23063289Y34086711D01*
X-23167593Y34172312D01*
X-23286594Y34235919D01*
X-23415717Y34275088D01*
X-23516353Y34285000D01*
X-23550000Y34288314D01*
X-23583647Y34285000D01*
X-37616353Y34285000D01*
X-37650000Y34288314D01*
X-37683647Y34285000D01*
X-37784283Y34275088D01*
X-37913406Y34235919D01*
X-38032407Y34172312D01*
X-38136711Y34086711D01*
X-38222312Y33982407D01*
X-38285919Y33863406D01*
X-38325088Y33734283D01*
X-38338314Y33600000D01*
X-39415000Y33600000D01*
X-39415000Y36270883D01*
X-22785000Y36270883D01*
X-22785000Y35929117D01*
X-22718325Y35593919D01*
X-22587537Y35278169D01*
X-22397663Y34994002D01*
X-22155998Y34752337D01*
X-21871831Y34562463D01*
X-21556081Y34431675D01*
X-21220883Y34365000D01*
X-20879117Y34365000D01*
X-20543919Y34431675D01*
X-20228169Y34562463D01*
X-19944002Y34752337D01*
X-19702337Y34994002D01*
X-19512463Y35278169D01*
X-19381675Y35593919D01*
X-19315000Y35929117D01*
X-19315000Y36270883D01*
X-19381675Y36606081D01*
X-19512463Y36921831D01*
X-19702337Y37205998D01*
X-19944002Y37447663D01*
X-20228169Y37637537D01*
X-20543919Y37768325D01*
X-20879117Y37835000D01*
X-21220883Y37835000D01*
X-21556081Y37768325D01*
X-21871831Y37637537D01*
X-22155998Y37447663D01*
X-22397663Y37205998D01*
X-22587537Y36921831D01*
X-22718325Y36606081D01*
X-22785000Y36270883D01*
X-39415000Y36270883D01*
X-39415000Y52650000D01*
X-38338314Y52650000D01*
X-38334999Y52616343D01*
X-38335000Y38583647D01*
X-38338314Y38550000D01*
X-38325088Y38415717D01*
X-38285919Y38286594D01*
X-38222312Y38167593D01*
X-38136711Y38063289D01*
X-38032407Y37977688D01*
X-37913406Y37914081D01*
X-37784283Y37874912D01*
X-37650000Y37861686D01*
X-37616353Y37865000D01*
X-23583647Y37865000D01*
X-23550000Y37861686D01*
X-23415717Y37874912D01*
X-23286594Y37914081D01*
X-23167593Y37977688D01*
X-23063289Y38063289D01*
X-22977688Y38167593D01*
X-22914081Y38286594D01*
X-22874912Y38415717D01*
X-22865000Y38516353D01*
X-22865000Y38516354D01*
X-22861686Y38550000D01*
X-22865000Y38583647D01*
X-22865000Y52616353D01*
X-22861686Y52650000D01*
X-22874912Y52784283D01*
X-22914081Y52913406D01*
X-22977688Y53032407D01*
X-23063289Y53136711D01*
X-23167593Y53222312D01*
X-23286594Y53285919D01*
X-23415717Y53325088D01*
X-23516353Y53335000D01*
X-23550000Y53338314D01*
X-23583647Y53335000D01*
X-37616353Y53335000D01*
X-37650000Y53338314D01*
X-37683647Y53335000D01*
X-37784283Y53325088D01*
X-37913406Y53285919D01*
X-38032407Y53222312D01*
X-38136711Y53136711D01*
X-38222312Y53032407D01*
X-38285919Y52913406D01*
X-38325088Y52784283D01*
X-38338314Y52650000D01*
X-39415000Y52650000D01*
X-39415000Y55320883D01*
X-22785000Y55320883D01*
X-22785000Y54979117D01*
X-22718325Y54643919D01*
X-22587537Y54328169D01*
X-22397663Y54044002D01*
X-22155998Y53802337D01*
X-21871831Y53612463D01*
X-21556081Y53481675D01*
X-21220883Y53415000D01*
X-20879117Y53415000D01*
X-20543919Y53481675D01*
X-20228169Y53612463D01*
X-19944002Y53802337D01*
X-19702337Y54044002D01*
X-19512463Y54328169D01*
X-19381675Y54643919D01*
X-19315000Y54979117D01*
X-19315000Y55320883D01*
X-19381675Y55656081D01*
X-19512463Y55971831D01*
X-19702337Y56255998D01*
X-19944002Y56497663D01*
X-20228169Y56687537D01*
X-20543919Y56818325D01*
X-20879117Y56885000D01*
X-21220883Y56885000D01*
X-21556081Y56818325D01*
X-21871831Y56687537D01*
X-22155998Y56497663D01*
X-22397663Y56255998D01*
X-22587537Y55971831D01*
X-22718325Y55656081D01*
X-22785000Y55320883D01*
X-39415000Y55320883D01*
X-39415000Y71700000D01*
X-38338314Y71700000D01*
X-38334999Y71666343D01*
X-38335000Y57633647D01*
X-38338314Y57600000D01*
X-38325088Y57465717D01*
X-38285919Y57336594D01*
X-38222312Y57217593D01*
X-38136711Y57113289D01*
X-38042224Y57035745D01*
X-38032407Y57027688D01*
X-37913406Y56964081D01*
X-37784283Y56924912D01*
X-37650000Y56911686D01*
X-37616353Y56915000D01*
X-23583647Y56915000D01*
X-23550000Y56911686D01*
X-23415717Y56924912D01*
X-23286594Y56964081D01*
X-23167593Y57027688D01*
X-23063289Y57113289D01*
X-22977688Y57217593D01*
X-22914081Y57336594D01*
X-22874912Y57465717D01*
X-22865000Y57566353D01*
X-22865000Y57566354D01*
X-22861686Y57600000D01*
X-22865000Y57633647D01*
X-22865000Y71666353D01*
X-22861686Y71700000D01*
X-22874912Y71834283D01*
X-22914081Y71963406D01*
X-22977688Y72082407D01*
X-23063289Y72186711D01*
X-23167593Y72272312D01*
X-23286594Y72335919D01*
X-23415717Y72375088D01*
X-23516353Y72385000D01*
X-23550000Y72388314D01*
X-23583647Y72385000D01*
X-37616353Y72385000D01*
X-37650000Y72388314D01*
X-37683647Y72385000D01*
X-37784283Y72375088D01*
X-37913406Y72335919D01*
X-38032407Y72272312D01*
X-38136711Y72186711D01*
X-38222312Y72082407D01*
X-38285919Y71963406D01*
X-38325088Y71834283D01*
X-38338314Y71700000D01*
X-39415000Y71700000D01*
X-39415000Y74370883D01*
X-22785000Y74370883D01*
X-22785000Y74029117D01*
X-22718325Y73693919D01*
X-22587537Y73378169D01*
X-22397663Y73094002D01*
X-22155998Y72852337D01*
X-21871831Y72662463D01*
X-21556081Y72531675D01*
X-21220883Y72465000D01*
X-20879117Y72465000D01*
X-20543919Y72531675D01*
X-20228169Y72662463D01*
X-19944002Y72852337D01*
X-19702337Y73094002D01*
X-19512463Y73378169D01*
X-19381675Y73693919D01*
X-19315000Y74029117D01*
X-19315000Y74370883D01*
X-19381675Y74706081D01*
X-19512463Y75021831D01*
X-19702337Y75305998D01*
X-19944002Y75547663D01*
X-20228169Y75737537D01*
X-20543919Y75868325D01*
X-20879117Y75935000D01*
X-21220883Y75935000D01*
X-21556081Y75868325D01*
X-21871831Y75737537D01*
X-22155998Y75547663D01*
X-22397663Y75305998D01*
X-22587537Y75021831D01*
X-22718325Y74706081D01*
X-22785000Y74370883D01*
X-39415000Y74370883D01*
X-39415000Y90750000D01*
X-38338314Y90750000D01*
X-38334999Y90716343D01*
X-38335000Y76683647D01*
X-38338314Y76650000D01*
X-38325088Y76515717D01*
X-38285919Y76386594D01*
X-38222312Y76267593D01*
X-38136711Y76163289D01*
X-38082177Y76118534D01*
X-38032407Y76077688D01*
X-37913406Y76014081D01*
X-37784283Y75974912D01*
X-37650000Y75961686D01*
X-37616353Y75965000D01*
X-23583647Y75965000D01*
X-23550000Y75961686D01*
X-23415717Y75974912D01*
X-23286594Y76014081D01*
X-23167593Y76077688D01*
X-23063289Y76163289D01*
X-22977688Y76267593D01*
X-22914081Y76386594D01*
X-22874912Y76515717D01*
X-22865000Y76616353D01*
X-22865000Y76616354D01*
X-22861686Y76650000D01*
X-22865000Y76683647D01*
X-22865000Y90716353D01*
X-22861686Y90750000D01*
X-22868086Y90814984D01*
X-22874912Y90884283D01*
X-22914081Y91013406D01*
X-22977688Y91132407D01*
X-22996663Y91155528D01*
X-23063289Y91236711D01*
X-23167593Y91322312D01*
X-23286594Y91385919D01*
X-23415717Y91425088D01*
X-23516353Y91435000D01*
X-23550000Y91438314D01*
X-23583647Y91435000D01*
X-37616353Y91435000D01*
X-37650000Y91438314D01*
X-37683647Y91435000D01*
X-37784283Y91425088D01*
X-37913406Y91385919D01*
X-38032407Y91322312D01*
X-38136711Y91236711D01*
X-38222312Y91132407D01*
X-38285919Y91013406D01*
X-38325088Y90884283D01*
X-38338314Y90750000D01*
X-39415000Y90750000D01*
X-39415000Y91166495D01*
X-39386733Y91454782D01*
X-39312741Y91699855D01*
X-39192557Y91925890D01*
X-39030752Y92124281D01*
X-38833503Y92287460D01*
X-38608313Y92409220D01*
X-38363753Y92484924D01*
X-38077602Y92515000D01*
X-4033505Y92515000D01*
X-3745218Y92486733D01*
G36*
X-3076253Y1734143D02*
G01*
X-3090395Y1720000D01*
X-3076253Y1705858D01*
X-3255858Y1526253D01*
X-3270000Y1540395D01*
X-3284143Y1526253D01*
X-3463748Y1705858D01*
X-3449605Y1720000D01*
X-3463748Y1734143D01*
X-3284143Y1913748D01*
X-3270000Y1899605D01*
X-3255858Y1913748D01*
X-3076253Y1734143D01*
X-3076253Y1734143D01*
G37*
X-3076253Y1734143D02*
X-3090395Y1720000D01*
X-3076253Y1705858D01*
X-3255858Y1526253D01*
X-3270000Y1540395D01*
X-3284143Y1526253D01*
X-3463748Y1705858D01*
X-3449605Y1720000D01*
X-3463748Y1734143D01*
X-3284143Y1913748D01*
X-3270000Y1899605D01*
X-3255858Y1913748D01*
X-3076253Y1734143D01*
G36*
X-3076253Y39834143D02*
G01*
X-3090395Y39820000D01*
X-3076253Y39805858D01*
X-3255858Y39626253D01*
X-3270000Y39640395D01*
X-3284143Y39626253D01*
X-3463748Y39805858D01*
X-3449605Y39820000D01*
X-3463748Y39834143D01*
X-3284143Y40013748D01*
X-3270000Y39999605D01*
X-3255858Y40013748D01*
X-3076253Y39834143D01*
X-3076253Y39834143D01*
G37*
X-3076253Y39834143D02*
X-3090395Y39820000D01*
X-3076253Y39805858D01*
X-3255858Y39626253D01*
X-3270000Y39640395D01*
X-3284143Y39626253D01*
X-3463748Y39805858D01*
X-3449605Y39820000D01*
X-3463748Y39834143D01*
X-3284143Y40013748D01*
X-3270000Y39999605D01*
X-3255858Y40013748D01*
X-3076253Y39834143D01*
G36*
X-3076253Y89494143D02*
G01*
X-3090395Y89480000D01*
X-3076253Y89465858D01*
X-3255858Y89286253D01*
X-3270000Y89300395D01*
X-3284143Y89286253D01*
X-3463748Y89465858D01*
X-3449605Y89480000D01*
X-3463748Y89494143D01*
X-3284143Y89673748D01*
X-3270000Y89659605D01*
X-3255858Y89673748D01*
X-3076253Y89494143D01*
X-3076253Y89494143D01*
G37*
X-3076253Y89494143D02*
X-3090395Y89480000D01*
X-3076253Y89465858D01*
X-3255858Y89286253D01*
X-3270000Y89300395D01*
X-3284143Y89286253D01*
X-3463748Y89465858D01*
X-3449605Y89480000D01*
X-3463748Y89494143D01*
X-3284143Y89673748D01*
X-3270000Y89659605D01*
X-3255858Y89673748D01*
X-3076253Y89494143D01*
M02*
