M48
; DRILL file {KiCad (5.1.2)-2} date 2020/05/17 13:24:39
; FORMAT={3:3/ absolute / metric / suppress leading zeros}
; #@! TF.CreationDate,2020-05-17T13:24:39+09:00
; #@! TF.GenerationSoftware,Kicad,Pcbnew,(5.1.2)-2
FMAT,2
METRIC,TZ
T1C0.800
T2C2.200
%
G90
G05
T1
X1270Y39820
X1270Y1720
X1270Y89480
X-3270Y89480
X-3270Y39820
X-3270Y1720
T2
X19050Y17050
X19050Y55150
X19050Y36100
X58950Y75870
X57150Y17050
X38100Y74200
X76200Y17050
X76200Y55150
X57150Y36100
X38100Y55150
X38100Y17050
X38100Y36100
X-21050Y74200
X57150Y55150
X-21050Y36100
X-21050Y17050
X58950Y91070
X-21050Y55150
X76200Y36100
X19050Y74200
T0
M30
