M48
; DRILL file {KiCad (5.1.2)-2} date 2020/05/17 13:13:43
; FORMAT={3:3/ absolute / metric / suppress leading zeros}
; #@! TF.CreationDate,2020-05-17T13:13:43+09:00
; #@! TF.GenerationSoftware,Kicad,Pcbnew,(5.1.2)-2
FMAT,2
METRIC,TZ
T1C0.600
T2C0.800
T3C0.900
T4C1.200
T5C1.500
T6C1.200
T7C1.700
T8C1.900
T9C2.200
T10C4.000
T11C4.100
%
G90
G05
T2
X61960Y90850
X61960Y75630
X64500Y90850
X64500Y75630
X67040Y90850
X67040Y75630
X69580Y90850
X69580Y75630
X72120Y90850
X72120Y75630
X74660Y90850
X74660Y75630
X77200Y90850
X77200Y75630
X79740Y90850
X79740Y75630
X82280Y90850
X82280Y75630
X84820Y90850
X84820Y75630
X87360Y90850
X87360Y75630
X89900Y90850
X89900Y75630
X73800Y86040
X73800Y78420
X59000Y87020
X59000Y84480
X59000Y81940
X59000Y79400
X78970Y86690
X78970Y84150
X78970Y81610
X43170Y75380
X45710Y75380
X48250Y75380
X50790Y75380
X76430Y84150
X76430Y81610
X76430Y79070
X71300Y85940
X71300Y78320
T3
X1270Y73540
X1270Y71000
X1270Y68460
X1270Y65920
X1270Y63380
X1270Y60840
X1270Y58300
X1270Y55760
T4
X87150Y87500
X93650Y87500
T5
X62840Y29090
X69190Y31630
X43790Y10040
X50140Y12580
X81890Y67190
X88240Y69730
X5690Y10040
X12040Y12580
X43790Y48140
X50140Y50680
X24740Y67190
X31090Y69730
X24740Y10040
X31090Y12580
X5690Y67190
X12040Y69730
X81890Y10040
X88240Y12580
X62840Y10040
X69190Y12580
X81890Y48140
X88240Y50680
X5690Y86240
X12040Y88780
X5690Y48140
X12040Y50680
X24740Y86240
X31090Y88780
X43790Y67190
X50140Y69730
X62840Y48140
X69190Y50680
X43790Y29090
X50140Y31630
X81890Y29090
X88240Y31630
X24740Y48140
X31090Y50680
X43790Y86240
X50140Y88780
X62840Y67190
X69190Y69730
X24740Y29090
X31090Y31630
X5690Y29090
X12040Y31630
T6
X85400Y82450
X92400Y82450
T7
X61570Y26550
X71730Y26550
X42520Y7500
X52680Y7500
X80620Y64650
X90780Y64650
X4420Y7500
X14580Y7500
X42520Y45600
X52680Y45600
X23470Y64650
X33630Y64650
X23470Y7500
X33630Y7500
X4420Y64650
X14580Y64650
X80620Y7500
X90780Y7500
X61570Y7500
X71730Y7500
X80620Y45600
X90780Y45600
X4420Y83700
X14580Y83700
X4420Y45600
X14580Y45600
X23470Y83700
X33630Y83700
X42520Y64650
X52680Y64650
X61570Y45600
X71730Y45600
X42520Y26550
X52680Y26550
X80620Y26550
X90780Y26550
X23470Y45600
X33630Y45600
X42520Y83700
X52680Y83700
X61570Y64650
X71730Y64650
X23470Y26550
X33630Y26550
X4420Y26550
X14580Y26550
T8
X23050Y26550
X34050Y26550
X4000Y26550
X15000Y26550
X61150Y26550
X72150Y26550
X42100Y7500
X53100Y7500
X80200Y64650
X91200Y64650
X4000Y7500
X15000Y7500
X42100Y45600
X53100Y45600
X23050Y64650
X34050Y64650
X23050Y7500
X34050Y7500
X4000Y64650
X15000Y64650
X80200Y7500
X91200Y7500
X61150Y7500
X72150Y7500
X80200Y45600
X91200Y45600
X4000Y83700
X15000Y83700
X4000Y45600
X15000Y45600
X23050Y83700
X34050Y83700
X42100Y64650
X53100Y64650
X61150Y45600
X72150Y45600
X42100Y26550
X53100Y26550
X80200Y26550
X91200Y26550
X23050Y45600
X34050Y45600
X42100Y83700
X53100Y83700
X61150Y64650
X72150Y64650
T9
X58950Y75870
T10
X28550Y7500
X9500Y64650
X85700Y7500
X66650Y7500
X85700Y45600
X9500Y83700
X9500Y45600
X28550Y83700
X47600Y64650
X66650Y45600
X47600Y26550
X85700Y26550
X28550Y45600
X47600Y83700
X66650Y64650
X28550Y26550
X9500Y26550
X66650Y26550
X47600Y7500
X85700Y64650
X9500Y7500
X47600Y45600
X28550Y64650
T11
X38100Y36100
X19050Y36100
X57150Y17050
X76200Y17050
X38100Y17050
X19050Y17050
X57150Y36100
X19050Y55150
X76200Y36100
X38100Y55150
X19050Y74200
X57150Y55150
X76200Y55150
X38100Y74200
T1
G00X82550Y84550
M15
G01X81650Y84550
M16
G05
G00X84050Y80350
M15
G01X83150Y80350
M16
G05
G00X88050Y80350
M15
G01X87150Y80350
M16
G05
G00X91050Y80350
M15
G01X90150Y80350
M16
G05
T0
M30
