G04 #@! TF.GenerationSoftware,KiCad,Pcbnew,(5.1.2)-2*
G04 #@! TF.CreationDate,2020-05-17T13:13:39+09:00*
G04 #@! TF.ProjectId,_5x4+3______Ver1.03,e6357834-2b33-4adf-9cdc-fcc95f566572,rev?*
G04 #@! TF.SameCoordinates,Original*
G04 #@! TF.FileFunction,Legend,Top*
G04 #@! TF.FilePolarity,Positive*
%FSLAX46Y46*%
G04 Gerber Fmt 4.6, Leading zero omitted, Abs format (unit mm)*
G04 Created by KiCad (PCBNEW (5.1.2)-2) date 2020-05-17 13:13:39*
%MOMM*%
%LPD*%
G04 APERTURE LIST*
%ADD10C,0.150000*%
%ADD11C,0.127000*%
%ADD12C,0.120000*%
%ADD13C,0.125000*%
%ADD14C,1.900000*%
%ADD15C,2.100000*%
%ADD16C,4.200000*%
%ADD17C,1.400000*%
G04 APERTURE END LIST*
D10*
X73297619Y82416666D02*
X73773809Y82750000D01*
X73297619Y82988095D02*
X74297619Y82988095D01*
X74297619Y82607142D01*
X74250000Y82511904D01*
X74202380Y82464285D01*
X74107142Y82416666D01*
X73964285Y82416666D01*
X73869047Y82464285D01*
X73821428Y82511904D01*
X73773809Y82607142D01*
X73773809Y82988095D01*
X73297619Y81464285D02*
X73297619Y82035714D01*
X73297619Y81750000D02*
X74297619Y81750000D01*
X74154761Y81845238D01*
X74059523Y81940476D01*
X74011904Y82035714D01*
X70837619Y82316666D02*
X71313809Y82650000D01*
X70837619Y82888095D02*
X71837619Y82888095D01*
X71837619Y82507142D01*
X71790000Y82411904D01*
X71742380Y82364285D01*
X71647142Y82316666D01*
X71504285Y82316666D01*
X71409047Y82364285D01*
X71361428Y82411904D01*
X71313809Y82507142D01*
X71313809Y82888095D01*
X71742380Y81935714D02*
X71790000Y81888095D01*
X71837619Y81792857D01*
X71837619Y81554761D01*
X71790000Y81459523D01*
X71742380Y81411904D01*
X71647142Y81364285D01*
X71551904Y81364285D01*
X71409047Y81411904D01*
X70837619Y81983333D01*
X70837619Y81364285D01*
D11*
X60242857Y77295238D02*
X60350000Y77247619D01*
X60528571Y77247619D01*
X60600000Y77295238D01*
X60635714Y77342857D01*
X60671428Y77438095D01*
X60671428Y77533333D01*
X60635714Y77628571D01*
X60600000Y77676190D01*
X60528571Y77723809D01*
X60385714Y77771428D01*
X60314285Y77819047D01*
X60278571Y77866666D01*
X60242857Y77961904D01*
X60242857Y78057142D01*
X60278571Y78152380D01*
X60314285Y78200000D01*
X60385714Y78247619D01*
X60564285Y78247619D01*
X60671428Y78200000D01*
X61278571Y77295238D02*
X61207142Y77247619D01*
X61064285Y77247619D01*
X60992857Y77295238D01*
X60957142Y77390476D01*
X60957142Y77771428D01*
X60992857Y77866666D01*
X61064285Y77914285D01*
X61207142Y77914285D01*
X61278571Y77866666D01*
X61314285Y77771428D01*
X61314285Y77676190D01*
X60957142Y77580952D01*
X61635714Y77247619D02*
X61635714Y78247619D01*
X61707142Y77628571D02*
X61921428Y77247619D01*
X61921428Y77914285D02*
X61635714Y77533333D01*
X62242857Y77247619D02*
X62242857Y77914285D01*
X62242857Y78247619D02*
X62207142Y78200000D01*
X62242857Y78152380D01*
X62278571Y78200000D01*
X62242857Y78247619D01*
X62242857Y78152380D01*
X62600000Y77247619D02*
X62600000Y77914285D01*
X62600000Y77819047D02*
X62635714Y77866666D01*
X62707142Y77914285D01*
X62814285Y77914285D01*
X62885714Y77866666D01*
X62921428Y77771428D01*
X62921428Y77247619D01*
X62921428Y77771428D02*
X62957142Y77866666D01*
X63028571Y77914285D01*
X63135714Y77914285D01*
X63207142Y77866666D01*
X63242857Y77771428D01*
X63242857Y77247619D01*
X63885714Y77295238D02*
X63814285Y77247619D01*
X63671428Y77247619D01*
X63600000Y77295238D01*
X63564285Y77390476D01*
X63564285Y77771428D01*
X63600000Y77866666D01*
X63671428Y77914285D01*
X63814285Y77914285D01*
X63885714Y77866666D01*
X63921428Y77771428D01*
X63921428Y77676190D01*
X63564285Y77580952D01*
X64242857Y77914285D02*
X64242857Y77247619D01*
X64242857Y77819047D02*
X64278571Y77866666D01*
X64350000Y77914285D01*
X64457142Y77914285D01*
X64528571Y77866666D01*
X64564285Y77771428D01*
X64564285Y77247619D01*
X65850000Y77247619D02*
X65492857Y77247619D01*
X65492857Y78247619D01*
X66385714Y77295238D02*
X66314285Y77247619D01*
X66171428Y77247619D01*
X66100000Y77295238D01*
X66064285Y77390476D01*
X66064285Y77771428D01*
X66100000Y77866666D01*
X66171428Y77914285D01*
X66314285Y77914285D01*
X66385714Y77866666D01*
X66421428Y77771428D01*
X66421428Y77676190D01*
X66064285Y77580952D01*
X66635714Y77914285D02*
X66921428Y77914285D01*
X66742857Y77247619D02*
X66742857Y78104761D01*
X66778571Y78200000D01*
X66850000Y78247619D01*
X66921428Y78247619D01*
X67064285Y77914285D02*
X67350000Y77914285D01*
X67171428Y78247619D02*
X67171428Y77390476D01*
X67207142Y77295238D01*
X67278571Y77247619D01*
X67350000Y77247619D01*
X68135714Y77295238D02*
X68207142Y77247619D01*
X68350000Y77247619D01*
X68421428Y77295238D01*
X68457142Y77390476D01*
X68457142Y77438095D01*
X68421428Y77533333D01*
X68350000Y77580952D01*
X68242857Y77580952D01*
X68171428Y77628571D01*
X68135714Y77723809D01*
X68135714Y77771428D01*
X68171428Y77866666D01*
X68242857Y77914285D01*
X68350000Y77914285D01*
X68421428Y77866666D01*
X68778571Y77247619D02*
X68778571Y77914285D01*
X68778571Y78247619D02*
X68742857Y78200000D01*
X68778571Y78152380D01*
X68814285Y78200000D01*
X68778571Y78247619D01*
X68778571Y78152380D01*
X69457142Y77247619D02*
X69457142Y78247619D01*
X69457142Y77295238D02*
X69385714Y77247619D01*
X69242857Y77247619D01*
X69171428Y77295238D01*
X69135714Y77342857D01*
X69100000Y77438095D01*
X69100000Y77723809D01*
X69135714Y77819047D01*
X69171428Y77866666D01*
X69242857Y77914285D01*
X69385714Y77914285D01*
X69457142Y77866666D01*
X70100000Y77295238D02*
X70028571Y77247619D01*
X69885714Y77247619D01*
X69814285Y77295238D01*
X69778571Y77390476D01*
X69778571Y77771428D01*
X69814285Y77866666D01*
X69885714Y77914285D01*
X70028571Y77914285D01*
X70100000Y77866666D01*
X70135714Y77771428D01*
X70135714Y77676190D01*
X69778571Y77580952D01*
X70921428Y78247619D02*
X71171428Y77247619D01*
X71421428Y78247619D01*
X71957142Y77295238D02*
X71885714Y77247619D01*
X71742857Y77247619D01*
X71671428Y77295238D01*
X71635714Y77390476D01*
X71635714Y77771428D01*
X71671428Y77866666D01*
X71742857Y77914285D01*
X71885714Y77914285D01*
X71957142Y77866666D01*
X71992857Y77771428D01*
X71992857Y77676190D01*
X71635714Y77580952D01*
X72314285Y77247619D02*
X72314285Y77914285D01*
X72314285Y77723809D02*
X72350000Y77819047D01*
X72385714Y77866666D01*
X72457142Y77914285D01*
X72528571Y77914285D01*
X73171428Y77247619D02*
X72742857Y77247619D01*
X72957142Y77247619D02*
X72957142Y78247619D01*
X72885714Y78104761D01*
X72814285Y78009523D01*
X72742857Y77961904D01*
X73492857Y77342857D02*
X73528571Y77295238D01*
X73492857Y77247619D01*
X73457142Y77295238D01*
X73492857Y77342857D01*
X73492857Y77247619D01*
X73992857Y78247619D02*
X74064285Y78247619D01*
X74135714Y78200000D01*
X74171428Y78152380D01*
X74207142Y78057142D01*
X74242857Y77866666D01*
X74242857Y77628571D01*
X74207142Y77438095D01*
X74171428Y77342857D01*
X74135714Y77295238D01*
X74064285Y77247619D01*
X73992857Y77247619D01*
X73921428Y77295238D01*
X73885714Y77342857D01*
X73850000Y77438095D01*
X73814285Y77628571D01*
X73814285Y77866666D01*
X73850000Y78057142D01*
X73885714Y78152380D01*
X73921428Y78200000D01*
X73992857Y78247619D01*
X74492857Y78247619D02*
X74957142Y78247619D01*
X74707142Y77866666D01*
X74814285Y77866666D01*
X74885714Y77819047D01*
X74921428Y77771428D01*
X74957142Y77676190D01*
X74957142Y77438095D01*
X74921428Y77342857D01*
X74885714Y77295238D01*
X74814285Y77247619D01*
X74600000Y77247619D01*
X74528571Y77295238D01*
X74492857Y77342857D01*
D10*
X3500000Y38600000D02*
X2500000Y38600000D01*
X2500000Y39600000D02*
X2500000Y38600000D01*
X16500000Y52600000D02*
X15500000Y52600000D01*
X16500000Y51600000D02*
X16500000Y52600000D01*
X16500000Y38600000D02*
X16500000Y39600000D01*
X15500000Y38600000D02*
X16500000Y38600000D01*
X2500000Y52600000D02*
X3500000Y52600000D01*
X2500000Y51600000D02*
X2500000Y52600000D01*
X60650000Y57650000D02*
X59650000Y57650000D01*
X59650000Y58650000D02*
X59650000Y57650000D01*
X73650000Y71650000D02*
X72650000Y71650000D01*
X73650000Y70650000D02*
X73650000Y71650000D01*
X73650000Y57650000D02*
X73650000Y58650000D01*
X72650000Y57650000D02*
X73650000Y57650000D01*
X59650000Y71650000D02*
X60650000Y71650000D01*
X59650000Y70650000D02*
X59650000Y71650000D01*
X41600000Y57650000D02*
X40600000Y57650000D01*
X40600000Y58650000D02*
X40600000Y57650000D01*
X54600000Y71650000D02*
X53600000Y71650000D01*
X54600000Y70650000D02*
X54600000Y71650000D01*
X54600000Y57650000D02*
X54600000Y58650000D01*
X53600000Y57650000D02*
X54600000Y57650000D01*
X40600000Y71650000D02*
X41600000Y71650000D01*
X40600000Y70650000D02*
X40600000Y71650000D01*
X22550000Y57650000D02*
X21550000Y57650000D01*
X21550000Y58650000D02*
X21550000Y57650000D01*
X35550000Y71650000D02*
X34550000Y71650000D01*
X35550000Y70650000D02*
X35550000Y71650000D01*
X35550000Y57650000D02*
X35550000Y58650000D01*
X34550000Y57650000D02*
X35550000Y57650000D01*
X21550000Y71650000D02*
X22550000Y71650000D01*
X21550000Y70650000D02*
X21550000Y71650000D01*
X3500000Y57650000D02*
X2500000Y57650000D01*
X2500000Y58650000D02*
X2500000Y57650000D01*
X16500000Y71650000D02*
X15500000Y71650000D01*
X16500000Y70650000D02*
X16500000Y71650000D01*
X16500000Y57650000D02*
X16500000Y58650000D01*
X15500000Y57650000D02*
X16500000Y57650000D01*
X2500000Y71650000D02*
X3500000Y71650000D01*
X2500000Y70650000D02*
X2500000Y71650000D01*
X3500000Y76700000D02*
X2500000Y76700000D01*
X2500000Y77700000D02*
X2500000Y76700000D01*
X16500000Y90700000D02*
X15500000Y90700000D01*
X16500000Y89700000D02*
X16500000Y90700000D01*
X16500000Y76700000D02*
X16500000Y77700000D01*
X15500000Y76700000D02*
X16500000Y76700000D01*
X2500000Y90700000D02*
X3500000Y90700000D01*
X2500000Y89700000D02*
X2500000Y90700000D01*
X3500000Y19550000D02*
X2500000Y19550000D01*
X2500000Y20550000D02*
X2500000Y19550000D01*
X16500000Y33550000D02*
X15500000Y33550000D01*
X16500000Y32550000D02*
X16500000Y33550000D01*
X16500000Y19550000D02*
X16500000Y20550000D01*
X15500000Y19550000D02*
X16500000Y19550000D01*
X2500000Y33550000D02*
X3500000Y33550000D01*
X2500000Y32550000D02*
X2500000Y33550000D01*
X3500000Y500000D02*
X2500000Y500000D01*
X2500000Y1500000D02*
X2500000Y500000D01*
X16500000Y14500000D02*
X15500000Y14500000D01*
X16500000Y13500000D02*
X16500000Y14500000D01*
X16500000Y500000D02*
X16500000Y1500000D01*
X15500000Y500000D02*
X16500000Y500000D01*
X2500000Y14500000D02*
X3500000Y14500000D01*
X2500000Y13500000D02*
X2500000Y14500000D01*
X22550000Y76700000D02*
X21550000Y76700000D01*
X21550000Y77700000D02*
X21550000Y76700000D01*
X35550000Y90700000D02*
X34550000Y90700000D01*
X35550000Y89700000D02*
X35550000Y90700000D01*
X35550000Y76700000D02*
X35550000Y77700000D01*
X34550000Y76700000D02*
X35550000Y76700000D01*
X21550000Y90700000D02*
X22550000Y90700000D01*
X21550000Y89700000D02*
X21550000Y90700000D01*
X22550000Y38600000D02*
X21550000Y38600000D01*
X21550000Y39600000D02*
X21550000Y38600000D01*
X35550000Y52600000D02*
X34550000Y52600000D01*
X35550000Y51600000D02*
X35550000Y52600000D01*
X35550000Y38600000D02*
X35550000Y39600000D01*
X34550000Y38600000D02*
X35550000Y38600000D01*
X21550000Y52600000D02*
X22550000Y52600000D01*
X21550000Y51600000D02*
X21550000Y52600000D01*
X22550000Y19550000D02*
X21550000Y19550000D01*
X21550000Y20550000D02*
X21550000Y19550000D01*
X35550000Y33550000D02*
X34550000Y33550000D01*
X35550000Y32550000D02*
X35550000Y33550000D01*
X35550000Y19550000D02*
X35550000Y20550000D01*
X34550000Y19550000D02*
X35550000Y19550000D01*
X21550000Y33550000D02*
X22550000Y33550000D01*
X21550000Y32550000D02*
X21550000Y33550000D01*
X22550000Y500000D02*
X21550000Y500000D01*
X21550000Y1500000D02*
X21550000Y500000D01*
X35550000Y14500000D02*
X34550000Y14500000D01*
X35550000Y13500000D02*
X35550000Y14500000D01*
X35550000Y500000D02*
X35550000Y1500000D01*
X34550000Y500000D02*
X35550000Y500000D01*
X21550000Y14500000D02*
X22550000Y14500000D01*
X21550000Y13500000D02*
X21550000Y14500000D01*
X41600000Y76700000D02*
X40600000Y76700000D01*
X40600000Y77700000D02*
X40600000Y76700000D01*
X54600000Y90700000D02*
X53600000Y90700000D01*
X54600000Y89700000D02*
X54600000Y90700000D01*
X54600000Y76700000D02*
X54600000Y77700000D01*
X53600000Y76700000D02*
X54600000Y76700000D01*
X40600000Y90700000D02*
X41600000Y90700000D01*
X40600000Y89700000D02*
X40600000Y90700000D01*
X41600000Y38600000D02*
X40600000Y38600000D01*
X40600000Y39600000D02*
X40600000Y38600000D01*
X54600000Y52600000D02*
X53600000Y52600000D01*
X54600000Y51600000D02*
X54600000Y52600000D01*
X54600000Y38600000D02*
X54600000Y39600000D01*
X53600000Y38600000D02*
X54600000Y38600000D01*
X40600000Y52600000D02*
X41600000Y52600000D01*
X40600000Y51600000D02*
X40600000Y52600000D01*
X41600000Y19550000D02*
X40600000Y19550000D01*
X40600000Y20550000D02*
X40600000Y19550000D01*
X54600000Y33550000D02*
X53600000Y33550000D01*
X54600000Y32550000D02*
X54600000Y33550000D01*
X54600000Y19550000D02*
X54600000Y20550000D01*
X53600000Y19550000D02*
X54600000Y19550000D01*
X40600000Y33550000D02*
X41600000Y33550000D01*
X40600000Y32550000D02*
X40600000Y33550000D01*
X41600000Y500000D02*
X40600000Y500000D01*
X40600000Y1500000D02*
X40600000Y500000D01*
X54600000Y14500000D02*
X53600000Y14500000D01*
X54600000Y13500000D02*
X54600000Y14500000D01*
X54600000Y500000D02*
X54600000Y1500000D01*
X53600000Y500000D02*
X54600000Y500000D01*
X40600000Y14500000D02*
X41600000Y14500000D01*
X40600000Y13500000D02*
X40600000Y14500000D01*
X60650000Y38600000D02*
X59650000Y38600000D01*
X59650000Y39600000D02*
X59650000Y38600000D01*
X73650000Y52600000D02*
X72650000Y52600000D01*
X73650000Y51600000D02*
X73650000Y52600000D01*
X73650000Y38600000D02*
X73650000Y39600000D01*
X72650000Y38600000D02*
X73650000Y38600000D01*
X59650000Y52600000D02*
X60650000Y52600000D01*
X59650000Y51600000D02*
X59650000Y52600000D01*
X60650000Y19550000D02*
X59650000Y19550000D01*
X59650000Y20550000D02*
X59650000Y19550000D01*
X73650000Y33550000D02*
X72650000Y33550000D01*
X73650000Y32550000D02*
X73650000Y33550000D01*
X73650000Y19550000D02*
X73650000Y20550000D01*
X72650000Y19550000D02*
X73650000Y19550000D01*
X59650000Y33550000D02*
X60650000Y33550000D01*
X59650000Y32550000D02*
X59650000Y33550000D01*
X60650000Y500000D02*
X59650000Y500000D01*
X59650000Y1500000D02*
X59650000Y500000D01*
X73650000Y14500000D02*
X72650000Y14500000D01*
X73650000Y13500000D02*
X73650000Y14500000D01*
X73650000Y500000D02*
X73650000Y1500000D01*
X72650000Y500000D02*
X73650000Y500000D01*
X59650000Y14500000D02*
X60650000Y14500000D01*
X59650000Y13500000D02*
X59650000Y14500000D01*
X79700000Y57650000D02*
X78700000Y57650000D01*
X78700000Y58650000D02*
X78700000Y57650000D01*
X92700000Y71650000D02*
X91700000Y71650000D01*
X92700000Y70650000D02*
X92700000Y71650000D01*
X92700000Y57650000D02*
X92700000Y58650000D01*
X91700000Y57650000D02*
X92700000Y57650000D01*
X78700000Y71650000D02*
X79700000Y71650000D01*
X78700000Y70650000D02*
X78700000Y71650000D01*
X79700000Y38600000D02*
X78700000Y38600000D01*
X78700000Y39600000D02*
X78700000Y38600000D01*
X92700000Y52600000D02*
X91700000Y52600000D01*
X92700000Y51600000D02*
X92700000Y52600000D01*
X92700000Y38600000D02*
X92700000Y39600000D01*
X91700000Y38600000D02*
X92700000Y38600000D01*
X78700000Y52600000D02*
X79700000Y52600000D01*
X78700000Y51600000D02*
X78700000Y52600000D01*
X79700000Y19550000D02*
X78700000Y19550000D01*
X78700000Y20550000D02*
X78700000Y19550000D01*
X92700000Y33550000D02*
X91700000Y33550000D01*
X92700000Y32550000D02*
X92700000Y33550000D01*
X92700000Y19550000D02*
X92700000Y20550000D01*
X91700000Y19550000D02*
X92700000Y19550000D01*
X78700000Y33550000D02*
X79700000Y33550000D01*
X78700000Y32550000D02*
X78700000Y33550000D01*
X79700000Y500000D02*
X78700000Y500000D01*
X78700000Y1500000D02*
X78700000Y500000D01*
X92700000Y14500000D02*
X91700000Y14500000D01*
X92700000Y13500000D02*
X92700000Y14500000D01*
X92700000Y500000D02*
X92700000Y1500000D01*
X91700000Y500000D02*
X92700000Y500000D01*
X78700000Y14500000D02*
X79700000Y14500000D01*
X78700000Y13500000D02*
X78700000Y14500000D01*
D12*
X2540000Y74810000D02*
X2540000Y54490000D01*
X0Y74810000D02*
X2540000Y74810000D01*
X0Y54490000D02*
X0Y74810000D01*
D10*
X2540000Y54490000D02*
X0Y54490000D01*
D12*
X91170000Y90850000D02*
X91170000Y89580000D01*
X91170000Y89580000D02*
X60690000Y89580000D01*
X60690000Y89580000D02*
X60690000Y92120000D01*
X60690000Y92120000D02*
X91170000Y92120000D01*
X91170000Y92120000D02*
X91170000Y89580000D01*
X91170000Y76880000D02*
X91170000Y74340000D01*
X91170000Y76880000D02*
X60690000Y76880000D01*
X60690000Y76880000D02*
X60690000Y74340000D01*
X60690000Y74340000D02*
X91170000Y74340000D01*
D10*
X81900000Y85450000D02*
X93900000Y85450000D01*
X81900000Y79450000D02*
X81900000Y85450000D01*
X93900000Y79450000D02*
X81900000Y79450000D01*
X93900000Y85450000D02*
X93900000Y79450000D01*
X57730000Y88290000D02*
X60270000Y88290000D01*
X60270000Y78130000D02*
X57730000Y78130000D01*
X60270000Y88290000D02*
X60270000Y78130000D01*
X57730000Y88290000D02*
X57730000Y78130000D01*
D12*
X75160000Y77800000D02*
X75160000Y85420000D01*
X75160000Y85420000D02*
X77700000Y85420000D01*
X77700000Y85420000D02*
X77700000Y77800000D01*
X75160000Y85420000D02*
X77700000Y85420000D01*
X77700000Y77800000D02*
X75160000Y77800000D01*
X80240000Y80340000D02*
X77700000Y80340000D01*
X77700000Y87960000D02*
X80240000Y87960000D01*
X80240000Y87960000D02*
X80240000Y80340000D01*
X77700000Y87960000D02*
X80240000Y87960000D01*
X77700000Y80340000D02*
X77700000Y87960000D01*
D10*
X87400000Y85750000D02*
X87400000Y86000000D01*
X93400000Y85750000D02*
X87400000Y85750000D01*
X93400000Y85750000D02*
X93400000Y86000000D01*
X93400000Y89250000D02*
X93400000Y89000000D01*
X87400000Y89250000D02*
X87400000Y89000000D01*
X93400000Y89250000D02*
X87400000Y89250000D01*
D12*
X72800000Y84230000D02*
X74800000Y84230000D01*
X74800000Y84230000D02*
X74800000Y80230000D01*
X74800000Y80230000D02*
X72800000Y80230000D01*
X72800000Y80230000D02*
X72800000Y82230000D01*
X72800000Y82230000D02*
X72800000Y84230000D01*
X70300000Y84130000D02*
X72300000Y84130000D01*
X72300000Y84130000D02*
X72300000Y80130000D01*
X72300000Y80130000D02*
X70300000Y80130000D01*
X70300000Y80130000D02*
X70300000Y82130000D01*
X70300000Y82130000D02*
X70300000Y84130000D01*
D10*
X41900000Y74110000D02*
X41900000Y76650000D01*
X52060000Y76650000D02*
X52060000Y74110000D01*
X41900000Y76650000D02*
X52060000Y76650000D01*
X41900000Y74110000D02*
X52060000Y74110000D01*
D13*
X64553571Y73936488D02*
X64517857Y73840773D01*
X64482142Y73808869D01*
X64410714Y73776964D01*
X64303571Y73776964D01*
X64232142Y73808869D01*
X64196428Y73840773D01*
X64160714Y73904583D01*
X64160714Y74159821D01*
X64910714Y74159821D01*
X64910714Y73936488D01*
X64875000Y73872678D01*
X64839285Y73840773D01*
X64767857Y73808869D01*
X64696428Y73808869D01*
X64625000Y73840773D01*
X64589285Y73872678D01*
X64553571Y73936488D01*
X64553571Y74159821D01*
X64660714Y73202678D02*
X64160714Y73202678D01*
X64946428Y73362202D02*
X64410714Y73521726D01*
X64410714Y73106964D01*
X87020714Y73705059D02*
X87377857Y73928392D01*
X87020714Y74087916D02*
X87770714Y74087916D01*
X87770714Y73832678D01*
X87735000Y73768869D01*
X87699285Y73736964D01*
X87627857Y73705059D01*
X87520714Y73705059D01*
X87449285Y73736964D01*
X87413571Y73768869D01*
X87377857Y73832678D01*
X87377857Y74087916D01*
X87770714Y73481726D02*
X87020714Y73035059D01*
X87770714Y73035059D02*
X87020714Y73481726D01*
X87020714Y72428869D02*
X87020714Y72811726D01*
X87020714Y72620297D02*
X87770714Y72620297D01*
X87663571Y72684107D01*
X87592142Y72747916D01*
X87556428Y72811726D01*
X62013571Y73936488D02*
X61977857Y73840773D01*
X61942142Y73808869D01*
X61870714Y73776964D01*
X61763571Y73776964D01*
X61692142Y73808869D01*
X61656428Y73840773D01*
X61620714Y73904583D01*
X61620714Y74159821D01*
X62370714Y74159821D01*
X62370714Y73936488D01*
X62335000Y73872678D01*
X62299285Y73840773D01*
X62227857Y73808869D01*
X62156428Y73808869D01*
X62085000Y73840773D01*
X62049285Y73872678D01*
X62013571Y73936488D01*
X62013571Y74159821D01*
X62370714Y73170773D02*
X62370714Y73489821D01*
X62013571Y73521726D01*
X62049285Y73489821D01*
X62085000Y73426011D01*
X62085000Y73266488D01*
X62049285Y73202678D01*
X62013571Y73170773D01*
X61942142Y73138869D01*
X61763571Y73138869D01*
X61692142Y73170773D01*
X61656428Y73202678D01*
X61620714Y73266488D01*
X61620714Y73426011D01*
X61656428Y73489821D01*
X61692142Y73521726D01*
X71852142Y73776964D02*
X71816428Y73808869D01*
X71780714Y73904583D01*
X71780714Y73968392D01*
X71816428Y74064107D01*
X71887857Y74127916D01*
X71959285Y74159821D01*
X72102142Y74191726D01*
X72209285Y74191726D01*
X72352142Y74159821D01*
X72423571Y74127916D01*
X72495000Y74064107D01*
X72530714Y73968392D01*
X72530714Y73904583D01*
X72495000Y73808869D01*
X72459285Y73776964D01*
X72530714Y73202678D02*
X72530714Y73330297D01*
X72495000Y73394107D01*
X72459285Y73426011D01*
X72352142Y73489821D01*
X72209285Y73521726D01*
X71923571Y73521726D01*
X71852142Y73489821D01*
X71816428Y73457916D01*
X71780714Y73394107D01*
X71780714Y73266488D01*
X71816428Y73202678D01*
X71852142Y73170773D01*
X71923571Y73138869D01*
X72102142Y73138869D01*
X72173571Y73170773D01*
X72209285Y73202678D01*
X72245000Y73266488D01*
X72245000Y73394107D01*
X72209285Y73457916D01*
X72173571Y73489821D01*
X72102142Y73521726D01*
X76896428Y74124107D02*
X76860714Y74028392D01*
X76860714Y73868869D01*
X76896428Y73805059D01*
X76932142Y73773154D01*
X77003571Y73741250D01*
X77075000Y73741250D01*
X77146428Y73773154D01*
X77182142Y73805059D01*
X77217857Y73868869D01*
X77253571Y73996488D01*
X77289285Y74060297D01*
X77325000Y74092202D01*
X77396428Y74124107D01*
X77467857Y74124107D01*
X77539285Y74092202D01*
X77575000Y74060297D01*
X77610714Y73996488D01*
X77610714Y73836964D01*
X77575000Y73741250D01*
X76932142Y73071250D02*
X76896428Y73103154D01*
X76860714Y73198869D01*
X76860714Y73262678D01*
X76896428Y73358392D01*
X76967857Y73422202D01*
X77039285Y73454107D01*
X77182142Y73486011D01*
X77289285Y73486011D01*
X77432142Y73454107D01*
X77503571Y73422202D01*
X77575000Y73358392D01*
X77610714Y73262678D01*
X77610714Y73198869D01*
X77575000Y73103154D01*
X77539285Y73071250D01*
X76860714Y72465059D02*
X76860714Y72784107D01*
X77610714Y72784107D01*
X79436428Y74156011D02*
X79400714Y74060297D01*
X79400714Y73900773D01*
X79436428Y73836964D01*
X79472142Y73805059D01*
X79543571Y73773154D01*
X79615000Y73773154D01*
X79686428Y73805059D01*
X79722142Y73836964D01*
X79757857Y73900773D01*
X79793571Y74028392D01*
X79829285Y74092202D01*
X79865000Y74124107D01*
X79936428Y74156011D01*
X80007857Y74156011D01*
X80079285Y74124107D01*
X80115000Y74092202D01*
X80150714Y74028392D01*
X80150714Y73868869D01*
X80115000Y73773154D01*
X79400714Y73486011D02*
X80150714Y73486011D01*
X80150714Y73326488D01*
X80115000Y73230773D01*
X80043571Y73166964D01*
X79972142Y73135059D01*
X79829285Y73103154D01*
X79722142Y73103154D01*
X79579285Y73135059D01*
X79507857Y73166964D01*
X79436428Y73230773D01*
X79400714Y73326488D01*
X79400714Y73486011D01*
X79615000Y72847916D02*
X79615000Y72528869D01*
X79400714Y72911726D02*
X80150714Y72688392D01*
X79400714Y72465059D01*
X74320714Y74159821D02*
X75070714Y74159821D01*
X75070714Y74000297D01*
X75035000Y73904583D01*
X74963571Y73840773D01*
X74892142Y73808869D01*
X74749285Y73776964D01*
X74642142Y73776964D01*
X74499285Y73808869D01*
X74427857Y73840773D01*
X74356428Y73904583D01*
X74320714Y74000297D01*
X74320714Y74159821D01*
X74820714Y73202678D02*
X74320714Y73202678D01*
X75106428Y73362202D02*
X74570714Y73521726D01*
X74570714Y73106964D01*
X90310714Y74124107D02*
X90310714Y73741250D01*
X89560714Y73932678D02*
X90310714Y73932678D01*
X90310714Y73581726D02*
X89560714Y73135059D01*
X90310714Y73135059D02*
X89560714Y73581726D01*
X90310714Y72752202D02*
X90310714Y72688392D01*
X90275000Y72624583D01*
X90239285Y72592678D01*
X90167857Y72560773D01*
X90025000Y72528869D01*
X89846428Y72528869D01*
X89703571Y72560773D01*
X89632142Y72592678D01*
X89596428Y72624583D01*
X89560714Y72688392D01*
X89560714Y72752202D01*
X89596428Y72816011D01*
X89632142Y72847916D01*
X89703571Y72879821D01*
X89846428Y72911726D01*
X90025000Y72911726D01*
X90167857Y72879821D01*
X90239285Y72847916D01*
X90275000Y72816011D01*
X90310714Y72752202D01*
X82655000Y73832678D02*
X82690714Y73896488D01*
X82690714Y73992202D01*
X82655000Y74087916D01*
X82583571Y74151726D01*
X82512142Y74183630D01*
X82369285Y74215535D01*
X82262142Y74215535D01*
X82119285Y74183630D01*
X82047857Y74151726D01*
X81976428Y74087916D01*
X81940714Y73992202D01*
X81940714Y73928392D01*
X81976428Y73832678D01*
X82012142Y73800773D01*
X82262142Y73800773D01*
X82262142Y73928392D01*
X81940714Y73513630D02*
X82690714Y73513630D01*
X81940714Y73130773D01*
X82690714Y73130773D01*
X81940714Y72811726D02*
X82690714Y72811726D01*
X82690714Y72652202D01*
X82655000Y72556488D01*
X82583571Y72492678D01*
X82512142Y72460773D01*
X82369285Y72428869D01*
X82262142Y72428869D01*
X82119285Y72460773D01*
X82047857Y72492678D01*
X81976428Y72556488D01*
X81940714Y72652202D01*
X81940714Y72811726D01*
X85195000Y73832678D02*
X85230714Y73896488D01*
X85230714Y73992202D01*
X85195000Y74087916D01*
X85123571Y74151726D01*
X85052142Y74183630D01*
X84909285Y74215535D01*
X84802142Y74215535D01*
X84659285Y74183630D01*
X84587857Y74151726D01*
X84516428Y74087916D01*
X84480714Y73992202D01*
X84480714Y73928392D01*
X84516428Y73832678D01*
X84552142Y73800773D01*
X84802142Y73800773D01*
X84802142Y73928392D01*
X84480714Y73513630D02*
X85230714Y73513630D01*
X84480714Y73130773D01*
X85230714Y73130773D01*
X84480714Y72811726D02*
X85230714Y72811726D01*
X85230714Y72652202D01*
X85195000Y72556488D01*
X85123571Y72492678D01*
X85052142Y72460773D01*
X84909285Y72428869D01*
X84802142Y72428869D01*
X84659285Y72460773D01*
X84587857Y72492678D01*
X84516428Y72556488D01*
X84480714Y72652202D01*
X84480714Y72811726D01*
X69240714Y74159821D02*
X69990714Y74159821D01*
X69990714Y74000297D01*
X69955000Y73904583D01*
X69883571Y73840773D01*
X69812142Y73808869D01*
X69669285Y73776964D01*
X69562142Y73776964D01*
X69419285Y73808869D01*
X69347857Y73840773D01*
X69276428Y73904583D01*
X69240714Y74000297D01*
X69240714Y74159821D01*
X69990714Y73553630D02*
X69990714Y73106964D01*
X69240714Y73394107D01*
X67093571Y74096011D02*
X67093571Y73872678D01*
X66700714Y73776964D02*
X66700714Y74096011D01*
X67450714Y74096011D01*
X67450714Y73776964D01*
X67450714Y73202678D02*
X67450714Y73330297D01*
X67415000Y73394107D01*
X67379285Y73426011D01*
X67272142Y73489821D01*
X67129285Y73521726D01*
X66843571Y73521726D01*
X66772142Y73489821D01*
X66736428Y73457916D01*
X66700714Y73394107D01*
X66700714Y73266488D01*
X66736428Y73202678D01*
X66772142Y73170773D01*
X66843571Y73138869D01*
X67022142Y73138869D01*
X67093571Y73170773D01*
X67129285Y73202678D01*
X67165000Y73266488D01*
X67165000Y73394107D01*
X67129285Y73457916D01*
X67093571Y73489821D01*
X67022142Y73521726D01*
X64553571Y89115892D02*
X64517857Y89020178D01*
X64482142Y88988273D01*
X64410714Y88956369D01*
X64303571Y88956369D01*
X64232142Y88988273D01*
X64196428Y89020178D01*
X64160714Y89083988D01*
X64160714Y89339226D01*
X64910714Y89339226D01*
X64910714Y89115892D01*
X64875000Y89052083D01*
X64839285Y89020178D01*
X64767857Y88988273D01*
X64696428Y88988273D01*
X64625000Y89020178D01*
X64589285Y89052083D01*
X64553571Y89115892D01*
X64553571Y89339226D01*
X64839285Y88701130D02*
X64875000Y88669226D01*
X64910714Y88605416D01*
X64910714Y88445892D01*
X64875000Y88382083D01*
X64839285Y88350178D01*
X64767857Y88318273D01*
X64696428Y88318273D01*
X64589285Y88350178D01*
X64160714Y88733035D01*
X64160714Y88318273D01*
X62013571Y89115892D02*
X61977857Y89020178D01*
X61942142Y88988273D01*
X61870714Y88956369D01*
X61763571Y88956369D01*
X61692142Y88988273D01*
X61656428Y89020178D01*
X61620714Y89083988D01*
X61620714Y89339226D01*
X62370714Y89339226D01*
X62370714Y89115892D01*
X62335000Y89052083D01*
X62299285Y89020178D01*
X62227857Y88988273D01*
X62156428Y88988273D01*
X62085000Y89020178D01*
X62049285Y89052083D01*
X62013571Y89115892D01*
X62013571Y89339226D01*
X62370714Y88382083D02*
X62370714Y88509702D01*
X62335000Y88573511D01*
X62299285Y88605416D01*
X62192142Y88669226D01*
X62049285Y88701130D01*
X61763571Y88701130D01*
X61692142Y88669226D01*
X61656428Y88637321D01*
X61620714Y88573511D01*
X61620714Y88445892D01*
X61656428Y88382083D01*
X61692142Y88350178D01*
X61763571Y88318273D01*
X61942142Y88318273D01*
X62013571Y88350178D01*
X62049285Y88382083D01*
X62085000Y88445892D01*
X62085000Y88573511D01*
X62049285Y88637321D01*
X62013571Y88669226D01*
X61942142Y88701130D01*
X67093571Y89115892D02*
X67057857Y89020178D01*
X67022142Y88988273D01*
X66950714Y88956369D01*
X66843571Y88956369D01*
X66772142Y88988273D01*
X66736428Y89020178D01*
X66700714Y89083988D01*
X66700714Y89339226D01*
X67450714Y89339226D01*
X67450714Y89115892D01*
X67415000Y89052083D01*
X67379285Y89020178D01*
X67307857Y88988273D01*
X67236428Y88988273D01*
X67165000Y89020178D01*
X67129285Y89052083D01*
X67093571Y89115892D01*
X67093571Y89339226D01*
X67450714Y88733035D02*
X67450714Y88318273D01*
X67165000Y88541607D01*
X67165000Y88445892D01*
X67129285Y88382083D01*
X67093571Y88350178D01*
X67022142Y88318273D01*
X66843571Y88318273D01*
X66772142Y88350178D01*
X66736428Y88382083D01*
X66700714Y88445892D01*
X66700714Y88637321D01*
X66736428Y88701130D01*
X66772142Y88733035D01*
X69633571Y89115892D02*
X69597857Y89020178D01*
X69562142Y88988273D01*
X69490714Y88956369D01*
X69383571Y88956369D01*
X69312142Y88988273D01*
X69276428Y89020178D01*
X69240714Y89083988D01*
X69240714Y89339226D01*
X69990714Y89339226D01*
X69990714Y89115892D01*
X69955000Y89052083D01*
X69919285Y89020178D01*
X69847857Y88988273D01*
X69776428Y88988273D01*
X69705000Y89020178D01*
X69669285Y89052083D01*
X69633571Y89115892D01*
X69633571Y89339226D01*
X69240714Y88318273D02*
X69240714Y88701130D01*
X69240714Y88509702D02*
X69990714Y88509702D01*
X69883571Y88573511D01*
X69812142Y88637321D01*
X69776428Y88701130D01*
X72173571Y89115892D02*
X72173571Y89339226D01*
X71780714Y89339226D02*
X72530714Y89339226D01*
X72530714Y89020178D01*
X72530714Y88828750D02*
X72530714Y88382083D01*
X71780714Y88669226D01*
X74713571Y89115892D02*
X74713571Y89339226D01*
X74320714Y89339226D02*
X75070714Y89339226D01*
X75070714Y89020178D01*
X75070714Y88477797D02*
X75070714Y88605416D01*
X75035000Y88669226D01*
X74999285Y88701130D01*
X74892142Y88764940D01*
X74749285Y88796845D01*
X74463571Y88796845D01*
X74392142Y88764940D01*
X74356428Y88733035D01*
X74320714Y88669226D01*
X74320714Y88541607D01*
X74356428Y88477797D01*
X74392142Y88445892D01*
X74463571Y88413988D01*
X74642142Y88413988D01*
X74713571Y88445892D01*
X74749285Y88477797D01*
X74785000Y88541607D01*
X74785000Y88669226D01*
X74749285Y88733035D01*
X74713571Y88764940D01*
X74642142Y88796845D01*
X77253571Y89115892D02*
X77253571Y89339226D01*
X76860714Y89339226D02*
X77610714Y89339226D01*
X77610714Y89020178D01*
X77610714Y88445892D02*
X77610714Y88764940D01*
X77253571Y88796845D01*
X77289285Y88764940D01*
X77325000Y88701130D01*
X77325000Y88541607D01*
X77289285Y88477797D01*
X77253571Y88445892D01*
X77182142Y88413988D01*
X77003571Y88413988D01*
X76932142Y88445892D01*
X76896428Y88477797D01*
X76860714Y88541607D01*
X76860714Y88701130D01*
X76896428Y88764940D01*
X76932142Y88796845D01*
X79793571Y89115892D02*
X79793571Y89339226D01*
X79400714Y89339226D02*
X80150714Y89339226D01*
X80150714Y89020178D01*
X79900714Y88477797D02*
X79400714Y88477797D01*
X80186428Y88637321D02*
X79650714Y88796845D01*
X79650714Y88382083D01*
X82690714Y89434940D02*
X81940714Y89211607D01*
X82690714Y88988273D01*
X82012142Y88382083D02*
X81976428Y88413988D01*
X81940714Y88509702D01*
X81940714Y88573511D01*
X81976428Y88669226D01*
X82047857Y88733035D01*
X82119285Y88764940D01*
X82262142Y88796845D01*
X82369285Y88796845D01*
X82512142Y88764940D01*
X82583571Y88733035D01*
X82655000Y88669226D01*
X82690714Y88573511D01*
X82690714Y88509702D01*
X82655000Y88413988D01*
X82619285Y88382083D01*
X82012142Y87712083D02*
X81976428Y87743988D01*
X81940714Y87839702D01*
X81940714Y87903511D01*
X81976428Y87999226D01*
X82047857Y88063035D01*
X82119285Y88094940D01*
X82262142Y88126845D01*
X82369285Y88126845D01*
X82512142Y88094940D01*
X82583571Y88063035D01*
X82655000Y87999226D01*
X82690714Y87903511D01*
X82690714Y87839702D01*
X82655000Y87743988D01*
X82619285Y87712083D01*
X84460714Y88876369D02*
X84817857Y89099702D01*
X84460714Y89259226D02*
X85210714Y89259226D01*
X85210714Y89003988D01*
X85175000Y88940178D01*
X85139285Y88908273D01*
X85067857Y88876369D01*
X84960714Y88876369D01*
X84889285Y88908273D01*
X84853571Y88940178D01*
X84817857Y89003988D01*
X84817857Y89259226D01*
X84496428Y88621130D02*
X84460714Y88525416D01*
X84460714Y88365892D01*
X84496428Y88302083D01*
X84532142Y88270178D01*
X84603571Y88238273D01*
X84675000Y88238273D01*
X84746428Y88270178D01*
X84782142Y88302083D01*
X84817857Y88365892D01*
X84853571Y88493511D01*
X84889285Y88557321D01*
X84925000Y88589226D01*
X84996428Y88621130D01*
X85067857Y88621130D01*
X85139285Y88589226D01*
X85175000Y88557321D01*
X85210714Y88493511D01*
X85210714Y88333988D01*
X85175000Y88238273D01*
X85210714Y88046845D02*
X85210714Y87663988D01*
X84460714Y87855416D02*
X85210714Y87855416D01*
X89560714Y88676369D02*
X89917857Y88899702D01*
X89560714Y89059226D02*
X90310714Y89059226D01*
X90310714Y88803988D01*
X90275000Y88740178D01*
X90239285Y88708273D01*
X90167857Y88676369D01*
X90060714Y88676369D01*
X89989285Y88708273D01*
X89953571Y88740178D01*
X89917857Y88803988D01*
X89917857Y89059226D01*
X89775000Y88421130D02*
X89775000Y88102083D01*
X89560714Y88484940D02*
X90310714Y88261607D01*
X89560714Y88038273D01*
X90310714Y87878750D02*
X89560714Y87719226D01*
X90096428Y87591607D01*
X89560714Y87463988D01*
X90310714Y87304464D01*
X87735000Y88708273D02*
X87770714Y88772083D01*
X87770714Y88867797D01*
X87735000Y88963511D01*
X87663571Y89027321D01*
X87592142Y89059226D01*
X87449285Y89091130D01*
X87342142Y89091130D01*
X87199285Y89059226D01*
X87127857Y89027321D01*
X87056428Y88963511D01*
X87020714Y88867797D01*
X87020714Y88803988D01*
X87056428Y88708273D01*
X87092142Y88676369D01*
X87342142Y88676369D01*
X87342142Y88803988D01*
X87020714Y88389226D02*
X87770714Y88389226D01*
X87020714Y88006369D01*
X87770714Y88006369D01*
X87020714Y87687321D02*
X87770714Y87687321D01*
X87770714Y87527797D01*
X87735000Y87432083D01*
X87663571Y87368273D01*
X87592142Y87336369D01*
X87449285Y87304464D01*
X87342142Y87304464D01*
X87199285Y87336369D01*
X87127857Y87368273D01*
X87056428Y87432083D01*
X87020714Y87527797D01*
X87020714Y87687321D01*
D10*
X86902380Y81438095D02*
X86902380Y82009523D01*
X87902380Y81723809D02*
X86902380Y81723809D01*
X87902380Y82914285D02*
X87426190Y82580952D01*
X87902380Y82342857D02*
X86902380Y82342857D01*
X86902380Y82723809D01*
X86950000Y82819047D01*
X86997619Y82866666D01*
X87092857Y82914285D01*
X87235714Y82914285D01*
X87330952Y82866666D01*
X87378571Y82819047D01*
X87426190Y82723809D01*
X87426190Y82342857D01*
X87902380Y83914285D02*
X87426190Y83580952D01*
X87902380Y83342857D02*
X86902380Y83342857D01*
X86902380Y83723809D01*
X86950000Y83819047D01*
X86997619Y83866666D01*
X87092857Y83914285D01*
X87235714Y83914285D01*
X87330952Y83866666D01*
X87378571Y83819047D01*
X87426190Y83723809D01*
X87426190Y83342857D01*
X87854761Y84295238D02*
X87902380Y84438095D01*
X87902380Y84676190D01*
X87854761Y84771428D01*
X87807142Y84819047D01*
X87711904Y84866666D01*
X87616666Y84866666D01*
X87521428Y84819047D01*
X87473809Y84771428D01*
X87426190Y84676190D01*
X87378571Y84485714D01*
X87330952Y84390476D01*
X87283333Y84342857D01*
X87188095Y84295238D01*
X87092857Y84295238D01*
X86997619Y84342857D01*
X86950000Y84390476D01*
X86902380Y84485714D01*
X86902380Y84723809D01*
X86950000Y84866666D01*
X60552380Y81767619D02*
X60552380Y81958095D01*
X60600000Y82053333D01*
X60695238Y82148571D01*
X60885714Y82196190D01*
X61219047Y82196190D01*
X61409523Y82148571D01*
X61504761Y82053333D01*
X61552380Y81958095D01*
X61552380Y81767619D01*
X61504761Y81672380D01*
X61409523Y81577142D01*
X61219047Y81529523D01*
X60885714Y81529523D01*
X60695238Y81577142D01*
X60600000Y81672380D01*
X60552380Y81767619D01*
X61552380Y83100952D02*
X61552380Y82624761D01*
X60552380Y82624761D01*
X61028571Y83434285D02*
X61028571Y83767619D01*
X61552380Y83910476D02*
X61552380Y83434285D01*
X60552380Y83434285D01*
X60552380Y83910476D01*
X61552380Y84339047D02*
X60552380Y84339047D01*
X60552380Y84577142D01*
X60600000Y84720000D01*
X60695238Y84815238D01*
X60790476Y84862857D01*
X60980952Y84910476D01*
X61123809Y84910476D01*
X61314285Y84862857D01*
X61409523Y84815238D01*
X61504761Y84720000D01*
X61552380Y84577142D01*
X61552380Y84339047D01*
X88947619Y86047619D02*
X88614285Y86523809D01*
X88376190Y86047619D02*
X88376190Y87047619D01*
X88757142Y87047619D01*
X88852380Y87000000D01*
X88900000Y86952380D01*
X88947619Y86857142D01*
X88947619Y86714285D01*
X88900000Y86619047D01*
X88852380Y86571428D01*
X88757142Y86523809D01*
X88376190Y86523809D01*
X89376190Y86571428D02*
X89709523Y86571428D01*
X89852380Y86047619D02*
X89376190Y86047619D01*
X89376190Y87047619D01*
X89852380Y87047619D01*
X90233333Y86095238D02*
X90376190Y86047619D01*
X90614285Y86047619D01*
X90709523Y86095238D01*
X90757142Y86142857D01*
X90804761Y86238095D01*
X90804761Y86333333D01*
X90757142Y86428571D01*
X90709523Y86476190D01*
X90614285Y86523809D01*
X90423809Y86571428D01*
X90328571Y86619047D01*
X90280952Y86666666D01*
X90233333Y86761904D01*
X90233333Y86857142D01*
X90280952Y86952380D01*
X90328571Y87000000D01*
X90423809Y87047619D01*
X90661904Y87047619D01*
X90804761Y87000000D01*
X91233333Y86571428D02*
X91566666Y86571428D01*
X91709523Y86047619D02*
X91233333Y86047619D01*
X91233333Y87047619D01*
X91709523Y87047619D01*
X91995238Y87047619D02*
X92566666Y87047619D01*
X92280952Y86047619D02*
X92280952Y87047619D01*
%LPC*%
D14*
X14580000Y45600000D03*
X4420000Y45600000D03*
D15*
X15000000Y45600000D03*
X4000000Y45600000D03*
D16*
X9500000Y45600000D03*
D14*
X71730000Y64650000D03*
X61570000Y64650000D03*
D15*
X72150000Y64650000D03*
X61150000Y64650000D03*
D16*
X66650000Y64650000D03*
D14*
X52680000Y64650000D03*
X42520000Y64650000D03*
D15*
X53100000Y64650000D03*
X42100000Y64650000D03*
D16*
X47600000Y64650000D03*
D14*
X33630000Y64650000D03*
X23470000Y64650000D03*
D15*
X34050000Y64650000D03*
X23050000Y64650000D03*
D16*
X28550000Y64650000D03*
D14*
X14580000Y64650000D03*
X4420000Y64650000D03*
D15*
X15000000Y64650000D03*
X4000000Y64650000D03*
D16*
X9500000Y64650000D03*
D14*
X14580000Y83700000D03*
X4420000Y83700000D03*
D15*
X15000000Y83700000D03*
X4000000Y83700000D03*
D16*
X9500000Y83700000D03*
D14*
X14580000Y26550000D03*
X4420000Y26550000D03*
D15*
X15000000Y26550000D03*
X4000000Y26550000D03*
D16*
X9500000Y26550000D03*
D14*
X14580000Y7500000D03*
X4420000Y7500000D03*
D15*
X15000000Y7500000D03*
X4000000Y7500000D03*
D16*
X9500000Y7500000D03*
D14*
X33630000Y83700000D03*
X23470000Y83700000D03*
D15*
X34050000Y83700000D03*
X23050000Y83700000D03*
D16*
X28550000Y83700000D03*
D14*
X33630000Y45600000D03*
X23470000Y45600000D03*
D15*
X34050000Y45600000D03*
X23050000Y45600000D03*
D16*
X28550000Y45600000D03*
D14*
X33630000Y26550000D03*
X23470000Y26550000D03*
D15*
X34050000Y26550000D03*
X23050000Y26550000D03*
D16*
X28550000Y26550000D03*
D14*
X33630000Y7500000D03*
X23470000Y7500000D03*
D15*
X34050000Y7500000D03*
X23050000Y7500000D03*
D16*
X28550000Y7500000D03*
D14*
X52680000Y83700000D03*
X42520000Y83700000D03*
D15*
X53100000Y83700000D03*
X42100000Y83700000D03*
D16*
X47600000Y83700000D03*
D14*
X52680000Y45600000D03*
X42520000Y45600000D03*
D15*
X53100000Y45600000D03*
X42100000Y45600000D03*
D16*
X47600000Y45600000D03*
D14*
X52680000Y26550000D03*
X42520000Y26550000D03*
D15*
X53100000Y26550000D03*
X42100000Y26550000D03*
D16*
X47600000Y26550000D03*
D14*
X52680000Y7500000D03*
X42520000Y7500000D03*
D15*
X53100000Y7500000D03*
X42100000Y7500000D03*
D16*
X47600000Y7500000D03*
D14*
X71730000Y45600000D03*
X61570000Y45600000D03*
D15*
X72150000Y45600000D03*
X61150000Y45600000D03*
D16*
X66650000Y45600000D03*
D14*
X71730000Y26550000D03*
X61570000Y26550000D03*
D15*
X72150000Y26550000D03*
X61150000Y26550000D03*
D16*
X66650000Y26550000D03*
D14*
X71730000Y7500000D03*
X61570000Y7500000D03*
D15*
X72150000Y7500000D03*
X61150000Y7500000D03*
D16*
X66650000Y7500000D03*
D14*
X90780000Y64650000D03*
X80620000Y64650000D03*
D15*
X91200000Y64650000D03*
X80200000Y64650000D03*
D16*
X85700000Y64650000D03*
D14*
X90780000Y45600000D03*
X80620000Y45600000D03*
D15*
X91200000Y45600000D03*
X80200000Y45600000D03*
D16*
X85700000Y45600000D03*
D14*
X90780000Y26550000D03*
X80620000Y26550000D03*
D15*
X91200000Y26550000D03*
X80200000Y26550000D03*
D16*
X85700000Y26550000D03*
D14*
X90780000Y7500000D03*
X80620000Y7500000D03*
D15*
X91200000Y7500000D03*
X80200000Y7500000D03*
D16*
X85700000Y7500000D03*
D17*
X85400000Y82450000D03*
M02*
