G04 #@! TF.GenerationSoftware,KiCad,Pcbnew,(5.1.2)-2*
G04 #@! TF.CreationDate,2020-05-17T13:13:39+09:00*
G04 #@! TF.ProjectId,_5x4+3______Ver1.03,e6357834-2b33-4adf-9cdc-fcc95f566572,rev?*
G04 #@! TF.SameCoordinates,Original*
G04 #@! TF.FileFunction,Legend,Bot*
G04 #@! TF.FilePolarity,Positive*
%FSLAX46Y46*%
G04 Gerber Fmt 4.6, Leading zero omitted, Abs format (unit mm)*
G04 Created by KiCad (PCBNEW (5.1.2)-2) date 2020-05-17 13:13:39*
%MOMM*%
%LPD*%
G04 APERTURE LIST*
%ADD10C,0.125000*%
%ADD11C,0.200000*%
%ADD12C,0.120000*%
%ADD13C,0.150000*%
%ADD14C,1.900000*%
%ADD15C,2.700000*%
%ADD16C,2.100000*%
%ADD17C,4.200000*%
%ADD18O,1.639000X2.000000*%
%ADD19O,2.500000X1.700000*%
%ADD20C,1.400000*%
%ADD21O,2.000000X1.639000*%
%ADD22R,1.400000X1.400000*%
%ADD23C,1.800000*%
%ADD24C,2.400000*%
%ADD25C,4.300000*%
%ADD26R,1.800000X1.800000*%
%ADD27C,2.000000*%
G04 APERTURE END LIST*
D10*
X91214940Y36070714D02*
X90991607Y35320714D01*
X90768273Y36070714D01*
X90162083Y35392142D02*
X90193988Y35356428D01*
X90289702Y35320714D01*
X90353511Y35320714D01*
X90449226Y35356428D01*
X90513035Y35427857D01*
X90544940Y35499285D01*
X90576845Y35642142D01*
X90576845Y35749285D01*
X90544940Y35892142D01*
X90513035Y35963571D01*
X90449226Y36035000D01*
X90353511Y36070714D01*
X90289702Y36070714D01*
X90193988Y36035000D01*
X90162083Y35999285D01*
X89492083Y35392142D02*
X89523988Y35356428D01*
X89619702Y35320714D01*
X89683511Y35320714D01*
X89779226Y35356428D01*
X89843035Y35427857D01*
X89874940Y35499285D01*
X89906845Y35642142D01*
X89906845Y35749285D01*
X89874940Y35892142D01*
X89843035Y35963571D01*
X89779226Y36035000D01*
X89683511Y36070714D01*
X89619702Y36070714D01*
X89523988Y36035000D01*
X89492083Y35999285D01*
X91214940Y38610714D02*
X90832083Y38610714D01*
X91023511Y37860714D02*
X91023511Y38610714D01*
X90672559Y38610714D02*
X90225892Y37860714D01*
X90225892Y38610714D02*
X90672559Y37860714D01*
X90768273Y41115000D02*
X90832083Y41150714D01*
X90927797Y41150714D01*
X91023511Y41115000D01*
X91087321Y41043571D01*
X91119226Y40972142D01*
X91151130Y40829285D01*
X91151130Y40722142D01*
X91119226Y40579285D01*
X91087321Y40507857D01*
X91023511Y40436428D01*
X90927797Y40400714D01*
X90863988Y40400714D01*
X90768273Y40436428D01*
X90736369Y40472142D01*
X90736369Y40722142D01*
X90863988Y40722142D01*
X90449226Y40400714D02*
X90449226Y41150714D01*
X90066369Y40400714D01*
X90066369Y41150714D01*
X89747321Y40400714D02*
X89747321Y41150714D01*
X89587797Y41150714D01*
X89492083Y41115000D01*
X89428273Y41043571D01*
X89396369Y40972142D01*
X89364464Y40829285D01*
X89364464Y40722142D01*
X89396369Y40579285D01*
X89428273Y40507857D01*
X89492083Y40436428D01*
X89587797Y40400714D01*
X89747321Y40400714D01*
D11*
X15402500Y56550000D02*
X15402500Y51350000D01*
X15402500Y51350000D02*
X13602500Y51350000D01*
X13602500Y56550000D02*
X13602500Y51350000D01*
X15402500Y56550000D02*
X13602500Y56550000D01*
X14502500Y53550000D02*
X15002500Y54250000D01*
X15002500Y54250000D02*
X14002500Y54250000D01*
X14002500Y54250000D02*
X14502500Y53550000D01*
X14852500Y53550000D02*
X14102500Y53550000D01*
X14502500Y53650000D02*
X14502500Y53150000D01*
X14502500Y54250000D02*
X14502500Y54750000D01*
X12902500Y62450000D02*
X12902500Y57250000D01*
X12902500Y57250000D02*
X11102500Y57250000D01*
X11102500Y62450000D02*
X11102500Y57250000D01*
X12902500Y62450000D02*
X11102500Y62450000D01*
X12002500Y59450000D02*
X12502500Y60150000D01*
X12502500Y60150000D02*
X11502500Y60150000D01*
X11502500Y60150000D02*
X12002500Y59450000D01*
X12352500Y59450000D02*
X11602500Y59450000D01*
X12002500Y59550000D02*
X12002500Y59050000D01*
X12002500Y60150000D02*
X12002500Y60650000D01*
X8002500Y62450000D02*
X8002500Y57250000D01*
X8002500Y57250000D02*
X6202500Y57250000D01*
X6202500Y62450000D02*
X6202500Y57250000D01*
X8002500Y62450000D02*
X6202500Y62450000D01*
X7102500Y59450000D02*
X7602500Y60150000D01*
X7602500Y60150000D02*
X6602500Y60150000D01*
X6602500Y60150000D02*
X7102500Y59450000D01*
X7452500Y59450000D02*
X6702500Y59450000D01*
X7102500Y59550000D02*
X7102500Y59050000D01*
X7102500Y60150000D02*
X7102500Y60650000D01*
X10402500Y56550000D02*
X10402500Y51350000D01*
X10402500Y51350000D02*
X8602500Y51350000D01*
X8602500Y56550000D02*
X8602500Y51350000D01*
X10402500Y56550000D02*
X8602500Y56550000D01*
X9502500Y53550000D02*
X10002500Y54250000D01*
X10002500Y54250000D02*
X9002500Y54250000D01*
X9002500Y54250000D02*
X9502500Y53550000D01*
X9852500Y53550000D02*
X9102500Y53550000D01*
X9502500Y53650000D02*
X9502500Y53150000D01*
X9502500Y54250000D02*
X9502500Y54750000D01*
X6102500Y56550000D02*
X6102500Y51350000D01*
X6102500Y51350000D02*
X4302500Y51350000D01*
X4302500Y56550000D02*
X4302500Y51350000D01*
X6102500Y56550000D02*
X4302500Y56550000D01*
X5202500Y53550000D02*
X5702500Y54250000D01*
X5702500Y54250000D02*
X4702500Y54250000D01*
X4702500Y54250000D02*
X5202500Y53550000D01*
X5552500Y53550000D02*
X4802500Y53550000D01*
X5202500Y53650000D02*
X5202500Y53150000D01*
X5202500Y54250000D02*
X5202500Y54750000D01*
X31952500Y62550000D02*
X31952500Y57350000D01*
X31952500Y57350000D02*
X30152500Y57350000D01*
X30152500Y62550000D02*
X30152500Y57350000D01*
X31952500Y62550000D02*
X30152500Y62550000D01*
X31052500Y59550000D02*
X31552500Y60250000D01*
X31552500Y60250000D02*
X30552500Y60250000D01*
X30552500Y60250000D02*
X31052500Y59550000D01*
X31402500Y59550000D02*
X30652500Y59550000D01*
X31052500Y59650000D02*
X31052500Y59150000D01*
X31052500Y60250000D02*
X31052500Y60750000D01*
X26952500Y62550000D02*
X26952500Y57350000D01*
X26952500Y57350000D02*
X25152500Y57350000D01*
X25152500Y62550000D02*
X25152500Y57350000D01*
X26952500Y62550000D02*
X25152500Y62550000D01*
X26052500Y59550000D02*
X26552500Y60250000D01*
X26552500Y60250000D02*
X25552500Y60250000D01*
X25552500Y60250000D02*
X26052500Y59550000D01*
X26402500Y59550000D02*
X25652500Y59550000D01*
X26052500Y59650000D02*
X26052500Y59150000D01*
X26052500Y60250000D02*
X26052500Y60750000D01*
X34452500Y56450000D02*
X34452500Y51250000D01*
X34452500Y51250000D02*
X32652500Y51250000D01*
X32652500Y56450000D02*
X32652500Y51250000D01*
X34452500Y56450000D02*
X32652500Y56450000D01*
X33552500Y53450000D02*
X34052500Y54150000D01*
X34052500Y54150000D02*
X33052500Y54150000D01*
X33052500Y54150000D02*
X33552500Y53450000D01*
X33902500Y53450000D02*
X33152500Y53450000D01*
X33552500Y53550000D02*
X33552500Y53050000D01*
X33552500Y54150000D02*
X33552500Y54650000D01*
X29452500Y56450000D02*
X29452500Y51250000D01*
X29452500Y51250000D02*
X27652500Y51250000D01*
X27652500Y56450000D02*
X27652500Y51250000D01*
X29452500Y56450000D02*
X27652500Y56450000D01*
X28552500Y53450000D02*
X29052500Y54150000D01*
X29052500Y54150000D02*
X28052500Y54150000D01*
X28052500Y54150000D02*
X28552500Y53450000D01*
X28902500Y53450000D02*
X28152500Y53450000D01*
X28552500Y53550000D02*
X28552500Y53050000D01*
X28552500Y54150000D02*
X28552500Y54650000D01*
X24452500Y56450000D02*
X24452500Y51250000D01*
X24452500Y51250000D02*
X22652500Y51250000D01*
X22652500Y56450000D02*
X22652500Y51250000D01*
X24452500Y56450000D02*
X22652500Y56450000D01*
X23552500Y53450000D02*
X24052500Y54150000D01*
X24052500Y54150000D02*
X23052500Y54150000D01*
X23052500Y54150000D02*
X23552500Y53450000D01*
X23902500Y53450000D02*
X23152500Y53450000D01*
X23552500Y53550000D02*
X23552500Y53050000D01*
X23552500Y54150000D02*
X23552500Y54650000D01*
X51002500Y62550000D02*
X51002500Y57350000D01*
X51002500Y57350000D02*
X49202500Y57350000D01*
X49202500Y62550000D02*
X49202500Y57350000D01*
X51002500Y62550000D02*
X49202500Y62550000D01*
X50102500Y59550000D02*
X50602500Y60250000D01*
X50602500Y60250000D02*
X49602500Y60250000D01*
X49602500Y60250000D02*
X50102500Y59550000D01*
X50452500Y59550000D02*
X49702500Y59550000D01*
X50102500Y59650000D02*
X50102500Y59150000D01*
X50102500Y60250000D02*
X50102500Y60750000D01*
X46002500Y62550000D02*
X46002500Y57350000D01*
X46002500Y57350000D02*
X44202500Y57350000D01*
X44202500Y62550000D02*
X44202500Y57350000D01*
X46002500Y62550000D02*
X44202500Y62550000D01*
X45102500Y59550000D02*
X45602500Y60250000D01*
X45602500Y60250000D02*
X44602500Y60250000D01*
X44602500Y60250000D02*
X45102500Y59550000D01*
X45452500Y59550000D02*
X44702500Y59550000D01*
X45102500Y59650000D02*
X45102500Y59150000D01*
X45102500Y60250000D02*
X45102500Y60750000D01*
X53502500Y56450000D02*
X53502500Y51250000D01*
X53502500Y51250000D02*
X51702500Y51250000D01*
X51702500Y56450000D02*
X51702500Y51250000D01*
X53502500Y56450000D02*
X51702500Y56450000D01*
X52602500Y53450000D02*
X53102500Y54150000D01*
X53102500Y54150000D02*
X52102500Y54150000D01*
X52102500Y54150000D02*
X52602500Y53450000D01*
X52952500Y53450000D02*
X52202500Y53450000D01*
X52602500Y53550000D02*
X52602500Y53050000D01*
X52602500Y54150000D02*
X52602500Y54650000D01*
X48502500Y56450000D02*
X48502500Y51250000D01*
X48502500Y51250000D02*
X46702500Y51250000D01*
X46702500Y56450000D02*
X46702500Y51250000D01*
X48502500Y56450000D02*
X46702500Y56450000D01*
X47602500Y53450000D02*
X48102500Y54150000D01*
X48102500Y54150000D02*
X47102500Y54150000D01*
X47102500Y54150000D02*
X47602500Y53450000D01*
X47952500Y53450000D02*
X47202500Y53450000D01*
X47602500Y53550000D02*
X47602500Y53050000D01*
X47602500Y54150000D02*
X47602500Y54650000D01*
X43502500Y56450000D02*
X43502500Y51250000D01*
X43502500Y51250000D02*
X41702500Y51250000D01*
X41702500Y56450000D02*
X41702500Y51250000D01*
X43502500Y56450000D02*
X41702500Y56450000D01*
X42602500Y53450000D02*
X43102500Y54150000D01*
X43102500Y54150000D02*
X42102500Y54150000D01*
X42102500Y54150000D02*
X42602500Y53450000D01*
X42952500Y53450000D02*
X42202500Y53450000D01*
X42602500Y53550000D02*
X42602500Y53050000D01*
X42602500Y54150000D02*
X42602500Y54650000D01*
X70052500Y62550000D02*
X70052500Y57350000D01*
X70052500Y57350000D02*
X68252500Y57350000D01*
X68252500Y62550000D02*
X68252500Y57350000D01*
X70052500Y62550000D02*
X68252500Y62550000D01*
X69152500Y59550000D02*
X69652500Y60250000D01*
X69652500Y60250000D02*
X68652500Y60250000D01*
X68652500Y60250000D02*
X69152500Y59550000D01*
X69502500Y59550000D02*
X68752500Y59550000D01*
X69152500Y59650000D02*
X69152500Y59150000D01*
X69152500Y60250000D02*
X69152500Y60750000D01*
X72552500Y56450000D02*
X72552500Y51250000D01*
X72552500Y51250000D02*
X70752500Y51250000D01*
X70752500Y56450000D02*
X70752500Y51250000D01*
X72552500Y56450000D02*
X70752500Y56450000D01*
X71652500Y53450000D02*
X72152500Y54150000D01*
X72152500Y54150000D02*
X71152500Y54150000D01*
X71152500Y54150000D02*
X71652500Y53450000D01*
X72002500Y53450000D02*
X71252500Y53450000D01*
X71652500Y53550000D02*
X71652500Y53050000D01*
X71652500Y54150000D02*
X71652500Y54650000D01*
X67552500Y56450000D02*
X67552500Y51250000D01*
X67552500Y51250000D02*
X65752500Y51250000D01*
X65752500Y56450000D02*
X65752500Y51250000D01*
X67552500Y56450000D02*
X65752500Y56450000D01*
X66652500Y53450000D02*
X67152500Y54150000D01*
X67152500Y54150000D02*
X66152500Y54150000D01*
X66152500Y54150000D02*
X66652500Y53450000D01*
X67002500Y53450000D02*
X66252500Y53450000D01*
X66652500Y53550000D02*
X66652500Y53050000D01*
X66652500Y54150000D02*
X66652500Y54650000D01*
X62552500Y56450000D02*
X62552500Y51250000D01*
X62552500Y51250000D02*
X60752500Y51250000D01*
X60752500Y56450000D02*
X60752500Y51250000D01*
X62552500Y56450000D02*
X60752500Y56450000D01*
X61652500Y53450000D02*
X62152500Y54150000D01*
X62152500Y54150000D02*
X61152500Y54150000D01*
X61152500Y54150000D02*
X61652500Y53450000D01*
X62002500Y53450000D02*
X61252500Y53450000D01*
X61652500Y53550000D02*
X61652500Y53050000D01*
X61652500Y54150000D02*
X61652500Y54650000D01*
X89102500Y62550000D02*
X89102500Y57350000D01*
X89102500Y57350000D02*
X87302500Y57350000D01*
X87302500Y62550000D02*
X87302500Y57350000D01*
X89102500Y62550000D02*
X87302500Y62550000D01*
X88202500Y59550000D02*
X88702500Y60250000D01*
X88702500Y60250000D02*
X87702500Y60250000D01*
X87702500Y60250000D02*
X88202500Y59550000D01*
X88552500Y59550000D02*
X87802500Y59550000D01*
X88202500Y59650000D02*
X88202500Y59150000D01*
X88202500Y60250000D02*
X88202500Y60750000D01*
X91602500Y56450000D02*
X91602500Y51250000D01*
X91602500Y51250000D02*
X89802500Y51250000D01*
X89802500Y56450000D02*
X89802500Y51250000D01*
X91602500Y56450000D02*
X89802500Y56450000D01*
X90702500Y53450000D02*
X91202500Y54150000D01*
X91202500Y54150000D02*
X90202500Y54150000D01*
X90202500Y54150000D02*
X90702500Y53450000D01*
X91052500Y53450000D02*
X90302500Y53450000D01*
X90702500Y53550000D02*
X90702500Y53050000D01*
X90702500Y54150000D02*
X90702500Y54650000D01*
X86602500Y56450000D02*
X86602500Y51250000D01*
X86602500Y51250000D02*
X84802500Y51250000D01*
X84802500Y56450000D02*
X84802500Y51250000D01*
X86602500Y56450000D02*
X84802500Y56450000D01*
X85702500Y53450000D02*
X86202500Y54150000D01*
X86202500Y54150000D02*
X85202500Y54150000D01*
X85202500Y54150000D02*
X85702500Y53450000D01*
X86052500Y53450000D02*
X85302500Y53450000D01*
X85702500Y53550000D02*
X85702500Y53050000D01*
X85702500Y54150000D02*
X85702500Y54650000D01*
X81602500Y56450000D02*
X81602500Y51250000D01*
X81602500Y51250000D02*
X79802500Y51250000D01*
X79802500Y56450000D02*
X79802500Y51250000D01*
X81602500Y56450000D02*
X79802500Y56450000D01*
X80702500Y53450000D02*
X81202500Y54150000D01*
X81202500Y54150000D02*
X80202500Y54150000D01*
X80202500Y54150000D02*
X80702500Y53450000D01*
X81052500Y53450000D02*
X80302500Y53450000D01*
X80702500Y53550000D02*
X80702500Y53050000D01*
X80702500Y54150000D02*
X80702500Y54650000D01*
D12*
X93960000Y33180000D02*
X91360000Y33180000D01*
X93960000Y43220000D02*
X93960000Y33180000D01*
X91360000Y43220000D02*
X93960000Y43220000D01*
X91360000Y33180000D02*
X91360000Y43220000D01*
D13*
%LPC*%
D14*
X14580000Y45600000D03*
X4420000Y45600000D03*
D15*
X5690000Y48140000D03*
X12040000Y50680000D03*
D16*
X15000000Y45600000D03*
X4000000Y45600000D03*
D17*
X9500000Y45600000D03*
D14*
X71730000Y64650000D03*
X61570000Y64650000D03*
D15*
X62840000Y67190000D03*
X69190000Y69730000D03*
D16*
X72150000Y64650000D03*
X61150000Y64650000D03*
D17*
X66650000Y64650000D03*
D14*
X52680000Y64650000D03*
X42520000Y64650000D03*
D15*
X43790000Y67190000D03*
X50140000Y69730000D03*
D16*
X53100000Y64650000D03*
X42100000Y64650000D03*
D17*
X47600000Y64650000D03*
D14*
X33630000Y64650000D03*
X23470000Y64650000D03*
D15*
X24740000Y67190000D03*
X31090000Y69730000D03*
D16*
X34050000Y64650000D03*
X23050000Y64650000D03*
D17*
X28550000Y64650000D03*
D14*
X14580000Y64650000D03*
X4420000Y64650000D03*
D15*
X5690000Y67190000D03*
X12040000Y69730000D03*
D16*
X15000000Y64650000D03*
X4000000Y64650000D03*
D17*
X9500000Y64650000D03*
D14*
X14580000Y83700000D03*
X4420000Y83700000D03*
D15*
X5690000Y86240000D03*
X12040000Y88780000D03*
D16*
X15000000Y83700000D03*
X4000000Y83700000D03*
D17*
X9500000Y83700000D03*
D14*
X14580000Y26550000D03*
X4420000Y26550000D03*
D15*
X5690000Y29090000D03*
X12040000Y31630000D03*
D16*
X15000000Y26550000D03*
X4000000Y26550000D03*
D17*
X9500000Y26550000D03*
D14*
X14580000Y7500000D03*
X4420000Y7500000D03*
D15*
X5690000Y10040000D03*
X12040000Y12580000D03*
D16*
X15000000Y7500000D03*
X4000000Y7500000D03*
D17*
X9500000Y7500000D03*
D14*
X33630000Y83700000D03*
X23470000Y83700000D03*
D15*
X24740000Y86240000D03*
X31090000Y88780000D03*
D16*
X34050000Y83700000D03*
X23050000Y83700000D03*
D17*
X28550000Y83700000D03*
D14*
X33630000Y45600000D03*
X23470000Y45600000D03*
D15*
X24740000Y48140000D03*
X31090000Y50680000D03*
D16*
X34050000Y45600000D03*
X23050000Y45600000D03*
D17*
X28550000Y45600000D03*
D14*
X33630000Y26550000D03*
X23470000Y26550000D03*
D15*
X24740000Y29090000D03*
X31090000Y31630000D03*
D16*
X34050000Y26550000D03*
X23050000Y26550000D03*
D17*
X28550000Y26550000D03*
D14*
X33630000Y7500000D03*
X23470000Y7500000D03*
D15*
X24740000Y10040000D03*
X31090000Y12580000D03*
D16*
X34050000Y7500000D03*
X23050000Y7500000D03*
D17*
X28550000Y7500000D03*
D14*
X52680000Y83700000D03*
X42520000Y83700000D03*
D15*
X43790000Y86240000D03*
X50140000Y88780000D03*
D16*
X53100000Y83700000D03*
X42100000Y83700000D03*
D17*
X47600000Y83700000D03*
D14*
X52680000Y45600000D03*
X42520000Y45600000D03*
D15*
X43790000Y48140000D03*
X50140000Y50680000D03*
D16*
X53100000Y45600000D03*
X42100000Y45600000D03*
D17*
X47600000Y45600000D03*
D14*
X52680000Y26550000D03*
X42520000Y26550000D03*
D15*
X43790000Y29090000D03*
X50140000Y31630000D03*
D16*
X53100000Y26550000D03*
X42100000Y26550000D03*
D17*
X47600000Y26550000D03*
D14*
X52680000Y7500000D03*
X42520000Y7500000D03*
D15*
X43790000Y10040000D03*
X50140000Y12580000D03*
D16*
X53100000Y7500000D03*
X42100000Y7500000D03*
D17*
X47600000Y7500000D03*
D14*
X71730000Y45600000D03*
X61570000Y45600000D03*
D15*
X62840000Y48140000D03*
X69190000Y50680000D03*
D16*
X72150000Y45600000D03*
X61150000Y45600000D03*
D17*
X66650000Y45600000D03*
D14*
X71730000Y26550000D03*
X61570000Y26550000D03*
D15*
X62840000Y29090000D03*
X69190000Y31630000D03*
D16*
X72150000Y26550000D03*
X61150000Y26550000D03*
D17*
X66650000Y26550000D03*
D14*
X71730000Y7500000D03*
X61570000Y7500000D03*
D15*
X62840000Y10040000D03*
X69190000Y12580000D03*
D16*
X72150000Y7500000D03*
X61150000Y7500000D03*
D17*
X66650000Y7500000D03*
D14*
X90780000Y64650000D03*
X80620000Y64650000D03*
D15*
X81890000Y67190000D03*
X88240000Y69730000D03*
D16*
X91200000Y64650000D03*
X80200000Y64650000D03*
D17*
X85700000Y64650000D03*
D14*
X90780000Y45600000D03*
X80620000Y45600000D03*
D15*
X81890000Y48140000D03*
X88240000Y50680000D03*
D16*
X91200000Y45600000D03*
X80200000Y45600000D03*
D17*
X85700000Y45600000D03*
D14*
X90780000Y26550000D03*
X80620000Y26550000D03*
D15*
X81890000Y29090000D03*
X88240000Y31630000D03*
D16*
X91200000Y26550000D03*
X80200000Y26550000D03*
D17*
X85700000Y26550000D03*
D14*
X90780000Y7500000D03*
X80620000Y7500000D03*
D15*
X81890000Y10040000D03*
X88240000Y12580000D03*
D16*
X91200000Y7500000D03*
X80200000Y7500000D03*
D17*
X85700000Y7500000D03*
D16*
X1270000Y73540000D03*
X1270000Y71000000D03*
X1270000Y68460000D03*
X1270000Y65920000D03*
X1270000Y63380000D03*
X1270000Y60840000D03*
X1270000Y58300000D03*
X1270000Y55760000D03*
D18*
X61960000Y90850000D03*
X64500000Y90850000D03*
X67040000Y90850000D03*
X69580000Y90850000D03*
X72120000Y90850000D03*
X74660000Y90850000D03*
X77200000Y90850000D03*
X79740000Y90850000D03*
X82280000Y90850000D03*
X84820000Y90850000D03*
X87360000Y90850000D03*
X61960000Y75630000D03*
X64500000Y75630000D03*
X67040000Y75630000D03*
X69580000Y75630000D03*
X72120000Y75630000D03*
X74660000Y75630000D03*
X77200000Y75630000D03*
X79740000Y75630000D03*
X82280000Y75630000D03*
X84820000Y75630000D03*
X87360000Y75630000D03*
X89900000Y75630000D03*
X89900000Y90850000D03*
D19*
X82100000Y84550000D03*
X83600000Y80350000D03*
X87600000Y80350000D03*
X90600000Y80350000D03*
D20*
X85400000Y82450000D03*
X92400000Y82450000D03*
D21*
X59000000Y79400000D03*
X59000000Y81940000D03*
X59000000Y84480000D03*
X59000000Y87020000D03*
D22*
X14502500Y52175000D03*
X14502500Y55725000D03*
X12002500Y58075000D03*
X12002500Y61625000D03*
X7102500Y58075000D03*
X7102500Y61625000D03*
X9502500Y52175000D03*
X9502500Y55725000D03*
X5202500Y52175000D03*
X5202500Y55725000D03*
X31052500Y58175000D03*
X31052500Y61725000D03*
X26052500Y58175000D03*
X26052500Y61725000D03*
X33552500Y52075000D03*
X33552500Y55625000D03*
X28552500Y52075000D03*
X28552500Y55625000D03*
X23552500Y52075000D03*
X23552500Y55625000D03*
X50102500Y58175000D03*
X50102500Y61725000D03*
X45102500Y58175000D03*
X45102500Y61725000D03*
X52602500Y52075000D03*
X52602500Y55625000D03*
X47602500Y52075000D03*
X47602500Y55625000D03*
X42602500Y52075000D03*
X42602500Y55625000D03*
X69152500Y58175000D03*
X69152500Y61725000D03*
X71652500Y52075000D03*
X71652500Y55625000D03*
X66652500Y52075000D03*
X66652500Y55625000D03*
X61652500Y52075000D03*
X61652500Y55625000D03*
X88202500Y58175000D03*
X88202500Y61725000D03*
X90702500Y52075000D03*
X90702500Y55625000D03*
X85702500Y52075000D03*
X85702500Y55625000D03*
X80702500Y52075000D03*
X80702500Y55625000D03*
D23*
X76430000Y84150000D03*
X76430000Y81610000D03*
X76430000Y79070000D03*
X78970000Y81610000D03*
X78970000Y84150000D03*
X78970000Y86690000D03*
D24*
X58950000Y75870000D03*
X93650000Y87500000D03*
X87150000Y87500000D03*
D25*
X38100000Y74200000D03*
X19050000Y74200000D03*
X76200000Y55150000D03*
X57150000Y55150000D03*
X38100000Y55150000D03*
X19050000Y55150000D03*
X76200000Y36100000D03*
X57150000Y36100000D03*
X38100000Y36100000D03*
X19050000Y36100000D03*
X76200000Y17050000D03*
X57150000Y17050000D03*
X38100000Y17050000D03*
X19050000Y17050000D03*
D26*
X92660000Y40740000D03*
X92660000Y35660000D03*
X92660000Y38200000D03*
D27*
X73800000Y86040000D03*
X73800000Y78420000D03*
X71300000Y85940000D03*
X71300000Y78320000D03*
D23*
X50790000Y75380000D03*
X48250000Y75380000D03*
X45710000Y75380000D03*
X43170000Y75380000D03*
M02*
