G04 #@! TF.GenerationSoftware,KiCad,Pcbnew,(5.1.2)-2*
G04 #@! TF.CreationDate,2020-05-16T23:41:00+09:00*
G04 #@! TF.ProjectId,______,e135d7ec-fcc8-42e6-9b69-6361645f7063,rev?*
G04 #@! TF.SameCoordinates,Original*
G04 #@! TF.FileFunction,Legend,Bot*
G04 #@! TF.FilePolarity,Positive*
%FSLAX46Y46*%
G04 Gerber Fmt 4.6, Leading zero omitted, Abs format (unit mm)*
G04 Created by KiCad (PCBNEW (5.1.2)-2) date 2020-05-16 23:41:00*
%MOMM*%
%LPD*%
G04 APERTURE LIST*
%ADD10C,0.200000*%
%ADD11C,1.900000*%
%ADD12C,2.700000*%
%ADD13C,2.100000*%
%ADD14C,4.200000*%
%ADD15R,1.400000X1.400000*%
%ADD16C,4.300000*%
G04 APERTURE END LIST*
D10*
X15402500Y57550000D02*
X15402500Y52350000D01*
X15402500Y52350000D02*
X13602500Y52350000D01*
X13602500Y57550000D02*
X13602500Y52350000D01*
X15402500Y57550000D02*
X13602500Y57550000D01*
X14502500Y54550000D02*
X15002500Y55250000D01*
X15002500Y55250000D02*
X14002500Y55250000D01*
X14002500Y55250000D02*
X14502500Y54550000D01*
X14852500Y54550000D02*
X14102500Y54550000D01*
X14502500Y54650000D02*
X14502500Y54150000D01*
X14502500Y55250000D02*
X14502500Y55750000D01*
X48402500Y63450000D02*
X48402500Y58250000D01*
X48402500Y58250000D02*
X46602500Y58250000D01*
X46602500Y63450000D02*
X46602500Y58250000D01*
X48402500Y63450000D02*
X46602500Y63450000D01*
X47502500Y60450000D02*
X48002500Y61150000D01*
X48002500Y61150000D02*
X47002500Y61150000D01*
X47002500Y61150000D02*
X47502500Y60450000D01*
X47852500Y60450000D02*
X47102500Y60450000D01*
X47502500Y60550000D02*
X47502500Y60050000D01*
X47502500Y61150000D02*
X47502500Y61650000D01*
X53202500Y63450000D02*
X53202500Y58250000D01*
X53202500Y58250000D02*
X51402500Y58250000D01*
X51402500Y63450000D02*
X51402500Y58250000D01*
X53202500Y63450000D02*
X51402500Y63450000D01*
X52302500Y60450000D02*
X52802500Y61150000D01*
X52802500Y61150000D02*
X51802500Y61150000D01*
X51802500Y61150000D02*
X52302500Y60450000D01*
X52652500Y60450000D02*
X51902500Y60450000D01*
X52302500Y60550000D02*
X52302500Y60050000D01*
X52302500Y61150000D02*
X52302500Y61650000D01*
X55702500Y57550000D02*
X55702500Y52350000D01*
X55702500Y52350000D02*
X53902500Y52350000D01*
X53902500Y57550000D02*
X53902500Y52350000D01*
X55702500Y57550000D02*
X53902500Y57550000D01*
X54802500Y54550000D02*
X55302500Y55250000D01*
X55302500Y55250000D02*
X54302500Y55250000D01*
X54302500Y55250000D02*
X54802500Y54550000D01*
X55152500Y54550000D02*
X54402500Y54550000D01*
X54802500Y54650000D02*
X54802500Y54150000D01*
X54802500Y55250000D02*
X54802500Y55750000D01*
X50702500Y57550000D02*
X50702500Y52350000D01*
X50702500Y52350000D02*
X48902500Y52350000D01*
X48902500Y57550000D02*
X48902500Y52350000D01*
X50702500Y57550000D02*
X48902500Y57550000D01*
X49802500Y54550000D02*
X50302500Y55250000D01*
X50302500Y55250000D02*
X49302500Y55250000D01*
X49302500Y55250000D02*
X49802500Y54550000D01*
X50152500Y54550000D02*
X49402500Y54550000D01*
X49802500Y54650000D02*
X49802500Y54150000D01*
X49802500Y55250000D02*
X49802500Y55750000D01*
X46900000Y57550000D02*
X46900000Y52350000D01*
X46900000Y52350000D02*
X45100000Y52350000D01*
X45100000Y57550000D02*
X45100000Y52350000D01*
X46900000Y57550000D02*
X45100000Y57550000D01*
X46000000Y54550000D02*
X46500000Y55250000D01*
X46500000Y55250000D02*
X45500000Y55250000D01*
X45500000Y55250000D02*
X46000000Y54550000D01*
X46350000Y54550000D02*
X45600000Y54550000D01*
X46000000Y54650000D02*
X46000000Y54150000D01*
X46000000Y55250000D02*
X46000000Y55750000D01*
X67252500Y63450000D02*
X67252500Y58250000D01*
X67252500Y58250000D02*
X65452500Y58250000D01*
X65452500Y63450000D02*
X65452500Y58250000D01*
X67252500Y63450000D02*
X65452500Y63450000D01*
X66352500Y60450000D02*
X66852500Y61150000D01*
X66852500Y61150000D02*
X65852500Y61150000D01*
X65852500Y61150000D02*
X66352500Y60450000D01*
X66702500Y60450000D02*
X65952500Y60450000D01*
X66352500Y60550000D02*
X66352500Y60050000D01*
X66352500Y61150000D02*
X66352500Y61650000D01*
X72252500Y63450000D02*
X72252500Y58250000D01*
X72252500Y58250000D02*
X70452500Y58250000D01*
X70452500Y63450000D02*
X70452500Y58250000D01*
X72252500Y63450000D02*
X70452500Y63450000D01*
X71352500Y60450000D02*
X71852500Y61150000D01*
X71852500Y61150000D02*
X70852500Y61150000D01*
X70852500Y61150000D02*
X71352500Y60450000D01*
X71702500Y60450000D02*
X70952500Y60450000D01*
X71352500Y60550000D02*
X71352500Y60050000D01*
X71352500Y61150000D02*
X71352500Y61650000D01*
X74752500Y57550000D02*
X74752500Y52350000D01*
X74752500Y52350000D02*
X72952500Y52350000D01*
X72952500Y57550000D02*
X72952500Y52350000D01*
X74752500Y57550000D02*
X72952500Y57550000D01*
X73852500Y54550000D02*
X74352500Y55250000D01*
X74352500Y55250000D02*
X73352500Y55250000D01*
X73352500Y55250000D02*
X73852500Y54550000D01*
X74202500Y54550000D02*
X73452500Y54550000D01*
X73852500Y54650000D02*
X73852500Y54150000D01*
X73852500Y55250000D02*
X73852500Y55750000D01*
X69752500Y57550000D02*
X69752500Y52350000D01*
X69752500Y52350000D02*
X67952500Y52350000D01*
X67952500Y57550000D02*
X67952500Y52350000D01*
X69752500Y57550000D02*
X67952500Y57550000D01*
X68852500Y54550000D02*
X69352500Y55250000D01*
X69352500Y55250000D02*
X68352500Y55250000D01*
X68352500Y55250000D02*
X68852500Y54550000D01*
X69202500Y54550000D02*
X68452500Y54550000D01*
X68852500Y54650000D02*
X68852500Y54150000D01*
X68852500Y55250000D02*
X68852500Y55750000D01*
X64752500Y57550000D02*
X64752500Y52350000D01*
X64752500Y52350000D02*
X62952500Y52350000D01*
X62952500Y57550000D02*
X62952500Y52350000D01*
X64752500Y57550000D02*
X62952500Y57550000D01*
X63852500Y54550000D02*
X64352500Y55250000D01*
X64352500Y55250000D02*
X63352500Y55250000D01*
X63352500Y55250000D02*
X63852500Y54550000D01*
X64202500Y54550000D02*
X63452500Y54550000D01*
X63852500Y54650000D02*
X63852500Y54150000D01*
X63852500Y55250000D02*
X63852500Y55750000D01*
X25952500Y63450000D02*
X25952500Y58250000D01*
X25952500Y58250000D02*
X24152500Y58250000D01*
X24152500Y63450000D02*
X24152500Y58250000D01*
X25952500Y63450000D02*
X24152500Y63450000D01*
X25052500Y60450000D02*
X25552500Y61150000D01*
X25552500Y61150000D02*
X24552500Y61150000D01*
X24552500Y61150000D02*
X25052500Y60450000D01*
X25402500Y60450000D02*
X24652500Y60450000D01*
X25052500Y60550000D02*
X25052500Y60050000D01*
X25052500Y61150000D02*
X25052500Y61650000D01*
X30952500Y63350000D02*
X30952500Y58150000D01*
X30952500Y58150000D02*
X29152500Y58150000D01*
X29152500Y63350000D02*
X29152500Y58150000D01*
X30952500Y63350000D02*
X29152500Y63350000D01*
X30052500Y60350000D02*
X30552500Y61050000D01*
X30552500Y61050000D02*
X29552500Y61050000D01*
X29552500Y61050000D02*
X30052500Y60350000D01*
X30402500Y60350000D02*
X29652500Y60350000D01*
X30052500Y60450000D02*
X30052500Y59950000D01*
X30052500Y61050000D02*
X30052500Y61550000D01*
X33370000Y58400000D02*
X33370000Y53200000D01*
X33370000Y53200000D02*
X31570000Y53200000D01*
X31570000Y58400000D02*
X31570000Y53200000D01*
X33370000Y58400000D02*
X31570000Y58400000D01*
X32470000Y55400000D02*
X32970000Y56100000D01*
X32970000Y56100000D02*
X31970000Y56100000D01*
X31970000Y56100000D02*
X32470000Y55400000D01*
X32820000Y55400000D02*
X32070000Y55400000D01*
X32470000Y55500000D02*
X32470000Y55000000D01*
X32470000Y56100000D02*
X32470000Y56600000D01*
X28652500Y57550000D02*
X28652500Y52350000D01*
X28652500Y52350000D02*
X26852500Y52350000D01*
X26852500Y57550000D02*
X26852500Y52350000D01*
X28652500Y57550000D02*
X26852500Y57550000D01*
X27752500Y54550000D02*
X28252500Y55250000D01*
X28252500Y55250000D02*
X27252500Y55250000D01*
X27252500Y55250000D02*
X27752500Y54550000D01*
X28102500Y54550000D02*
X27352500Y54550000D01*
X27752500Y54650000D02*
X27752500Y54150000D01*
X27752500Y55250000D02*
X27752500Y55750000D01*
X23852500Y57550000D02*
X23852500Y52350000D01*
X23852500Y52350000D02*
X22052500Y52350000D01*
X22052500Y57550000D02*
X22052500Y52350000D01*
X23852500Y57550000D02*
X22052500Y57550000D01*
X22952500Y54550000D02*
X23452500Y55250000D01*
X23452500Y55250000D02*
X22452500Y55250000D01*
X22452500Y55250000D02*
X22952500Y54550000D01*
X23302500Y54550000D02*
X22552500Y54550000D01*
X22952500Y54650000D02*
X22952500Y54150000D01*
X22952500Y55250000D02*
X22952500Y55750000D01*
X12902500Y63450000D02*
X12902500Y58250000D01*
X12902500Y58250000D02*
X11102500Y58250000D01*
X11102500Y63450000D02*
X11102500Y58250000D01*
X12902500Y63450000D02*
X11102500Y63450000D01*
X12002500Y60450000D02*
X12502500Y61150000D01*
X12502500Y61150000D02*
X11502500Y61150000D01*
X11502500Y61150000D02*
X12002500Y60450000D01*
X12352500Y60450000D02*
X11602500Y60450000D01*
X12002500Y60550000D02*
X12002500Y60050000D01*
X12002500Y61150000D02*
X12002500Y61650000D01*
X7902500Y63450000D02*
X7902500Y58250000D01*
X7902500Y58250000D02*
X6102500Y58250000D01*
X6102500Y63450000D02*
X6102500Y58250000D01*
X7902500Y63450000D02*
X6102500Y63450000D01*
X7002500Y60450000D02*
X7502500Y61150000D01*
X7502500Y61150000D02*
X6502500Y61150000D01*
X6502500Y61150000D02*
X7002500Y60450000D01*
X7352500Y60450000D02*
X6602500Y60450000D01*
X7002500Y60550000D02*
X7002500Y60050000D01*
X7002500Y61150000D02*
X7002500Y61650000D01*
X10402500Y57550000D02*
X10402500Y52350000D01*
X10402500Y52350000D02*
X8602500Y52350000D01*
X8602500Y57550000D02*
X8602500Y52350000D01*
X10402500Y57550000D02*
X8602500Y57550000D01*
X9502500Y54550000D02*
X10002500Y55250000D01*
X10002500Y55250000D02*
X9002500Y55250000D01*
X9002500Y55250000D02*
X9502500Y54550000D01*
X9852500Y54550000D02*
X9102500Y54550000D01*
X9502500Y54650000D02*
X9502500Y54150000D01*
X9502500Y55250000D02*
X9502500Y55750000D01*
X5402500Y57550000D02*
X5402500Y52350000D01*
X5402500Y52350000D02*
X3602500Y52350000D01*
X3602500Y57550000D02*
X3602500Y52350000D01*
X5402500Y57550000D02*
X3602500Y57550000D01*
X4502500Y54550000D02*
X5002500Y55250000D01*
X5002500Y55250000D02*
X4002500Y55250000D01*
X4002500Y55250000D02*
X4502500Y54550000D01*
X4852500Y54550000D02*
X4102500Y54550000D01*
X4502500Y54650000D02*
X4502500Y54150000D01*
X4502500Y55250000D02*
X4502500Y55750000D01*
%LPC*%
D11*
X33630000Y65650000D03*
X23470000Y65650000D03*
D12*
X24740000Y68190000D03*
X31090000Y70730000D03*
D13*
X34050000Y65650000D03*
X23050000Y65650000D03*
D14*
X28550000Y65650000D03*
D11*
X33630000Y84700000D03*
X23470000Y84700000D03*
D12*
X24740000Y87240000D03*
X31090000Y89780000D03*
D13*
X34050000Y84700000D03*
X23050000Y84700000D03*
D14*
X28550000Y84700000D03*
D11*
X33630000Y46600000D03*
X23470000Y46600000D03*
D12*
X24740000Y49140000D03*
X31090000Y51680000D03*
D13*
X34050000Y46600000D03*
X23050000Y46600000D03*
D14*
X28550000Y46600000D03*
D11*
X14580000Y65650000D03*
X4420000Y65650000D03*
D12*
X5690000Y68190000D03*
X12040000Y70730000D03*
D13*
X15000000Y65650000D03*
X4000000Y65650000D03*
D14*
X9500000Y65650000D03*
D11*
X54880000Y46600000D03*
X44720000Y46600000D03*
D12*
X45990000Y49140000D03*
X52340000Y51680000D03*
D13*
X55300000Y46600000D03*
X44300000Y46600000D03*
D14*
X49800000Y46600000D03*
D11*
X33630000Y27550000D03*
X23470000Y27550000D03*
D12*
X24740000Y30090000D03*
X31090000Y32630000D03*
D13*
X34050000Y27550000D03*
X23050000Y27550000D03*
D14*
X28550000Y27550000D03*
D11*
X14580000Y46600000D03*
X4420000Y46600000D03*
D12*
X5690000Y49140000D03*
X12040000Y51680000D03*
D13*
X15000000Y46600000D03*
X4000000Y46600000D03*
D14*
X9500000Y46600000D03*
D11*
X54880000Y27550000D03*
X44720000Y27550000D03*
D12*
X45990000Y30090000D03*
X52340000Y32630000D03*
D13*
X55300000Y27550000D03*
X44300000Y27550000D03*
D14*
X49800000Y27550000D03*
D11*
X54880000Y84700000D03*
X44720000Y84700000D03*
D12*
X45990000Y87240000D03*
X52340000Y89780000D03*
D13*
X55300000Y84700000D03*
X44300000Y84700000D03*
D14*
X49800000Y84700000D03*
D11*
X54880000Y65650000D03*
X44720000Y65650000D03*
D12*
X45990000Y68190000D03*
X52340000Y70730000D03*
D13*
X55300000Y65650000D03*
X44300000Y65650000D03*
D14*
X49800000Y65650000D03*
D11*
X54880000Y8500000D03*
X44720000Y8500000D03*
D12*
X45990000Y11040000D03*
X52340000Y13580000D03*
D13*
X55300000Y8500000D03*
X44300000Y8500000D03*
D14*
X49800000Y8500000D03*
D11*
X73930000Y84700000D03*
X63770000Y84700000D03*
D12*
X65040000Y87240000D03*
X71390000Y89780000D03*
D13*
X74350000Y84700000D03*
X63350000Y84700000D03*
D14*
X68850000Y84700000D03*
D11*
X73930000Y65650000D03*
X63770000Y65650000D03*
D12*
X65040000Y68190000D03*
X71390000Y70730000D03*
D13*
X74350000Y65650000D03*
X63350000Y65650000D03*
D14*
X68850000Y65650000D03*
D11*
X73930000Y46600000D03*
X63770000Y46600000D03*
D12*
X65040000Y49140000D03*
X71390000Y51680000D03*
D13*
X74350000Y46600000D03*
X63350000Y46600000D03*
D14*
X68850000Y46600000D03*
D11*
X73930000Y27550000D03*
X63770000Y27550000D03*
D12*
X65040000Y30090000D03*
X71390000Y32630000D03*
D13*
X74350000Y27550000D03*
X63350000Y27550000D03*
D14*
X68850000Y27550000D03*
D11*
X73930000Y8500000D03*
X63770000Y8500000D03*
D12*
X65040000Y11040000D03*
X71390000Y13580000D03*
D13*
X74350000Y8500000D03*
X63350000Y8500000D03*
D14*
X68850000Y8500000D03*
D11*
X33630000Y8500000D03*
X23470000Y8500000D03*
D12*
X24740000Y11040000D03*
X31090000Y13580000D03*
D13*
X34050000Y8500000D03*
X23050000Y8500000D03*
D14*
X28550000Y8500000D03*
D11*
X14580000Y84700000D03*
X4420000Y84700000D03*
D12*
X5690000Y87240000D03*
X12040000Y89780000D03*
D13*
X15000000Y84700000D03*
X4000000Y84700000D03*
D14*
X9500000Y84700000D03*
D11*
X14580000Y27550000D03*
X4420000Y27550000D03*
D12*
X5690000Y30090000D03*
X12040000Y32630000D03*
D13*
X15000000Y27550000D03*
X4000000Y27550000D03*
D14*
X9500000Y27550000D03*
D11*
X14580000Y8500000D03*
X4420000Y8500000D03*
D12*
X5690000Y11040000D03*
X12040000Y13580000D03*
D13*
X15000000Y8500000D03*
X4000000Y8500000D03*
D14*
X9500000Y8500000D03*
D13*
X41570000Y74565000D03*
X41570000Y72025000D03*
X41570000Y69485000D03*
X41570000Y66945000D03*
X41570000Y64405000D03*
X41570000Y61865000D03*
X41570000Y59325000D03*
X41570000Y56785000D03*
X36830000Y74565000D03*
X36830000Y72025000D03*
X36830000Y69485000D03*
X36830000Y66945000D03*
X36830000Y64405000D03*
X36830000Y61865000D03*
X36830000Y59325000D03*
X36830000Y56785000D03*
D15*
X14502500Y53175000D03*
X14502500Y56725000D03*
X47502500Y59075000D03*
X47502500Y62625000D03*
X52302500Y59075000D03*
X52302500Y62625000D03*
X54802500Y53175000D03*
X54802500Y56725000D03*
X49802500Y53175000D03*
X49802500Y56725000D03*
X46000000Y53175000D03*
X46000000Y56725000D03*
X66352500Y59075000D03*
X66352500Y62625000D03*
X71352500Y59075000D03*
X71352500Y62625000D03*
X73852500Y53175000D03*
X73852500Y56725000D03*
X68852500Y53175000D03*
X68852500Y56725000D03*
X63852500Y53175000D03*
X63852500Y56725000D03*
X25052500Y59075000D03*
X25052500Y62625000D03*
X30052500Y58975000D03*
X30052500Y62525000D03*
X32470000Y54025000D03*
X32470000Y57575000D03*
X27752500Y53175000D03*
X27752500Y56725000D03*
X22952500Y53175000D03*
X22952500Y56725000D03*
X12002500Y59075000D03*
X12002500Y62625000D03*
X7002500Y59075000D03*
X7002500Y62625000D03*
X9502500Y53175000D03*
X9502500Y56725000D03*
X4502500Y53175000D03*
X4502500Y56725000D03*
D16*
X59350000Y37100000D03*
X59350000Y56150000D03*
X59350000Y75200000D03*
X59350000Y18050000D03*
X19050000Y75200000D03*
X19050000Y56150000D03*
X19050000Y37100000D03*
X19050000Y18050000D03*
M02*
