G04 #@! TF.GenerationSoftware,KiCad,Pcbnew,(5.1.2)-2*
G04 #@! TF.CreationDate,2020-05-16T23:41:00+09:00*
G04 #@! TF.ProjectId,______,e135d7ec-fcc8-42e6-9b69-6361645f7063,rev?*
G04 #@! TF.SameCoordinates,Original*
G04 #@! TF.FileFunction,Profile,NP*
%FSLAX46Y46*%
G04 Gerber Fmt 4.6, Leading zero omitted, Abs format (unit mm)*
G04 Created by KiCad (PCBNEW (5.1.2)-2) date 2020-05-16 23:41:00*
%MOMM*%
%LPD*%
G04 APERTURE LIST*
%ADD10C,0.100000*%
G04 APERTURE END LIST*
D10*
X40300000Y4500000D02*
X40800000Y4500000D01*
X37600000Y12500000D02*
X38100000Y12500000D01*
X37600000Y4500000D02*
X38100000Y4500000D01*
X38700000Y8500000D02*
G75*
G03X38700000Y8500000I-500000J0D01*
G01*
X37600000Y9500000D02*
X40800000Y9500000D01*
X40700000Y8500000D02*
G75*
G03X40700000Y8500000I-500000J0D01*
G01*
X40800000Y12500000D02*
X40800000Y9500000D01*
X40800000Y7500000D02*
X40800000Y4500000D01*
X37600000Y7500000D02*
X37600000Y4500000D01*
X37600000Y12500000D02*
X37600000Y9500000D01*
X40300000Y12500000D02*
X40800000Y12500000D01*
X37600000Y7500000D02*
X40800000Y7500000D01*
X40700000Y46600000D02*
G75*
G03X40700000Y46600000I-500000J0D01*
G01*
X37600000Y45600000D02*
X37600000Y42600000D01*
X40800000Y45600000D02*
X40800000Y42600000D01*
X40300000Y50600000D02*
X40800000Y50600000D01*
X40300000Y42600000D02*
X40800000Y42600000D01*
X37600000Y47600000D02*
X40800000Y47600000D01*
X37600000Y50600000D02*
X38100000Y50600000D01*
X37600000Y50600000D02*
X37600000Y47600000D01*
X37600000Y42600000D02*
X38100000Y42600000D01*
X38700000Y46600000D02*
G75*
G03X38700000Y46600000I-500000J0D01*
G01*
X37600000Y45600000D02*
X40800000Y45600000D01*
X40800000Y50600000D02*
X40800000Y47600000D01*
X40800000Y83700000D02*
X40800000Y80700000D01*
X37600000Y83700000D02*
X37600000Y80700000D01*
X40700000Y84700000D02*
G75*
G03X40700000Y84700000I-500000J0D01*
G01*
X38700000Y84700000D02*
G75*
G03X38700000Y84700000I-500000J0D01*
G01*
X40800000Y88700000D02*
X40800000Y85700000D01*
X40300000Y88700000D02*
X40800000Y88700000D01*
X40300000Y80700000D02*
X40800000Y80700000D01*
X37600000Y83700000D02*
X40800000Y83700000D01*
X37600000Y85700000D02*
X40800000Y85700000D01*
X37600000Y88700000D02*
X38100000Y88700000D01*
X37600000Y80700000D02*
X38100000Y80700000D01*
X37600000Y88700000D02*
X37600000Y85700000D01*
X40300000Y92200000D02*
X40300000Y88700000D01*
X38100000Y92200000D02*
X38100000Y88700000D01*
X40300000Y4500000D02*
X40300000Y1000000D01*
X38100000Y4500000D02*
X38100000Y1000000D01*
X38100000Y42600000D02*
X38100000Y12500000D01*
X78400000Y1000000D02*
G75*
G02X76400000Y-1000000I-2000000J0D01*
G01*
X38100000Y1000000D02*
G75*
G02X36100000Y-1000000I-2000000J0D01*
G01*
X42300000Y-1000000D02*
G75*
G02X40300000Y1000000I0J2000000D01*
G01*
X76400000Y94200000D02*
G75*
G02X78400000Y92200000I0J-2000000D01*
G01*
X40300000Y92200000D02*
G75*
G02X42300000Y94200000I2000000J0D01*
G01*
X36100000Y94200000D02*
G75*
G02X38100000Y92200000I0J-2000000D01*
G01*
X2000000Y-1000000D02*
X36100000Y-1000000D01*
X0Y92200000D02*
G75*
G02X2000000Y94200000I2000000J0D01*
G01*
X2000000Y-1000000D02*
G75*
G02X0Y1000000I0J2000000D01*
G01*
X40300000Y12500000D02*
X40300000Y42600000D01*
X0Y92200000D02*
X0Y1000000D01*
X40300000Y80700000D02*
X40300000Y50600000D01*
X78400000Y92200000D02*
X78400000Y1000000D01*
X2000000Y94200000D02*
X36100000Y94200000D01*
X38100000Y80700000D02*
X38100000Y50600000D01*
X76400000Y94200000D02*
X42300000Y94200000D01*
X42300000Y-1000000D02*
X76400000Y-1000000D01*
M02*
