M48
; DRILL file {KiCad (5.1.2)-2} date 2020/05/16 23:41:49
; FORMAT={3:3/ absolute / metric / suppress leading zeros}
; #@! TF.CreationDate,2020-05-16T23:41:49+09:00
; #@! TF.GenerationSoftware,Kicad,Pcbnew,(5.1.2)-2
FMAT,2
METRIC,TZ
T1C0.900
T2C1.500
T3C1.700
T4C1.900
T5C4.000
T6C4.100
%
G90
G05
T1
X36830Y74565
X36830Y72025
X36830Y69485
X36830Y66945
X36830Y64405
X36830Y61865
X36830Y59325
X36830Y56785
X41570Y74565
X41570Y72025
X41570Y69485
X41570Y66945
X41570Y64405
X41570Y61865
X41570Y59325
X41570Y56785
T2
X24740Y68190
X31090Y70730
X5690Y30090
X12040Y32630
X45990Y49140
X52340Y51680
X45990Y30090
X52340Y32630
X45990Y11040
X52340Y13580
X24740Y87240
X31090Y89780
X24740Y11040
X31090Y13580
X5690Y11040
X12040Y13580
X65040Y30090
X71390Y32630
X5690Y68190
X12040Y70730
X45990Y87240
X52340Y89780
X65040Y68190
X71390Y70730
X65040Y87240
X71390Y89780
X24740Y49140
X31090Y51680
X65040Y11040
X71390Y13580
X24740Y30090
X31090Y32630
X5690Y87240
X12040Y89780
X5690Y49140
X12040Y51680
X65040Y49140
X71390Y51680
X45990Y68190
X52340Y70730
T3
X23470Y84700
X33630Y84700
X23470Y8500
X33630Y8500
X4420Y8500
X14580Y8500
X63770Y27550
X73930Y27550
X4420Y65650
X14580Y65650
X44720Y84700
X54880Y84700
X63770Y65650
X73930Y65650
X63770Y84700
X73930Y84700
X23470Y46600
X33630Y46600
X63770Y8500
X73930Y8500
X23470Y27550
X33630Y27550
X4420Y84700
X14580Y84700
X4420Y46600
X14580Y46600
X63770Y46600
X73930Y46600
X44720Y65650
X54880Y65650
X23470Y65650
X33630Y65650
X4420Y27550
X14580Y27550
X44720Y46600
X54880Y46600
X44720Y27550
X54880Y27550
X44720Y8500
X54880Y8500
T4
X4000Y27550
X15000Y27550
X44300Y46600
X55300Y46600
X44300Y27550
X55300Y27550
X44300Y8500
X55300Y8500
X23050Y84700
X34050Y84700
X23050Y8500
X34050Y8500
X4000Y8500
X15000Y8500
X63350Y27550
X74350Y27550
X4000Y65650
X15000Y65650
X44300Y84700
X55300Y84700
X63350Y65650
X74350Y65650
X63350Y84700
X74350Y84700
X23050Y46600
X34050Y46600
X63350Y8500
X74350Y8500
X23050Y27550
X34050Y27550
X4000Y84700
X15000Y84700
X4000Y46600
X15000Y46600
X63350Y46600
X74350Y46600
X44300Y65650
X55300Y65650
X23050Y65650
X34050Y65650
T5
X28550Y8500
X9500Y8500
X68850Y27550
X9500Y65650
X49800Y84700
X68850Y65650
X68850Y84700
X28550Y46600
X68850Y8500
X28550Y27550
X9500Y84700
X9500Y46600
X68850Y46600
X49800Y65650
X28550Y65650
X9500Y27550
X49800Y46600
X49800Y27550
X49800Y8500
X28550Y84700
T6
X59350Y56150
X59350Y18050
X59350Y37100
X59350Y75200
X19050Y75200
X19050Y56150
X19050Y37100
X19050Y18050
T0
M30
