G04 #@! TF.GenerationSoftware,KiCad,Pcbnew,(5.1.2)-2*
G04 #@! TF.CreationDate,2020-05-16T23:41:00+09:00*
G04 #@! TF.ProjectId,______,e135d7ec-fcc8-42e6-9b69-6361645f7063,rev?*
G04 #@! TF.SameCoordinates,Original*
G04 #@! TF.FileFunction,Copper,L2,Bot*
G04 #@! TF.FilePolarity,Positive*
%FSLAX46Y46*%
G04 Gerber Fmt 4.6, Leading zero omitted, Abs format (unit mm)*
G04 Created by KiCad (PCBNEW (5.1.2)-2) date 2020-05-16 23:41:00*
%MOMM*%
%LPD*%
G04 APERTURE LIST*
%ADD10C,2.500000*%
%ADD11C,1.900000*%
%ADD12R,1.200000X1.200000*%
%ADD13C,0.200000*%
%ADD14C,0.500000*%
%ADD15C,0.254000*%
G04 APERTURE END LIST*
D10*
X24740000Y68190000D03*
X31090000Y70730000D03*
X24740000Y87240000D03*
X31090000Y89780000D03*
X24740000Y49140000D03*
X31090000Y51680000D03*
X5690000Y68190000D03*
X12040000Y70730000D03*
X45990000Y49140000D03*
X52340000Y51680000D03*
X24740000Y30090000D03*
X31090000Y32630000D03*
X5690000Y49140000D03*
X12040000Y51680000D03*
X45990000Y30090000D03*
X52340000Y32630000D03*
X45990000Y87240000D03*
X52340000Y89780000D03*
X45990000Y68190000D03*
X52340000Y70730000D03*
X45990000Y11040000D03*
X52340000Y13580000D03*
X65040000Y87240000D03*
X71390000Y89780000D03*
X65040000Y68190000D03*
X71390000Y70730000D03*
X65040000Y49140000D03*
X71390000Y51680000D03*
X65040000Y30090000D03*
X71390000Y32630000D03*
X65040000Y11040000D03*
X71390000Y13580000D03*
X24740000Y11040000D03*
X31090000Y13580000D03*
X5690000Y87240000D03*
X12040000Y89780000D03*
X5690000Y30090000D03*
X12040000Y32630000D03*
X5690000Y11040000D03*
X12040000Y13580000D03*
D11*
X41570000Y74565000D03*
X41570000Y72025000D03*
X41570000Y69485000D03*
X41570000Y66945000D03*
X41570000Y64405000D03*
X41570000Y61865000D03*
X41570000Y59325000D03*
X41570000Y56785000D03*
X36830000Y74565000D03*
X36830000Y72025000D03*
X36830000Y69485000D03*
X36830000Y66945000D03*
X36830000Y64405000D03*
X36830000Y61865000D03*
X36830000Y59325000D03*
X36830000Y56785000D03*
D12*
X14502500Y53175000D03*
X14502500Y56725000D03*
X47502500Y59075000D03*
X47502500Y62625000D03*
X52302500Y59075000D03*
X52302500Y62625000D03*
X54802500Y53175000D03*
X54802500Y56725000D03*
X49802500Y53175000D03*
X49802500Y56725000D03*
X46000000Y53175000D03*
X46000000Y56725000D03*
X66352500Y59075000D03*
X66352500Y62625000D03*
X71352500Y59075000D03*
X71352500Y62625000D03*
X73852500Y53175000D03*
X73852500Y56725000D03*
X68852500Y53175000D03*
X68852500Y56725000D03*
X63852500Y53175000D03*
X63852500Y56725000D03*
X25052500Y59075000D03*
X25052500Y62625000D03*
X30052500Y58975000D03*
X30052500Y62525000D03*
X32470000Y54025000D03*
X32470000Y57575000D03*
X27752500Y53175000D03*
X27752500Y56725000D03*
X22952500Y53175000D03*
X22952500Y56725000D03*
X12002500Y59075000D03*
X12002500Y62625000D03*
X7002500Y59075000D03*
X7002500Y62625000D03*
X9502500Y53175000D03*
X9502500Y56725000D03*
X4502500Y53175000D03*
X4502500Y56725000D03*
D13*
X42070010Y85794896D02*
X46055114Y89780000D01*
X53302501Y63897499D02*
X52802510Y64397490D01*
X53302501Y61704999D02*
X53302501Y63897499D01*
X52597502Y61000000D02*
X53302501Y61704999D01*
X52802510Y64397490D02*
X52802510Y66906612D01*
X46055114Y89780000D02*
X52340000Y89780000D01*
X49104561Y70604561D02*
X48424103Y71285019D01*
X42070010Y76370010D02*
X42070010Y85794896D01*
X42070010Y76062992D02*
X46847983Y71285019D01*
X42070010Y76370010D02*
X42070010Y76062992D01*
X48424103Y71285019D02*
X49504561Y70204561D01*
X46847983Y71285019D02*
X48424103Y71285019D01*
X52802510Y66906612D02*
X49504561Y70204561D01*
X49504561Y70204561D02*
X49104561Y70604561D01*
X48627500Y61000000D02*
X51400000Y61000000D01*
X47502500Y59875000D02*
X48627500Y61000000D01*
X47502500Y59075000D02*
X47502500Y59875000D01*
X50027500Y61000000D02*
X51400000Y61000000D01*
X51400000Y61000000D02*
X52597502Y61000000D01*
X52302500Y59875000D02*
X52302500Y59075000D01*
X53302520Y64604600D02*
X53802511Y64104609D01*
X53802511Y64104609D02*
X53802511Y61375011D01*
X53802511Y61375011D02*
X52302500Y59875000D01*
X53302520Y69897480D02*
X53302520Y64604600D01*
X52470000Y70730000D02*
X53302520Y69897480D01*
X52340000Y70730000D02*
X52470000Y70730000D01*
X53835000Y53175000D02*
X54802500Y53175000D01*
X52340000Y51680000D02*
X53835000Y53175000D01*
X52340000Y34364882D02*
X52340000Y32630000D01*
X52700010Y34724892D02*
X52340000Y34364882D01*
X52700010Y47959112D02*
X52700010Y34724892D01*
X49802500Y50856622D02*
X52700010Y47959112D01*
X49802500Y53175000D02*
X49802500Y50856622D01*
X46777002Y53175000D02*
X52200000Y47752002D01*
X45800000Y53175000D02*
X46777002Y53175000D01*
X52200000Y34932002D02*
X50689999Y33422001D01*
X52200000Y47752002D02*
X52200000Y34932002D01*
X52340000Y15347766D02*
X52340000Y13580000D01*
X52340000Y28562002D02*
X52340000Y15347766D01*
X50689999Y30212003D02*
X52340000Y28562002D01*
X50689999Y33422001D02*
X50689999Y30212003D01*
X67152500Y59075000D02*
X66352500Y59075000D01*
X70722503Y60075001D02*
X68152501Y60075001D01*
X72352501Y61704999D02*
X70722503Y60075001D01*
X72352501Y63447499D02*
X72352501Y61704999D01*
X71852510Y63947490D02*
X72352501Y63447499D01*
X68152501Y60075001D02*
X67152500Y59075000D01*
X71852510Y66906612D02*
X71852510Y63947490D01*
X71390000Y89780000D02*
X71390000Y88012234D01*
X71390000Y88012234D02*
X71750011Y87652223D01*
X71750011Y87652223D02*
X71750011Y73532013D01*
X71750011Y73532013D02*
X69739999Y71522001D01*
X69739999Y71522001D02*
X69739999Y69019123D01*
X69739999Y69019123D02*
X71852510Y66906612D01*
X72852511Y61375011D02*
X71352500Y59875000D01*
X71352500Y59875000D02*
X71352500Y59075000D01*
X72852511Y63654609D02*
X72852511Y61375011D01*
X72600000Y66866242D02*
X72600000Y63907120D01*
X72600000Y63907120D02*
X72852511Y63654609D01*
X71390000Y68076242D02*
X72600000Y66866242D01*
X71390000Y70730000D02*
X71390000Y68076242D01*
X72885000Y53175000D02*
X73852500Y53175000D01*
X71390000Y51680000D02*
X72885000Y53175000D01*
X68852500Y53175000D02*
X68852500Y50856622D01*
X68852500Y50856622D02*
X71750011Y47959111D01*
X71390000Y44982880D02*
X71750009Y45342889D01*
X71390000Y32630000D02*
X71390000Y44982880D01*
X71750009Y46050009D02*
X71750011Y46050011D01*
X71750009Y45342889D02*
X71750009Y46050009D01*
X71750011Y47959111D02*
X71750011Y46050011D01*
X72200000Y29377998D02*
X72200000Y14390000D01*
X69739999Y31837999D02*
X72200000Y29377998D01*
X69739999Y33422001D02*
X69739999Y31837999D01*
X65827002Y53175000D02*
X71250001Y47752001D01*
X71250001Y47752001D02*
X71250001Y45550001D01*
X71250001Y45550001D02*
X70889990Y45189990D01*
X63852500Y53175000D02*
X65827002Y53175000D01*
X70889990Y45189990D02*
X70889990Y34571992D01*
X72200000Y14390000D02*
X71390000Y13580000D01*
X70889990Y34571992D02*
X69739999Y33422001D01*
X22952500Y56725000D02*
X27752500Y56725000D01*
X25052500Y62625000D02*
X29952500Y62625000D01*
X29952500Y62625000D02*
X30052500Y62525000D01*
X31170009Y57075009D02*
X30424991Y57075009D01*
X31670000Y57575000D02*
X31170009Y57075009D01*
X32470000Y57575000D02*
X31670000Y57575000D01*
X29167882Y56725000D02*
X27752500Y56725000D01*
X30424991Y57075009D02*
X29517891Y57075009D01*
X29517891Y57075009D02*
X29167882Y56725000D01*
X27752500Y57525000D02*
X27752500Y56725000D01*
X27752500Y60725000D02*
X27752500Y57525000D01*
X25852500Y62625000D02*
X27752500Y60725000D01*
X25052500Y62625000D02*
X25852500Y62625000D01*
X30950001Y84950001D02*
X30950001Y77904999D01*
X32740001Y86740001D02*
X30950001Y84950001D01*
X32740001Y90572001D02*
X32740001Y86740001D01*
X31882001Y91430001D02*
X32740001Y90572001D01*
X25780879Y91430001D02*
X31882001Y91430001D01*
X30950001Y77904999D02*
X36830000Y72025000D01*
X21199989Y86849111D02*
X25780879Y91430001D01*
X21199989Y83844889D02*
X21199989Y86849111D01*
X22952500Y57525000D02*
X20699979Y59777521D01*
X22952500Y56725000D02*
X22952500Y57525000D01*
X20699979Y59777521D02*
X20699979Y68006221D01*
X20699979Y68006221D02*
X23739980Y71046222D01*
X23739980Y71046222D02*
X23739980Y81304898D01*
X23739980Y81304898D02*
X21199989Y83844889D01*
X7002500Y62625000D02*
X12002500Y62625000D01*
X4502500Y56725000D02*
X14502500Y56725000D01*
X6202500Y62625000D02*
X7002500Y62625000D01*
X4502500Y60925000D02*
X6202500Y62625000D01*
X4502500Y56725000D02*
X4502500Y60925000D01*
X31450011Y79944989D02*
X36830000Y74565000D01*
X31450011Y84742891D02*
X31450011Y79944989D01*
X33240011Y90779111D02*
X33240011Y86532891D01*
X20699979Y87056221D02*
X25573769Y91930011D01*
X33240011Y86532891D02*
X31450011Y84742891D01*
X20699979Y83637779D02*
X20699979Y87056221D01*
X15291878Y56725000D02*
X20199969Y61633091D01*
X14502500Y56725000D02*
X15291878Y56725000D01*
X32089111Y91930011D02*
X33240011Y90779111D01*
X25573769Y91930011D02*
X32089111Y91930011D01*
X20199969Y61633091D02*
X20199969Y68213331D01*
X20199969Y68213331D02*
X23239970Y71253332D01*
X23239970Y71253332D02*
X23239970Y81097788D01*
X23239970Y81097788D02*
X20699979Y83637779D01*
X30992002Y11040000D02*
X24740000Y11040000D01*
X32740001Y12787999D02*
X30992002Y11040000D01*
X31590010Y15521992D02*
X32740001Y14372001D01*
X32740001Y14372001D02*
X32740001Y12787999D01*
X31590010Y30688008D02*
X31590010Y15521992D01*
X32740001Y33422001D02*
X32740001Y31837999D01*
X31590010Y44673768D02*
X31590010Y34571992D01*
X31590010Y34571992D02*
X32740001Y33422001D01*
X36830000Y59325000D02*
X35479999Y57974999D01*
X31950021Y45033779D02*
X31590010Y44673768D01*
X35479999Y55906517D02*
X33600001Y54026519D01*
X35479999Y57974999D02*
X35479999Y55906517D01*
X33600001Y54026519D02*
X33600001Y51747999D01*
X32740001Y31837999D02*
X31590010Y30688008D01*
X33600001Y51747999D02*
X31950021Y50098019D01*
X31950021Y50098019D02*
X31950021Y45033779D01*
X5690000Y8757998D02*
X5690000Y11040000D01*
X8347999Y6099999D02*
X5690000Y8757998D01*
X22920001Y6099999D02*
X8347999Y6099999D01*
X24740000Y7919998D02*
X22920001Y6099999D01*
X24740000Y11040000D02*
X24740000Y7919998D01*
X24740000Y42911998D02*
X24740000Y42760000D01*
X21699999Y45951999D02*
X24740000Y42911998D01*
X21699999Y46199999D02*
X21699999Y45951999D01*
X24740000Y42760000D02*
X24740000Y30090000D01*
X21699999Y46300001D02*
X21699999Y50811761D01*
X21699999Y46300001D02*
X21699999Y46199999D01*
X21699999Y50811761D02*
X19811781Y52699979D01*
X5690000Y46697998D02*
X5690000Y30090000D01*
X7340001Y48347999D02*
X5690000Y46697998D01*
X7340001Y49932001D02*
X7340001Y48347999D01*
X6482001Y50790001D02*
X7340001Y49932001D01*
X19811781Y52699979D02*
X16897523Y52699979D01*
X16897523Y52699979D02*
X15422501Y54175001D01*
X15422501Y54175001D02*
X3582499Y54175001D01*
X4967497Y50790001D02*
X6482001Y50790001D01*
X3582499Y54175001D02*
X3203749Y53796251D01*
X3203749Y53796251D02*
X3203749Y52553749D01*
X3203749Y52553749D02*
X4967497Y50790001D01*
X34979989Y60014989D02*
X36830000Y61865000D01*
X34979989Y56113627D02*
X34979989Y60014989D01*
X33941331Y55074969D02*
X34979989Y56113627D01*
X30346331Y55074969D02*
X33941331Y55074969D01*
X22175001Y54175001D02*
X29446363Y54175001D01*
X24740000Y46697998D02*
X26390001Y48347999D01*
X21813000Y52113000D02*
X21813000Y53813000D01*
X24740000Y42760000D02*
X24740000Y46697998D01*
X26390001Y48347999D02*
X26390001Y49932001D01*
X21813000Y53813000D02*
X22175001Y54175001D01*
X26390001Y49932001D02*
X25532001Y50790001D01*
X29446363Y54175001D02*
X30346331Y55074969D01*
X25532001Y50790001D02*
X23135999Y50790001D01*
X23135999Y50790001D02*
X21813000Y52113000D01*
X2703739Y52126261D02*
X5690000Y49140000D01*
X2703739Y54003361D02*
X2703739Y52126261D01*
X3375389Y54675011D02*
X2703739Y54003361D01*
X21967891Y54675011D02*
X22824989Y54675011D01*
X20492869Y53199989D02*
X21967891Y54675011D01*
X15629611Y54675011D02*
X17104633Y53199989D01*
X15175011Y54675011D02*
X15629611Y54675011D01*
X15175011Y54675011D02*
X3375389Y54675011D01*
X21967891Y54675011D02*
X25824989Y54675011D01*
X22824989Y54675011D02*
X25824989Y54675011D01*
X25824989Y54675011D02*
X29239253Y54675011D01*
X20018891Y53199989D02*
X19800011Y53199989D01*
X24078880Y49140000D02*
X20018891Y53199989D01*
X24740000Y49140000D02*
X24078880Y49140000D01*
X17104633Y53199989D02*
X19800011Y53199989D01*
X19800011Y53199989D02*
X20492869Y53199989D01*
X20433111Y53199989D02*
X17104633Y53199989D01*
X21908133Y54675011D02*
X20433111Y53199989D01*
X29239253Y54675011D02*
X29239255Y54675013D01*
X28524989Y54675011D02*
X21908133Y54675011D01*
X29239253Y54675011D02*
X28524989Y54675011D01*
X34479979Y62054979D02*
X36830000Y64405000D01*
X34479979Y56320737D02*
X34479979Y62054979D01*
X33734221Y55574979D02*
X34479979Y56320737D01*
X29239253Y54675011D02*
X30139221Y55574979D01*
X30139221Y55574979D02*
X33734221Y55574979D01*
X35880001Y67894999D02*
X36830000Y66945000D01*
X35479999Y68295001D02*
X35880001Y67894999D01*
X35479999Y69489123D02*
X35479999Y68295001D01*
X32089111Y72880011D02*
X35479999Y69489123D01*
X29430011Y72880011D02*
X32089111Y72880011D01*
X24740000Y68190000D02*
X29430011Y72880011D01*
X35880001Y65481999D02*
X35880001Y65995001D01*
X33979969Y63581967D02*
X35880001Y65481999D01*
X33527111Y56074989D02*
X33979969Y56527847D01*
X29932111Y56074989D02*
X33527111Y56074989D01*
X29032143Y55175021D02*
X29932111Y56074989D01*
X21701023Y55175021D02*
X29032143Y55175021D01*
X17873999Y53699999D02*
X20226001Y53699999D01*
X35880001Y65995001D02*
X36830000Y66945000D01*
X5690000Y68190000D02*
X5690000Y63939622D01*
X3000000Y61249622D02*
X3000000Y55600378D01*
X3000000Y55600378D02*
X3375389Y55224989D01*
X5690000Y63939622D02*
X3000000Y61249622D01*
X3375389Y55224989D02*
X16349009Y55224989D01*
X33979969Y56527847D02*
X33979969Y63581967D01*
X20226001Y53699999D02*
X21701023Y55175021D01*
X16349009Y55224989D02*
X17873999Y53699999D01*
X24740000Y81575000D02*
X36830000Y69485000D01*
X24740000Y87240000D02*
X24740000Y81575000D01*
X5690000Y70632002D02*
X5690000Y87240000D01*
X3502499Y61045001D02*
X6482001Y64024503D01*
X16500000Y56802498D02*
X15422501Y55724999D01*
X16500000Y57226002D02*
X16500000Y56802498D01*
X17873999Y58600001D02*
X16500000Y57226002D01*
X3502499Y55804999D02*
X3502499Y61045001D01*
X20226001Y58600001D02*
X17873999Y58600001D01*
X21699999Y57199999D02*
X21626003Y57199999D01*
X21699999Y56057499D02*
X21699999Y57199999D01*
X22032499Y55724999D02*
X21699999Y56057499D01*
X3582499Y55724999D02*
X3502499Y55804999D01*
X28875001Y55724999D02*
X22032499Y55724999D01*
X21626003Y57199999D02*
X20226001Y58600001D01*
X29725001Y56574999D02*
X28875001Y55724999D01*
X24740000Y87240000D02*
X24740000Y70632002D01*
X24740000Y70632002D02*
X21699999Y67592001D01*
X6482001Y64024503D02*
X6482001Y66539999D01*
X21699999Y67592001D02*
X21699999Y65001999D01*
X7340001Y68982001D02*
X5690000Y70632002D01*
X21699999Y65001999D02*
X22401999Y64299999D01*
X33320001Y56574999D02*
X29725001Y56574999D01*
X22401999Y64299999D02*
X23970001Y64299999D01*
X32379999Y65049999D02*
X33479959Y63950039D01*
X23970001Y64299999D02*
X26390001Y66719999D01*
X26390001Y66719999D02*
X26390001Y68472003D01*
X6482001Y66539999D02*
X7340001Y67397999D01*
X26390001Y68472003D02*
X30297999Y72380001D01*
X7340001Y67397999D02*
X7340001Y68982001D01*
X30297999Y72380001D02*
X31882001Y72380001D01*
X33479959Y56734957D02*
X33320001Y56574999D01*
X31882001Y72380001D02*
X32740001Y71522001D01*
X32740001Y66610003D02*
X32379999Y66250001D01*
X32740001Y71522001D02*
X32740001Y66610003D01*
X32379999Y66250001D02*
X32379999Y65049999D01*
X15422501Y55724999D02*
X3582499Y55724999D01*
X33479959Y63950039D02*
X33479959Y56734957D01*
X45800000Y56725000D02*
X54802500Y56725000D01*
X52302500Y63425000D02*
X52302500Y62625000D01*
X52302500Y66699502D02*
X52302500Y63425000D01*
X48216993Y70785009D02*
X52302500Y66699502D01*
X42809991Y70785009D02*
X48216993Y70785009D01*
X41570000Y72025000D02*
X42809991Y70785009D01*
X47502500Y62625000D02*
X52302500Y62625000D01*
X46000000Y57525000D02*
X46000000Y56725000D01*
X46000000Y60322500D02*
X46000000Y57525000D01*
X47502500Y61825000D02*
X46000000Y60322500D01*
X47502500Y62625000D02*
X47502500Y61825000D01*
X64652500Y56725000D02*
X73852500Y56725000D01*
X63852500Y56725000D02*
X64652500Y56725000D01*
X66352500Y62625000D02*
X71352500Y62625000D01*
X63852500Y57525000D02*
X63852500Y56725000D01*
X63852500Y60925000D02*
X63852500Y57525000D01*
X65552500Y62625000D02*
X63852500Y60925000D01*
X66352500Y62625000D02*
X65552500Y62625000D01*
X50480010Y90280010D02*
X45848004Y90280010D01*
X51630001Y91430001D02*
X50480010Y90280010D01*
X53132001Y91430001D02*
X51630001Y91430001D01*
X56821992Y87740010D02*
X53132001Y91430001D01*
X68102002Y89000000D02*
X64357998Y89000000D01*
X71352500Y62625000D02*
X71352500Y66699502D01*
X71352500Y66699502D02*
X69239989Y68812013D01*
X69239989Y68812013D02*
X69239989Y71729111D01*
X45848004Y90280010D02*
X41570000Y86002006D01*
X63098008Y87740010D02*
X56821992Y87740010D01*
X69239989Y71729111D02*
X71250001Y73739123D01*
X71250001Y73739123D02*
X71250001Y85852001D01*
X41570000Y86002006D02*
X41570000Y74565000D01*
X64357998Y89000000D02*
X63098008Y87740010D01*
X71250001Y85852001D02*
X68102002Y89000000D01*
X25052500Y59875000D02*
X25052500Y59075000D01*
X21199989Y67799111D02*
X21199989Y63727511D01*
X31090000Y89780000D02*
X24837998Y89780000D01*
X21199989Y63727511D02*
X25052500Y59875000D01*
X24837998Y89780000D02*
X21699999Y86642001D01*
X21699999Y86642001D02*
X21699999Y84051999D01*
X21699999Y84051999D02*
X24239990Y81512008D01*
X24239990Y81512008D02*
X24239990Y70839112D01*
X24239990Y70839112D02*
X21199989Y67799111D01*
X31090000Y60812500D02*
X31090000Y62590000D01*
X30052500Y59775000D02*
X31090000Y60812500D01*
X30052500Y58975000D02*
X30052500Y59775000D01*
X31090000Y70730000D02*
X31090000Y62590000D01*
X32600000Y53190000D02*
X32600000Y53925000D01*
X31090000Y51680000D02*
X32600000Y53190000D01*
X27552500Y51856622D02*
X27552500Y53175000D01*
X31450011Y47959111D02*
X27552500Y51856622D01*
X31450011Y45240889D02*
X31450011Y47959111D01*
X31090000Y44880878D02*
X31450011Y45240889D01*
X31090000Y32630000D02*
X31090000Y44880878D01*
X25527002Y53175000D02*
X23552500Y53175000D01*
X30950001Y47752001D02*
X25527002Y53175000D01*
X30950001Y45450001D02*
X30950001Y47752001D01*
X30589990Y45089990D02*
X30950001Y45450001D01*
X30589990Y34571992D02*
X30589990Y45089990D01*
X29439999Y33422001D02*
X30589990Y34571992D01*
X29439999Y31837999D02*
X29439999Y33422001D01*
X31090000Y30187998D02*
X29439999Y31837999D01*
X31090000Y13580000D02*
X31090000Y30187998D01*
X14075000Y59075000D02*
X12002500Y59075000D01*
X16000000Y61000000D02*
X14075000Y59075000D01*
X16000000Y64500000D02*
X16000000Y61000000D01*
X16350001Y64850001D02*
X16000000Y64500000D01*
X16350001Y68862001D02*
X16350001Y64850001D01*
X12040000Y73172002D02*
X16350001Y68862001D01*
X12040000Y89780000D02*
X12040000Y73172002D01*
X7802500Y59075000D02*
X7002500Y59075000D01*
X8802501Y60075001D02*
X7802500Y59075000D01*
X14367881Y60075001D02*
X8802501Y60075001D01*
X12040000Y70730000D02*
X12040000Y68962234D01*
X13329999Y65049999D02*
X15500000Y62879998D01*
X12040000Y68962234D02*
X13329999Y67672235D01*
X15500000Y62879998D02*
X15500000Y61207120D01*
X13329999Y67672235D02*
X13329999Y65049999D01*
X15500000Y61207120D02*
X14367881Y60075001D01*
X13535000Y53175000D02*
X14502500Y53175000D01*
X12040000Y51680000D02*
X13535000Y53175000D01*
X9502500Y50806618D02*
X9502500Y53175000D01*
X12400011Y47909107D02*
X9502500Y50806618D01*
X12400011Y45240889D02*
X12400011Y47909107D01*
X12040000Y44880878D02*
X12400011Y45240889D01*
X12040000Y32630000D02*
X12040000Y44880878D01*
X6426998Y53175000D02*
X4502500Y53175000D01*
X11900001Y47701997D02*
X6426998Y53175000D01*
X11900001Y45599999D02*
X11900001Y47701997D01*
X11539990Y45239988D02*
X11900001Y45599999D01*
X11539990Y34571992D02*
X11539990Y45239988D01*
X10389999Y33422001D02*
X11539990Y34571992D01*
X10389999Y30212003D02*
X10389999Y33422001D01*
X12040000Y28562002D02*
X10389999Y30212003D01*
X12040000Y13580000D02*
X12040000Y28562002D01*
X45990000Y87240000D02*
X65040000Y87240000D01*
X45990000Y87240000D02*
X51440000Y87240000D01*
X44920041Y58420041D02*
X44920041Y58672848D01*
X55722501Y55724999D02*
X45079999Y55724999D01*
X56200000Y56202498D02*
X55722501Y55724999D01*
X56650001Y58150001D02*
X56200000Y57700000D01*
X56650001Y68862001D02*
X56650001Y58150001D01*
X53132001Y72380001D02*
X56650001Y68862001D01*
X51547999Y72380001D02*
X53132001Y72380001D01*
X56200000Y57700000D02*
X56200000Y56202498D01*
X45990000Y87240000D02*
X44222234Y87240000D01*
X44222234Y87240000D02*
X42570020Y85587786D01*
X44920041Y55884957D02*
X44920041Y58420041D01*
X45079999Y55724999D02*
X44920041Y55884957D01*
X42570020Y85587786D02*
X42570020Y76270102D01*
X42570020Y76270102D02*
X47055093Y71785029D01*
X47055093Y71785029D02*
X50953027Y71785029D01*
X50953027Y71785029D02*
X51547999Y72380001D01*
X44920041Y64000039D02*
X44920041Y62820041D01*
X47640001Y66719999D02*
X44920041Y64000039D01*
X44920041Y62820041D02*
X44920041Y58420041D01*
X47640001Y68982001D02*
X47640001Y66719999D01*
X46337003Y70284999D02*
X47640001Y68982001D01*
X42369999Y70284999D02*
X46337003Y70284999D01*
X41570000Y69485000D02*
X42369999Y70284999D01*
X42815000Y68190000D02*
X45990000Y68190000D01*
X41570000Y66945000D02*
X42815000Y68190000D01*
X65040000Y65340000D02*
X65040000Y68190000D01*
X55879643Y55175021D02*
X56302511Y55597889D01*
X41570000Y66945000D02*
X42920001Y65594999D01*
X42920001Y65594999D02*
X42920001Y65031997D01*
X42920001Y65031997D02*
X44299989Y63652009D01*
X42519999Y65995001D02*
X41570000Y66945000D01*
X42519999Y65453003D02*
X42519999Y65995001D01*
X44420031Y63552971D02*
X42519999Y65453003D01*
X44420031Y55477847D02*
X44420031Y63552971D01*
X44722857Y55175021D02*
X44420031Y55477847D01*
X53224989Y55224989D02*
X53175021Y55175021D01*
X55929611Y55224989D02*
X53224989Y55224989D01*
X56700010Y55995388D02*
X55929611Y55224989D01*
X56700010Y57126012D02*
X56700010Y55995388D01*
X62456495Y62882497D02*
X56700010Y57126012D01*
X65040000Y65069998D02*
X62852499Y62882497D01*
X62852499Y62882497D02*
X62456495Y62882497D01*
X65040000Y68190000D02*
X65040000Y65069998D01*
X53175021Y55175021D02*
X44722857Y55175021D01*
X55879643Y55175021D02*
X53175021Y55175021D01*
X41570000Y64405000D02*
X43799979Y62175021D01*
X41570000Y64405000D02*
X43920021Y62054979D01*
X45990000Y49140000D02*
X43920021Y51209979D01*
X43920021Y62054979D02*
X43920021Y61879979D01*
X43920021Y61879979D02*
X43920021Y60222099D01*
X43920021Y53922143D02*
X43920021Y53179979D01*
X44672889Y54675011D02*
X43920021Y53922143D01*
X57024989Y54675011D02*
X44672889Y54675011D01*
X62560000Y49140000D02*
X57024989Y54675011D01*
X65040000Y49140000D02*
X62560000Y49140000D01*
X43920021Y51209979D02*
X43920021Y53179979D01*
X43920021Y53179979D02*
X43920021Y61879979D01*
X65040000Y30090000D02*
X65040000Y42911998D01*
X65040000Y42911998D02*
X61800001Y46151997D01*
X61800001Y46151997D02*
X61800001Y49192879D01*
X61800001Y49192879D02*
X56817879Y54175001D01*
X43299969Y47597971D02*
X42949999Y47248001D01*
X41570000Y61865000D02*
X43299969Y60135031D01*
X41570000Y61865000D02*
X43420011Y60014989D01*
X42949999Y45951999D02*
X45990000Y42911998D01*
X42949999Y47248001D02*
X42949999Y45951999D01*
X43420011Y47718013D02*
X42949999Y47248001D01*
X43420011Y56720011D02*
X43420011Y47718013D01*
X45990000Y42911998D02*
X45990000Y30090000D01*
X43420011Y60014989D02*
X43420011Y56720011D01*
X43420011Y56720011D02*
X43420011Y55979989D01*
X44879999Y54175001D02*
X44420031Y53715033D01*
X45224999Y54175001D02*
X44879999Y54175001D01*
X56817879Y54175001D02*
X45224999Y54175001D01*
X45990000Y46697998D02*
X45990000Y30090000D01*
X44420031Y53715033D02*
X44420031Y52679969D01*
X44420031Y52679969D02*
X46309999Y50790001D01*
X46309999Y50790001D02*
X46782001Y50790001D01*
X46782001Y50790001D02*
X47640001Y49932001D01*
X47640001Y49932001D02*
X47640001Y48347999D01*
X47640001Y48347999D02*
X45990000Y46697998D01*
X42920001Y57433001D02*
X42920001Y56699959D01*
X41570000Y59325000D02*
X42920001Y57974999D01*
X42920001Y57974999D02*
X42920001Y57433001D01*
X42949999Y14080001D02*
X44740001Y12289999D01*
X42949999Y29492001D02*
X42949999Y14080001D01*
X44740001Y12289999D02*
X45990000Y11040000D01*
X42920001Y57433001D02*
X42920001Y47925123D01*
X42920001Y47925123D02*
X42449989Y47455111D01*
X42449989Y47455111D02*
X42449989Y45744889D01*
X42449989Y45744889D02*
X45489990Y42704888D01*
X45489990Y42704888D02*
X45489990Y32031992D01*
X45489990Y32031992D02*
X42949999Y29492001D01*
X45990000Y8757998D02*
X45990000Y11040000D01*
X48647999Y6099999D02*
X45990000Y8757998D01*
X63220001Y6099999D02*
X48647999Y6099999D01*
X65040000Y7919998D02*
X63220001Y6099999D01*
X65040000Y11040000D02*
X65040000Y7919998D01*
D14*
X41570000Y56785000D02*
X41570000Y53630000D01*
X36830000Y56785000D02*
X36830000Y53330000D01*
X36830000Y53330000D02*
X36300000Y52800000D01*
D15*
G36*
X76654782Y93486733D02*
G01*
X76899855Y93412741D01*
X77125890Y93292557D01*
X77324281Y93130752D01*
X77487460Y92933503D01*
X77609220Y92708313D01*
X77684924Y92463753D01*
X77715000Y92177602D01*
X77715001Y1033516D01*
X77686733Y745218D01*
X77612741Y500145D01*
X77492554Y274107D01*
X77330754Y75721D01*
X77133503Y-87460D01*
X76908310Y-209221D01*
X76663753Y-284924D01*
X76377602Y-315000D01*
X42333505Y-315000D01*
X42045218Y-286733D01*
X41800145Y-212741D01*
X41574107Y-92554D01*
X41375721Y69246D01*
X41212540Y266497D01*
X41090779Y491690D01*
X41015076Y736247D01*
X40985000Y1022398D01*
X40985000Y3840297D01*
X41063406Y3864081D01*
X41182407Y3927688D01*
X41286711Y4013289D01*
X41372312Y4117593D01*
X41435919Y4236594D01*
X41475088Y4365717D01*
X41478560Y4400971D01*
X41489803Y4410197D01*
X41505597Y4429443D01*
X41517333Y4451399D01*
X41524560Y4475224D01*
X41527000Y4500000D01*
X41527000Y12500000D01*
X41524560Y12524776D01*
X41517333Y12548601D01*
X41505597Y12570557D01*
X41489803Y12589803D01*
X41478560Y12599029D01*
X41475088Y12634283D01*
X41435919Y12763406D01*
X41372312Y12882407D01*
X41286711Y12986711D01*
X41182407Y13072312D01*
X41063406Y13135919D01*
X40985000Y13159703D01*
X40985000Y41940297D01*
X41063406Y41964081D01*
X41182407Y42027688D01*
X41286711Y42113289D01*
X41372312Y42217593D01*
X41435919Y42336594D01*
X41475088Y42465717D01*
X41478560Y42500971D01*
X41489803Y42510197D01*
X41505597Y42529443D01*
X41517333Y42551399D01*
X41524560Y42575224D01*
X41527000Y42600000D01*
X41527000Y50600000D01*
X41524560Y50624776D01*
X41517333Y50648601D01*
X41505597Y50670557D01*
X41489803Y50689803D01*
X41478560Y50699029D01*
X41475088Y50734283D01*
X41435919Y50863406D01*
X41372312Y50982407D01*
X41286711Y51086711D01*
X41182407Y51172312D01*
X41063406Y51235919D01*
X40985000Y51259703D01*
X40985000Y55307310D01*
X41020671Y55290065D01*
X41322873Y55211621D01*
X41634573Y55193641D01*
X41943791Y55236816D01*
X42185001Y55320808D01*
X42185002Y48229570D01*
X41955797Y48000365D01*
X41927751Y47977348D01*
X41835902Y47865430D01*
X41767652Y47737743D01*
X41745787Y47665662D01*
X41725624Y47599196D01*
X41711433Y47455111D01*
X41714989Y47419006D01*
X41714990Y45781004D01*
X41711433Y45744889D01*
X41725624Y45600804D01*
X41765407Y45469660D01*
X41767653Y45462256D01*
X41835903Y45334569D01*
X41927752Y45222651D01*
X41955797Y45199635D01*
X44754990Y42400441D01*
X44754991Y32336440D01*
X42455807Y30037255D01*
X42427761Y30014238D01*
X42335912Y29902320D01*
X42267662Y29774633D01*
X42250425Y29717810D01*
X42225634Y29636086D01*
X42211443Y29492001D01*
X42214999Y29455896D01*
X42215000Y14116116D01*
X42211443Y14080001D01*
X42225634Y13935916D01*
X42237802Y13895806D01*
X42267663Y13797368D01*
X42335913Y13669681D01*
X42427762Y13557763D01*
X42455807Y13534747D01*
X44242836Y11747717D01*
X44177439Y11589834D01*
X44105000Y11225656D01*
X44105000Y10854344D01*
X44177439Y10490166D01*
X44319534Y10147118D01*
X44361040Y10085000D01*
X44143891Y10085000D01*
X43837673Y10024089D01*
X43549221Y9904609D01*
X43289621Y9731150D01*
X43068850Y9510379D01*
X42895391Y9250779D01*
X42775911Y8962327D01*
X42715000Y8656109D01*
X42715000Y8343891D01*
X42775911Y8037673D01*
X42895391Y7749221D01*
X43068850Y7489621D01*
X43289621Y7268850D01*
X43549221Y7095391D01*
X43837673Y6975911D01*
X44143891Y6915000D01*
X44456109Y6915000D01*
X44762327Y6975911D01*
X44856697Y7015000D01*
X44866260Y7015000D01*
X45153158Y7072068D01*
X45423411Y7184010D01*
X45666632Y7346525D01*
X45873475Y7553368D01*
X45986312Y7722240D01*
X48102745Y5605806D01*
X48125761Y5577761D01*
X48237679Y5485912D01*
X48365366Y5417662D01*
X48503914Y5375634D01*
X48611894Y5364999D01*
X48611903Y5364999D01*
X48647998Y5361444D01*
X48684093Y5364999D01*
X63183896Y5364999D01*
X63220001Y5361443D01*
X63256106Y5364999D01*
X63364086Y5375634D01*
X63502634Y5417662D01*
X63630321Y5485912D01*
X63742239Y5577761D01*
X63765259Y5605811D01*
X65534193Y7374744D01*
X65562238Y7397760D01*
X65654087Y7509678D01*
X65722337Y7637365D01*
X65764365Y7775913D01*
X65775000Y7883893D01*
X65775000Y7883902D01*
X65778555Y7919997D01*
X65775000Y7956092D01*
X65775000Y8759525D01*
X66215000Y8759525D01*
X66215000Y8240475D01*
X66316261Y7731399D01*
X66514893Y7251859D01*
X66803262Y6820285D01*
X67170285Y6453262D01*
X67601859Y6164893D01*
X68081399Y5966261D01*
X68590475Y5865000D01*
X69109525Y5865000D01*
X69618601Y5966261D01*
X70098141Y6164893D01*
X70529715Y6453262D01*
X70896738Y6820285D01*
X71185107Y7251859D01*
X71383739Y7731399D01*
X71485000Y8240475D01*
X71485000Y8646260D01*
X72445000Y8646260D01*
X72445000Y8353740D01*
X72502068Y8066842D01*
X72614010Y7796589D01*
X72776525Y7553368D01*
X72983368Y7346525D01*
X73226589Y7184010D01*
X73496842Y7072068D01*
X73783740Y7015000D01*
X73793303Y7015000D01*
X73887673Y6975911D01*
X74193891Y6915000D01*
X74506109Y6915000D01*
X74812327Y6975911D01*
X75100779Y7095391D01*
X75360379Y7268850D01*
X75581150Y7489621D01*
X75754609Y7749221D01*
X75874089Y8037673D01*
X75935000Y8343891D01*
X75935000Y8656109D01*
X75874089Y8962327D01*
X75754609Y9250779D01*
X75581150Y9510379D01*
X75360379Y9731150D01*
X75100779Y9904609D01*
X74812327Y10024089D01*
X74506109Y10085000D01*
X74193891Y10085000D01*
X73887673Y10024089D01*
X73793303Y9985000D01*
X73783740Y9985000D01*
X73496842Y9927932D01*
X73226589Y9815990D01*
X72983368Y9653475D01*
X72776525Y9446632D01*
X72614010Y9203411D01*
X72502068Y8933158D01*
X72445000Y8646260D01*
X71485000Y8646260D01*
X71485000Y8759525D01*
X71383739Y9268601D01*
X71185107Y9748141D01*
X70896738Y10179715D01*
X70529715Y10546738D01*
X70098141Y10835107D01*
X69618601Y11033739D01*
X69109525Y11135000D01*
X68590475Y11135000D01*
X68081399Y11033739D01*
X67601859Y10835107D01*
X67170285Y10546738D01*
X66803262Y10179715D01*
X66514893Y9748141D01*
X66316261Y9268601D01*
X66215000Y8759525D01*
X65775000Y8759525D01*
X65775000Y9304137D01*
X65932882Y9369534D01*
X66241618Y9575825D01*
X66504175Y9838382D01*
X66710466Y10147118D01*
X66852561Y10490166D01*
X66925000Y10854344D01*
X66925000Y11225656D01*
X66852561Y11589834D01*
X66710466Y11932882D01*
X66504175Y12241618D01*
X66241618Y12504175D01*
X65932882Y12710466D01*
X65589834Y12852561D01*
X65225656Y12925000D01*
X64854344Y12925000D01*
X64490166Y12852561D01*
X64147118Y12710466D01*
X63838382Y12504175D01*
X63575825Y12241618D01*
X63369534Y11932882D01*
X63227439Y11589834D01*
X63155000Y11225656D01*
X63155000Y10854344D01*
X63227439Y10490166D01*
X63369534Y10147118D01*
X63411040Y10085000D01*
X63193891Y10085000D01*
X62887673Y10024089D01*
X62599221Y9904609D01*
X62339621Y9731150D01*
X62118850Y9510379D01*
X61945391Y9250779D01*
X61825911Y8962327D01*
X61765000Y8656109D01*
X61765000Y8343891D01*
X61825911Y8037673D01*
X61945391Y7749221D01*
X62118850Y7489621D01*
X62339621Y7268850D01*
X62599221Y7095391D01*
X62887673Y6975911D01*
X63028462Y6947906D01*
X62915555Y6834999D01*
X51856570Y6834999D01*
X52135107Y7251859D01*
X52333739Y7731399D01*
X52435000Y8240475D01*
X52435000Y8646260D01*
X53395000Y8646260D01*
X53395000Y8353740D01*
X53452068Y8066842D01*
X53564010Y7796589D01*
X53726525Y7553368D01*
X53933368Y7346525D01*
X54176589Y7184010D01*
X54446842Y7072068D01*
X54733740Y7015000D01*
X54743303Y7015000D01*
X54837673Y6975911D01*
X55143891Y6915000D01*
X55456109Y6915000D01*
X55762327Y6975911D01*
X56050779Y7095391D01*
X56310379Y7268850D01*
X56531150Y7489621D01*
X56704609Y7749221D01*
X56824089Y8037673D01*
X56885000Y8343891D01*
X56885000Y8656109D01*
X56824089Y8962327D01*
X56704609Y9250779D01*
X56531150Y9510379D01*
X56310379Y9731150D01*
X56050779Y9904609D01*
X55762327Y10024089D01*
X55456109Y10085000D01*
X55143891Y10085000D01*
X54837673Y10024089D01*
X54743303Y9985000D01*
X54733740Y9985000D01*
X54446842Y9927932D01*
X54176589Y9815990D01*
X53933368Y9653475D01*
X53726525Y9446632D01*
X53564010Y9203411D01*
X53452068Y8933158D01*
X53395000Y8646260D01*
X52435000Y8646260D01*
X52435000Y8759525D01*
X52333739Y9268601D01*
X52135107Y9748141D01*
X51846738Y10179715D01*
X51479715Y10546738D01*
X51048141Y10835107D01*
X50568601Y11033739D01*
X50059525Y11135000D01*
X49540475Y11135000D01*
X49031399Y11033739D01*
X48551859Y10835107D01*
X48120285Y10546738D01*
X47753262Y10179715D01*
X47464893Y9748141D01*
X47266261Y9268601D01*
X47165000Y8759525D01*
X47165000Y8622444D01*
X46725000Y9062444D01*
X46725000Y9304137D01*
X46882882Y9369534D01*
X47191618Y9575825D01*
X47454175Y9838382D01*
X47660466Y10147118D01*
X47802561Y10490166D01*
X47875000Y10854344D01*
X47875000Y11225656D01*
X47802561Y11589834D01*
X47660466Y11932882D01*
X47454175Y12241618D01*
X47191618Y12504175D01*
X46882882Y12710466D01*
X46539834Y12852561D01*
X46175656Y12925000D01*
X45804344Y12925000D01*
X45440166Y12852561D01*
X45282283Y12787164D01*
X43684999Y14384447D01*
X43684999Y26089150D01*
X43837673Y26025911D01*
X44143891Y25965000D01*
X44456109Y25965000D01*
X44762327Y26025911D01*
X44856697Y26065000D01*
X44866260Y26065000D01*
X45153158Y26122068D01*
X45423411Y26234010D01*
X45666632Y26396525D01*
X45873475Y26603368D01*
X46035990Y26846589D01*
X46147932Y27116842D01*
X46205000Y27403740D01*
X46205000Y27696260D01*
X46147932Y27983158D01*
X46056042Y28205000D01*
X46175656Y28205000D01*
X46539834Y28277439D01*
X46882882Y28419534D01*
X47191618Y28625825D01*
X47454175Y28888382D01*
X47660466Y29197118D01*
X47802561Y29540166D01*
X47875000Y29904344D01*
X47875000Y30275656D01*
X47802561Y30639834D01*
X47660466Y30982882D01*
X47454175Y31291618D01*
X47191618Y31554175D01*
X46882882Y31760466D01*
X46725000Y31825863D01*
X46725000Y42875893D01*
X46728556Y42911998D01*
X46725000Y42948103D01*
X46725000Y46393552D01*
X47165000Y46833552D01*
X47165000Y46340475D01*
X47266261Y45831399D01*
X47464893Y45351859D01*
X47753262Y44920285D01*
X48120285Y44553262D01*
X48551859Y44264893D01*
X49031399Y44066261D01*
X49540475Y43965000D01*
X50059525Y43965000D01*
X50568601Y44066261D01*
X51048141Y44264893D01*
X51465000Y44543430D01*
X51465001Y35236450D01*
X50195807Y33967255D01*
X50167761Y33944238D01*
X50075912Y33832320D01*
X50007662Y33704633D01*
X49988213Y33640517D01*
X49965634Y33566086D01*
X49951443Y33422001D01*
X49954999Y33385896D01*
X49955000Y30248118D01*
X49951443Y30212003D01*
X49954103Y30185000D01*
X49540475Y30185000D01*
X49031399Y30083739D01*
X48551859Y29885107D01*
X48120285Y29596738D01*
X47753262Y29229715D01*
X47464893Y28798141D01*
X47266261Y28318601D01*
X47165000Y27809525D01*
X47165000Y27290475D01*
X47266261Y26781399D01*
X47464893Y26301859D01*
X47753262Y25870285D01*
X48120285Y25503262D01*
X48551859Y25214893D01*
X49031399Y25016261D01*
X49540475Y24915000D01*
X50059525Y24915000D01*
X50568601Y25016261D01*
X51048141Y25214893D01*
X51479715Y25503262D01*
X51605000Y25628547D01*
X51605001Y15383880D01*
X51605000Y15383870D01*
X51605000Y15315863D01*
X51447118Y15250466D01*
X51138382Y15044175D01*
X50875825Y14781618D01*
X50669534Y14472882D01*
X50527439Y14129834D01*
X50455000Y13765656D01*
X50455000Y13394344D01*
X50527439Y13030166D01*
X50669534Y12687118D01*
X50875825Y12378382D01*
X51138382Y12115825D01*
X51447118Y11909534D01*
X51790166Y11767439D01*
X52154344Y11695000D01*
X52525656Y11695000D01*
X52889834Y11767439D01*
X53232882Y11909534D01*
X53541618Y12115825D01*
X53804175Y12378382D01*
X54010466Y12687118D01*
X54152561Y13030166D01*
X54225000Y13394344D01*
X54225000Y13765656D01*
X54152561Y14129834D01*
X54010466Y14472882D01*
X53804175Y14781618D01*
X53541618Y15044175D01*
X53232882Y15250466D01*
X53075000Y15315863D01*
X53075000Y18314449D01*
X56665000Y18314449D01*
X56665000Y17785551D01*
X56768183Y17266814D01*
X56970583Y16778175D01*
X57264424Y16338412D01*
X57638412Y15964424D01*
X58078175Y15670583D01*
X58566814Y15468183D01*
X59085551Y15365000D01*
X59614449Y15365000D01*
X60133186Y15468183D01*
X60621825Y15670583D01*
X61061588Y15964424D01*
X61435576Y16338412D01*
X61729417Y16778175D01*
X61931817Y17266814D01*
X62035000Y17785551D01*
X62035000Y18314449D01*
X61931817Y18833186D01*
X61729417Y19321825D01*
X61435576Y19761588D01*
X61061588Y20135576D01*
X60621825Y20429417D01*
X60133186Y20631817D01*
X59614449Y20735000D01*
X59085551Y20735000D01*
X58566814Y20631817D01*
X58078175Y20429417D01*
X57638412Y20135576D01*
X57264424Y19761588D01*
X56970583Y19321825D01*
X56768183Y18833186D01*
X56665000Y18314449D01*
X53075000Y18314449D01*
X53075000Y27696260D01*
X53395000Y27696260D01*
X53395000Y27403740D01*
X53452068Y27116842D01*
X53564010Y26846589D01*
X53726525Y26603368D01*
X53933368Y26396525D01*
X54176589Y26234010D01*
X54446842Y26122068D01*
X54733740Y26065000D01*
X54743303Y26065000D01*
X54837673Y26025911D01*
X55143891Y25965000D01*
X55456109Y25965000D01*
X55762327Y26025911D01*
X56050779Y26145391D01*
X56310379Y26318850D01*
X56531150Y26539621D01*
X56704609Y26799221D01*
X56824089Y27087673D01*
X56885000Y27393891D01*
X56885000Y27706109D01*
X56824089Y28012327D01*
X56704609Y28300779D01*
X56531150Y28560379D01*
X56310379Y28781150D01*
X56050779Y28954609D01*
X55762327Y29074089D01*
X55456109Y29135000D01*
X55143891Y29135000D01*
X54837673Y29074089D01*
X54743303Y29035000D01*
X54733740Y29035000D01*
X54446842Y28977932D01*
X54176589Y28865990D01*
X53933368Y28703475D01*
X53726525Y28496632D01*
X53564010Y28253411D01*
X53452068Y27983158D01*
X53395000Y27696260D01*
X53075000Y27696260D01*
X53075000Y28525897D01*
X53078556Y28562002D01*
X53064365Y28706087D01*
X53041595Y28781150D01*
X53022337Y28844635D01*
X52954087Y28972322D01*
X52902648Y29035000D01*
X52885253Y29056196D01*
X52885250Y29056199D01*
X52862237Y29084240D01*
X52834197Y29107252D01*
X51424999Y30516449D01*
X51424999Y30974313D01*
X51447118Y30959534D01*
X51790166Y30817439D01*
X52154344Y30745000D01*
X52525656Y30745000D01*
X52889834Y30817439D01*
X53232882Y30959534D01*
X53541618Y31165825D01*
X53804175Y31428382D01*
X54010466Y31737118D01*
X54152561Y32080166D01*
X54225000Y32444344D01*
X54225000Y32815656D01*
X54152561Y33179834D01*
X54010466Y33522882D01*
X53804175Y33831618D01*
X53541618Y34094175D01*
X53277858Y34270414D01*
X53314097Y34314572D01*
X53382347Y34442259D01*
X53424375Y34580807D01*
X53435010Y34688787D01*
X53438566Y34724891D01*
X53435010Y34760996D01*
X53435010Y37364449D01*
X56665000Y37364449D01*
X56665000Y36835551D01*
X56768183Y36316814D01*
X56970583Y35828175D01*
X57264424Y35388412D01*
X57638412Y35014424D01*
X58078175Y34720583D01*
X58566814Y34518183D01*
X59085551Y34415000D01*
X59614449Y34415000D01*
X60133186Y34518183D01*
X60621825Y34720583D01*
X61061588Y35014424D01*
X61435576Y35388412D01*
X61729417Y35828175D01*
X61931817Y36316814D01*
X62035000Y36835551D01*
X62035000Y37364449D01*
X61931817Y37883186D01*
X61729417Y38371825D01*
X61435576Y38811588D01*
X61061588Y39185576D01*
X60621825Y39479417D01*
X60133186Y39681817D01*
X59614449Y39785000D01*
X59085551Y39785000D01*
X58566814Y39681817D01*
X58078175Y39479417D01*
X57638412Y39185576D01*
X57264424Y38811588D01*
X56970583Y38371825D01*
X56768183Y37883186D01*
X56665000Y37364449D01*
X53435010Y37364449D01*
X53435010Y46252598D01*
X53452068Y46166842D01*
X53564010Y45896589D01*
X53726525Y45653368D01*
X53933368Y45446525D01*
X54176589Y45284010D01*
X54446842Y45172068D01*
X54733740Y45115000D01*
X54743303Y45115000D01*
X54837673Y45075911D01*
X55143891Y45015000D01*
X55456109Y45015000D01*
X55762327Y45075911D01*
X56050779Y45195391D01*
X56310379Y45368850D01*
X56531150Y45589621D01*
X56704609Y45849221D01*
X56824089Y46137673D01*
X56885000Y46443891D01*
X56885000Y46756109D01*
X56824089Y47062327D01*
X56704609Y47350779D01*
X56531150Y47610379D01*
X56310379Y47831150D01*
X56050779Y48004609D01*
X55762327Y48124089D01*
X55456109Y48185000D01*
X55143891Y48185000D01*
X54837673Y48124089D01*
X54743303Y48085000D01*
X54733740Y48085000D01*
X54446842Y48027932D01*
X54176589Y47915990D01*
X53933368Y47753475D01*
X53726525Y47546632D01*
X53564010Y47303411D01*
X53452068Y47033158D01*
X53435010Y46947402D01*
X53435010Y47923007D01*
X53438566Y47959112D01*
X53424375Y48103197D01*
X53406440Y48162321D01*
X53382347Y48241745D01*
X53314097Y48369432D01*
X53260829Y48434338D01*
X53245263Y48453306D01*
X53245260Y48453309D01*
X53222247Y48481350D01*
X53194207Y48504362D01*
X51841301Y49857268D01*
X52154344Y49795000D01*
X52525656Y49795000D01*
X52889834Y49867439D01*
X53232882Y50009534D01*
X53541618Y50215825D01*
X53804175Y50478382D01*
X54010466Y50787118D01*
X54152561Y51130166D01*
X54225000Y51494344D01*
X54225000Y51865656D01*
X54210823Y51936928D01*
X55402500Y51936928D01*
X55526982Y51949188D01*
X55646680Y51985498D01*
X55756994Y52044463D01*
X55853685Y52123815D01*
X55933037Y52220506D01*
X55992002Y52330820D01*
X56028312Y52450518D01*
X56040572Y52575000D01*
X56040572Y53440001D01*
X56513433Y53440001D01*
X61065002Y48888431D01*
X61065001Y46188102D01*
X61061445Y46151997D01*
X61065001Y46115893D01*
X61075636Y46007913D01*
X61117664Y45869365D01*
X61185914Y45741678D01*
X61277763Y45629760D01*
X61305809Y45606743D01*
X64305001Y42607550D01*
X64305000Y31825863D01*
X64147118Y31760466D01*
X63838382Y31554175D01*
X63575825Y31291618D01*
X63369534Y30982882D01*
X63227439Y30639834D01*
X63155000Y30275656D01*
X63155000Y29904344D01*
X63227439Y29540166D01*
X63369534Y29197118D01*
X63411040Y29135000D01*
X63193891Y29135000D01*
X62887673Y29074089D01*
X62599221Y28954609D01*
X62339621Y28781150D01*
X62118850Y28560379D01*
X61945391Y28300779D01*
X61825911Y28012327D01*
X61765000Y27706109D01*
X61765000Y27393891D01*
X61825911Y27087673D01*
X61945391Y26799221D01*
X62118850Y26539621D01*
X62339621Y26318850D01*
X62599221Y26145391D01*
X62887673Y26025911D01*
X63193891Y25965000D01*
X63506109Y25965000D01*
X63812327Y26025911D01*
X63906697Y26065000D01*
X63916260Y26065000D01*
X64203158Y26122068D01*
X64473411Y26234010D01*
X64716632Y26396525D01*
X64923475Y26603368D01*
X65085990Y26846589D01*
X65197932Y27116842D01*
X65255000Y27403740D01*
X65255000Y27696260D01*
X65197932Y27983158D01*
X65106042Y28205000D01*
X65225656Y28205000D01*
X65589834Y28277439D01*
X65932882Y28419534D01*
X66241618Y28625825D01*
X66504175Y28888382D01*
X66710466Y29197118D01*
X66852561Y29540166D01*
X66925000Y29904344D01*
X66925000Y30275656D01*
X66852561Y30639834D01*
X66710466Y30982882D01*
X66504175Y31291618D01*
X66241618Y31554175D01*
X65932882Y31760466D01*
X65775000Y31825863D01*
X65775000Y42875893D01*
X65778556Y42911998D01*
X65764365Y43056083D01*
X65722337Y43194632D01*
X65654087Y43322318D01*
X65585253Y43406192D01*
X65562238Y43434236D01*
X65534193Y43457252D01*
X63885305Y45106139D01*
X63906697Y45115000D01*
X63916260Y45115000D01*
X64203158Y45172068D01*
X64473411Y45284010D01*
X64716632Y45446525D01*
X64923475Y45653368D01*
X65085990Y45896589D01*
X65197932Y46166842D01*
X65255000Y46453740D01*
X65255000Y46746260D01*
X65197932Y47033158D01*
X65106042Y47255000D01*
X65225656Y47255000D01*
X65589834Y47327439D01*
X65932882Y47469534D01*
X66241618Y47675825D01*
X66504175Y47938382D01*
X66710466Y48247118D01*
X66852561Y48590166D01*
X66925000Y48954344D01*
X66925000Y49325656D01*
X66852561Y49689834D01*
X66710466Y50032882D01*
X66504175Y50341618D01*
X66241618Y50604175D01*
X65932882Y50810466D01*
X65589834Y50952561D01*
X65225656Y51025000D01*
X64854344Y51025000D01*
X64490166Y50952561D01*
X64147118Y50810466D01*
X63838382Y50604175D01*
X63575825Y50341618D01*
X63369534Y50032882D01*
X63304137Y49875000D01*
X62864447Y49875000D01*
X59274446Y53465000D01*
X59614449Y53465000D01*
X60133186Y53568183D01*
X60621825Y53770583D01*
X60628435Y53775000D01*
X62614428Y53775000D01*
X62614428Y52575000D01*
X62626688Y52450518D01*
X62662998Y52330820D01*
X62721963Y52220506D01*
X62801315Y52123815D01*
X62898006Y52044463D01*
X63008320Y51985498D01*
X63128018Y51949188D01*
X63252500Y51936928D01*
X64452500Y51936928D01*
X64576982Y51949188D01*
X64696680Y51985498D01*
X64806994Y52044463D01*
X64903685Y52123815D01*
X64983037Y52220506D01*
X65042002Y52330820D01*
X65075121Y52440000D01*
X65522556Y52440000D01*
X68727555Y49235000D01*
X68590475Y49235000D01*
X68081399Y49133739D01*
X67601859Y48935107D01*
X67170285Y48646738D01*
X66803262Y48279715D01*
X66514893Y47848141D01*
X66316261Y47368601D01*
X66215000Y46859525D01*
X66215000Y46340475D01*
X66316261Y45831399D01*
X66514893Y45351859D01*
X66803262Y44920285D01*
X67170285Y44553262D01*
X67601859Y44264893D01*
X68081399Y44066261D01*
X68590475Y43965000D01*
X69109525Y43965000D01*
X69618601Y44066261D01*
X70098141Y44264893D01*
X70154990Y44302878D01*
X70154991Y34876440D01*
X69245807Y33967255D01*
X69217761Y33944238D01*
X69125912Y33832320D01*
X69057662Y33704633D01*
X69038213Y33640517D01*
X69015634Y33566086D01*
X69001443Y33422001D01*
X69004999Y33385896D01*
X69005000Y31874114D01*
X69001443Y31837999D01*
X69015634Y31693914D01*
X69037549Y31621672D01*
X69057663Y31555366D01*
X69125913Y31427679D01*
X69217762Y31315761D01*
X69245807Y31292745D01*
X71465000Y29073551D01*
X71465000Y27910072D01*
X71383739Y28318601D01*
X71185107Y28798141D01*
X70896738Y29229715D01*
X70529715Y29596738D01*
X70098141Y29885107D01*
X69618601Y30083739D01*
X69109525Y30185000D01*
X68590475Y30185000D01*
X68081399Y30083739D01*
X67601859Y29885107D01*
X67170285Y29596738D01*
X66803262Y29229715D01*
X66514893Y28798141D01*
X66316261Y28318601D01*
X66215000Y27809525D01*
X66215000Y27290475D01*
X66316261Y26781399D01*
X66514893Y26301859D01*
X66803262Y25870285D01*
X67170285Y25503262D01*
X67601859Y25214893D01*
X68081399Y25016261D01*
X68590475Y24915000D01*
X69109525Y24915000D01*
X69618601Y25016261D01*
X70098141Y25214893D01*
X70529715Y25503262D01*
X70896738Y25870285D01*
X71185107Y26301859D01*
X71383739Y26781399D01*
X71465000Y27189928D01*
X71465001Y15465000D01*
X71204344Y15465000D01*
X70840166Y15392561D01*
X70497118Y15250466D01*
X70188382Y15044175D01*
X69925825Y14781618D01*
X69719534Y14472882D01*
X69577439Y14129834D01*
X69505000Y13765656D01*
X69505000Y13394344D01*
X69577439Y13030166D01*
X69719534Y12687118D01*
X69925825Y12378382D01*
X70188382Y12115825D01*
X70497118Y11909534D01*
X70840166Y11767439D01*
X71204344Y11695000D01*
X71575656Y11695000D01*
X71939834Y11767439D01*
X72282882Y11909534D01*
X72591618Y12115825D01*
X72854175Y12378382D01*
X73060466Y12687118D01*
X73202561Y13030166D01*
X73275000Y13394344D01*
X73275000Y13765656D01*
X73202561Y14129834D01*
X73060466Y14472882D01*
X72935000Y14660655D01*
X72935000Y26444893D01*
X72983368Y26396525D01*
X73226589Y26234010D01*
X73496842Y26122068D01*
X73783740Y26065000D01*
X73793303Y26065000D01*
X73887673Y26025911D01*
X74193891Y25965000D01*
X74506109Y25965000D01*
X74812327Y26025911D01*
X75100779Y26145391D01*
X75360379Y26318850D01*
X75581150Y26539621D01*
X75754609Y26799221D01*
X75874089Y27087673D01*
X75935000Y27393891D01*
X75935000Y27706109D01*
X75874089Y28012327D01*
X75754609Y28300779D01*
X75581150Y28560379D01*
X75360379Y28781150D01*
X75100779Y28954609D01*
X74812327Y29074089D01*
X74506109Y29135000D01*
X74193891Y29135000D01*
X73887673Y29074089D01*
X73793303Y29035000D01*
X73783740Y29035000D01*
X73496842Y28977932D01*
X73226589Y28865990D01*
X72983368Y28703475D01*
X72935000Y28655107D01*
X72935000Y29341893D01*
X72938556Y29377998D01*
X72924365Y29522083D01*
X72910508Y29567763D01*
X72882337Y29660631D01*
X72814087Y29788318D01*
X72745253Y29872192D01*
X72745250Y29872195D01*
X72722237Y29900236D01*
X72694197Y29923248D01*
X71823205Y30794240D01*
X71939834Y30817439D01*
X72282882Y30959534D01*
X72591618Y31165825D01*
X72854175Y31428382D01*
X73060466Y31737118D01*
X73202561Y32080166D01*
X73275000Y32444344D01*
X73275000Y32815656D01*
X73202561Y33179834D01*
X73060466Y33522882D01*
X72854175Y33831618D01*
X72591618Y34094175D01*
X72282882Y34300466D01*
X72125000Y34365863D01*
X72125000Y44678434D01*
X72244201Y44797635D01*
X72272246Y44820651D01*
X72364096Y44932569D01*
X72414978Y45027763D01*
X72432346Y45060255D01*
X72474374Y45198804D01*
X72488565Y45342889D01*
X72485009Y45378994D01*
X72485009Y46013886D01*
X72485011Y46013906D01*
X72488567Y46050011D01*
X72485011Y46086116D01*
X72485011Y46252593D01*
X72502068Y46166842D01*
X72614010Y45896589D01*
X72776525Y45653368D01*
X72983368Y45446525D01*
X73226589Y45284010D01*
X73496842Y45172068D01*
X73783740Y45115000D01*
X73793303Y45115000D01*
X73887673Y45075911D01*
X74193891Y45015000D01*
X74506109Y45015000D01*
X74812327Y45075911D01*
X75100779Y45195391D01*
X75360379Y45368850D01*
X75581150Y45589621D01*
X75754609Y45849221D01*
X75874089Y46137673D01*
X75935000Y46443891D01*
X75935000Y46756109D01*
X75874089Y47062327D01*
X75754609Y47350779D01*
X75581150Y47610379D01*
X75360379Y47831150D01*
X75100779Y48004609D01*
X74812327Y48124089D01*
X74506109Y48185000D01*
X74193891Y48185000D01*
X73887673Y48124089D01*
X73793303Y48085000D01*
X73783740Y48085000D01*
X73496842Y48027932D01*
X73226589Y47915990D01*
X72983368Y47753475D01*
X72776525Y47546632D01*
X72614010Y47303411D01*
X72502068Y47033158D01*
X72485011Y46947407D01*
X72485011Y47923017D01*
X72488566Y47959112D01*
X72485011Y47995207D01*
X72485011Y47995216D01*
X72474376Y48103196D01*
X72432348Y48241744D01*
X72364098Y48369431D01*
X72337825Y48401444D01*
X72295264Y48453305D01*
X72295261Y48453308D01*
X72272248Y48481349D01*
X72244208Y48504361D01*
X70891301Y49857268D01*
X71204344Y49795000D01*
X71575656Y49795000D01*
X71939834Y49867439D01*
X72282882Y50009534D01*
X72591618Y50215825D01*
X72854175Y50478382D01*
X73060466Y50787118D01*
X73202561Y51130166D01*
X73275000Y51494344D01*
X73275000Y51865656D01*
X73260823Y51936928D01*
X74452500Y51936928D01*
X74576982Y51949188D01*
X74696680Y51985498D01*
X74806994Y52044463D01*
X74903685Y52123815D01*
X74983037Y52220506D01*
X75042002Y52330820D01*
X75078312Y52450518D01*
X75090572Y52575000D01*
X75090572Y53775000D01*
X75078312Y53899482D01*
X75042002Y54019180D01*
X74983037Y54129494D01*
X74903685Y54226185D01*
X74806994Y54305537D01*
X74696680Y54364502D01*
X74576982Y54400812D01*
X74452500Y54413072D01*
X73252500Y54413072D01*
X73128018Y54400812D01*
X73008320Y54364502D01*
X72898006Y54305537D01*
X72801315Y54226185D01*
X72721963Y54129494D01*
X72662998Y54019180D01*
X72626688Y53899482D01*
X72623158Y53863644D01*
X72602367Y53857337D01*
X72474680Y53789087D01*
X72362762Y53697238D01*
X72339746Y53669193D01*
X72097717Y53427164D01*
X71939834Y53492561D01*
X71575656Y53565000D01*
X71204344Y53565000D01*
X70840166Y53492561D01*
X70497118Y53350466D01*
X70188382Y53144175D01*
X70090572Y53046365D01*
X70090572Y53775000D01*
X70078312Y53899482D01*
X70042002Y54019180D01*
X69983037Y54129494D01*
X69903685Y54226185D01*
X69806994Y54305537D01*
X69696680Y54364502D01*
X69576982Y54400812D01*
X69452500Y54413072D01*
X68252500Y54413072D01*
X68128018Y54400812D01*
X68008320Y54364502D01*
X67898006Y54305537D01*
X67801315Y54226185D01*
X67721963Y54129494D01*
X67662998Y54019180D01*
X67626688Y53899482D01*
X67614428Y53775000D01*
X67614428Y52575000D01*
X67626688Y52450518D01*
X67642258Y52399190D01*
X66372261Y53669187D01*
X66349240Y53697238D01*
X66237322Y53789087D01*
X66109635Y53857337D01*
X65971087Y53899365D01*
X65863107Y53910000D01*
X65827002Y53913556D01*
X65790897Y53910000D01*
X65075121Y53910000D01*
X65042002Y54019180D01*
X64983037Y54129494D01*
X64903685Y54226185D01*
X64806994Y54305537D01*
X64696680Y54364502D01*
X64576982Y54400812D01*
X64452500Y54413072D01*
X63252500Y54413072D01*
X63128018Y54400812D01*
X63008320Y54364502D01*
X62898006Y54305537D01*
X62801315Y54226185D01*
X62721963Y54129494D01*
X62662998Y54019180D01*
X62626688Y53899482D01*
X62614428Y53775000D01*
X60628435Y53775000D01*
X61061588Y54064424D01*
X61435576Y54438412D01*
X61729417Y54878175D01*
X61931817Y55366814D01*
X62035000Y55885551D01*
X62035000Y56414449D01*
X61931817Y56933186D01*
X61729417Y57421825D01*
X61435576Y57861588D01*
X61061588Y58235576D01*
X60621825Y58529417D01*
X60133186Y58731817D01*
X59614449Y58835000D01*
X59448444Y58835000D01*
X62760942Y62147497D01*
X62816394Y62147497D01*
X62852499Y62143941D01*
X62888604Y62147497D01*
X62996584Y62158132D01*
X63135132Y62200160D01*
X63262819Y62268410D01*
X63374737Y62360259D01*
X63397757Y62388309D01*
X65534193Y64524744D01*
X65562238Y64547760D01*
X65654087Y64659678D01*
X65688684Y64724404D01*
X65722337Y64787364D01*
X65764365Y64925913D01*
X65778556Y65069998D01*
X65775000Y65106103D01*
X65775000Y66454137D01*
X65932882Y66519534D01*
X66241618Y66725825D01*
X66504175Y66988382D01*
X66710466Y67297118D01*
X66852561Y67640166D01*
X66925000Y68004344D01*
X66925000Y68375656D01*
X66852561Y68739834D01*
X66710466Y69082882D01*
X66504175Y69391618D01*
X66241618Y69654175D01*
X65932882Y69860466D01*
X65589834Y70002561D01*
X65225656Y70075000D01*
X64854344Y70075000D01*
X64490166Y70002561D01*
X64147118Y69860466D01*
X63838382Y69654175D01*
X63575825Y69391618D01*
X63369534Y69082882D01*
X63227439Y68739834D01*
X63155000Y68375656D01*
X63155000Y68004344D01*
X63227439Y67640166D01*
X63369534Y67297118D01*
X63411040Y67235000D01*
X63193891Y67235000D01*
X62887673Y67174089D01*
X62599221Y67054609D01*
X62339621Y66881150D01*
X62118850Y66660379D01*
X61945391Y66400779D01*
X61825911Y66112327D01*
X61765000Y65806109D01*
X61765000Y65493891D01*
X61825911Y65187673D01*
X61945391Y64899221D01*
X62118850Y64639621D01*
X62339621Y64418850D01*
X62599221Y64245391D01*
X62887673Y64125911D01*
X63028462Y64097906D01*
X62548053Y63617497D01*
X62492591Y63617497D01*
X62456494Y63621052D01*
X62420397Y63617497D01*
X62420390Y63617497D01*
X62326627Y63608262D01*
X62312409Y63606862D01*
X62300542Y63603262D01*
X62173862Y63564834D01*
X62046175Y63496584D01*
X61934257Y63404735D01*
X61911241Y63376690D01*
X57385001Y58850449D01*
X57385001Y68825907D01*
X57388556Y68862002D01*
X57385001Y68898097D01*
X57385001Y68898106D01*
X57374366Y69006086D01*
X57332338Y69144634D01*
X57264088Y69272321D01*
X57217662Y69328891D01*
X57195254Y69356195D01*
X57195251Y69356198D01*
X57172238Y69384239D01*
X57144198Y69407251D01*
X53677260Y72874188D01*
X53654239Y72902239D01*
X53542321Y72994088D01*
X53414634Y73062338D01*
X53276086Y73104366D01*
X53168106Y73115001D01*
X53132001Y73118557D01*
X53095896Y73115001D01*
X51584093Y73115001D01*
X51547998Y73118556D01*
X51511903Y73115001D01*
X51511894Y73115001D01*
X51403914Y73104366D01*
X51265366Y73062338D01*
X51137679Y72994088D01*
X51025761Y72902239D01*
X51002745Y72874194D01*
X50648581Y72520029D01*
X47359540Y72520029D01*
X44415120Y75464449D01*
X56665000Y75464449D01*
X56665000Y74935551D01*
X56768183Y74416814D01*
X56970583Y73928175D01*
X57264424Y73488412D01*
X57638412Y73114424D01*
X58078175Y72820583D01*
X58566814Y72618183D01*
X59085551Y72515000D01*
X59614449Y72515000D01*
X60133186Y72618183D01*
X60621825Y72820583D01*
X61061588Y73114424D01*
X61435576Y73488412D01*
X61729417Y73928175D01*
X61931817Y74416814D01*
X62035000Y74935551D01*
X62035000Y75464449D01*
X61931817Y75983186D01*
X61729417Y76471825D01*
X61435576Y76911588D01*
X61061588Y77285576D01*
X60621825Y77579417D01*
X60133186Y77781817D01*
X59614449Y77885000D01*
X59085551Y77885000D01*
X58566814Y77781817D01*
X58078175Y77579417D01*
X57638412Y77285576D01*
X57264424Y76911588D01*
X56970583Y76471825D01*
X56768183Y75983186D01*
X56665000Y75464449D01*
X44415120Y75464449D01*
X43305020Y76574548D01*
X43305020Y83458561D01*
X43549221Y83295391D01*
X43837673Y83175911D01*
X44143891Y83115000D01*
X44456109Y83115000D01*
X44762327Y83175911D01*
X44856697Y83215000D01*
X44866260Y83215000D01*
X45153158Y83272068D01*
X45423411Y83384010D01*
X45666632Y83546525D01*
X45873475Y83753368D01*
X46035990Y83996589D01*
X46147932Y84266842D01*
X46205000Y84553740D01*
X46205000Y84846260D01*
X46147932Y85133158D01*
X46056042Y85355000D01*
X46175656Y85355000D01*
X46539834Y85427439D01*
X46882882Y85569534D01*
X47191618Y85775825D01*
X47454175Y86038382D01*
X47660466Y86347118D01*
X47725863Y86505000D01*
X47878547Y86505000D01*
X47753262Y86379715D01*
X47464893Y85948141D01*
X47266261Y85468601D01*
X47165000Y84959525D01*
X47165000Y84440475D01*
X47266261Y83931399D01*
X47464893Y83451859D01*
X47753262Y83020285D01*
X48120285Y82653262D01*
X48551859Y82364893D01*
X49031399Y82166261D01*
X49540475Y82065000D01*
X50059525Y82065000D01*
X50568601Y82166261D01*
X51048141Y82364893D01*
X51479715Y82653262D01*
X51846738Y83020285D01*
X52135107Y83451859D01*
X52333739Y83931399D01*
X52435000Y84440475D01*
X52435000Y84846260D01*
X53395000Y84846260D01*
X53395000Y84553740D01*
X53452068Y84266842D01*
X53564010Y83996589D01*
X53726525Y83753368D01*
X53933368Y83546525D01*
X54176589Y83384010D01*
X54446842Y83272068D01*
X54733740Y83215000D01*
X54743303Y83215000D01*
X54837673Y83175911D01*
X55143891Y83115000D01*
X55456109Y83115000D01*
X55762327Y83175911D01*
X56050779Y83295391D01*
X56310379Y83468850D01*
X56531150Y83689621D01*
X56704609Y83949221D01*
X56824089Y84237673D01*
X56885000Y84543891D01*
X56885000Y84856109D01*
X56824089Y85162327D01*
X56704609Y85450779D01*
X56531150Y85710379D01*
X56310379Y85931150D01*
X56050779Y86104609D01*
X55762327Y86224089D01*
X55456109Y86285000D01*
X55143891Y86285000D01*
X54837673Y86224089D01*
X54743303Y86185000D01*
X54733740Y86185000D01*
X54446842Y86127932D01*
X54176589Y86015990D01*
X53933368Y85853475D01*
X53726525Y85646632D01*
X53564010Y85403411D01*
X53452068Y85133158D01*
X53395000Y84846260D01*
X52435000Y84846260D01*
X52435000Y84959525D01*
X52333739Y85468601D01*
X52135107Y85948141D01*
X51846738Y86379715D01*
X51721453Y86505000D01*
X63304137Y86505000D01*
X63369534Y86347118D01*
X63411040Y86285000D01*
X63193891Y86285000D01*
X62887673Y86224089D01*
X62599221Y86104609D01*
X62339621Y85931150D01*
X62118850Y85710379D01*
X61945391Y85450779D01*
X61825911Y85162327D01*
X61765000Y84856109D01*
X61765000Y84543891D01*
X61825911Y84237673D01*
X61945391Y83949221D01*
X62118850Y83689621D01*
X62339621Y83468850D01*
X62599221Y83295391D01*
X62887673Y83175911D01*
X63193891Y83115000D01*
X63506109Y83115000D01*
X63812327Y83175911D01*
X63906697Y83215000D01*
X63916260Y83215000D01*
X64203158Y83272068D01*
X64473411Y83384010D01*
X64716632Y83546525D01*
X64923475Y83753368D01*
X65085990Y83996589D01*
X65197932Y84266842D01*
X65255000Y84553740D01*
X65255000Y84846260D01*
X65197932Y85133158D01*
X65106042Y85355000D01*
X65225656Y85355000D01*
X65589834Y85427439D01*
X65932882Y85569534D01*
X66241618Y85775825D01*
X66504175Y86038382D01*
X66710466Y86347118D01*
X66852561Y86690166D01*
X66925000Y87054344D01*
X66925000Y87425656D01*
X66852561Y87789834D01*
X66710466Y88132882D01*
X66622187Y88265000D01*
X67797556Y88265000D01*
X68727556Y87335000D01*
X68590475Y87335000D01*
X68081399Y87233739D01*
X67601859Y87035107D01*
X67170285Y86746738D01*
X66803262Y86379715D01*
X66514893Y85948141D01*
X66316261Y85468601D01*
X66215000Y84959525D01*
X66215000Y84440475D01*
X66316261Y83931399D01*
X66514893Y83451859D01*
X66803262Y83020285D01*
X67170285Y82653262D01*
X67601859Y82364893D01*
X68081399Y82166261D01*
X68590475Y82065000D01*
X69109525Y82065000D01*
X69618601Y82166261D01*
X70098141Y82364893D01*
X70515002Y82643431D01*
X70515001Y74043570D01*
X68745797Y72274365D01*
X68717752Y72251349D01*
X68625903Y72139431D01*
X68563977Y72023575D01*
X68557653Y72011744D01*
X68515624Y71873196D01*
X68501433Y71729111D01*
X68504990Y71692996D01*
X68504989Y68848118D01*
X68501433Y68812013D01*
X68513418Y68690328D01*
X68515624Y68667929D01*
X68557652Y68529381D01*
X68625902Y68401694D01*
X68717751Y68289776D01*
X68723570Y68285000D01*
X68590475Y68285000D01*
X68081399Y68183739D01*
X67601859Y67985107D01*
X67170285Y67696738D01*
X66803262Y67329715D01*
X66514893Y66898141D01*
X66316261Y66418601D01*
X66215000Y65909525D01*
X66215000Y65390475D01*
X66316261Y64881399D01*
X66514893Y64401859D01*
X66803262Y63970285D01*
X66910475Y63863072D01*
X65752500Y63863072D01*
X65628018Y63850812D01*
X65508320Y63814502D01*
X65398006Y63755537D01*
X65301315Y63676185D01*
X65221963Y63579494D01*
X65162998Y63469180D01*
X65126688Y63349482D01*
X65114428Y63225000D01*
X65114428Y63216311D01*
X65030262Y63147238D01*
X65007246Y63119193D01*
X63358308Y61470254D01*
X63330262Y61447237D01*
X63238413Y61335319D01*
X63170163Y61207632D01*
X63150886Y61144084D01*
X63128135Y61069085D01*
X63113944Y60925000D01*
X63117500Y60888895D01*
X63117501Y57947622D01*
X63008320Y57914502D01*
X62898006Y57855537D01*
X62801315Y57776185D01*
X62721963Y57679494D01*
X62662998Y57569180D01*
X62626688Y57449482D01*
X62614428Y57325000D01*
X62614428Y56125000D01*
X62626688Y56000518D01*
X62662998Y55880820D01*
X62721963Y55770506D01*
X62801315Y55673815D01*
X62898006Y55594463D01*
X63008320Y55535498D01*
X63128018Y55499188D01*
X63252500Y55486928D01*
X64452500Y55486928D01*
X64576982Y55499188D01*
X64696680Y55535498D01*
X64806994Y55594463D01*
X64903685Y55673815D01*
X64983037Y55770506D01*
X65042002Y55880820D01*
X65075121Y55990000D01*
X67629879Y55990000D01*
X67662998Y55880820D01*
X67721963Y55770506D01*
X67801315Y55673815D01*
X67898006Y55594463D01*
X68008320Y55535498D01*
X68128018Y55499188D01*
X68252500Y55486928D01*
X69452500Y55486928D01*
X69576982Y55499188D01*
X69696680Y55535498D01*
X69806994Y55594463D01*
X69903685Y55673815D01*
X69983037Y55770506D01*
X70042002Y55880820D01*
X70075121Y55990000D01*
X72629879Y55990000D01*
X72662998Y55880820D01*
X72721963Y55770506D01*
X72801315Y55673815D01*
X72898006Y55594463D01*
X73008320Y55535498D01*
X73128018Y55499188D01*
X73252500Y55486928D01*
X74452500Y55486928D01*
X74576982Y55499188D01*
X74696680Y55535498D01*
X74806994Y55594463D01*
X74903685Y55673815D01*
X74983037Y55770506D01*
X75042002Y55880820D01*
X75078312Y56000518D01*
X75090572Y56125000D01*
X75090572Y57325000D01*
X75078312Y57449482D01*
X75042002Y57569180D01*
X74983037Y57679494D01*
X74903685Y57776185D01*
X74806994Y57855537D01*
X74696680Y57914502D01*
X74576982Y57950812D01*
X74452500Y57963072D01*
X73252500Y57963072D01*
X73128018Y57950812D01*
X73008320Y57914502D01*
X72898006Y57855537D01*
X72801315Y57776185D01*
X72721963Y57679494D01*
X72662998Y57569180D01*
X72629879Y57460000D01*
X70075121Y57460000D01*
X70042002Y57569180D01*
X69983037Y57679494D01*
X69903685Y57776185D01*
X69806994Y57855537D01*
X69696680Y57914502D01*
X69576982Y57950812D01*
X69452500Y57963072D01*
X68252500Y57963072D01*
X68128018Y57950812D01*
X68008320Y57914502D01*
X67898006Y57855537D01*
X67801315Y57776185D01*
X67721963Y57679494D01*
X67662998Y57569180D01*
X67629879Y57460000D01*
X65075121Y57460000D01*
X65042002Y57569180D01*
X64983037Y57679494D01*
X64903685Y57776185D01*
X64806994Y57855537D01*
X64696680Y57914502D01*
X64587500Y57947621D01*
X64587500Y60620554D01*
X65439324Y61472378D01*
X65508320Y61435498D01*
X65628018Y61399188D01*
X65752500Y61386928D01*
X66952500Y61386928D01*
X67076982Y61399188D01*
X67196680Y61435498D01*
X67306994Y61494463D01*
X67403685Y61573815D01*
X67483037Y61670506D01*
X67542002Y61780820D01*
X67575121Y61890000D01*
X70129879Y61890000D01*
X70162998Y61780820D01*
X70221963Y61670506D01*
X70301315Y61573815D01*
X70398006Y61494463D01*
X70508320Y61435498D01*
X70628018Y61399188D01*
X70752500Y61386928D01*
X70994984Y61386928D01*
X70418057Y60810001D01*
X68188606Y60810001D01*
X68152501Y60813557D01*
X68008415Y60799366D01*
X67966387Y60786617D01*
X67869868Y60757338D01*
X67742181Y60689088D01*
X67630263Y60597239D01*
X67607247Y60569194D01*
X67265676Y60227622D01*
X67196680Y60264502D01*
X67076982Y60300812D01*
X66952500Y60313072D01*
X65752500Y60313072D01*
X65628018Y60300812D01*
X65508320Y60264502D01*
X65398006Y60205537D01*
X65301315Y60126185D01*
X65221963Y60029494D01*
X65162998Y59919180D01*
X65126688Y59799482D01*
X65114428Y59675000D01*
X65114428Y58475000D01*
X65126688Y58350518D01*
X65162998Y58230820D01*
X65221963Y58120506D01*
X65301315Y58023815D01*
X65398006Y57944463D01*
X65508320Y57885498D01*
X65628018Y57849188D01*
X65752500Y57836928D01*
X66952500Y57836928D01*
X67076982Y57849188D01*
X67196680Y57885498D01*
X67306994Y57944463D01*
X67403685Y58023815D01*
X67483037Y58120506D01*
X67542002Y58230820D01*
X67578312Y58350518D01*
X67590572Y58475000D01*
X67590572Y58483689D01*
X67674738Y58552762D01*
X67697758Y58580812D01*
X68456948Y59340001D01*
X70114428Y59340001D01*
X70114428Y58475000D01*
X70126688Y58350518D01*
X70162998Y58230820D01*
X70221963Y58120506D01*
X70301315Y58023815D01*
X70398006Y57944463D01*
X70508320Y57885498D01*
X70628018Y57849188D01*
X70752500Y57836928D01*
X71952500Y57836928D01*
X72076982Y57849188D01*
X72196680Y57885498D01*
X72306994Y57944463D01*
X72403685Y58023815D01*
X72483037Y58120506D01*
X72542002Y58230820D01*
X72578312Y58350518D01*
X72590572Y58475000D01*
X72590572Y59675000D01*
X72578312Y59799482D01*
X72542002Y59919180D01*
X72505122Y59988176D01*
X73346704Y60829757D01*
X73374749Y60852773D01*
X73466598Y60964691D01*
X73534848Y61092378D01*
X73576876Y61230926D01*
X73587511Y61338906D01*
X73591067Y61375011D01*
X73587511Y61411116D01*
X73587511Y63618515D01*
X73591066Y63654610D01*
X73587511Y63690705D01*
X73587511Y63690714D01*
X73576876Y63798694D01*
X73534848Y63937242D01*
X73466598Y64064929D01*
X73374748Y64176847D01*
X73346703Y64199863D01*
X73335000Y64211566D01*
X73335000Y64289105D01*
X73496842Y64222068D01*
X73783740Y64165000D01*
X73793303Y64165000D01*
X73887673Y64125911D01*
X74193891Y64065000D01*
X74506109Y64065000D01*
X74812327Y64125911D01*
X75100779Y64245391D01*
X75360379Y64418850D01*
X75581150Y64639621D01*
X75754609Y64899221D01*
X75874089Y65187673D01*
X75935000Y65493891D01*
X75935000Y65806109D01*
X75874089Y66112327D01*
X75754609Y66400779D01*
X75581150Y66660379D01*
X75360379Y66881150D01*
X75100779Y67054609D01*
X74812327Y67174089D01*
X74506109Y67235000D01*
X74193891Y67235000D01*
X73887673Y67174089D01*
X73793303Y67135000D01*
X73783740Y67135000D01*
X73496842Y67077932D01*
X73324728Y67006640D01*
X73324365Y67010327D01*
X73282337Y67148875D01*
X73214087Y67276562D01*
X73170465Y67329715D01*
X73145253Y67360436D01*
X73145250Y67360439D01*
X73122237Y67388480D01*
X73094197Y67411492D01*
X72125000Y68380688D01*
X72125000Y68994137D01*
X72282882Y69059534D01*
X72591618Y69265825D01*
X72854175Y69528382D01*
X73060466Y69837118D01*
X73202561Y70180166D01*
X73275000Y70544344D01*
X73275000Y70915656D01*
X73202561Y71279834D01*
X73060466Y71622882D01*
X72854175Y71931618D01*
X72591618Y72194175D01*
X72282882Y72400466D01*
X71939834Y72542561D01*
X71823205Y72565760D01*
X72244204Y72986759D01*
X72272249Y73009775D01*
X72364098Y73121693D01*
X72432348Y73249380D01*
X72474376Y73387928D01*
X72485011Y73495908D01*
X72485011Y73495917D01*
X72488566Y73532012D01*
X72485011Y73568107D01*
X72485011Y84352593D01*
X72502068Y84266842D01*
X72614010Y83996589D01*
X72776525Y83753368D01*
X72983368Y83546525D01*
X73226589Y83384010D01*
X73496842Y83272068D01*
X73783740Y83215000D01*
X73793303Y83215000D01*
X73887673Y83175911D01*
X74193891Y83115000D01*
X74506109Y83115000D01*
X74812327Y83175911D01*
X75100779Y83295391D01*
X75360379Y83468850D01*
X75581150Y83689621D01*
X75754609Y83949221D01*
X75874089Y84237673D01*
X75935000Y84543891D01*
X75935000Y84856109D01*
X75874089Y85162327D01*
X75754609Y85450779D01*
X75581150Y85710379D01*
X75360379Y85931150D01*
X75100779Y86104609D01*
X74812327Y86224089D01*
X74506109Y86285000D01*
X74193891Y86285000D01*
X73887673Y86224089D01*
X73793303Y86185000D01*
X73783740Y86185000D01*
X73496842Y86127932D01*
X73226589Y86015990D01*
X72983368Y85853475D01*
X72776525Y85646632D01*
X72614010Y85403411D01*
X72502068Y85133158D01*
X72485011Y85047407D01*
X72485011Y87616129D01*
X72488566Y87652224D01*
X72485011Y87688319D01*
X72485011Y87688328D01*
X72474376Y87796308D01*
X72432348Y87934856D01*
X72364098Y88062543D01*
X72310428Y88127939D01*
X72591618Y88315825D01*
X72854175Y88578382D01*
X73060466Y88887118D01*
X73202561Y89230166D01*
X73275000Y89594344D01*
X73275000Y89965656D01*
X73202561Y90329834D01*
X73060466Y90672882D01*
X72854175Y90981618D01*
X72591618Y91244175D01*
X72282882Y91450466D01*
X71939834Y91592561D01*
X71575656Y91665000D01*
X71204344Y91665000D01*
X70840166Y91592561D01*
X70497118Y91450466D01*
X70188382Y91244175D01*
X69925825Y90981618D01*
X69719534Y90672882D01*
X69577439Y90329834D01*
X69505000Y89965656D01*
X69505000Y89594344D01*
X69577439Y89230166D01*
X69719534Y88887118D01*
X69925825Y88578382D01*
X70188382Y88315825D01*
X70497118Y88109534D01*
X70654602Y88044302D01*
X70651444Y88012234D01*
X70665635Y87868149D01*
X70697764Y87762237D01*
X70707664Y87729601D01*
X70775914Y87601914D01*
X70867763Y87489996D01*
X70895808Y87466980D01*
X71015011Y87347777D01*
X71015011Y87126438D01*
X68647261Y89494187D01*
X68624240Y89522238D01*
X68512322Y89614087D01*
X68384635Y89682337D01*
X68246087Y89724365D01*
X68138107Y89735000D01*
X68102002Y89738556D01*
X68065897Y89735000D01*
X64394103Y89735000D01*
X64357998Y89738556D01*
X64321893Y89735000D01*
X64213913Y89724365D01*
X64075365Y89682337D01*
X63947678Y89614087D01*
X63835760Y89522238D01*
X63812744Y89494193D01*
X62793562Y88475010D01*
X57126439Y88475010D01*
X53677260Y91924188D01*
X53654239Y91952239D01*
X53542321Y92044088D01*
X53414634Y92112338D01*
X53276086Y92154366D01*
X53168106Y92165001D01*
X53132001Y92168557D01*
X53095896Y92165001D01*
X51666106Y92165001D01*
X51630001Y92168557D01*
X51593896Y92165001D01*
X51485916Y92154366D01*
X51347368Y92112338D01*
X51219681Y92044088D01*
X51107763Y91952239D01*
X51084747Y91924194D01*
X50175564Y91015010D01*
X45884098Y91015010D01*
X45848003Y91018565D01*
X45811908Y91015010D01*
X45811899Y91015010D01*
X45703919Y91004375D01*
X45565371Y90962347D01*
X45437684Y90894097D01*
X45325766Y90802248D01*
X45302750Y90774203D01*
X41527000Y86998452D01*
X41527000Y88700000D01*
X41524560Y88724776D01*
X41517333Y88748601D01*
X41505597Y88770557D01*
X41489803Y88789803D01*
X41478560Y88799029D01*
X41475088Y88834283D01*
X41435919Y88963406D01*
X41372312Y89082407D01*
X41286711Y89186711D01*
X41182407Y89272312D01*
X41063406Y89335919D01*
X40985000Y89359703D01*
X40985000Y92166495D01*
X41013267Y92454782D01*
X41087259Y92699855D01*
X41207443Y92925890D01*
X41369248Y93124281D01*
X41566497Y93287460D01*
X41791687Y93409220D01*
X42036247Y93484924D01*
X42322398Y93515000D01*
X76366495Y93515000D01*
X76654782Y93486733D01*
X76654782Y93486733D01*
G37*
X76654782Y93486733D02*
X76899855Y93412741D01*
X77125890Y93292557D01*
X77324281Y93130752D01*
X77487460Y92933503D01*
X77609220Y92708313D01*
X77684924Y92463753D01*
X77715000Y92177602D01*
X77715001Y1033516D01*
X77686733Y745218D01*
X77612741Y500145D01*
X77492554Y274107D01*
X77330754Y75721D01*
X77133503Y-87460D01*
X76908310Y-209221D01*
X76663753Y-284924D01*
X76377602Y-315000D01*
X42333505Y-315000D01*
X42045218Y-286733D01*
X41800145Y-212741D01*
X41574107Y-92554D01*
X41375721Y69246D01*
X41212540Y266497D01*
X41090779Y491690D01*
X41015076Y736247D01*
X40985000Y1022398D01*
X40985000Y3840297D01*
X41063406Y3864081D01*
X41182407Y3927688D01*
X41286711Y4013289D01*
X41372312Y4117593D01*
X41435919Y4236594D01*
X41475088Y4365717D01*
X41478560Y4400971D01*
X41489803Y4410197D01*
X41505597Y4429443D01*
X41517333Y4451399D01*
X41524560Y4475224D01*
X41527000Y4500000D01*
X41527000Y12500000D01*
X41524560Y12524776D01*
X41517333Y12548601D01*
X41505597Y12570557D01*
X41489803Y12589803D01*
X41478560Y12599029D01*
X41475088Y12634283D01*
X41435919Y12763406D01*
X41372312Y12882407D01*
X41286711Y12986711D01*
X41182407Y13072312D01*
X41063406Y13135919D01*
X40985000Y13159703D01*
X40985000Y41940297D01*
X41063406Y41964081D01*
X41182407Y42027688D01*
X41286711Y42113289D01*
X41372312Y42217593D01*
X41435919Y42336594D01*
X41475088Y42465717D01*
X41478560Y42500971D01*
X41489803Y42510197D01*
X41505597Y42529443D01*
X41517333Y42551399D01*
X41524560Y42575224D01*
X41527000Y42600000D01*
X41527000Y50600000D01*
X41524560Y50624776D01*
X41517333Y50648601D01*
X41505597Y50670557D01*
X41489803Y50689803D01*
X41478560Y50699029D01*
X41475088Y50734283D01*
X41435919Y50863406D01*
X41372312Y50982407D01*
X41286711Y51086711D01*
X41182407Y51172312D01*
X41063406Y51235919D01*
X40985000Y51259703D01*
X40985000Y55307310D01*
X41020671Y55290065D01*
X41322873Y55211621D01*
X41634573Y55193641D01*
X41943791Y55236816D01*
X42185001Y55320808D01*
X42185002Y48229570D01*
X41955797Y48000365D01*
X41927751Y47977348D01*
X41835902Y47865430D01*
X41767652Y47737743D01*
X41745787Y47665662D01*
X41725624Y47599196D01*
X41711433Y47455111D01*
X41714989Y47419006D01*
X41714990Y45781004D01*
X41711433Y45744889D01*
X41725624Y45600804D01*
X41765407Y45469660D01*
X41767653Y45462256D01*
X41835903Y45334569D01*
X41927752Y45222651D01*
X41955797Y45199635D01*
X44754990Y42400441D01*
X44754991Y32336440D01*
X42455807Y30037255D01*
X42427761Y30014238D01*
X42335912Y29902320D01*
X42267662Y29774633D01*
X42250425Y29717810D01*
X42225634Y29636086D01*
X42211443Y29492001D01*
X42214999Y29455896D01*
X42215000Y14116116D01*
X42211443Y14080001D01*
X42225634Y13935916D01*
X42237802Y13895806D01*
X42267663Y13797368D01*
X42335913Y13669681D01*
X42427762Y13557763D01*
X42455807Y13534747D01*
X44242836Y11747717D01*
X44177439Y11589834D01*
X44105000Y11225656D01*
X44105000Y10854344D01*
X44177439Y10490166D01*
X44319534Y10147118D01*
X44361040Y10085000D01*
X44143891Y10085000D01*
X43837673Y10024089D01*
X43549221Y9904609D01*
X43289621Y9731150D01*
X43068850Y9510379D01*
X42895391Y9250779D01*
X42775911Y8962327D01*
X42715000Y8656109D01*
X42715000Y8343891D01*
X42775911Y8037673D01*
X42895391Y7749221D01*
X43068850Y7489621D01*
X43289621Y7268850D01*
X43549221Y7095391D01*
X43837673Y6975911D01*
X44143891Y6915000D01*
X44456109Y6915000D01*
X44762327Y6975911D01*
X44856697Y7015000D01*
X44866260Y7015000D01*
X45153158Y7072068D01*
X45423411Y7184010D01*
X45666632Y7346525D01*
X45873475Y7553368D01*
X45986312Y7722240D01*
X48102745Y5605806D01*
X48125761Y5577761D01*
X48237679Y5485912D01*
X48365366Y5417662D01*
X48503914Y5375634D01*
X48611894Y5364999D01*
X48611903Y5364999D01*
X48647998Y5361444D01*
X48684093Y5364999D01*
X63183896Y5364999D01*
X63220001Y5361443D01*
X63256106Y5364999D01*
X63364086Y5375634D01*
X63502634Y5417662D01*
X63630321Y5485912D01*
X63742239Y5577761D01*
X63765259Y5605811D01*
X65534193Y7374744D01*
X65562238Y7397760D01*
X65654087Y7509678D01*
X65722337Y7637365D01*
X65764365Y7775913D01*
X65775000Y7883893D01*
X65775000Y7883902D01*
X65778555Y7919997D01*
X65775000Y7956092D01*
X65775000Y8759525D01*
X66215000Y8759525D01*
X66215000Y8240475D01*
X66316261Y7731399D01*
X66514893Y7251859D01*
X66803262Y6820285D01*
X67170285Y6453262D01*
X67601859Y6164893D01*
X68081399Y5966261D01*
X68590475Y5865000D01*
X69109525Y5865000D01*
X69618601Y5966261D01*
X70098141Y6164893D01*
X70529715Y6453262D01*
X70896738Y6820285D01*
X71185107Y7251859D01*
X71383739Y7731399D01*
X71485000Y8240475D01*
X71485000Y8646260D01*
X72445000Y8646260D01*
X72445000Y8353740D01*
X72502068Y8066842D01*
X72614010Y7796589D01*
X72776525Y7553368D01*
X72983368Y7346525D01*
X73226589Y7184010D01*
X73496842Y7072068D01*
X73783740Y7015000D01*
X73793303Y7015000D01*
X73887673Y6975911D01*
X74193891Y6915000D01*
X74506109Y6915000D01*
X74812327Y6975911D01*
X75100779Y7095391D01*
X75360379Y7268850D01*
X75581150Y7489621D01*
X75754609Y7749221D01*
X75874089Y8037673D01*
X75935000Y8343891D01*
X75935000Y8656109D01*
X75874089Y8962327D01*
X75754609Y9250779D01*
X75581150Y9510379D01*
X75360379Y9731150D01*
X75100779Y9904609D01*
X74812327Y10024089D01*
X74506109Y10085000D01*
X74193891Y10085000D01*
X73887673Y10024089D01*
X73793303Y9985000D01*
X73783740Y9985000D01*
X73496842Y9927932D01*
X73226589Y9815990D01*
X72983368Y9653475D01*
X72776525Y9446632D01*
X72614010Y9203411D01*
X72502068Y8933158D01*
X72445000Y8646260D01*
X71485000Y8646260D01*
X71485000Y8759525D01*
X71383739Y9268601D01*
X71185107Y9748141D01*
X70896738Y10179715D01*
X70529715Y10546738D01*
X70098141Y10835107D01*
X69618601Y11033739D01*
X69109525Y11135000D01*
X68590475Y11135000D01*
X68081399Y11033739D01*
X67601859Y10835107D01*
X67170285Y10546738D01*
X66803262Y10179715D01*
X66514893Y9748141D01*
X66316261Y9268601D01*
X66215000Y8759525D01*
X65775000Y8759525D01*
X65775000Y9304137D01*
X65932882Y9369534D01*
X66241618Y9575825D01*
X66504175Y9838382D01*
X66710466Y10147118D01*
X66852561Y10490166D01*
X66925000Y10854344D01*
X66925000Y11225656D01*
X66852561Y11589834D01*
X66710466Y11932882D01*
X66504175Y12241618D01*
X66241618Y12504175D01*
X65932882Y12710466D01*
X65589834Y12852561D01*
X65225656Y12925000D01*
X64854344Y12925000D01*
X64490166Y12852561D01*
X64147118Y12710466D01*
X63838382Y12504175D01*
X63575825Y12241618D01*
X63369534Y11932882D01*
X63227439Y11589834D01*
X63155000Y11225656D01*
X63155000Y10854344D01*
X63227439Y10490166D01*
X63369534Y10147118D01*
X63411040Y10085000D01*
X63193891Y10085000D01*
X62887673Y10024089D01*
X62599221Y9904609D01*
X62339621Y9731150D01*
X62118850Y9510379D01*
X61945391Y9250779D01*
X61825911Y8962327D01*
X61765000Y8656109D01*
X61765000Y8343891D01*
X61825911Y8037673D01*
X61945391Y7749221D01*
X62118850Y7489621D01*
X62339621Y7268850D01*
X62599221Y7095391D01*
X62887673Y6975911D01*
X63028462Y6947906D01*
X62915555Y6834999D01*
X51856570Y6834999D01*
X52135107Y7251859D01*
X52333739Y7731399D01*
X52435000Y8240475D01*
X52435000Y8646260D01*
X53395000Y8646260D01*
X53395000Y8353740D01*
X53452068Y8066842D01*
X53564010Y7796589D01*
X53726525Y7553368D01*
X53933368Y7346525D01*
X54176589Y7184010D01*
X54446842Y7072068D01*
X54733740Y7015000D01*
X54743303Y7015000D01*
X54837673Y6975911D01*
X55143891Y6915000D01*
X55456109Y6915000D01*
X55762327Y6975911D01*
X56050779Y7095391D01*
X56310379Y7268850D01*
X56531150Y7489621D01*
X56704609Y7749221D01*
X56824089Y8037673D01*
X56885000Y8343891D01*
X56885000Y8656109D01*
X56824089Y8962327D01*
X56704609Y9250779D01*
X56531150Y9510379D01*
X56310379Y9731150D01*
X56050779Y9904609D01*
X55762327Y10024089D01*
X55456109Y10085000D01*
X55143891Y10085000D01*
X54837673Y10024089D01*
X54743303Y9985000D01*
X54733740Y9985000D01*
X54446842Y9927932D01*
X54176589Y9815990D01*
X53933368Y9653475D01*
X53726525Y9446632D01*
X53564010Y9203411D01*
X53452068Y8933158D01*
X53395000Y8646260D01*
X52435000Y8646260D01*
X52435000Y8759525D01*
X52333739Y9268601D01*
X52135107Y9748141D01*
X51846738Y10179715D01*
X51479715Y10546738D01*
X51048141Y10835107D01*
X50568601Y11033739D01*
X50059525Y11135000D01*
X49540475Y11135000D01*
X49031399Y11033739D01*
X48551859Y10835107D01*
X48120285Y10546738D01*
X47753262Y10179715D01*
X47464893Y9748141D01*
X47266261Y9268601D01*
X47165000Y8759525D01*
X47165000Y8622444D01*
X46725000Y9062444D01*
X46725000Y9304137D01*
X46882882Y9369534D01*
X47191618Y9575825D01*
X47454175Y9838382D01*
X47660466Y10147118D01*
X47802561Y10490166D01*
X47875000Y10854344D01*
X47875000Y11225656D01*
X47802561Y11589834D01*
X47660466Y11932882D01*
X47454175Y12241618D01*
X47191618Y12504175D01*
X46882882Y12710466D01*
X46539834Y12852561D01*
X46175656Y12925000D01*
X45804344Y12925000D01*
X45440166Y12852561D01*
X45282283Y12787164D01*
X43684999Y14384447D01*
X43684999Y26089150D01*
X43837673Y26025911D01*
X44143891Y25965000D01*
X44456109Y25965000D01*
X44762327Y26025911D01*
X44856697Y26065000D01*
X44866260Y26065000D01*
X45153158Y26122068D01*
X45423411Y26234010D01*
X45666632Y26396525D01*
X45873475Y26603368D01*
X46035990Y26846589D01*
X46147932Y27116842D01*
X46205000Y27403740D01*
X46205000Y27696260D01*
X46147932Y27983158D01*
X46056042Y28205000D01*
X46175656Y28205000D01*
X46539834Y28277439D01*
X46882882Y28419534D01*
X47191618Y28625825D01*
X47454175Y28888382D01*
X47660466Y29197118D01*
X47802561Y29540166D01*
X47875000Y29904344D01*
X47875000Y30275656D01*
X47802561Y30639834D01*
X47660466Y30982882D01*
X47454175Y31291618D01*
X47191618Y31554175D01*
X46882882Y31760466D01*
X46725000Y31825863D01*
X46725000Y42875893D01*
X46728556Y42911998D01*
X46725000Y42948103D01*
X46725000Y46393552D01*
X47165000Y46833552D01*
X47165000Y46340475D01*
X47266261Y45831399D01*
X47464893Y45351859D01*
X47753262Y44920285D01*
X48120285Y44553262D01*
X48551859Y44264893D01*
X49031399Y44066261D01*
X49540475Y43965000D01*
X50059525Y43965000D01*
X50568601Y44066261D01*
X51048141Y44264893D01*
X51465000Y44543430D01*
X51465001Y35236450D01*
X50195807Y33967255D01*
X50167761Y33944238D01*
X50075912Y33832320D01*
X50007662Y33704633D01*
X49988213Y33640517D01*
X49965634Y33566086D01*
X49951443Y33422001D01*
X49954999Y33385896D01*
X49955000Y30248118D01*
X49951443Y30212003D01*
X49954103Y30185000D01*
X49540475Y30185000D01*
X49031399Y30083739D01*
X48551859Y29885107D01*
X48120285Y29596738D01*
X47753262Y29229715D01*
X47464893Y28798141D01*
X47266261Y28318601D01*
X47165000Y27809525D01*
X47165000Y27290475D01*
X47266261Y26781399D01*
X47464893Y26301859D01*
X47753262Y25870285D01*
X48120285Y25503262D01*
X48551859Y25214893D01*
X49031399Y25016261D01*
X49540475Y24915000D01*
X50059525Y24915000D01*
X50568601Y25016261D01*
X51048141Y25214893D01*
X51479715Y25503262D01*
X51605000Y25628547D01*
X51605001Y15383880D01*
X51605000Y15383870D01*
X51605000Y15315863D01*
X51447118Y15250466D01*
X51138382Y15044175D01*
X50875825Y14781618D01*
X50669534Y14472882D01*
X50527439Y14129834D01*
X50455000Y13765656D01*
X50455000Y13394344D01*
X50527439Y13030166D01*
X50669534Y12687118D01*
X50875825Y12378382D01*
X51138382Y12115825D01*
X51447118Y11909534D01*
X51790166Y11767439D01*
X52154344Y11695000D01*
X52525656Y11695000D01*
X52889834Y11767439D01*
X53232882Y11909534D01*
X53541618Y12115825D01*
X53804175Y12378382D01*
X54010466Y12687118D01*
X54152561Y13030166D01*
X54225000Y13394344D01*
X54225000Y13765656D01*
X54152561Y14129834D01*
X54010466Y14472882D01*
X53804175Y14781618D01*
X53541618Y15044175D01*
X53232882Y15250466D01*
X53075000Y15315863D01*
X53075000Y18314449D01*
X56665000Y18314449D01*
X56665000Y17785551D01*
X56768183Y17266814D01*
X56970583Y16778175D01*
X57264424Y16338412D01*
X57638412Y15964424D01*
X58078175Y15670583D01*
X58566814Y15468183D01*
X59085551Y15365000D01*
X59614449Y15365000D01*
X60133186Y15468183D01*
X60621825Y15670583D01*
X61061588Y15964424D01*
X61435576Y16338412D01*
X61729417Y16778175D01*
X61931817Y17266814D01*
X62035000Y17785551D01*
X62035000Y18314449D01*
X61931817Y18833186D01*
X61729417Y19321825D01*
X61435576Y19761588D01*
X61061588Y20135576D01*
X60621825Y20429417D01*
X60133186Y20631817D01*
X59614449Y20735000D01*
X59085551Y20735000D01*
X58566814Y20631817D01*
X58078175Y20429417D01*
X57638412Y20135576D01*
X57264424Y19761588D01*
X56970583Y19321825D01*
X56768183Y18833186D01*
X56665000Y18314449D01*
X53075000Y18314449D01*
X53075000Y27696260D01*
X53395000Y27696260D01*
X53395000Y27403740D01*
X53452068Y27116842D01*
X53564010Y26846589D01*
X53726525Y26603368D01*
X53933368Y26396525D01*
X54176589Y26234010D01*
X54446842Y26122068D01*
X54733740Y26065000D01*
X54743303Y26065000D01*
X54837673Y26025911D01*
X55143891Y25965000D01*
X55456109Y25965000D01*
X55762327Y26025911D01*
X56050779Y26145391D01*
X56310379Y26318850D01*
X56531150Y26539621D01*
X56704609Y26799221D01*
X56824089Y27087673D01*
X56885000Y27393891D01*
X56885000Y27706109D01*
X56824089Y28012327D01*
X56704609Y28300779D01*
X56531150Y28560379D01*
X56310379Y28781150D01*
X56050779Y28954609D01*
X55762327Y29074089D01*
X55456109Y29135000D01*
X55143891Y29135000D01*
X54837673Y29074089D01*
X54743303Y29035000D01*
X54733740Y29035000D01*
X54446842Y28977932D01*
X54176589Y28865990D01*
X53933368Y28703475D01*
X53726525Y28496632D01*
X53564010Y28253411D01*
X53452068Y27983158D01*
X53395000Y27696260D01*
X53075000Y27696260D01*
X53075000Y28525897D01*
X53078556Y28562002D01*
X53064365Y28706087D01*
X53041595Y28781150D01*
X53022337Y28844635D01*
X52954087Y28972322D01*
X52902648Y29035000D01*
X52885253Y29056196D01*
X52885250Y29056199D01*
X52862237Y29084240D01*
X52834197Y29107252D01*
X51424999Y30516449D01*
X51424999Y30974313D01*
X51447118Y30959534D01*
X51790166Y30817439D01*
X52154344Y30745000D01*
X52525656Y30745000D01*
X52889834Y30817439D01*
X53232882Y30959534D01*
X53541618Y31165825D01*
X53804175Y31428382D01*
X54010466Y31737118D01*
X54152561Y32080166D01*
X54225000Y32444344D01*
X54225000Y32815656D01*
X54152561Y33179834D01*
X54010466Y33522882D01*
X53804175Y33831618D01*
X53541618Y34094175D01*
X53277858Y34270414D01*
X53314097Y34314572D01*
X53382347Y34442259D01*
X53424375Y34580807D01*
X53435010Y34688787D01*
X53438566Y34724891D01*
X53435010Y34760996D01*
X53435010Y37364449D01*
X56665000Y37364449D01*
X56665000Y36835551D01*
X56768183Y36316814D01*
X56970583Y35828175D01*
X57264424Y35388412D01*
X57638412Y35014424D01*
X58078175Y34720583D01*
X58566814Y34518183D01*
X59085551Y34415000D01*
X59614449Y34415000D01*
X60133186Y34518183D01*
X60621825Y34720583D01*
X61061588Y35014424D01*
X61435576Y35388412D01*
X61729417Y35828175D01*
X61931817Y36316814D01*
X62035000Y36835551D01*
X62035000Y37364449D01*
X61931817Y37883186D01*
X61729417Y38371825D01*
X61435576Y38811588D01*
X61061588Y39185576D01*
X60621825Y39479417D01*
X60133186Y39681817D01*
X59614449Y39785000D01*
X59085551Y39785000D01*
X58566814Y39681817D01*
X58078175Y39479417D01*
X57638412Y39185576D01*
X57264424Y38811588D01*
X56970583Y38371825D01*
X56768183Y37883186D01*
X56665000Y37364449D01*
X53435010Y37364449D01*
X53435010Y46252598D01*
X53452068Y46166842D01*
X53564010Y45896589D01*
X53726525Y45653368D01*
X53933368Y45446525D01*
X54176589Y45284010D01*
X54446842Y45172068D01*
X54733740Y45115000D01*
X54743303Y45115000D01*
X54837673Y45075911D01*
X55143891Y45015000D01*
X55456109Y45015000D01*
X55762327Y45075911D01*
X56050779Y45195391D01*
X56310379Y45368850D01*
X56531150Y45589621D01*
X56704609Y45849221D01*
X56824089Y46137673D01*
X56885000Y46443891D01*
X56885000Y46756109D01*
X56824089Y47062327D01*
X56704609Y47350779D01*
X56531150Y47610379D01*
X56310379Y47831150D01*
X56050779Y48004609D01*
X55762327Y48124089D01*
X55456109Y48185000D01*
X55143891Y48185000D01*
X54837673Y48124089D01*
X54743303Y48085000D01*
X54733740Y48085000D01*
X54446842Y48027932D01*
X54176589Y47915990D01*
X53933368Y47753475D01*
X53726525Y47546632D01*
X53564010Y47303411D01*
X53452068Y47033158D01*
X53435010Y46947402D01*
X53435010Y47923007D01*
X53438566Y47959112D01*
X53424375Y48103197D01*
X53406440Y48162321D01*
X53382347Y48241745D01*
X53314097Y48369432D01*
X53260829Y48434338D01*
X53245263Y48453306D01*
X53245260Y48453309D01*
X53222247Y48481350D01*
X53194207Y48504362D01*
X51841301Y49857268D01*
X52154344Y49795000D01*
X52525656Y49795000D01*
X52889834Y49867439D01*
X53232882Y50009534D01*
X53541618Y50215825D01*
X53804175Y50478382D01*
X54010466Y50787118D01*
X54152561Y51130166D01*
X54225000Y51494344D01*
X54225000Y51865656D01*
X54210823Y51936928D01*
X55402500Y51936928D01*
X55526982Y51949188D01*
X55646680Y51985498D01*
X55756994Y52044463D01*
X55853685Y52123815D01*
X55933037Y52220506D01*
X55992002Y52330820D01*
X56028312Y52450518D01*
X56040572Y52575000D01*
X56040572Y53440001D01*
X56513433Y53440001D01*
X61065002Y48888431D01*
X61065001Y46188102D01*
X61061445Y46151997D01*
X61065001Y46115893D01*
X61075636Y46007913D01*
X61117664Y45869365D01*
X61185914Y45741678D01*
X61277763Y45629760D01*
X61305809Y45606743D01*
X64305001Y42607550D01*
X64305000Y31825863D01*
X64147118Y31760466D01*
X63838382Y31554175D01*
X63575825Y31291618D01*
X63369534Y30982882D01*
X63227439Y30639834D01*
X63155000Y30275656D01*
X63155000Y29904344D01*
X63227439Y29540166D01*
X63369534Y29197118D01*
X63411040Y29135000D01*
X63193891Y29135000D01*
X62887673Y29074089D01*
X62599221Y28954609D01*
X62339621Y28781150D01*
X62118850Y28560379D01*
X61945391Y28300779D01*
X61825911Y28012327D01*
X61765000Y27706109D01*
X61765000Y27393891D01*
X61825911Y27087673D01*
X61945391Y26799221D01*
X62118850Y26539621D01*
X62339621Y26318850D01*
X62599221Y26145391D01*
X62887673Y26025911D01*
X63193891Y25965000D01*
X63506109Y25965000D01*
X63812327Y26025911D01*
X63906697Y26065000D01*
X63916260Y26065000D01*
X64203158Y26122068D01*
X64473411Y26234010D01*
X64716632Y26396525D01*
X64923475Y26603368D01*
X65085990Y26846589D01*
X65197932Y27116842D01*
X65255000Y27403740D01*
X65255000Y27696260D01*
X65197932Y27983158D01*
X65106042Y28205000D01*
X65225656Y28205000D01*
X65589834Y28277439D01*
X65932882Y28419534D01*
X66241618Y28625825D01*
X66504175Y28888382D01*
X66710466Y29197118D01*
X66852561Y29540166D01*
X66925000Y29904344D01*
X66925000Y30275656D01*
X66852561Y30639834D01*
X66710466Y30982882D01*
X66504175Y31291618D01*
X66241618Y31554175D01*
X65932882Y31760466D01*
X65775000Y31825863D01*
X65775000Y42875893D01*
X65778556Y42911998D01*
X65764365Y43056083D01*
X65722337Y43194632D01*
X65654087Y43322318D01*
X65585253Y43406192D01*
X65562238Y43434236D01*
X65534193Y43457252D01*
X63885305Y45106139D01*
X63906697Y45115000D01*
X63916260Y45115000D01*
X64203158Y45172068D01*
X64473411Y45284010D01*
X64716632Y45446525D01*
X64923475Y45653368D01*
X65085990Y45896589D01*
X65197932Y46166842D01*
X65255000Y46453740D01*
X65255000Y46746260D01*
X65197932Y47033158D01*
X65106042Y47255000D01*
X65225656Y47255000D01*
X65589834Y47327439D01*
X65932882Y47469534D01*
X66241618Y47675825D01*
X66504175Y47938382D01*
X66710466Y48247118D01*
X66852561Y48590166D01*
X66925000Y48954344D01*
X66925000Y49325656D01*
X66852561Y49689834D01*
X66710466Y50032882D01*
X66504175Y50341618D01*
X66241618Y50604175D01*
X65932882Y50810466D01*
X65589834Y50952561D01*
X65225656Y51025000D01*
X64854344Y51025000D01*
X64490166Y50952561D01*
X64147118Y50810466D01*
X63838382Y50604175D01*
X63575825Y50341618D01*
X63369534Y50032882D01*
X63304137Y49875000D01*
X62864447Y49875000D01*
X59274446Y53465000D01*
X59614449Y53465000D01*
X60133186Y53568183D01*
X60621825Y53770583D01*
X60628435Y53775000D01*
X62614428Y53775000D01*
X62614428Y52575000D01*
X62626688Y52450518D01*
X62662998Y52330820D01*
X62721963Y52220506D01*
X62801315Y52123815D01*
X62898006Y52044463D01*
X63008320Y51985498D01*
X63128018Y51949188D01*
X63252500Y51936928D01*
X64452500Y51936928D01*
X64576982Y51949188D01*
X64696680Y51985498D01*
X64806994Y52044463D01*
X64903685Y52123815D01*
X64983037Y52220506D01*
X65042002Y52330820D01*
X65075121Y52440000D01*
X65522556Y52440000D01*
X68727555Y49235000D01*
X68590475Y49235000D01*
X68081399Y49133739D01*
X67601859Y48935107D01*
X67170285Y48646738D01*
X66803262Y48279715D01*
X66514893Y47848141D01*
X66316261Y47368601D01*
X66215000Y46859525D01*
X66215000Y46340475D01*
X66316261Y45831399D01*
X66514893Y45351859D01*
X66803262Y44920285D01*
X67170285Y44553262D01*
X67601859Y44264893D01*
X68081399Y44066261D01*
X68590475Y43965000D01*
X69109525Y43965000D01*
X69618601Y44066261D01*
X70098141Y44264893D01*
X70154990Y44302878D01*
X70154991Y34876440D01*
X69245807Y33967255D01*
X69217761Y33944238D01*
X69125912Y33832320D01*
X69057662Y33704633D01*
X69038213Y33640517D01*
X69015634Y33566086D01*
X69001443Y33422001D01*
X69004999Y33385896D01*
X69005000Y31874114D01*
X69001443Y31837999D01*
X69015634Y31693914D01*
X69037549Y31621672D01*
X69057663Y31555366D01*
X69125913Y31427679D01*
X69217762Y31315761D01*
X69245807Y31292745D01*
X71465000Y29073551D01*
X71465000Y27910072D01*
X71383739Y28318601D01*
X71185107Y28798141D01*
X70896738Y29229715D01*
X70529715Y29596738D01*
X70098141Y29885107D01*
X69618601Y30083739D01*
X69109525Y30185000D01*
X68590475Y30185000D01*
X68081399Y30083739D01*
X67601859Y29885107D01*
X67170285Y29596738D01*
X66803262Y29229715D01*
X66514893Y28798141D01*
X66316261Y28318601D01*
X66215000Y27809525D01*
X66215000Y27290475D01*
X66316261Y26781399D01*
X66514893Y26301859D01*
X66803262Y25870285D01*
X67170285Y25503262D01*
X67601859Y25214893D01*
X68081399Y25016261D01*
X68590475Y24915000D01*
X69109525Y24915000D01*
X69618601Y25016261D01*
X70098141Y25214893D01*
X70529715Y25503262D01*
X70896738Y25870285D01*
X71185107Y26301859D01*
X71383739Y26781399D01*
X71465000Y27189928D01*
X71465001Y15465000D01*
X71204344Y15465000D01*
X70840166Y15392561D01*
X70497118Y15250466D01*
X70188382Y15044175D01*
X69925825Y14781618D01*
X69719534Y14472882D01*
X69577439Y14129834D01*
X69505000Y13765656D01*
X69505000Y13394344D01*
X69577439Y13030166D01*
X69719534Y12687118D01*
X69925825Y12378382D01*
X70188382Y12115825D01*
X70497118Y11909534D01*
X70840166Y11767439D01*
X71204344Y11695000D01*
X71575656Y11695000D01*
X71939834Y11767439D01*
X72282882Y11909534D01*
X72591618Y12115825D01*
X72854175Y12378382D01*
X73060466Y12687118D01*
X73202561Y13030166D01*
X73275000Y13394344D01*
X73275000Y13765656D01*
X73202561Y14129834D01*
X73060466Y14472882D01*
X72935000Y14660655D01*
X72935000Y26444893D01*
X72983368Y26396525D01*
X73226589Y26234010D01*
X73496842Y26122068D01*
X73783740Y26065000D01*
X73793303Y26065000D01*
X73887673Y26025911D01*
X74193891Y25965000D01*
X74506109Y25965000D01*
X74812327Y26025911D01*
X75100779Y26145391D01*
X75360379Y26318850D01*
X75581150Y26539621D01*
X75754609Y26799221D01*
X75874089Y27087673D01*
X75935000Y27393891D01*
X75935000Y27706109D01*
X75874089Y28012327D01*
X75754609Y28300779D01*
X75581150Y28560379D01*
X75360379Y28781150D01*
X75100779Y28954609D01*
X74812327Y29074089D01*
X74506109Y29135000D01*
X74193891Y29135000D01*
X73887673Y29074089D01*
X73793303Y29035000D01*
X73783740Y29035000D01*
X73496842Y28977932D01*
X73226589Y28865990D01*
X72983368Y28703475D01*
X72935000Y28655107D01*
X72935000Y29341893D01*
X72938556Y29377998D01*
X72924365Y29522083D01*
X72910508Y29567763D01*
X72882337Y29660631D01*
X72814087Y29788318D01*
X72745253Y29872192D01*
X72745250Y29872195D01*
X72722237Y29900236D01*
X72694197Y29923248D01*
X71823205Y30794240D01*
X71939834Y30817439D01*
X72282882Y30959534D01*
X72591618Y31165825D01*
X72854175Y31428382D01*
X73060466Y31737118D01*
X73202561Y32080166D01*
X73275000Y32444344D01*
X73275000Y32815656D01*
X73202561Y33179834D01*
X73060466Y33522882D01*
X72854175Y33831618D01*
X72591618Y34094175D01*
X72282882Y34300466D01*
X72125000Y34365863D01*
X72125000Y44678434D01*
X72244201Y44797635D01*
X72272246Y44820651D01*
X72364096Y44932569D01*
X72414978Y45027763D01*
X72432346Y45060255D01*
X72474374Y45198804D01*
X72488565Y45342889D01*
X72485009Y45378994D01*
X72485009Y46013886D01*
X72485011Y46013906D01*
X72488567Y46050011D01*
X72485011Y46086116D01*
X72485011Y46252593D01*
X72502068Y46166842D01*
X72614010Y45896589D01*
X72776525Y45653368D01*
X72983368Y45446525D01*
X73226589Y45284010D01*
X73496842Y45172068D01*
X73783740Y45115000D01*
X73793303Y45115000D01*
X73887673Y45075911D01*
X74193891Y45015000D01*
X74506109Y45015000D01*
X74812327Y45075911D01*
X75100779Y45195391D01*
X75360379Y45368850D01*
X75581150Y45589621D01*
X75754609Y45849221D01*
X75874089Y46137673D01*
X75935000Y46443891D01*
X75935000Y46756109D01*
X75874089Y47062327D01*
X75754609Y47350779D01*
X75581150Y47610379D01*
X75360379Y47831150D01*
X75100779Y48004609D01*
X74812327Y48124089D01*
X74506109Y48185000D01*
X74193891Y48185000D01*
X73887673Y48124089D01*
X73793303Y48085000D01*
X73783740Y48085000D01*
X73496842Y48027932D01*
X73226589Y47915990D01*
X72983368Y47753475D01*
X72776525Y47546632D01*
X72614010Y47303411D01*
X72502068Y47033158D01*
X72485011Y46947407D01*
X72485011Y47923017D01*
X72488566Y47959112D01*
X72485011Y47995207D01*
X72485011Y47995216D01*
X72474376Y48103196D01*
X72432348Y48241744D01*
X72364098Y48369431D01*
X72337825Y48401444D01*
X72295264Y48453305D01*
X72295261Y48453308D01*
X72272248Y48481349D01*
X72244208Y48504361D01*
X70891301Y49857268D01*
X71204344Y49795000D01*
X71575656Y49795000D01*
X71939834Y49867439D01*
X72282882Y50009534D01*
X72591618Y50215825D01*
X72854175Y50478382D01*
X73060466Y50787118D01*
X73202561Y51130166D01*
X73275000Y51494344D01*
X73275000Y51865656D01*
X73260823Y51936928D01*
X74452500Y51936928D01*
X74576982Y51949188D01*
X74696680Y51985498D01*
X74806994Y52044463D01*
X74903685Y52123815D01*
X74983037Y52220506D01*
X75042002Y52330820D01*
X75078312Y52450518D01*
X75090572Y52575000D01*
X75090572Y53775000D01*
X75078312Y53899482D01*
X75042002Y54019180D01*
X74983037Y54129494D01*
X74903685Y54226185D01*
X74806994Y54305537D01*
X74696680Y54364502D01*
X74576982Y54400812D01*
X74452500Y54413072D01*
X73252500Y54413072D01*
X73128018Y54400812D01*
X73008320Y54364502D01*
X72898006Y54305537D01*
X72801315Y54226185D01*
X72721963Y54129494D01*
X72662998Y54019180D01*
X72626688Y53899482D01*
X72623158Y53863644D01*
X72602367Y53857337D01*
X72474680Y53789087D01*
X72362762Y53697238D01*
X72339746Y53669193D01*
X72097717Y53427164D01*
X71939834Y53492561D01*
X71575656Y53565000D01*
X71204344Y53565000D01*
X70840166Y53492561D01*
X70497118Y53350466D01*
X70188382Y53144175D01*
X70090572Y53046365D01*
X70090572Y53775000D01*
X70078312Y53899482D01*
X70042002Y54019180D01*
X69983037Y54129494D01*
X69903685Y54226185D01*
X69806994Y54305537D01*
X69696680Y54364502D01*
X69576982Y54400812D01*
X69452500Y54413072D01*
X68252500Y54413072D01*
X68128018Y54400812D01*
X68008320Y54364502D01*
X67898006Y54305537D01*
X67801315Y54226185D01*
X67721963Y54129494D01*
X67662998Y54019180D01*
X67626688Y53899482D01*
X67614428Y53775000D01*
X67614428Y52575000D01*
X67626688Y52450518D01*
X67642258Y52399190D01*
X66372261Y53669187D01*
X66349240Y53697238D01*
X66237322Y53789087D01*
X66109635Y53857337D01*
X65971087Y53899365D01*
X65863107Y53910000D01*
X65827002Y53913556D01*
X65790897Y53910000D01*
X65075121Y53910000D01*
X65042002Y54019180D01*
X64983037Y54129494D01*
X64903685Y54226185D01*
X64806994Y54305537D01*
X64696680Y54364502D01*
X64576982Y54400812D01*
X64452500Y54413072D01*
X63252500Y54413072D01*
X63128018Y54400812D01*
X63008320Y54364502D01*
X62898006Y54305537D01*
X62801315Y54226185D01*
X62721963Y54129494D01*
X62662998Y54019180D01*
X62626688Y53899482D01*
X62614428Y53775000D01*
X60628435Y53775000D01*
X61061588Y54064424D01*
X61435576Y54438412D01*
X61729417Y54878175D01*
X61931817Y55366814D01*
X62035000Y55885551D01*
X62035000Y56414449D01*
X61931817Y56933186D01*
X61729417Y57421825D01*
X61435576Y57861588D01*
X61061588Y58235576D01*
X60621825Y58529417D01*
X60133186Y58731817D01*
X59614449Y58835000D01*
X59448444Y58835000D01*
X62760942Y62147497D01*
X62816394Y62147497D01*
X62852499Y62143941D01*
X62888604Y62147497D01*
X62996584Y62158132D01*
X63135132Y62200160D01*
X63262819Y62268410D01*
X63374737Y62360259D01*
X63397757Y62388309D01*
X65534193Y64524744D01*
X65562238Y64547760D01*
X65654087Y64659678D01*
X65688684Y64724404D01*
X65722337Y64787364D01*
X65764365Y64925913D01*
X65778556Y65069998D01*
X65775000Y65106103D01*
X65775000Y66454137D01*
X65932882Y66519534D01*
X66241618Y66725825D01*
X66504175Y66988382D01*
X66710466Y67297118D01*
X66852561Y67640166D01*
X66925000Y68004344D01*
X66925000Y68375656D01*
X66852561Y68739834D01*
X66710466Y69082882D01*
X66504175Y69391618D01*
X66241618Y69654175D01*
X65932882Y69860466D01*
X65589834Y70002561D01*
X65225656Y70075000D01*
X64854344Y70075000D01*
X64490166Y70002561D01*
X64147118Y69860466D01*
X63838382Y69654175D01*
X63575825Y69391618D01*
X63369534Y69082882D01*
X63227439Y68739834D01*
X63155000Y68375656D01*
X63155000Y68004344D01*
X63227439Y67640166D01*
X63369534Y67297118D01*
X63411040Y67235000D01*
X63193891Y67235000D01*
X62887673Y67174089D01*
X62599221Y67054609D01*
X62339621Y66881150D01*
X62118850Y66660379D01*
X61945391Y66400779D01*
X61825911Y66112327D01*
X61765000Y65806109D01*
X61765000Y65493891D01*
X61825911Y65187673D01*
X61945391Y64899221D01*
X62118850Y64639621D01*
X62339621Y64418850D01*
X62599221Y64245391D01*
X62887673Y64125911D01*
X63028462Y64097906D01*
X62548053Y63617497D01*
X62492591Y63617497D01*
X62456494Y63621052D01*
X62420397Y63617497D01*
X62420390Y63617497D01*
X62326627Y63608262D01*
X62312409Y63606862D01*
X62300542Y63603262D01*
X62173862Y63564834D01*
X62046175Y63496584D01*
X61934257Y63404735D01*
X61911241Y63376690D01*
X57385001Y58850449D01*
X57385001Y68825907D01*
X57388556Y68862002D01*
X57385001Y68898097D01*
X57385001Y68898106D01*
X57374366Y69006086D01*
X57332338Y69144634D01*
X57264088Y69272321D01*
X57217662Y69328891D01*
X57195254Y69356195D01*
X57195251Y69356198D01*
X57172238Y69384239D01*
X57144198Y69407251D01*
X53677260Y72874188D01*
X53654239Y72902239D01*
X53542321Y72994088D01*
X53414634Y73062338D01*
X53276086Y73104366D01*
X53168106Y73115001D01*
X53132001Y73118557D01*
X53095896Y73115001D01*
X51584093Y73115001D01*
X51547998Y73118556D01*
X51511903Y73115001D01*
X51511894Y73115001D01*
X51403914Y73104366D01*
X51265366Y73062338D01*
X51137679Y72994088D01*
X51025761Y72902239D01*
X51002745Y72874194D01*
X50648581Y72520029D01*
X47359540Y72520029D01*
X44415120Y75464449D01*
X56665000Y75464449D01*
X56665000Y74935551D01*
X56768183Y74416814D01*
X56970583Y73928175D01*
X57264424Y73488412D01*
X57638412Y73114424D01*
X58078175Y72820583D01*
X58566814Y72618183D01*
X59085551Y72515000D01*
X59614449Y72515000D01*
X60133186Y72618183D01*
X60621825Y72820583D01*
X61061588Y73114424D01*
X61435576Y73488412D01*
X61729417Y73928175D01*
X61931817Y74416814D01*
X62035000Y74935551D01*
X62035000Y75464449D01*
X61931817Y75983186D01*
X61729417Y76471825D01*
X61435576Y76911588D01*
X61061588Y77285576D01*
X60621825Y77579417D01*
X60133186Y77781817D01*
X59614449Y77885000D01*
X59085551Y77885000D01*
X58566814Y77781817D01*
X58078175Y77579417D01*
X57638412Y77285576D01*
X57264424Y76911588D01*
X56970583Y76471825D01*
X56768183Y75983186D01*
X56665000Y75464449D01*
X44415120Y75464449D01*
X43305020Y76574548D01*
X43305020Y83458561D01*
X43549221Y83295391D01*
X43837673Y83175911D01*
X44143891Y83115000D01*
X44456109Y83115000D01*
X44762327Y83175911D01*
X44856697Y83215000D01*
X44866260Y83215000D01*
X45153158Y83272068D01*
X45423411Y83384010D01*
X45666632Y83546525D01*
X45873475Y83753368D01*
X46035990Y83996589D01*
X46147932Y84266842D01*
X46205000Y84553740D01*
X46205000Y84846260D01*
X46147932Y85133158D01*
X46056042Y85355000D01*
X46175656Y85355000D01*
X46539834Y85427439D01*
X46882882Y85569534D01*
X47191618Y85775825D01*
X47454175Y86038382D01*
X47660466Y86347118D01*
X47725863Y86505000D01*
X47878547Y86505000D01*
X47753262Y86379715D01*
X47464893Y85948141D01*
X47266261Y85468601D01*
X47165000Y84959525D01*
X47165000Y84440475D01*
X47266261Y83931399D01*
X47464893Y83451859D01*
X47753262Y83020285D01*
X48120285Y82653262D01*
X48551859Y82364893D01*
X49031399Y82166261D01*
X49540475Y82065000D01*
X50059525Y82065000D01*
X50568601Y82166261D01*
X51048141Y82364893D01*
X51479715Y82653262D01*
X51846738Y83020285D01*
X52135107Y83451859D01*
X52333739Y83931399D01*
X52435000Y84440475D01*
X52435000Y84846260D01*
X53395000Y84846260D01*
X53395000Y84553740D01*
X53452068Y84266842D01*
X53564010Y83996589D01*
X53726525Y83753368D01*
X53933368Y83546525D01*
X54176589Y83384010D01*
X54446842Y83272068D01*
X54733740Y83215000D01*
X54743303Y83215000D01*
X54837673Y83175911D01*
X55143891Y83115000D01*
X55456109Y83115000D01*
X55762327Y83175911D01*
X56050779Y83295391D01*
X56310379Y83468850D01*
X56531150Y83689621D01*
X56704609Y83949221D01*
X56824089Y84237673D01*
X56885000Y84543891D01*
X56885000Y84856109D01*
X56824089Y85162327D01*
X56704609Y85450779D01*
X56531150Y85710379D01*
X56310379Y85931150D01*
X56050779Y86104609D01*
X55762327Y86224089D01*
X55456109Y86285000D01*
X55143891Y86285000D01*
X54837673Y86224089D01*
X54743303Y86185000D01*
X54733740Y86185000D01*
X54446842Y86127932D01*
X54176589Y86015990D01*
X53933368Y85853475D01*
X53726525Y85646632D01*
X53564010Y85403411D01*
X53452068Y85133158D01*
X53395000Y84846260D01*
X52435000Y84846260D01*
X52435000Y84959525D01*
X52333739Y85468601D01*
X52135107Y85948141D01*
X51846738Y86379715D01*
X51721453Y86505000D01*
X63304137Y86505000D01*
X63369534Y86347118D01*
X63411040Y86285000D01*
X63193891Y86285000D01*
X62887673Y86224089D01*
X62599221Y86104609D01*
X62339621Y85931150D01*
X62118850Y85710379D01*
X61945391Y85450779D01*
X61825911Y85162327D01*
X61765000Y84856109D01*
X61765000Y84543891D01*
X61825911Y84237673D01*
X61945391Y83949221D01*
X62118850Y83689621D01*
X62339621Y83468850D01*
X62599221Y83295391D01*
X62887673Y83175911D01*
X63193891Y83115000D01*
X63506109Y83115000D01*
X63812327Y83175911D01*
X63906697Y83215000D01*
X63916260Y83215000D01*
X64203158Y83272068D01*
X64473411Y83384010D01*
X64716632Y83546525D01*
X64923475Y83753368D01*
X65085990Y83996589D01*
X65197932Y84266842D01*
X65255000Y84553740D01*
X65255000Y84846260D01*
X65197932Y85133158D01*
X65106042Y85355000D01*
X65225656Y85355000D01*
X65589834Y85427439D01*
X65932882Y85569534D01*
X66241618Y85775825D01*
X66504175Y86038382D01*
X66710466Y86347118D01*
X66852561Y86690166D01*
X66925000Y87054344D01*
X66925000Y87425656D01*
X66852561Y87789834D01*
X66710466Y88132882D01*
X66622187Y88265000D01*
X67797556Y88265000D01*
X68727556Y87335000D01*
X68590475Y87335000D01*
X68081399Y87233739D01*
X67601859Y87035107D01*
X67170285Y86746738D01*
X66803262Y86379715D01*
X66514893Y85948141D01*
X66316261Y85468601D01*
X66215000Y84959525D01*
X66215000Y84440475D01*
X66316261Y83931399D01*
X66514893Y83451859D01*
X66803262Y83020285D01*
X67170285Y82653262D01*
X67601859Y82364893D01*
X68081399Y82166261D01*
X68590475Y82065000D01*
X69109525Y82065000D01*
X69618601Y82166261D01*
X70098141Y82364893D01*
X70515002Y82643431D01*
X70515001Y74043570D01*
X68745797Y72274365D01*
X68717752Y72251349D01*
X68625903Y72139431D01*
X68563977Y72023575D01*
X68557653Y72011744D01*
X68515624Y71873196D01*
X68501433Y71729111D01*
X68504990Y71692996D01*
X68504989Y68848118D01*
X68501433Y68812013D01*
X68513418Y68690328D01*
X68515624Y68667929D01*
X68557652Y68529381D01*
X68625902Y68401694D01*
X68717751Y68289776D01*
X68723570Y68285000D01*
X68590475Y68285000D01*
X68081399Y68183739D01*
X67601859Y67985107D01*
X67170285Y67696738D01*
X66803262Y67329715D01*
X66514893Y66898141D01*
X66316261Y66418601D01*
X66215000Y65909525D01*
X66215000Y65390475D01*
X66316261Y64881399D01*
X66514893Y64401859D01*
X66803262Y63970285D01*
X66910475Y63863072D01*
X65752500Y63863072D01*
X65628018Y63850812D01*
X65508320Y63814502D01*
X65398006Y63755537D01*
X65301315Y63676185D01*
X65221963Y63579494D01*
X65162998Y63469180D01*
X65126688Y63349482D01*
X65114428Y63225000D01*
X65114428Y63216311D01*
X65030262Y63147238D01*
X65007246Y63119193D01*
X63358308Y61470254D01*
X63330262Y61447237D01*
X63238413Y61335319D01*
X63170163Y61207632D01*
X63150886Y61144084D01*
X63128135Y61069085D01*
X63113944Y60925000D01*
X63117500Y60888895D01*
X63117501Y57947622D01*
X63008320Y57914502D01*
X62898006Y57855537D01*
X62801315Y57776185D01*
X62721963Y57679494D01*
X62662998Y57569180D01*
X62626688Y57449482D01*
X62614428Y57325000D01*
X62614428Y56125000D01*
X62626688Y56000518D01*
X62662998Y55880820D01*
X62721963Y55770506D01*
X62801315Y55673815D01*
X62898006Y55594463D01*
X63008320Y55535498D01*
X63128018Y55499188D01*
X63252500Y55486928D01*
X64452500Y55486928D01*
X64576982Y55499188D01*
X64696680Y55535498D01*
X64806994Y55594463D01*
X64903685Y55673815D01*
X64983037Y55770506D01*
X65042002Y55880820D01*
X65075121Y55990000D01*
X67629879Y55990000D01*
X67662998Y55880820D01*
X67721963Y55770506D01*
X67801315Y55673815D01*
X67898006Y55594463D01*
X68008320Y55535498D01*
X68128018Y55499188D01*
X68252500Y55486928D01*
X69452500Y55486928D01*
X69576982Y55499188D01*
X69696680Y55535498D01*
X69806994Y55594463D01*
X69903685Y55673815D01*
X69983037Y55770506D01*
X70042002Y55880820D01*
X70075121Y55990000D01*
X72629879Y55990000D01*
X72662998Y55880820D01*
X72721963Y55770506D01*
X72801315Y55673815D01*
X72898006Y55594463D01*
X73008320Y55535498D01*
X73128018Y55499188D01*
X73252500Y55486928D01*
X74452500Y55486928D01*
X74576982Y55499188D01*
X74696680Y55535498D01*
X74806994Y55594463D01*
X74903685Y55673815D01*
X74983037Y55770506D01*
X75042002Y55880820D01*
X75078312Y56000518D01*
X75090572Y56125000D01*
X75090572Y57325000D01*
X75078312Y57449482D01*
X75042002Y57569180D01*
X74983037Y57679494D01*
X74903685Y57776185D01*
X74806994Y57855537D01*
X74696680Y57914502D01*
X74576982Y57950812D01*
X74452500Y57963072D01*
X73252500Y57963072D01*
X73128018Y57950812D01*
X73008320Y57914502D01*
X72898006Y57855537D01*
X72801315Y57776185D01*
X72721963Y57679494D01*
X72662998Y57569180D01*
X72629879Y57460000D01*
X70075121Y57460000D01*
X70042002Y57569180D01*
X69983037Y57679494D01*
X69903685Y57776185D01*
X69806994Y57855537D01*
X69696680Y57914502D01*
X69576982Y57950812D01*
X69452500Y57963072D01*
X68252500Y57963072D01*
X68128018Y57950812D01*
X68008320Y57914502D01*
X67898006Y57855537D01*
X67801315Y57776185D01*
X67721963Y57679494D01*
X67662998Y57569180D01*
X67629879Y57460000D01*
X65075121Y57460000D01*
X65042002Y57569180D01*
X64983037Y57679494D01*
X64903685Y57776185D01*
X64806994Y57855537D01*
X64696680Y57914502D01*
X64587500Y57947621D01*
X64587500Y60620554D01*
X65439324Y61472378D01*
X65508320Y61435498D01*
X65628018Y61399188D01*
X65752500Y61386928D01*
X66952500Y61386928D01*
X67076982Y61399188D01*
X67196680Y61435498D01*
X67306994Y61494463D01*
X67403685Y61573815D01*
X67483037Y61670506D01*
X67542002Y61780820D01*
X67575121Y61890000D01*
X70129879Y61890000D01*
X70162998Y61780820D01*
X70221963Y61670506D01*
X70301315Y61573815D01*
X70398006Y61494463D01*
X70508320Y61435498D01*
X70628018Y61399188D01*
X70752500Y61386928D01*
X70994984Y61386928D01*
X70418057Y60810001D01*
X68188606Y60810001D01*
X68152501Y60813557D01*
X68008415Y60799366D01*
X67966387Y60786617D01*
X67869868Y60757338D01*
X67742181Y60689088D01*
X67630263Y60597239D01*
X67607247Y60569194D01*
X67265676Y60227622D01*
X67196680Y60264502D01*
X67076982Y60300812D01*
X66952500Y60313072D01*
X65752500Y60313072D01*
X65628018Y60300812D01*
X65508320Y60264502D01*
X65398006Y60205537D01*
X65301315Y60126185D01*
X65221963Y60029494D01*
X65162998Y59919180D01*
X65126688Y59799482D01*
X65114428Y59675000D01*
X65114428Y58475000D01*
X65126688Y58350518D01*
X65162998Y58230820D01*
X65221963Y58120506D01*
X65301315Y58023815D01*
X65398006Y57944463D01*
X65508320Y57885498D01*
X65628018Y57849188D01*
X65752500Y57836928D01*
X66952500Y57836928D01*
X67076982Y57849188D01*
X67196680Y57885498D01*
X67306994Y57944463D01*
X67403685Y58023815D01*
X67483037Y58120506D01*
X67542002Y58230820D01*
X67578312Y58350518D01*
X67590572Y58475000D01*
X67590572Y58483689D01*
X67674738Y58552762D01*
X67697758Y58580812D01*
X68456948Y59340001D01*
X70114428Y59340001D01*
X70114428Y58475000D01*
X70126688Y58350518D01*
X70162998Y58230820D01*
X70221963Y58120506D01*
X70301315Y58023815D01*
X70398006Y57944463D01*
X70508320Y57885498D01*
X70628018Y57849188D01*
X70752500Y57836928D01*
X71952500Y57836928D01*
X72076982Y57849188D01*
X72196680Y57885498D01*
X72306994Y57944463D01*
X72403685Y58023815D01*
X72483037Y58120506D01*
X72542002Y58230820D01*
X72578312Y58350518D01*
X72590572Y58475000D01*
X72590572Y59675000D01*
X72578312Y59799482D01*
X72542002Y59919180D01*
X72505122Y59988176D01*
X73346704Y60829757D01*
X73374749Y60852773D01*
X73466598Y60964691D01*
X73534848Y61092378D01*
X73576876Y61230926D01*
X73587511Y61338906D01*
X73591067Y61375011D01*
X73587511Y61411116D01*
X73587511Y63618515D01*
X73591066Y63654610D01*
X73587511Y63690705D01*
X73587511Y63690714D01*
X73576876Y63798694D01*
X73534848Y63937242D01*
X73466598Y64064929D01*
X73374748Y64176847D01*
X73346703Y64199863D01*
X73335000Y64211566D01*
X73335000Y64289105D01*
X73496842Y64222068D01*
X73783740Y64165000D01*
X73793303Y64165000D01*
X73887673Y64125911D01*
X74193891Y64065000D01*
X74506109Y64065000D01*
X74812327Y64125911D01*
X75100779Y64245391D01*
X75360379Y64418850D01*
X75581150Y64639621D01*
X75754609Y64899221D01*
X75874089Y65187673D01*
X75935000Y65493891D01*
X75935000Y65806109D01*
X75874089Y66112327D01*
X75754609Y66400779D01*
X75581150Y66660379D01*
X75360379Y66881150D01*
X75100779Y67054609D01*
X74812327Y67174089D01*
X74506109Y67235000D01*
X74193891Y67235000D01*
X73887673Y67174089D01*
X73793303Y67135000D01*
X73783740Y67135000D01*
X73496842Y67077932D01*
X73324728Y67006640D01*
X73324365Y67010327D01*
X73282337Y67148875D01*
X73214087Y67276562D01*
X73170465Y67329715D01*
X73145253Y67360436D01*
X73145250Y67360439D01*
X73122237Y67388480D01*
X73094197Y67411492D01*
X72125000Y68380688D01*
X72125000Y68994137D01*
X72282882Y69059534D01*
X72591618Y69265825D01*
X72854175Y69528382D01*
X73060466Y69837118D01*
X73202561Y70180166D01*
X73275000Y70544344D01*
X73275000Y70915656D01*
X73202561Y71279834D01*
X73060466Y71622882D01*
X72854175Y71931618D01*
X72591618Y72194175D01*
X72282882Y72400466D01*
X71939834Y72542561D01*
X71823205Y72565760D01*
X72244204Y72986759D01*
X72272249Y73009775D01*
X72364098Y73121693D01*
X72432348Y73249380D01*
X72474376Y73387928D01*
X72485011Y73495908D01*
X72485011Y73495917D01*
X72488566Y73532012D01*
X72485011Y73568107D01*
X72485011Y84352593D01*
X72502068Y84266842D01*
X72614010Y83996589D01*
X72776525Y83753368D01*
X72983368Y83546525D01*
X73226589Y83384010D01*
X73496842Y83272068D01*
X73783740Y83215000D01*
X73793303Y83215000D01*
X73887673Y83175911D01*
X74193891Y83115000D01*
X74506109Y83115000D01*
X74812327Y83175911D01*
X75100779Y83295391D01*
X75360379Y83468850D01*
X75581150Y83689621D01*
X75754609Y83949221D01*
X75874089Y84237673D01*
X75935000Y84543891D01*
X75935000Y84856109D01*
X75874089Y85162327D01*
X75754609Y85450779D01*
X75581150Y85710379D01*
X75360379Y85931150D01*
X75100779Y86104609D01*
X74812327Y86224089D01*
X74506109Y86285000D01*
X74193891Y86285000D01*
X73887673Y86224089D01*
X73793303Y86185000D01*
X73783740Y86185000D01*
X73496842Y86127932D01*
X73226589Y86015990D01*
X72983368Y85853475D01*
X72776525Y85646632D01*
X72614010Y85403411D01*
X72502068Y85133158D01*
X72485011Y85047407D01*
X72485011Y87616129D01*
X72488566Y87652224D01*
X72485011Y87688319D01*
X72485011Y87688328D01*
X72474376Y87796308D01*
X72432348Y87934856D01*
X72364098Y88062543D01*
X72310428Y88127939D01*
X72591618Y88315825D01*
X72854175Y88578382D01*
X73060466Y88887118D01*
X73202561Y89230166D01*
X73275000Y89594344D01*
X73275000Y89965656D01*
X73202561Y90329834D01*
X73060466Y90672882D01*
X72854175Y90981618D01*
X72591618Y91244175D01*
X72282882Y91450466D01*
X71939834Y91592561D01*
X71575656Y91665000D01*
X71204344Y91665000D01*
X70840166Y91592561D01*
X70497118Y91450466D01*
X70188382Y91244175D01*
X69925825Y90981618D01*
X69719534Y90672882D01*
X69577439Y90329834D01*
X69505000Y89965656D01*
X69505000Y89594344D01*
X69577439Y89230166D01*
X69719534Y88887118D01*
X69925825Y88578382D01*
X70188382Y88315825D01*
X70497118Y88109534D01*
X70654602Y88044302D01*
X70651444Y88012234D01*
X70665635Y87868149D01*
X70697764Y87762237D01*
X70707664Y87729601D01*
X70775914Y87601914D01*
X70867763Y87489996D01*
X70895808Y87466980D01*
X71015011Y87347777D01*
X71015011Y87126438D01*
X68647261Y89494187D01*
X68624240Y89522238D01*
X68512322Y89614087D01*
X68384635Y89682337D01*
X68246087Y89724365D01*
X68138107Y89735000D01*
X68102002Y89738556D01*
X68065897Y89735000D01*
X64394103Y89735000D01*
X64357998Y89738556D01*
X64321893Y89735000D01*
X64213913Y89724365D01*
X64075365Y89682337D01*
X63947678Y89614087D01*
X63835760Y89522238D01*
X63812744Y89494193D01*
X62793562Y88475010D01*
X57126439Y88475010D01*
X53677260Y91924188D01*
X53654239Y91952239D01*
X53542321Y92044088D01*
X53414634Y92112338D01*
X53276086Y92154366D01*
X53168106Y92165001D01*
X53132001Y92168557D01*
X53095896Y92165001D01*
X51666106Y92165001D01*
X51630001Y92168557D01*
X51593896Y92165001D01*
X51485916Y92154366D01*
X51347368Y92112338D01*
X51219681Y92044088D01*
X51107763Y91952239D01*
X51084747Y91924194D01*
X50175564Y91015010D01*
X45884098Y91015010D01*
X45848003Y91018565D01*
X45811908Y91015010D01*
X45811899Y91015010D01*
X45703919Y91004375D01*
X45565371Y90962347D01*
X45437684Y90894097D01*
X45325766Y90802248D01*
X45302750Y90774203D01*
X41527000Y86998452D01*
X41527000Y88700000D01*
X41524560Y88724776D01*
X41517333Y88748601D01*
X41505597Y88770557D01*
X41489803Y88789803D01*
X41478560Y88799029D01*
X41475088Y88834283D01*
X41435919Y88963406D01*
X41372312Y89082407D01*
X41286711Y89186711D01*
X41182407Y89272312D01*
X41063406Y89335919D01*
X40985000Y89359703D01*
X40985000Y92166495D01*
X41013267Y92454782D01*
X41087259Y92699855D01*
X41207443Y92925890D01*
X41369248Y93124281D01*
X41566497Y93287460D01*
X41791687Y93409220D01*
X42036247Y93484924D01*
X42322398Y93515000D01*
X76366495Y93515000D01*
X76654782Y93486733D01*
G36*
X41763748Y56799143D02*
G01*
X41749605Y56785000D01*
X41763748Y56770858D01*
X41584143Y56591253D01*
X41570000Y56605395D01*
X41555858Y56591253D01*
X41376253Y56770858D01*
X41390395Y56785000D01*
X41376253Y56799143D01*
X41555858Y56978748D01*
X41570000Y56964605D01*
X41584143Y56978748D01*
X41763748Y56799143D01*
X41763748Y56799143D01*
G37*
X41763748Y56799143D02*
X41749605Y56785000D01*
X41763748Y56770858D01*
X41584143Y56591253D01*
X41570000Y56605395D01*
X41555858Y56591253D01*
X41376253Y56770858D01*
X41390395Y56785000D01*
X41376253Y56799143D01*
X41555858Y56978748D01*
X41570000Y56964605D01*
X41584143Y56978748D01*
X41763748Y56799143D01*
G36*
X36354782Y93486733D02*
G01*
X36599855Y93412741D01*
X36825890Y93292557D01*
X37024281Y93130752D01*
X37187460Y92933503D01*
X37309220Y92708313D01*
X37384924Y92463753D01*
X37415000Y92177602D01*
X37415001Y89359703D01*
X37336594Y89335919D01*
X37217593Y89272312D01*
X37113289Y89186711D01*
X37027688Y89082407D01*
X36964081Y88963406D01*
X36924912Y88834283D01*
X36923915Y88824163D01*
X36901399Y88817333D01*
X36879443Y88805597D01*
X36860197Y88789803D01*
X36844403Y88770557D01*
X36832667Y88748601D01*
X36825440Y88724776D01*
X36823000Y88700000D01*
X36823000Y80700000D01*
X36825440Y80675224D01*
X36832667Y80651399D01*
X36844403Y80629443D01*
X36860197Y80610197D01*
X36879443Y80594403D01*
X36901399Y80582667D01*
X36923915Y80575837D01*
X36924912Y80565717D01*
X36964081Y80436594D01*
X37027688Y80317593D01*
X37113289Y80213289D01*
X37217593Y80127688D01*
X37336594Y80064081D01*
X37415000Y80040297D01*
X37415000Y76038276D01*
X37292327Y76089089D01*
X36986109Y76150000D01*
X36673891Y76150000D01*
X36367673Y76089089D01*
X36351894Y76082553D01*
X32185011Y80249435D01*
X32185011Y84352593D01*
X32202068Y84266842D01*
X32314010Y83996589D01*
X32476525Y83753368D01*
X32683368Y83546525D01*
X32926589Y83384010D01*
X33196842Y83272068D01*
X33483740Y83215000D01*
X33493303Y83215000D01*
X33587673Y83175911D01*
X33893891Y83115000D01*
X34206109Y83115000D01*
X34512327Y83175911D01*
X34800779Y83295391D01*
X35060379Y83468850D01*
X35281150Y83689621D01*
X35454609Y83949221D01*
X35574089Y84237673D01*
X35635000Y84543891D01*
X35635000Y84856109D01*
X35574089Y85162327D01*
X35454609Y85450779D01*
X35281150Y85710379D01*
X35060379Y85931150D01*
X34800779Y86104609D01*
X34512327Y86224089D01*
X34206109Y86285000D01*
X33932887Y86285000D01*
X33964376Y86388806D01*
X33975011Y86496786D01*
X33975011Y86496795D01*
X33978566Y86532890D01*
X33975011Y86568985D01*
X33975011Y90743017D01*
X33978566Y90779112D01*
X33975011Y90815207D01*
X33975011Y90815216D01*
X33964376Y90923196D01*
X33922348Y91061744D01*
X33854098Y91189431D01*
X33806299Y91247674D01*
X33785264Y91273305D01*
X33785261Y91273308D01*
X33762248Y91301349D01*
X33734208Y91324361D01*
X32634369Y92424199D01*
X32611349Y92452249D01*
X32499431Y92544098D01*
X32371744Y92612348D01*
X32233196Y92654376D01*
X32125216Y92665011D01*
X32089111Y92668567D01*
X32053006Y92665011D01*
X25609874Y92665011D01*
X25573769Y92668567D01*
X25537664Y92665011D01*
X25429684Y92654376D01*
X25291136Y92612348D01*
X25163449Y92544098D01*
X25051531Y92452249D01*
X25028515Y92424204D01*
X20205787Y87601475D01*
X20177742Y87578459D01*
X20085893Y87466541D01*
X20025785Y87354087D01*
X20017643Y87338854D01*
X19975614Y87200306D01*
X19961423Y87056221D01*
X19964980Y87020106D01*
X19964979Y83673884D01*
X19961423Y83637779D01*
X19968861Y83562257D01*
X19975614Y83493695D01*
X20017642Y83355147D01*
X20085892Y83227460D01*
X20177741Y83115542D01*
X20205787Y83092525D01*
X22504971Y80793340D01*
X22504970Y71557779D01*
X19705777Y68758585D01*
X19677732Y68735569D01*
X19585883Y68623651D01*
X19524646Y68509085D01*
X19517633Y68495964D01*
X19475604Y68357416D01*
X19461413Y68213331D01*
X19464970Y68177216D01*
X19464969Y61937538D01*
X15408754Y57881322D01*
X15346680Y57914502D01*
X15226982Y57950812D01*
X15102500Y57963072D01*
X13902500Y57963072D01*
X13778018Y57950812D01*
X13658320Y57914502D01*
X13548006Y57855537D01*
X13451315Y57776185D01*
X13371963Y57679494D01*
X13312998Y57569180D01*
X13279879Y57460000D01*
X10725121Y57460000D01*
X10692002Y57569180D01*
X10633037Y57679494D01*
X10553685Y57776185D01*
X10456994Y57855537D01*
X10346680Y57914502D01*
X10226982Y57950812D01*
X10102500Y57963072D01*
X8902500Y57963072D01*
X8778018Y57950812D01*
X8658320Y57914502D01*
X8548006Y57855537D01*
X8451315Y57776185D01*
X8371963Y57679494D01*
X8312998Y57569180D01*
X8279879Y57460000D01*
X5725121Y57460000D01*
X5692002Y57569180D01*
X5633037Y57679494D01*
X5553685Y57776185D01*
X5456994Y57855537D01*
X5346680Y57914502D01*
X5237500Y57947621D01*
X5237500Y59675000D01*
X5764428Y59675000D01*
X5764428Y58475000D01*
X5776688Y58350518D01*
X5812998Y58230820D01*
X5871963Y58120506D01*
X5951315Y58023815D01*
X6048006Y57944463D01*
X6158320Y57885498D01*
X6278018Y57849188D01*
X6402500Y57836928D01*
X7602500Y57836928D01*
X7726982Y57849188D01*
X7846680Y57885498D01*
X7956994Y57944463D01*
X8053685Y58023815D01*
X8133037Y58120506D01*
X8192002Y58230820D01*
X8228312Y58350518D01*
X8240572Y58475000D01*
X8240572Y58483689D01*
X8324738Y58552762D01*
X8347758Y58580812D01*
X9106948Y59340001D01*
X10764428Y59340001D01*
X10764428Y58475000D01*
X10776688Y58350518D01*
X10812998Y58230820D01*
X10871963Y58120506D01*
X10951315Y58023815D01*
X11048006Y57944463D01*
X11158320Y57885498D01*
X11278018Y57849188D01*
X11402500Y57836928D01*
X12602500Y57836928D01*
X12726982Y57849188D01*
X12846680Y57885498D01*
X12956994Y57944463D01*
X13053685Y58023815D01*
X13133037Y58120506D01*
X13192002Y58230820D01*
X13225121Y58340000D01*
X14038895Y58340000D01*
X14075000Y58336444D01*
X14111105Y58340000D01*
X14219085Y58350635D01*
X14357633Y58392663D01*
X14485320Y58460913D01*
X14597238Y58552762D01*
X14620258Y58580812D01*
X16494193Y60454746D01*
X16522238Y60477762D01*
X16614087Y60589680D01*
X16682337Y60717367D01*
X16719326Y60839303D01*
X16724365Y60855914D01*
X16729692Y60910000D01*
X16735000Y60963895D01*
X16735000Y60963902D01*
X16738555Y60999999D01*
X16735000Y61036096D01*
X16735000Y64195554D01*
X16844188Y64304742D01*
X16872239Y64327763D01*
X16964088Y64439681D01*
X17032338Y64567368D01*
X17064807Y64674404D01*
X17074366Y64705915D01*
X17078596Y64748868D01*
X17085001Y64813896D01*
X17085001Y64813903D01*
X17088556Y64850000D01*
X17085001Y64886097D01*
X17085001Y68825896D01*
X17088557Y68862001D01*
X17074366Y69006086D01*
X17070720Y69018106D01*
X17032338Y69144634D01*
X16964088Y69272321D01*
X16904410Y69345038D01*
X16895254Y69356195D01*
X16895251Y69356198D01*
X16872238Y69384239D01*
X16844198Y69407251D01*
X12775000Y73476448D01*
X12775000Y75464449D01*
X16365000Y75464449D01*
X16365000Y74935551D01*
X16468183Y74416814D01*
X16670583Y73928175D01*
X16964424Y73488412D01*
X17338412Y73114424D01*
X17778175Y72820583D01*
X18266814Y72618183D01*
X18785551Y72515000D01*
X19314449Y72515000D01*
X19833186Y72618183D01*
X20321825Y72820583D01*
X20761588Y73114424D01*
X21135576Y73488412D01*
X21429417Y73928175D01*
X21631817Y74416814D01*
X21735000Y74935551D01*
X21735000Y75464449D01*
X21631817Y75983186D01*
X21429417Y76471825D01*
X21135576Y76911588D01*
X20761588Y77285576D01*
X20321825Y77579417D01*
X19833186Y77781817D01*
X19314449Y77885000D01*
X18785551Y77885000D01*
X18266814Y77781817D01*
X17778175Y77579417D01*
X17338412Y77285576D01*
X16964424Y76911588D01*
X16670583Y76471825D01*
X16468183Y75983186D01*
X16365000Y75464449D01*
X12775000Y75464449D01*
X12775000Y84846260D01*
X13095000Y84846260D01*
X13095000Y84553740D01*
X13152068Y84266842D01*
X13264010Y83996589D01*
X13426525Y83753368D01*
X13633368Y83546525D01*
X13876589Y83384010D01*
X14146842Y83272068D01*
X14433740Y83215000D01*
X14443303Y83215000D01*
X14537673Y83175911D01*
X14843891Y83115000D01*
X15156109Y83115000D01*
X15462327Y83175911D01*
X15750779Y83295391D01*
X16010379Y83468850D01*
X16231150Y83689621D01*
X16404609Y83949221D01*
X16524089Y84237673D01*
X16585000Y84543891D01*
X16585000Y84856109D01*
X16524089Y85162327D01*
X16404609Y85450779D01*
X16231150Y85710379D01*
X16010379Y85931150D01*
X15750779Y86104609D01*
X15462327Y86224089D01*
X15156109Y86285000D01*
X14843891Y86285000D01*
X14537673Y86224089D01*
X14443303Y86185000D01*
X14433740Y86185000D01*
X14146842Y86127932D01*
X13876589Y86015990D01*
X13633368Y85853475D01*
X13426525Y85646632D01*
X13264010Y85403411D01*
X13152068Y85133158D01*
X13095000Y84846260D01*
X12775000Y84846260D01*
X12775000Y88044137D01*
X12932882Y88109534D01*
X13241618Y88315825D01*
X13504175Y88578382D01*
X13710466Y88887118D01*
X13852561Y89230166D01*
X13925000Y89594344D01*
X13925000Y89965656D01*
X13852561Y90329834D01*
X13710466Y90672882D01*
X13504175Y90981618D01*
X13241618Y91244175D01*
X12932882Y91450466D01*
X12589834Y91592561D01*
X12225656Y91665000D01*
X11854344Y91665000D01*
X11490166Y91592561D01*
X11147118Y91450466D01*
X10838382Y91244175D01*
X10575825Y90981618D01*
X10369534Y90672882D01*
X10227439Y90329834D01*
X10155000Y89965656D01*
X10155000Y89594344D01*
X10227439Y89230166D01*
X10369534Y88887118D01*
X10575825Y88578382D01*
X10838382Y88315825D01*
X11147118Y88109534D01*
X11305000Y88044137D01*
X11305000Y86621453D01*
X11179715Y86746738D01*
X10748141Y87035107D01*
X10268601Y87233739D01*
X9759525Y87335000D01*
X9240475Y87335000D01*
X8731399Y87233739D01*
X8251859Y87035107D01*
X7820285Y86746738D01*
X7453262Y86379715D01*
X7164893Y85948141D01*
X6966261Y85468601D01*
X6865000Y84959525D01*
X6865000Y84440475D01*
X6966261Y83931399D01*
X7164893Y83451859D01*
X7453262Y83020285D01*
X7820285Y82653262D01*
X8251859Y82364893D01*
X8731399Y82166261D01*
X9240475Y82065000D01*
X9759525Y82065000D01*
X10268601Y82166261D01*
X10748141Y82364893D01*
X11179715Y82653262D01*
X11305000Y82778547D01*
X11305001Y73208117D01*
X11301444Y73172002D01*
X11315635Y73027917D01*
X11330171Y72980000D01*
X11357664Y72889369D01*
X11425914Y72761682D01*
X11517763Y72649764D01*
X11545808Y72626748D01*
X11606796Y72565760D01*
X11490166Y72542561D01*
X11147118Y72400466D01*
X10838382Y72194175D01*
X10575825Y71931618D01*
X10369534Y71622882D01*
X10227439Y71279834D01*
X10155000Y70915656D01*
X10155000Y70544344D01*
X10227439Y70180166D01*
X10369534Y69837118D01*
X10575825Y69528382D01*
X10838382Y69265825D01*
X11147118Y69059534D01*
X11304602Y68994302D01*
X11301444Y68962234D01*
X11315635Y68818149D01*
X11349862Y68705320D01*
X11357664Y68679601D01*
X11425914Y68551914D01*
X11517763Y68439996D01*
X11545808Y68416980D01*
X12594999Y67367788D01*
X12595000Y65086114D01*
X12591443Y65049999D01*
X12605634Y64905914D01*
X12622596Y64850000D01*
X12647663Y64767366D01*
X12715913Y64639679D01*
X12807762Y64527761D01*
X12835807Y64504745D01*
X14765000Y62575551D01*
X14765001Y61511568D01*
X14063435Y60810001D01*
X8838606Y60810001D01*
X8802501Y60813557D01*
X8658415Y60799366D01*
X8616387Y60786617D01*
X8519868Y60757338D01*
X8392181Y60689088D01*
X8280263Y60597239D01*
X8257247Y60569194D01*
X7915676Y60227622D01*
X7846680Y60264502D01*
X7726982Y60300812D01*
X7602500Y60313072D01*
X6402500Y60313072D01*
X6278018Y60300812D01*
X6158320Y60264502D01*
X6048006Y60205537D01*
X5951315Y60126185D01*
X5871963Y60029494D01*
X5812998Y59919180D01*
X5776688Y59799482D01*
X5764428Y59675000D01*
X5237500Y59675000D01*
X5237500Y60620554D01*
X6089324Y61472378D01*
X6158320Y61435498D01*
X6278018Y61399188D01*
X6402500Y61386928D01*
X7602500Y61386928D01*
X7726982Y61399188D01*
X7846680Y61435498D01*
X7956994Y61494463D01*
X8053685Y61573815D01*
X8133037Y61670506D01*
X8192002Y61780820D01*
X8225121Y61890000D01*
X10779879Y61890000D01*
X10812998Y61780820D01*
X10871963Y61670506D01*
X10951315Y61573815D01*
X11048006Y61494463D01*
X11158320Y61435498D01*
X11278018Y61399188D01*
X11402500Y61386928D01*
X12602500Y61386928D01*
X12726982Y61399188D01*
X12846680Y61435498D01*
X12956994Y61494463D01*
X13053685Y61573815D01*
X13133037Y61670506D01*
X13192002Y61780820D01*
X13228312Y61900518D01*
X13240572Y62025000D01*
X13240572Y63225000D01*
X13228312Y63349482D01*
X13192002Y63469180D01*
X13133037Y63579494D01*
X13053685Y63676185D01*
X12956994Y63755537D01*
X12846680Y63814502D01*
X12726982Y63850812D01*
X12602500Y63863072D01*
X11439525Y63863072D01*
X11546738Y63970285D01*
X11835107Y64401859D01*
X12033739Y64881399D01*
X12135000Y65390475D01*
X12135000Y65909525D01*
X12033739Y66418601D01*
X11835107Y66898141D01*
X11546738Y67329715D01*
X11179715Y67696738D01*
X10748141Y67985107D01*
X10268601Y68183739D01*
X9759525Y68285000D01*
X9240475Y68285000D01*
X8731399Y68183739D01*
X8251859Y67985107D01*
X8075001Y67866934D01*
X8075001Y68945896D01*
X8078557Y68982001D01*
X8064366Y69126086D01*
X8058740Y69144633D01*
X8022338Y69264634D01*
X7954088Y69392321D01*
X7862239Y69504239D01*
X7834194Y69527255D01*
X6425000Y70936448D01*
X6425000Y85504137D01*
X6582882Y85569534D01*
X6891618Y85775825D01*
X7154175Y86038382D01*
X7360466Y86347118D01*
X7502561Y86690166D01*
X7575000Y87054344D01*
X7575000Y87425656D01*
X7502561Y87789834D01*
X7360466Y88132882D01*
X7154175Y88441618D01*
X6891618Y88704175D01*
X6582882Y88910466D01*
X6239834Y89052561D01*
X5875656Y89125000D01*
X5504344Y89125000D01*
X5140166Y89052561D01*
X4797118Y88910466D01*
X4488382Y88704175D01*
X4225825Y88441618D01*
X4019534Y88132882D01*
X3877439Y87789834D01*
X3805000Y87425656D01*
X3805000Y87054344D01*
X3877439Y86690166D01*
X4019534Y86347118D01*
X4061040Y86285000D01*
X3843891Y86285000D01*
X3537673Y86224089D01*
X3249221Y86104609D01*
X2989621Y85931150D01*
X2768850Y85710379D01*
X2595391Y85450779D01*
X2475911Y85162327D01*
X2415000Y84856109D01*
X2415000Y84543891D01*
X2475911Y84237673D01*
X2595391Y83949221D01*
X2768850Y83689621D01*
X2989621Y83468850D01*
X3249221Y83295391D01*
X3537673Y83175911D01*
X3843891Y83115000D01*
X4156109Y83115000D01*
X4462327Y83175911D01*
X4556697Y83215000D01*
X4566260Y83215000D01*
X4853158Y83272068D01*
X4955001Y83314252D01*
X4955000Y70668107D01*
X4951444Y70632002D01*
X4961592Y70528967D01*
X4965635Y70487918D01*
X5007663Y70349370D01*
X5075913Y70221683D01*
X5167762Y70109765D01*
X5195808Y70086748D01*
X5256796Y70025760D01*
X5140166Y70002561D01*
X4797118Y69860466D01*
X4488382Y69654175D01*
X4225825Y69391618D01*
X4019534Y69082882D01*
X3877439Y68739834D01*
X3805000Y68375656D01*
X3805000Y68004344D01*
X3877439Y67640166D01*
X4019534Y67297118D01*
X4061040Y67235000D01*
X3843891Y67235000D01*
X3537673Y67174089D01*
X3249221Y67054609D01*
X2989621Y66881150D01*
X2768850Y66660379D01*
X2595391Y66400779D01*
X2475911Y66112327D01*
X2415000Y65806109D01*
X2415000Y65493891D01*
X2475911Y65187673D01*
X2595391Y64899221D01*
X2768850Y64639621D01*
X2989621Y64418850D01*
X3249221Y64245391D01*
X3537673Y64125911D01*
X3843891Y64065000D01*
X4156109Y64065000D01*
X4462327Y64125911D01*
X4556697Y64165000D01*
X4566260Y64165000D01*
X4853158Y64222068D01*
X4955001Y64264253D01*
X4955001Y64244070D01*
X2505808Y61794876D01*
X2477762Y61771859D01*
X2385913Y61659941D01*
X2317663Y61532254D01*
X2294131Y61454680D01*
X2275635Y61393707D01*
X2261444Y61249622D01*
X2265000Y61213517D01*
X2265001Y55636493D01*
X2261444Y55600378D01*
X2275635Y55456293D01*
X2311995Y55336433D01*
X2317664Y55317745D01*
X2385914Y55190058D01*
X2477763Y55078140D01*
X2505808Y55055124D01*
X2610932Y54950000D01*
X2209547Y54548615D01*
X2181501Y54525598D01*
X2089652Y54413680D01*
X2021402Y54285993D01*
X2002390Y54223319D01*
X1979374Y54147446D01*
X1965183Y54003361D01*
X1968739Y53967256D01*
X1968740Y52162376D01*
X1965183Y52126261D01*
X1979374Y51982176D01*
X2006704Y51892083D01*
X2021403Y51843628D01*
X2089653Y51715941D01*
X2181502Y51604023D01*
X2209547Y51581007D01*
X3942836Y49847717D01*
X3877439Y49689834D01*
X3805000Y49325656D01*
X3805000Y48954344D01*
X3877439Y48590166D01*
X4019534Y48247118D01*
X4061040Y48185000D01*
X3843891Y48185000D01*
X3537673Y48124089D01*
X3249221Y48004609D01*
X2989621Y47831150D01*
X2768850Y47610379D01*
X2595391Y47350779D01*
X2475911Y47062327D01*
X2415000Y46756109D01*
X2415000Y46443891D01*
X2475911Y46137673D01*
X2595391Y45849221D01*
X2768850Y45589621D01*
X2989621Y45368850D01*
X3249221Y45195391D01*
X3537673Y45075911D01*
X3843891Y45015000D01*
X4156109Y45015000D01*
X4462327Y45075911D01*
X4556697Y45115000D01*
X4566260Y45115000D01*
X4853158Y45172068D01*
X4955000Y45214252D01*
X4955001Y31825863D01*
X4797118Y31760466D01*
X4488382Y31554175D01*
X4225825Y31291618D01*
X4019534Y30982882D01*
X3877439Y30639834D01*
X3805000Y30275656D01*
X3805000Y29904344D01*
X3877439Y29540166D01*
X4019534Y29197118D01*
X4061040Y29135000D01*
X3843891Y29135000D01*
X3537673Y29074089D01*
X3249221Y28954609D01*
X2989621Y28781150D01*
X2768850Y28560379D01*
X2595391Y28300779D01*
X2475911Y28012327D01*
X2415000Y27706109D01*
X2415000Y27393891D01*
X2475911Y27087673D01*
X2595391Y26799221D01*
X2768850Y26539621D01*
X2989621Y26318850D01*
X3249221Y26145391D01*
X3537673Y26025911D01*
X3843891Y25965000D01*
X4156109Y25965000D01*
X4462327Y26025911D01*
X4556697Y26065000D01*
X4566260Y26065000D01*
X4853158Y26122068D01*
X5123411Y26234010D01*
X5366632Y26396525D01*
X5573475Y26603368D01*
X5735990Y26846589D01*
X5847932Y27116842D01*
X5905000Y27403740D01*
X5905000Y27696260D01*
X5847932Y27983158D01*
X5756042Y28205000D01*
X5875656Y28205000D01*
X6239834Y28277439D01*
X6582882Y28419534D01*
X6891618Y28625825D01*
X7154175Y28888382D01*
X7360466Y29197118D01*
X7502561Y29540166D01*
X7575000Y29904344D01*
X7575000Y30275656D01*
X7502561Y30639834D01*
X7360466Y30982882D01*
X7154175Y31291618D01*
X6891618Y31554175D01*
X6582882Y31760466D01*
X6425000Y31825863D01*
X6425000Y46393552D01*
X6865000Y46833552D01*
X6865000Y46340475D01*
X6966261Y45831399D01*
X7164893Y45351859D01*
X7453262Y44920285D01*
X7820285Y44553262D01*
X8251859Y44264893D01*
X8731399Y44066261D01*
X9240475Y43965000D01*
X9759525Y43965000D01*
X10268601Y44066261D01*
X10748141Y44264893D01*
X10804991Y44302879D01*
X10804990Y34876439D01*
X9895807Y33967255D01*
X9867762Y33944239D01*
X9775913Y33832321D01*
X9707664Y33704635D01*
X9707663Y33704634D01*
X9665634Y33566086D01*
X9651443Y33422001D01*
X9655000Y33385886D01*
X9654999Y30248108D01*
X9651443Y30212003D01*
X9654103Y30185000D01*
X9240475Y30185000D01*
X8731399Y30083739D01*
X8251859Y29885107D01*
X7820285Y29596738D01*
X7453262Y29229715D01*
X7164893Y28798141D01*
X6966261Y28318601D01*
X6865000Y27809525D01*
X6865000Y27290475D01*
X6966261Y26781399D01*
X7164893Y26301859D01*
X7453262Y25870285D01*
X7820285Y25503262D01*
X8251859Y25214893D01*
X8731399Y25016261D01*
X9240475Y24915000D01*
X9759525Y24915000D01*
X10268601Y25016261D01*
X10748141Y25214893D01*
X11179715Y25503262D01*
X11305001Y25628548D01*
X11305000Y15315863D01*
X11147118Y15250466D01*
X10838382Y15044175D01*
X10575825Y14781618D01*
X10369534Y14472882D01*
X10227439Y14129834D01*
X10155000Y13765656D01*
X10155000Y13394344D01*
X10227439Y13030166D01*
X10369534Y12687118D01*
X10575825Y12378382D01*
X10838382Y12115825D01*
X11147118Y11909534D01*
X11490166Y11767439D01*
X11854344Y11695000D01*
X12225656Y11695000D01*
X12589834Y11767439D01*
X12932882Y11909534D01*
X13241618Y12115825D01*
X13504175Y12378382D01*
X13710466Y12687118D01*
X13852561Y13030166D01*
X13925000Y13394344D01*
X13925000Y13765656D01*
X13852561Y14129834D01*
X13710466Y14472882D01*
X13504175Y14781618D01*
X13241618Y15044175D01*
X12932882Y15250466D01*
X12775000Y15315863D01*
X12775000Y18314449D01*
X16365000Y18314449D01*
X16365000Y17785551D01*
X16468183Y17266814D01*
X16670583Y16778175D01*
X16964424Y16338412D01*
X17338412Y15964424D01*
X17778175Y15670583D01*
X18266814Y15468183D01*
X18785551Y15365000D01*
X19314449Y15365000D01*
X19833186Y15468183D01*
X20321825Y15670583D01*
X20761588Y15964424D01*
X21135576Y16338412D01*
X21429417Y16778175D01*
X21631817Y17266814D01*
X21735000Y17785551D01*
X21735000Y18314449D01*
X21631817Y18833186D01*
X21429417Y19321825D01*
X21135576Y19761588D01*
X20761588Y20135576D01*
X20321825Y20429417D01*
X19833186Y20631817D01*
X19314449Y20735000D01*
X18785551Y20735000D01*
X18266814Y20631817D01*
X17778175Y20429417D01*
X17338412Y20135576D01*
X16964424Y19761588D01*
X16670583Y19321825D01*
X16468183Y18833186D01*
X16365000Y18314449D01*
X12775000Y18314449D01*
X12775000Y27696260D01*
X13095000Y27696260D01*
X13095000Y27403740D01*
X13152068Y27116842D01*
X13264010Y26846589D01*
X13426525Y26603368D01*
X13633368Y26396525D01*
X13876589Y26234010D01*
X14146842Y26122068D01*
X14433740Y26065000D01*
X14443303Y26065000D01*
X14537673Y26025911D01*
X14843891Y25965000D01*
X15156109Y25965000D01*
X15462327Y26025911D01*
X15750779Y26145391D01*
X16010379Y26318850D01*
X16231150Y26539621D01*
X16404609Y26799221D01*
X16524089Y27087673D01*
X16585000Y27393891D01*
X16585000Y27706109D01*
X16524089Y28012327D01*
X16404609Y28300779D01*
X16231150Y28560379D01*
X16010379Y28781150D01*
X15750779Y28954609D01*
X15462327Y29074089D01*
X15156109Y29135000D01*
X14843891Y29135000D01*
X14537673Y29074089D01*
X14443303Y29035000D01*
X14433740Y29035000D01*
X14146842Y28977932D01*
X13876589Y28865990D01*
X13633368Y28703475D01*
X13426525Y28496632D01*
X13264010Y28253411D01*
X13152068Y27983158D01*
X13095000Y27696260D01*
X12775000Y27696260D01*
X12775000Y28525897D01*
X12778556Y28562002D01*
X12764365Y28706087D01*
X12741595Y28781150D01*
X12722337Y28844635D01*
X12654087Y28972322D01*
X12562238Y29084240D01*
X12534193Y29107256D01*
X11124999Y30516449D01*
X11124999Y30974313D01*
X11147118Y30959534D01*
X11490166Y30817439D01*
X11854344Y30745000D01*
X12225656Y30745000D01*
X12589834Y30817439D01*
X12932882Y30959534D01*
X13241618Y31165825D01*
X13504175Y31428382D01*
X13710466Y31737118D01*
X13852561Y32080166D01*
X13925000Y32444344D01*
X13925000Y32815656D01*
X13852561Y33179834D01*
X13710466Y33522882D01*
X13504175Y33831618D01*
X13241618Y34094175D01*
X12932882Y34300466D01*
X12775000Y34365863D01*
X12775000Y37364449D01*
X16365000Y37364449D01*
X16365000Y36835551D01*
X16468183Y36316814D01*
X16670583Y35828175D01*
X16964424Y35388412D01*
X17338412Y35014424D01*
X17778175Y34720583D01*
X18266814Y34518183D01*
X18785551Y34415000D01*
X19314449Y34415000D01*
X19833186Y34518183D01*
X20321825Y34720583D01*
X20761588Y35014424D01*
X21135576Y35388412D01*
X21429417Y35828175D01*
X21631817Y36316814D01*
X21735000Y36835551D01*
X21735000Y37364449D01*
X21631817Y37883186D01*
X21429417Y38371825D01*
X21135576Y38811588D01*
X20761588Y39185576D01*
X20321825Y39479417D01*
X19833186Y39681817D01*
X19314449Y39785000D01*
X18785551Y39785000D01*
X18266814Y39681817D01*
X17778175Y39479417D01*
X17338412Y39185576D01*
X16964424Y38811588D01*
X16670583Y38371825D01*
X16468183Y37883186D01*
X16365000Y37364449D01*
X12775000Y37364449D01*
X12775000Y44576432D01*
X12894203Y44695635D01*
X12922248Y44718651D01*
X13014098Y44830569D01*
X13082348Y44958256D01*
X13124376Y45096804D01*
X13135011Y45204784D01*
X13135011Y45204793D01*
X13138566Y45240888D01*
X13135011Y45276983D01*
X13135011Y46252593D01*
X13152068Y46166842D01*
X13264010Y45896589D01*
X13426525Y45653368D01*
X13633368Y45446525D01*
X13876589Y45284010D01*
X14146842Y45172068D01*
X14433740Y45115000D01*
X14443303Y45115000D01*
X14537673Y45075911D01*
X14843891Y45015000D01*
X15156109Y45015000D01*
X15462327Y45075911D01*
X15750779Y45195391D01*
X16010379Y45368850D01*
X16231150Y45589621D01*
X16404609Y45849221D01*
X16524089Y46137673D01*
X16585000Y46443891D01*
X16585000Y46756109D01*
X16524089Y47062327D01*
X16404609Y47350779D01*
X16231150Y47610379D01*
X16010379Y47831150D01*
X15750779Y48004609D01*
X15462327Y48124089D01*
X15156109Y48185000D01*
X14843891Y48185000D01*
X14537673Y48124089D01*
X14443303Y48085000D01*
X14433740Y48085000D01*
X14146842Y48027932D01*
X13876589Y47915990D01*
X13633368Y47753475D01*
X13426525Y47546632D01*
X13264010Y47303411D01*
X13152068Y47033158D01*
X13135011Y46947407D01*
X13135011Y47873013D01*
X13138566Y47909108D01*
X13135011Y47945203D01*
X13135011Y47945212D01*
X13124376Y48053192D01*
X13082348Y48191740D01*
X13014098Y48319427D01*
X12922249Y48431345D01*
X12894204Y48454361D01*
X11474733Y49873832D01*
X11490166Y49867439D01*
X11854344Y49795000D01*
X12225656Y49795000D01*
X12589834Y49867439D01*
X12932882Y50009534D01*
X13241618Y50215825D01*
X13504175Y50478382D01*
X13710466Y50787118D01*
X13852561Y51130166D01*
X13925000Y51494344D01*
X13925000Y51865656D01*
X13910823Y51936928D01*
X15102500Y51936928D01*
X15226982Y51949188D01*
X15346680Y51985498D01*
X15456994Y52044463D01*
X15553685Y52123815D01*
X15633037Y52220506D01*
X15692002Y52330820D01*
X15728312Y52450518D01*
X15740572Y52575000D01*
X15740572Y52817483D01*
X16352269Y52205786D01*
X16375285Y52177741D01*
X16487203Y52085892D01*
X16614890Y52017642D01*
X16711409Y51988363D01*
X16753437Y51975614D01*
X16767655Y51974214D01*
X16861418Y51964979D01*
X16861425Y51964979D01*
X16897522Y51961424D01*
X16933619Y51964979D01*
X19507335Y51964979D01*
X20965000Y50507313D01*
X20964999Y46336106D01*
X20964999Y45988104D01*
X20961443Y45951999D01*
X20964999Y45915895D01*
X20964999Y45915894D01*
X20975634Y45807914D01*
X21017662Y45669366D01*
X21085912Y45541679D01*
X21177762Y45429761D01*
X21205807Y45406745D01*
X24005000Y42607551D01*
X24005001Y31825863D01*
X23847118Y31760466D01*
X23538382Y31554175D01*
X23275825Y31291618D01*
X23069534Y30982882D01*
X22927439Y30639834D01*
X22855000Y30275656D01*
X22855000Y29904344D01*
X22927439Y29540166D01*
X23069534Y29197118D01*
X23111040Y29135000D01*
X22893891Y29135000D01*
X22587673Y29074089D01*
X22299221Y28954609D01*
X22039621Y28781150D01*
X21818850Y28560379D01*
X21645391Y28300779D01*
X21525911Y28012327D01*
X21465000Y27706109D01*
X21465000Y27393891D01*
X21525911Y27087673D01*
X21645391Y26799221D01*
X21818850Y26539621D01*
X22039621Y26318850D01*
X22299221Y26145391D01*
X22587673Y26025911D01*
X22893891Y25965000D01*
X23206109Y25965000D01*
X23512327Y26025911D01*
X23606697Y26065000D01*
X23616260Y26065000D01*
X23903158Y26122068D01*
X24173411Y26234010D01*
X24416632Y26396525D01*
X24623475Y26603368D01*
X24785990Y26846589D01*
X24897932Y27116842D01*
X24955000Y27403740D01*
X24955000Y27696260D01*
X24897932Y27983158D01*
X24806042Y28205000D01*
X24925656Y28205000D01*
X25289834Y28277439D01*
X25632882Y28419534D01*
X25941618Y28625825D01*
X26204175Y28888382D01*
X26410466Y29197118D01*
X26552561Y29540166D01*
X26625000Y29904344D01*
X26625000Y30275656D01*
X26552561Y30639834D01*
X26410466Y30982882D01*
X26204175Y31291618D01*
X25941618Y31554175D01*
X25632882Y31760466D01*
X25475000Y31825863D01*
X25475000Y42875893D01*
X25478556Y42911998D01*
X25475000Y42948103D01*
X25475000Y46393552D01*
X25915000Y46833552D01*
X25915000Y46340475D01*
X26016261Y45831399D01*
X26214893Y45351859D01*
X26503262Y44920285D01*
X26870285Y44553262D01*
X27301859Y44264893D01*
X27781399Y44066261D01*
X28290475Y43965000D01*
X28809525Y43965000D01*
X29318601Y44066261D01*
X29798141Y44264893D01*
X29854991Y44302879D01*
X29854990Y34876439D01*
X28945807Y33967255D01*
X28917762Y33944239D01*
X28825913Y33832321D01*
X28757664Y33704635D01*
X28757663Y33704634D01*
X28715634Y33566086D01*
X28701443Y33422001D01*
X28705000Y33385886D01*
X28704999Y31874104D01*
X28701443Y31837999D01*
X28704999Y31801895D01*
X28715634Y31693915D01*
X28757662Y31555367D01*
X28825912Y31427680D01*
X28917761Y31315762D01*
X28945807Y31292745D01*
X30355001Y29883550D01*
X30355001Y29471452D01*
X30229715Y29596738D01*
X29798141Y29885107D01*
X29318601Y30083739D01*
X28809525Y30185000D01*
X28290475Y30185000D01*
X27781399Y30083739D01*
X27301859Y29885107D01*
X26870285Y29596738D01*
X26503262Y29229715D01*
X26214893Y28798141D01*
X26016261Y28318601D01*
X25915000Y27809525D01*
X25915000Y27290475D01*
X26016261Y26781399D01*
X26214893Y26301859D01*
X26503262Y25870285D01*
X26870285Y25503262D01*
X27301859Y25214893D01*
X27781399Y25016261D01*
X28290475Y24915000D01*
X28809525Y24915000D01*
X29318601Y25016261D01*
X29798141Y25214893D01*
X30229715Y25503262D01*
X30355001Y25628548D01*
X30355000Y15315863D01*
X30197118Y15250466D01*
X29888382Y15044175D01*
X29625825Y14781618D01*
X29419534Y14472882D01*
X29277439Y14129834D01*
X29205000Y13765656D01*
X29205000Y13394344D01*
X29277439Y13030166D01*
X29419534Y12687118D01*
X29625825Y12378382D01*
X29888382Y12115825D01*
X30197118Y11909534D01*
X30521912Y11775000D01*
X26475863Y11775000D01*
X26410466Y11932882D01*
X26204175Y12241618D01*
X25941618Y12504175D01*
X25632882Y12710466D01*
X25289834Y12852561D01*
X24925656Y12925000D01*
X24554344Y12925000D01*
X24190166Y12852561D01*
X23847118Y12710466D01*
X23538382Y12504175D01*
X23275825Y12241618D01*
X23069534Y11932882D01*
X22927439Y11589834D01*
X22855000Y11225656D01*
X22855000Y10854344D01*
X22927439Y10490166D01*
X23069534Y10147118D01*
X23111040Y10085000D01*
X22893891Y10085000D01*
X22587673Y10024089D01*
X22299221Y9904609D01*
X22039621Y9731150D01*
X21818850Y9510379D01*
X21645391Y9250779D01*
X21525911Y8962327D01*
X21465000Y8656109D01*
X21465000Y8343891D01*
X21525911Y8037673D01*
X21645391Y7749221D01*
X21818850Y7489621D01*
X22039621Y7268850D01*
X22299221Y7095391D01*
X22587673Y6975911D01*
X22728462Y6947906D01*
X22615555Y6834999D01*
X11556570Y6834999D01*
X11835107Y7251859D01*
X12033739Y7731399D01*
X12135000Y8240475D01*
X12135000Y8646260D01*
X13095000Y8646260D01*
X13095000Y8353740D01*
X13152068Y8066842D01*
X13264010Y7796589D01*
X13426525Y7553368D01*
X13633368Y7346525D01*
X13876589Y7184010D01*
X14146842Y7072068D01*
X14433740Y7015000D01*
X14443303Y7015000D01*
X14537673Y6975911D01*
X14843891Y6915000D01*
X15156109Y6915000D01*
X15462327Y6975911D01*
X15750779Y7095391D01*
X16010379Y7268850D01*
X16231150Y7489621D01*
X16404609Y7749221D01*
X16524089Y8037673D01*
X16585000Y8343891D01*
X16585000Y8656109D01*
X16524089Y8962327D01*
X16404609Y9250779D01*
X16231150Y9510379D01*
X16010379Y9731150D01*
X15750779Y9904609D01*
X15462327Y10024089D01*
X15156109Y10085000D01*
X14843891Y10085000D01*
X14537673Y10024089D01*
X14443303Y9985000D01*
X14433740Y9985000D01*
X14146842Y9927932D01*
X13876589Y9815990D01*
X13633368Y9653475D01*
X13426525Y9446632D01*
X13264010Y9203411D01*
X13152068Y8933158D01*
X13095000Y8646260D01*
X12135000Y8646260D01*
X12135000Y8759525D01*
X12033739Y9268601D01*
X11835107Y9748141D01*
X11546738Y10179715D01*
X11179715Y10546738D01*
X10748141Y10835107D01*
X10268601Y11033739D01*
X9759525Y11135000D01*
X9240475Y11135000D01*
X8731399Y11033739D01*
X8251859Y10835107D01*
X7820285Y10546738D01*
X7453262Y10179715D01*
X7164893Y9748141D01*
X6966261Y9268601D01*
X6865000Y8759525D01*
X6865000Y8622444D01*
X6425000Y9062444D01*
X6425000Y9304137D01*
X6582882Y9369534D01*
X6891618Y9575825D01*
X7154175Y9838382D01*
X7360466Y10147118D01*
X7502561Y10490166D01*
X7575000Y10854344D01*
X7575000Y11225656D01*
X7502561Y11589834D01*
X7360466Y11932882D01*
X7154175Y12241618D01*
X6891618Y12504175D01*
X6582882Y12710466D01*
X6239834Y12852561D01*
X5875656Y12925000D01*
X5504344Y12925000D01*
X5140166Y12852561D01*
X4797118Y12710466D01*
X4488382Y12504175D01*
X4225825Y12241618D01*
X4019534Y11932882D01*
X3877439Y11589834D01*
X3805000Y11225656D01*
X3805000Y10854344D01*
X3877439Y10490166D01*
X4019534Y10147118D01*
X4061040Y10085000D01*
X3843891Y10085000D01*
X3537673Y10024089D01*
X3249221Y9904609D01*
X2989621Y9731150D01*
X2768850Y9510379D01*
X2595391Y9250779D01*
X2475911Y8962327D01*
X2415000Y8656109D01*
X2415000Y8343891D01*
X2475911Y8037673D01*
X2595391Y7749221D01*
X2768850Y7489621D01*
X2989621Y7268850D01*
X3249221Y7095391D01*
X3537673Y6975911D01*
X3843891Y6915000D01*
X4156109Y6915000D01*
X4462327Y6975911D01*
X4556697Y7015000D01*
X4566260Y7015000D01*
X4853158Y7072068D01*
X5123411Y7184010D01*
X5366632Y7346525D01*
X5573475Y7553368D01*
X5686312Y7722240D01*
X7802745Y5605806D01*
X7825761Y5577761D01*
X7937679Y5485912D01*
X8065366Y5417662D01*
X8203914Y5375634D01*
X8311894Y5364999D01*
X8311903Y5364999D01*
X8347998Y5361444D01*
X8384093Y5364999D01*
X22883896Y5364999D01*
X22920001Y5361443D01*
X22956106Y5364999D01*
X23064086Y5375634D01*
X23202634Y5417662D01*
X23330321Y5485912D01*
X23442239Y5577761D01*
X23465259Y5605811D01*
X25234193Y7374744D01*
X25262238Y7397760D01*
X25354087Y7509678D01*
X25422337Y7637365D01*
X25464365Y7775913D01*
X25475000Y7883893D01*
X25475000Y7883902D01*
X25478555Y7919997D01*
X25475000Y7956092D01*
X25475000Y9304137D01*
X25632882Y9369534D01*
X25941618Y9575825D01*
X26204175Y9838382D01*
X26410466Y10147118D01*
X26475863Y10305000D01*
X26628547Y10305000D01*
X26503262Y10179715D01*
X26214893Y9748141D01*
X26016261Y9268601D01*
X25915000Y8759525D01*
X25915000Y8240475D01*
X26016261Y7731399D01*
X26214893Y7251859D01*
X26503262Y6820285D01*
X26870285Y6453262D01*
X27301859Y6164893D01*
X27781399Y5966261D01*
X28290475Y5865000D01*
X28809525Y5865000D01*
X29318601Y5966261D01*
X29798141Y6164893D01*
X30229715Y6453262D01*
X30596738Y6820285D01*
X30885107Y7251859D01*
X31083739Y7731399D01*
X31185000Y8240475D01*
X31185000Y8646260D01*
X32145000Y8646260D01*
X32145000Y8353740D01*
X32202068Y8066842D01*
X32314010Y7796589D01*
X32476525Y7553368D01*
X32683368Y7346525D01*
X32926589Y7184010D01*
X33196842Y7072068D01*
X33483740Y7015000D01*
X33493303Y7015000D01*
X33587673Y6975911D01*
X33893891Y6915000D01*
X34206109Y6915000D01*
X34512327Y6975911D01*
X34800779Y7095391D01*
X35060379Y7268850D01*
X35281150Y7489621D01*
X35454609Y7749221D01*
X35574089Y8037673D01*
X35635000Y8343891D01*
X35635000Y8656109D01*
X35574089Y8962327D01*
X35454609Y9250779D01*
X35281150Y9510379D01*
X35060379Y9731150D01*
X34800779Y9904609D01*
X34512327Y10024089D01*
X34206109Y10085000D01*
X33893891Y10085000D01*
X33587673Y10024089D01*
X33493303Y9985000D01*
X33483740Y9985000D01*
X33196842Y9927932D01*
X32926589Y9815990D01*
X32683368Y9653475D01*
X32476525Y9446632D01*
X32314010Y9203411D01*
X32202068Y8933158D01*
X32145000Y8646260D01*
X31185000Y8646260D01*
X31185000Y8759525D01*
X31083739Y9268601D01*
X30885107Y9748141D01*
X30596738Y10179715D01*
X30471453Y10305000D01*
X30955897Y10305000D01*
X30992002Y10301444D01*
X31028107Y10305000D01*
X31136087Y10315635D01*
X31274635Y10357663D01*
X31402322Y10425913D01*
X31514240Y10517762D01*
X31537260Y10545812D01*
X33234194Y12242745D01*
X33262239Y12265761D01*
X33354088Y12377679D01*
X33422338Y12505366D01*
X33464366Y12643914D01*
X33475001Y12751894D01*
X33478557Y12787999D01*
X33475001Y12824104D01*
X33475001Y14335896D01*
X33478557Y14372001D01*
X33464366Y14516086D01*
X33422338Y14654633D01*
X33422338Y14654634D01*
X33354088Y14782321D01*
X33307035Y14839655D01*
X33285254Y14866195D01*
X33285251Y14866198D01*
X33262238Y14894239D01*
X33234198Y14917251D01*
X32325010Y15826438D01*
X32325010Y26830126D01*
X32476525Y26603368D01*
X32683368Y26396525D01*
X32926589Y26234010D01*
X33196842Y26122068D01*
X33483740Y26065000D01*
X33493303Y26065000D01*
X33587673Y26025911D01*
X33893891Y25965000D01*
X34206109Y25965000D01*
X34512327Y26025911D01*
X34800779Y26145391D01*
X35060379Y26318850D01*
X35281150Y26539621D01*
X35454609Y26799221D01*
X35574089Y27087673D01*
X35635000Y27393891D01*
X35635000Y27706109D01*
X35574089Y28012327D01*
X35454609Y28300779D01*
X35281150Y28560379D01*
X35060379Y28781150D01*
X34800779Y28954609D01*
X34512327Y29074089D01*
X34206109Y29135000D01*
X33893891Y29135000D01*
X33587673Y29074089D01*
X33493303Y29035000D01*
X33483740Y29035000D01*
X33196842Y28977932D01*
X32926589Y28865990D01*
X32683368Y28703475D01*
X32476525Y28496632D01*
X32325010Y28269874D01*
X32325010Y30383562D01*
X33234194Y31292745D01*
X33262239Y31315761D01*
X33354088Y31427679D01*
X33422338Y31555366D01*
X33464366Y31693914D01*
X33475001Y31801894D01*
X33475001Y31801895D01*
X33478557Y31837999D01*
X33475001Y31874104D01*
X33475001Y33385896D01*
X33478557Y33422001D01*
X33464366Y33566086D01*
X33422338Y33704633D01*
X33422338Y33704634D01*
X33354088Y33832321D01*
X33307035Y33889655D01*
X33285254Y33916195D01*
X33285251Y33916198D01*
X33262238Y33944239D01*
X33234198Y33967251D01*
X32325010Y34876438D01*
X32325010Y44369322D01*
X32444208Y44488520D01*
X32472259Y44511541D01*
X32564108Y44623459D01*
X32632358Y44751146D01*
X32674386Y44889694D01*
X32685021Y44997674D01*
X32685021Y44997683D01*
X32688576Y45033778D01*
X32685021Y45069873D01*
X32685021Y45445421D01*
X32926589Y45284010D01*
X33196842Y45172068D01*
X33483740Y45115000D01*
X33493303Y45115000D01*
X33587673Y45075911D01*
X33893891Y45015000D01*
X34206109Y45015000D01*
X34512327Y45075911D01*
X34800779Y45195391D01*
X35060379Y45368850D01*
X35281150Y45589621D01*
X35454609Y45849221D01*
X35574089Y46137673D01*
X35635000Y46443891D01*
X35635000Y46756109D01*
X35574089Y47062327D01*
X35454609Y47350779D01*
X35281150Y47610379D01*
X35060379Y47831150D01*
X34800779Y48004609D01*
X34512327Y48124089D01*
X34206109Y48185000D01*
X33893891Y48185000D01*
X33587673Y48124089D01*
X33493303Y48085000D01*
X33483740Y48085000D01*
X33196842Y48027932D01*
X32926589Y47915990D01*
X32685021Y47754579D01*
X32685021Y49793573D01*
X34094194Y51202745D01*
X34122239Y51225761D01*
X34214088Y51337679D01*
X34282338Y51465366D01*
X34315289Y51573990D01*
X34324366Y51603913D01*
X34327139Y51632068D01*
X34335001Y51711894D01*
X34335001Y51711901D01*
X34338556Y51747998D01*
X34335001Y51784095D01*
X34335001Y53722073D01*
X35974192Y55361263D01*
X36002237Y55384279D01*
X36025971Y55413199D01*
X36280671Y55290065D01*
X36582873Y55211621D01*
X36894573Y55193641D01*
X37203791Y55236816D01*
X37415001Y55310362D01*
X37415001Y51259703D01*
X37336594Y51235919D01*
X37217593Y51172312D01*
X37113289Y51086711D01*
X37027688Y50982407D01*
X36964081Y50863406D01*
X36924912Y50734283D01*
X36921440Y50699029D01*
X36910197Y50689803D01*
X36894403Y50670557D01*
X36882667Y50648601D01*
X36875440Y50624776D01*
X36873000Y50600000D01*
X36873000Y42600000D01*
X36875440Y42575224D01*
X36882667Y42551399D01*
X36894403Y42529443D01*
X36910197Y42510197D01*
X36921440Y42500971D01*
X36924912Y42465717D01*
X36964081Y42336594D01*
X37027688Y42217593D01*
X37113289Y42113289D01*
X37217593Y42027688D01*
X37336594Y41964081D01*
X37415000Y41940297D01*
X37415001Y13159703D01*
X37336594Y13135919D01*
X37217593Y13072312D01*
X37113289Y12986711D01*
X37027688Y12882407D01*
X36964081Y12763406D01*
X36924912Y12634283D01*
X36921440Y12599029D01*
X36910197Y12589803D01*
X36894403Y12570557D01*
X36882667Y12548601D01*
X36875440Y12524776D01*
X36873000Y12500000D01*
X36873000Y4500000D01*
X36875440Y4475224D01*
X36882667Y4451399D01*
X36894403Y4429443D01*
X36910197Y4410197D01*
X36921440Y4400971D01*
X36924912Y4365717D01*
X36964081Y4236594D01*
X37027688Y4117593D01*
X37113289Y4013289D01*
X37217593Y3927688D01*
X37336594Y3864081D01*
X37415000Y3840297D01*
X37415001Y1033515D01*
X37386733Y745218D01*
X37312741Y500145D01*
X37192554Y274107D01*
X37030754Y75721D01*
X36833503Y-87460D01*
X36608310Y-209221D01*
X36363753Y-284924D01*
X36077602Y-315000D01*
X2033505Y-315000D01*
X1745218Y-286733D01*
X1500145Y-212741D01*
X1274107Y-92554D01*
X1075721Y69246D01*
X912540Y266497D01*
X790779Y491690D01*
X715076Y736247D01*
X685000Y1022398D01*
X685000Y92166495D01*
X713267Y92454782D01*
X787259Y92699855D01*
X907443Y92925890D01*
X1069248Y93124281D01*
X1266497Y93287460D01*
X1491687Y93409220D01*
X1736247Y93484924D01*
X2022398Y93515000D01*
X36066495Y93515000D01*
X36354782Y93486733D01*
X36354782Y93486733D01*
G37*
X36354782Y93486733D02*
X36599855Y93412741D01*
X36825890Y93292557D01*
X37024281Y93130752D01*
X37187460Y92933503D01*
X37309220Y92708313D01*
X37384924Y92463753D01*
X37415000Y92177602D01*
X37415001Y89359703D01*
X37336594Y89335919D01*
X37217593Y89272312D01*
X37113289Y89186711D01*
X37027688Y89082407D01*
X36964081Y88963406D01*
X36924912Y88834283D01*
X36923915Y88824163D01*
X36901399Y88817333D01*
X36879443Y88805597D01*
X36860197Y88789803D01*
X36844403Y88770557D01*
X36832667Y88748601D01*
X36825440Y88724776D01*
X36823000Y88700000D01*
X36823000Y80700000D01*
X36825440Y80675224D01*
X36832667Y80651399D01*
X36844403Y80629443D01*
X36860197Y80610197D01*
X36879443Y80594403D01*
X36901399Y80582667D01*
X36923915Y80575837D01*
X36924912Y80565717D01*
X36964081Y80436594D01*
X37027688Y80317593D01*
X37113289Y80213289D01*
X37217593Y80127688D01*
X37336594Y80064081D01*
X37415000Y80040297D01*
X37415000Y76038276D01*
X37292327Y76089089D01*
X36986109Y76150000D01*
X36673891Y76150000D01*
X36367673Y76089089D01*
X36351894Y76082553D01*
X32185011Y80249435D01*
X32185011Y84352593D01*
X32202068Y84266842D01*
X32314010Y83996589D01*
X32476525Y83753368D01*
X32683368Y83546525D01*
X32926589Y83384010D01*
X33196842Y83272068D01*
X33483740Y83215000D01*
X33493303Y83215000D01*
X33587673Y83175911D01*
X33893891Y83115000D01*
X34206109Y83115000D01*
X34512327Y83175911D01*
X34800779Y83295391D01*
X35060379Y83468850D01*
X35281150Y83689621D01*
X35454609Y83949221D01*
X35574089Y84237673D01*
X35635000Y84543891D01*
X35635000Y84856109D01*
X35574089Y85162327D01*
X35454609Y85450779D01*
X35281150Y85710379D01*
X35060379Y85931150D01*
X34800779Y86104609D01*
X34512327Y86224089D01*
X34206109Y86285000D01*
X33932887Y86285000D01*
X33964376Y86388806D01*
X33975011Y86496786D01*
X33975011Y86496795D01*
X33978566Y86532890D01*
X33975011Y86568985D01*
X33975011Y90743017D01*
X33978566Y90779112D01*
X33975011Y90815207D01*
X33975011Y90815216D01*
X33964376Y90923196D01*
X33922348Y91061744D01*
X33854098Y91189431D01*
X33806299Y91247674D01*
X33785264Y91273305D01*
X33785261Y91273308D01*
X33762248Y91301349D01*
X33734208Y91324361D01*
X32634369Y92424199D01*
X32611349Y92452249D01*
X32499431Y92544098D01*
X32371744Y92612348D01*
X32233196Y92654376D01*
X32125216Y92665011D01*
X32089111Y92668567D01*
X32053006Y92665011D01*
X25609874Y92665011D01*
X25573769Y92668567D01*
X25537664Y92665011D01*
X25429684Y92654376D01*
X25291136Y92612348D01*
X25163449Y92544098D01*
X25051531Y92452249D01*
X25028515Y92424204D01*
X20205787Y87601475D01*
X20177742Y87578459D01*
X20085893Y87466541D01*
X20025785Y87354087D01*
X20017643Y87338854D01*
X19975614Y87200306D01*
X19961423Y87056221D01*
X19964980Y87020106D01*
X19964979Y83673884D01*
X19961423Y83637779D01*
X19968861Y83562257D01*
X19975614Y83493695D01*
X20017642Y83355147D01*
X20085892Y83227460D01*
X20177741Y83115542D01*
X20205787Y83092525D01*
X22504971Y80793340D01*
X22504970Y71557779D01*
X19705777Y68758585D01*
X19677732Y68735569D01*
X19585883Y68623651D01*
X19524646Y68509085D01*
X19517633Y68495964D01*
X19475604Y68357416D01*
X19461413Y68213331D01*
X19464970Y68177216D01*
X19464969Y61937538D01*
X15408754Y57881322D01*
X15346680Y57914502D01*
X15226982Y57950812D01*
X15102500Y57963072D01*
X13902500Y57963072D01*
X13778018Y57950812D01*
X13658320Y57914502D01*
X13548006Y57855537D01*
X13451315Y57776185D01*
X13371963Y57679494D01*
X13312998Y57569180D01*
X13279879Y57460000D01*
X10725121Y57460000D01*
X10692002Y57569180D01*
X10633037Y57679494D01*
X10553685Y57776185D01*
X10456994Y57855537D01*
X10346680Y57914502D01*
X10226982Y57950812D01*
X10102500Y57963072D01*
X8902500Y57963072D01*
X8778018Y57950812D01*
X8658320Y57914502D01*
X8548006Y57855537D01*
X8451315Y57776185D01*
X8371963Y57679494D01*
X8312998Y57569180D01*
X8279879Y57460000D01*
X5725121Y57460000D01*
X5692002Y57569180D01*
X5633037Y57679494D01*
X5553685Y57776185D01*
X5456994Y57855537D01*
X5346680Y57914502D01*
X5237500Y57947621D01*
X5237500Y59675000D01*
X5764428Y59675000D01*
X5764428Y58475000D01*
X5776688Y58350518D01*
X5812998Y58230820D01*
X5871963Y58120506D01*
X5951315Y58023815D01*
X6048006Y57944463D01*
X6158320Y57885498D01*
X6278018Y57849188D01*
X6402500Y57836928D01*
X7602500Y57836928D01*
X7726982Y57849188D01*
X7846680Y57885498D01*
X7956994Y57944463D01*
X8053685Y58023815D01*
X8133037Y58120506D01*
X8192002Y58230820D01*
X8228312Y58350518D01*
X8240572Y58475000D01*
X8240572Y58483689D01*
X8324738Y58552762D01*
X8347758Y58580812D01*
X9106948Y59340001D01*
X10764428Y59340001D01*
X10764428Y58475000D01*
X10776688Y58350518D01*
X10812998Y58230820D01*
X10871963Y58120506D01*
X10951315Y58023815D01*
X11048006Y57944463D01*
X11158320Y57885498D01*
X11278018Y57849188D01*
X11402500Y57836928D01*
X12602500Y57836928D01*
X12726982Y57849188D01*
X12846680Y57885498D01*
X12956994Y57944463D01*
X13053685Y58023815D01*
X13133037Y58120506D01*
X13192002Y58230820D01*
X13225121Y58340000D01*
X14038895Y58340000D01*
X14075000Y58336444D01*
X14111105Y58340000D01*
X14219085Y58350635D01*
X14357633Y58392663D01*
X14485320Y58460913D01*
X14597238Y58552762D01*
X14620258Y58580812D01*
X16494193Y60454746D01*
X16522238Y60477762D01*
X16614087Y60589680D01*
X16682337Y60717367D01*
X16719326Y60839303D01*
X16724365Y60855914D01*
X16729692Y60910000D01*
X16735000Y60963895D01*
X16735000Y60963902D01*
X16738555Y60999999D01*
X16735000Y61036096D01*
X16735000Y64195554D01*
X16844188Y64304742D01*
X16872239Y64327763D01*
X16964088Y64439681D01*
X17032338Y64567368D01*
X17064807Y64674404D01*
X17074366Y64705915D01*
X17078596Y64748868D01*
X17085001Y64813896D01*
X17085001Y64813903D01*
X17088556Y64850000D01*
X17085001Y64886097D01*
X17085001Y68825896D01*
X17088557Y68862001D01*
X17074366Y69006086D01*
X17070720Y69018106D01*
X17032338Y69144634D01*
X16964088Y69272321D01*
X16904410Y69345038D01*
X16895254Y69356195D01*
X16895251Y69356198D01*
X16872238Y69384239D01*
X16844198Y69407251D01*
X12775000Y73476448D01*
X12775000Y75464449D01*
X16365000Y75464449D01*
X16365000Y74935551D01*
X16468183Y74416814D01*
X16670583Y73928175D01*
X16964424Y73488412D01*
X17338412Y73114424D01*
X17778175Y72820583D01*
X18266814Y72618183D01*
X18785551Y72515000D01*
X19314449Y72515000D01*
X19833186Y72618183D01*
X20321825Y72820583D01*
X20761588Y73114424D01*
X21135576Y73488412D01*
X21429417Y73928175D01*
X21631817Y74416814D01*
X21735000Y74935551D01*
X21735000Y75464449D01*
X21631817Y75983186D01*
X21429417Y76471825D01*
X21135576Y76911588D01*
X20761588Y77285576D01*
X20321825Y77579417D01*
X19833186Y77781817D01*
X19314449Y77885000D01*
X18785551Y77885000D01*
X18266814Y77781817D01*
X17778175Y77579417D01*
X17338412Y77285576D01*
X16964424Y76911588D01*
X16670583Y76471825D01*
X16468183Y75983186D01*
X16365000Y75464449D01*
X12775000Y75464449D01*
X12775000Y84846260D01*
X13095000Y84846260D01*
X13095000Y84553740D01*
X13152068Y84266842D01*
X13264010Y83996589D01*
X13426525Y83753368D01*
X13633368Y83546525D01*
X13876589Y83384010D01*
X14146842Y83272068D01*
X14433740Y83215000D01*
X14443303Y83215000D01*
X14537673Y83175911D01*
X14843891Y83115000D01*
X15156109Y83115000D01*
X15462327Y83175911D01*
X15750779Y83295391D01*
X16010379Y83468850D01*
X16231150Y83689621D01*
X16404609Y83949221D01*
X16524089Y84237673D01*
X16585000Y84543891D01*
X16585000Y84856109D01*
X16524089Y85162327D01*
X16404609Y85450779D01*
X16231150Y85710379D01*
X16010379Y85931150D01*
X15750779Y86104609D01*
X15462327Y86224089D01*
X15156109Y86285000D01*
X14843891Y86285000D01*
X14537673Y86224089D01*
X14443303Y86185000D01*
X14433740Y86185000D01*
X14146842Y86127932D01*
X13876589Y86015990D01*
X13633368Y85853475D01*
X13426525Y85646632D01*
X13264010Y85403411D01*
X13152068Y85133158D01*
X13095000Y84846260D01*
X12775000Y84846260D01*
X12775000Y88044137D01*
X12932882Y88109534D01*
X13241618Y88315825D01*
X13504175Y88578382D01*
X13710466Y88887118D01*
X13852561Y89230166D01*
X13925000Y89594344D01*
X13925000Y89965656D01*
X13852561Y90329834D01*
X13710466Y90672882D01*
X13504175Y90981618D01*
X13241618Y91244175D01*
X12932882Y91450466D01*
X12589834Y91592561D01*
X12225656Y91665000D01*
X11854344Y91665000D01*
X11490166Y91592561D01*
X11147118Y91450466D01*
X10838382Y91244175D01*
X10575825Y90981618D01*
X10369534Y90672882D01*
X10227439Y90329834D01*
X10155000Y89965656D01*
X10155000Y89594344D01*
X10227439Y89230166D01*
X10369534Y88887118D01*
X10575825Y88578382D01*
X10838382Y88315825D01*
X11147118Y88109534D01*
X11305000Y88044137D01*
X11305000Y86621453D01*
X11179715Y86746738D01*
X10748141Y87035107D01*
X10268601Y87233739D01*
X9759525Y87335000D01*
X9240475Y87335000D01*
X8731399Y87233739D01*
X8251859Y87035107D01*
X7820285Y86746738D01*
X7453262Y86379715D01*
X7164893Y85948141D01*
X6966261Y85468601D01*
X6865000Y84959525D01*
X6865000Y84440475D01*
X6966261Y83931399D01*
X7164893Y83451859D01*
X7453262Y83020285D01*
X7820285Y82653262D01*
X8251859Y82364893D01*
X8731399Y82166261D01*
X9240475Y82065000D01*
X9759525Y82065000D01*
X10268601Y82166261D01*
X10748141Y82364893D01*
X11179715Y82653262D01*
X11305000Y82778547D01*
X11305001Y73208117D01*
X11301444Y73172002D01*
X11315635Y73027917D01*
X11330171Y72980000D01*
X11357664Y72889369D01*
X11425914Y72761682D01*
X11517763Y72649764D01*
X11545808Y72626748D01*
X11606796Y72565760D01*
X11490166Y72542561D01*
X11147118Y72400466D01*
X10838382Y72194175D01*
X10575825Y71931618D01*
X10369534Y71622882D01*
X10227439Y71279834D01*
X10155000Y70915656D01*
X10155000Y70544344D01*
X10227439Y70180166D01*
X10369534Y69837118D01*
X10575825Y69528382D01*
X10838382Y69265825D01*
X11147118Y69059534D01*
X11304602Y68994302D01*
X11301444Y68962234D01*
X11315635Y68818149D01*
X11349862Y68705320D01*
X11357664Y68679601D01*
X11425914Y68551914D01*
X11517763Y68439996D01*
X11545808Y68416980D01*
X12594999Y67367788D01*
X12595000Y65086114D01*
X12591443Y65049999D01*
X12605634Y64905914D01*
X12622596Y64850000D01*
X12647663Y64767366D01*
X12715913Y64639679D01*
X12807762Y64527761D01*
X12835807Y64504745D01*
X14765000Y62575551D01*
X14765001Y61511568D01*
X14063435Y60810001D01*
X8838606Y60810001D01*
X8802501Y60813557D01*
X8658415Y60799366D01*
X8616387Y60786617D01*
X8519868Y60757338D01*
X8392181Y60689088D01*
X8280263Y60597239D01*
X8257247Y60569194D01*
X7915676Y60227622D01*
X7846680Y60264502D01*
X7726982Y60300812D01*
X7602500Y60313072D01*
X6402500Y60313072D01*
X6278018Y60300812D01*
X6158320Y60264502D01*
X6048006Y60205537D01*
X5951315Y60126185D01*
X5871963Y60029494D01*
X5812998Y59919180D01*
X5776688Y59799482D01*
X5764428Y59675000D01*
X5237500Y59675000D01*
X5237500Y60620554D01*
X6089324Y61472378D01*
X6158320Y61435498D01*
X6278018Y61399188D01*
X6402500Y61386928D01*
X7602500Y61386928D01*
X7726982Y61399188D01*
X7846680Y61435498D01*
X7956994Y61494463D01*
X8053685Y61573815D01*
X8133037Y61670506D01*
X8192002Y61780820D01*
X8225121Y61890000D01*
X10779879Y61890000D01*
X10812998Y61780820D01*
X10871963Y61670506D01*
X10951315Y61573815D01*
X11048006Y61494463D01*
X11158320Y61435498D01*
X11278018Y61399188D01*
X11402500Y61386928D01*
X12602500Y61386928D01*
X12726982Y61399188D01*
X12846680Y61435498D01*
X12956994Y61494463D01*
X13053685Y61573815D01*
X13133037Y61670506D01*
X13192002Y61780820D01*
X13228312Y61900518D01*
X13240572Y62025000D01*
X13240572Y63225000D01*
X13228312Y63349482D01*
X13192002Y63469180D01*
X13133037Y63579494D01*
X13053685Y63676185D01*
X12956994Y63755537D01*
X12846680Y63814502D01*
X12726982Y63850812D01*
X12602500Y63863072D01*
X11439525Y63863072D01*
X11546738Y63970285D01*
X11835107Y64401859D01*
X12033739Y64881399D01*
X12135000Y65390475D01*
X12135000Y65909525D01*
X12033739Y66418601D01*
X11835107Y66898141D01*
X11546738Y67329715D01*
X11179715Y67696738D01*
X10748141Y67985107D01*
X10268601Y68183739D01*
X9759525Y68285000D01*
X9240475Y68285000D01*
X8731399Y68183739D01*
X8251859Y67985107D01*
X8075001Y67866934D01*
X8075001Y68945896D01*
X8078557Y68982001D01*
X8064366Y69126086D01*
X8058740Y69144633D01*
X8022338Y69264634D01*
X7954088Y69392321D01*
X7862239Y69504239D01*
X7834194Y69527255D01*
X6425000Y70936448D01*
X6425000Y85504137D01*
X6582882Y85569534D01*
X6891618Y85775825D01*
X7154175Y86038382D01*
X7360466Y86347118D01*
X7502561Y86690166D01*
X7575000Y87054344D01*
X7575000Y87425656D01*
X7502561Y87789834D01*
X7360466Y88132882D01*
X7154175Y88441618D01*
X6891618Y88704175D01*
X6582882Y88910466D01*
X6239834Y89052561D01*
X5875656Y89125000D01*
X5504344Y89125000D01*
X5140166Y89052561D01*
X4797118Y88910466D01*
X4488382Y88704175D01*
X4225825Y88441618D01*
X4019534Y88132882D01*
X3877439Y87789834D01*
X3805000Y87425656D01*
X3805000Y87054344D01*
X3877439Y86690166D01*
X4019534Y86347118D01*
X4061040Y86285000D01*
X3843891Y86285000D01*
X3537673Y86224089D01*
X3249221Y86104609D01*
X2989621Y85931150D01*
X2768850Y85710379D01*
X2595391Y85450779D01*
X2475911Y85162327D01*
X2415000Y84856109D01*
X2415000Y84543891D01*
X2475911Y84237673D01*
X2595391Y83949221D01*
X2768850Y83689621D01*
X2989621Y83468850D01*
X3249221Y83295391D01*
X3537673Y83175911D01*
X3843891Y83115000D01*
X4156109Y83115000D01*
X4462327Y83175911D01*
X4556697Y83215000D01*
X4566260Y83215000D01*
X4853158Y83272068D01*
X4955001Y83314252D01*
X4955000Y70668107D01*
X4951444Y70632002D01*
X4961592Y70528967D01*
X4965635Y70487918D01*
X5007663Y70349370D01*
X5075913Y70221683D01*
X5167762Y70109765D01*
X5195808Y70086748D01*
X5256796Y70025760D01*
X5140166Y70002561D01*
X4797118Y69860466D01*
X4488382Y69654175D01*
X4225825Y69391618D01*
X4019534Y69082882D01*
X3877439Y68739834D01*
X3805000Y68375656D01*
X3805000Y68004344D01*
X3877439Y67640166D01*
X4019534Y67297118D01*
X4061040Y67235000D01*
X3843891Y67235000D01*
X3537673Y67174089D01*
X3249221Y67054609D01*
X2989621Y66881150D01*
X2768850Y66660379D01*
X2595391Y66400779D01*
X2475911Y66112327D01*
X2415000Y65806109D01*
X2415000Y65493891D01*
X2475911Y65187673D01*
X2595391Y64899221D01*
X2768850Y64639621D01*
X2989621Y64418850D01*
X3249221Y64245391D01*
X3537673Y64125911D01*
X3843891Y64065000D01*
X4156109Y64065000D01*
X4462327Y64125911D01*
X4556697Y64165000D01*
X4566260Y64165000D01*
X4853158Y64222068D01*
X4955001Y64264253D01*
X4955001Y64244070D01*
X2505808Y61794876D01*
X2477762Y61771859D01*
X2385913Y61659941D01*
X2317663Y61532254D01*
X2294131Y61454680D01*
X2275635Y61393707D01*
X2261444Y61249622D01*
X2265000Y61213517D01*
X2265001Y55636493D01*
X2261444Y55600378D01*
X2275635Y55456293D01*
X2311995Y55336433D01*
X2317664Y55317745D01*
X2385914Y55190058D01*
X2477763Y55078140D01*
X2505808Y55055124D01*
X2610932Y54950000D01*
X2209547Y54548615D01*
X2181501Y54525598D01*
X2089652Y54413680D01*
X2021402Y54285993D01*
X2002390Y54223319D01*
X1979374Y54147446D01*
X1965183Y54003361D01*
X1968739Y53967256D01*
X1968740Y52162376D01*
X1965183Y52126261D01*
X1979374Y51982176D01*
X2006704Y51892083D01*
X2021403Y51843628D01*
X2089653Y51715941D01*
X2181502Y51604023D01*
X2209547Y51581007D01*
X3942836Y49847717D01*
X3877439Y49689834D01*
X3805000Y49325656D01*
X3805000Y48954344D01*
X3877439Y48590166D01*
X4019534Y48247118D01*
X4061040Y48185000D01*
X3843891Y48185000D01*
X3537673Y48124089D01*
X3249221Y48004609D01*
X2989621Y47831150D01*
X2768850Y47610379D01*
X2595391Y47350779D01*
X2475911Y47062327D01*
X2415000Y46756109D01*
X2415000Y46443891D01*
X2475911Y46137673D01*
X2595391Y45849221D01*
X2768850Y45589621D01*
X2989621Y45368850D01*
X3249221Y45195391D01*
X3537673Y45075911D01*
X3843891Y45015000D01*
X4156109Y45015000D01*
X4462327Y45075911D01*
X4556697Y45115000D01*
X4566260Y45115000D01*
X4853158Y45172068D01*
X4955000Y45214252D01*
X4955001Y31825863D01*
X4797118Y31760466D01*
X4488382Y31554175D01*
X4225825Y31291618D01*
X4019534Y30982882D01*
X3877439Y30639834D01*
X3805000Y30275656D01*
X3805000Y29904344D01*
X3877439Y29540166D01*
X4019534Y29197118D01*
X4061040Y29135000D01*
X3843891Y29135000D01*
X3537673Y29074089D01*
X3249221Y28954609D01*
X2989621Y28781150D01*
X2768850Y28560379D01*
X2595391Y28300779D01*
X2475911Y28012327D01*
X2415000Y27706109D01*
X2415000Y27393891D01*
X2475911Y27087673D01*
X2595391Y26799221D01*
X2768850Y26539621D01*
X2989621Y26318850D01*
X3249221Y26145391D01*
X3537673Y26025911D01*
X3843891Y25965000D01*
X4156109Y25965000D01*
X4462327Y26025911D01*
X4556697Y26065000D01*
X4566260Y26065000D01*
X4853158Y26122068D01*
X5123411Y26234010D01*
X5366632Y26396525D01*
X5573475Y26603368D01*
X5735990Y26846589D01*
X5847932Y27116842D01*
X5905000Y27403740D01*
X5905000Y27696260D01*
X5847932Y27983158D01*
X5756042Y28205000D01*
X5875656Y28205000D01*
X6239834Y28277439D01*
X6582882Y28419534D01*
X6891618Y28625825D01*
X7154175Y28888382D01*
X7360466Y29197118D01*
X7502561Y29540166D01*
X7575000Y29904344D01*
X7575000Y30275656D01*
X7502561Y30639834D01*
X7360466Y30982882D01*
X7154175Y31291618D01*
X6891618Y31554175D01*
X6582882Y31760466D01*
X6425000Y31825863D01*
X6425000Y46393552D01*
X6865000Y46833552D01*
X6865000Y46340475D01*
X6966261Y45831399D01*
X7164893Y45351859D01*
X7453262Y44920285D01*
X7820285Y44553262D01*
X8251859Y44264893D01*
X8731399Y44066261D01*
X9240475Y43965000D01*
X9759525Y43965000D01*
X10268601Y44066261D01*
X10748141Y44264893D01*
X10804991Y44302879D01*
X10804990Y34876439D01*
X9895807Y33967255D01*
X9867762Y33944239D01*
X9775913Y33832321D01*
X9707664Y33704635D01*
X9707663Y33704634D01*
X9665634Y33566086D01*
X9651443Y33422001D01*
X9655000Y33385886D01*
X9654999Y30248108D01*
X9651443Y30212003D01*
X9654103Y30185000D01*
X9240475Y30185000D01*
X8731399Y30083739D01*
X8251859Y29885107D01*
X7820285Y29596738D01*
X7453262Y29229715D01*
X7164893Y28798141D01*
X6966261Y28318601D01*
X6865000Y27809525D01*
X6865000Y27290475D01*
X6966261Y26781399D01*
X7164893Y26301859D01*
X7453262Y25870285D01*
X7820285Y25503262D01*
X8251859Y25214893D01*
X8731399Y25016261D01*
X9240475Y24915000D01*
X9759525Y24915000D01*
X10268601Y25016261D01*
X10748141Y25214893D01*
X11179715Y25503262D01*
X11305001Y25628548D01*
X11305000Y15315863D01*
X11147118Y15250466D01*
X10838382Y15044175D01*
X10575825Y14781618D01*
X10369534Y14472882D01*
X10227439Y14129834D01*
X10155000Y13765656D01*
X10155000Y13394344D01*
X10227439Y13030166D01*
X10369534Y12687118D01*
X10575825Y12378382D01*
X10838382Y12115825D01*
X11147118Y11909534D01*
X11490166Y11767439D01*
X11854344Y11695000D01*
X12225656Y11695000D01*
X12589834Y11767439D01*
X12932882Y11909534D01*
X13241618Y12115825D01*
X13504175Y12378382D01*
X13710466Y12687118D01*
X13852561Y13030166D01*
X13925000Y13394344D01*
X13925000Y13765656D01*
X13852561Y14129834D01*
X13710466Y14472882D01*
X13504175Y14781618D01*
X13241618Y15044175D01*
X12932882Y15250466D01*
X12775000Y15315863D01*
X12775000Y18314449D01*
X16365000Y18314449D01*
X16365000Y17785551D01*
X16468183Y17266814D01*
X16670583Y16778175D01*
X16964424Y16338412D01*
X17338412Y15964424D01*
X17778175Y15670583D01*
X18266814Y15468183D01*
X18785551Y15365000D01*
X19314449Y15365000D01*
X19833186Y15468183D01*
X20321825Y15670583D01*
X20761588Y15964424D01*
X21135576Y16338412D01*
X21429417Y16778175D01*
X21631817Y17266814D01*
X21735000Y17785551D01*
X21735000Y18314449D01*
X21631817Y18833186D01*
X21429417Y19321825D01*
X21135576Y19761588D01*
X20761588Y20135576D01*
X20321825Y20429417D01*
X19833186Y20631817D01*
X19314449Y20735000D01*
X18785551Y20735000D01*
X18266814Y20631817D01*
X17778175Y20429417D01*
X17338412Y20135576D01*
X16964424Y19761588D01*
X16670583Y19321825D01*
X16468183Y18833186D01*
X16365000Y18314449D01*
X12775000Y18314449D01*
X12775000Y27696260D01*
X13095000Y27696260D01*
X13095000Y27403740D01*
X13152068Y27116842D01*
X13264010Y26846589D01*
X13426525Y26603368D01*
X13633368Y26396525D01*
X13876589Y26234010D01*
X14146842Y26122068D01*
X14433740Y26065000D01*
X14443303Y26065000D01*
X14537673Y26025911D01*
X14843891Y25965000D01*
X15156109Y25965000D01*
X15462327Y26025911D01*
X15750779Y26145391D01*
X16010379Y26318850D01*
X16231150Y26539621D01*
X16404609Y26799221D01*
X16524089Y27087673D01*
X16585000Y27393891D01*
X16585000Y27706109D01*
X16524089Y28012327D01*
X16404609Y28300779D01*
X16231150Y28560379D01*
X16010379Y28781150D01*
X15750779Y28954609D01*
X15462327Y29074089D01*
X15156109Y29135000D01*
X14843891Y29135000D01*
X14537673Y29074089D01*
X14443303Y29035000D01*
X14433740Y29035000D01*
X14146842Y28977932D01*
X13876589Y28865990D01*
X13633368Y28703475D01*
X13426525Y28496632D01*
X13264010Y28253411D01*
X13152068Y27983158D01*
X13095000Y27696260D01*
X12775000Y27696260D01*
X12775000Y28525897D01*
X12778556Y28562002D01*
X12764365Y28706087D01*
X12741595Y28781150D01*
X12722337Y28844635D01*
X12654087Y28972322D01*
X12562238Y29084240D01*
X12534193Y29107256D01*
X11124999Y30516449D01*
X11124999Y30974313D01*
X11147118Y30959534D01*
X11490166Y30817439D01*
X11854344Y30745000D01*
X12225656Y30745000D01*
X12589834Y30817439D01*
X12932882Y30959534D01*
X13241618Y31165825D01*
X13504175Y31428382D01*
X13710466Y31737118D01*
X13852561Y32080166D01*
X13925000Y32444344D01*
X13925000Y32815656D01*
X13852561Y33179834D01*
X13710466Y33522882D01*
X13504175Y33831618D01*
X13241618Y34094175D01*
X12932882Y34300466D01*
X12775000Y34365863D01*
X12775000Y37364449D01*
X16365000Y37364449D01*
X16365000Y36835551D01*
X16468183Y36316814D01*
X16670583Y35828175D01*
X16964424Y35388412D01*
X17338412Y35014424D01*
X17778175Y34720583D01*
X18266814Y34518183D01*
X18785551Y34415000D01*
X19314449Y34415000D01*
X19833186Y34518183D01*
X20321825Y34720583D01*
X20761588Y35014424D01*
X21135576Y35388412D01*
X21429417Y35828175D01*
X21631817Y36316814D01*
X21735000Y36835551D01*
X21735000Y37364449D01*
X21631817Y37883186D01*
X21429417Y38371825D01*
X21135576Y38811588D01*
X20761588Y39185576D01*
X20321825Y39479417D01*
X19833186Y39681817D01*
X19314449Y39785000D01*
X18785551Y39785000D01*
X18266814Y39681817D01*
X17778175Y39479417D01*
X17338412Y39185576D01*
X16964424Y38811588D01*
X16670583Y38371825D01*
X16468183Y37883186D01*
X16365000Y37364449D01*
X12775000Y37364449D01*
X12775000Y44576432D01*
X12894203Y44695635D01*
X12922248Y44718651D01*
X13014098Y44830569D01*
X13082348Y44958256D01*
X13124376Y45096804D01*
X13135011Y45204784D01*
X13135011Y45204793D01*
X13138566Y45240888D01*
X13135011Y45276983D01*
X13135011Y46252593D01*
X13152068Y46166842D01*
X13264010Y45896589D01*
X13426525Y45653368D01*
X13633368Y45446525D01*
X13876589Y45284010D01*
X14146842Y45172068D01*
X14433740Y45115000D01*
X14443303Y45115000D01*
X14537673Y45075911D01*
X14843891Y45015000D01*
X15156109Y45015000D01*
X15462327Y45075911D01*
X15750779Y45195391D01*
X16010379Y45368850D01*
X16231150Y45589621D01*
X16404609Y45849221D01*
X16524089Y46137673D01*
X16585000Y46443891D01*
X16585000Y46756109D01*
X16524089Y47062327D01*
X16404609Y47350779D01*
X16231150Y47610379D01*
X16010379Y47831150D01*
X15750779Y48004609D01*
X15462327Y48124089D01*
X15156109Y48185000D01*
X14843891Y48185000D01*
X14537673Y48124089D01*
X14443303Y48085000D01*
X14433740Y48085000D01*
X14146842Y48027932D01*
X13876589Y47915990D01*
X13633368Y47753475D01*
X13426525Y47546632D01*
X13264010Y47303411D01*
X13152068Y47033158D01*
X13135011Y46947407D01*
X13135011Y47873013D01*
X13138566Y47909108D01*
X13135011Y47945203D01*
X13135011Y47945212D01*
X13124376Y48053192D01*
X13082348Y48191740D01*
X13014098Y48319427D01*
X12922249Y48431345D01*
X12894204Y48454361D01*
X11474733Y49873832D01*
X11490166Y49867439D01*
X11854344Y49795000D01*
X12225656Y49795000D01*
X12589834Y49867439D01*
X12932882Y50009534D01*
X13241618Y50215825D01*
X13504175Y50478382D01*
X13710466Y50787118D01*
X13852561Y51130166D01*
X13925000Y51494344D01*
X13925000Y51865656D01*
X13910823Y51936928D01*
X15102500Y51936928D01*
X15226982Y51949188D01*
X15346680Y51985498D01*
X15456994Y52044463D01*
X15553685Y52123815D01*
X15633037Y52220506D01*
X15692002Y52330820D01*
X15728312Y52450518D01*
X15740572Y52575000D01*
X15740572Y52817483D01*
X16352269Y52205786D01*
X16375285Y52177741D01*
X16487203Y52085892D01*
X16614890Y52017642D01*
X16711409Y51988363D01*
X16753437Y51975614D01*
X16767655Y51974214D01*
X16861418Y51964979D01*
X16861425Y51964979D01*
X16897522Y51961424D01*
X16933619Y51964979D01*
X19507335Y51964979D01*
X20965000Y50507313D01*
X20964999Y46336106D01*
X20964999Y45988104D01*
X20961443Y45951999D01*
X20964999Y45915895D01*
X20964999Y45915894D01*
X20975634Y45807914D01*
X21017662Y45669366D01*
X21085912Y45541679D01*
X21177762Y45429761D01*
X21205807Y45406745D01*
X24005000Y42607551D01*
X24005001Y31825863D01*
X23847118Y31760466D01*
X23538382Y31554175D01*
X23275825Y31291618D01*
X23069534Y30982882D01*
X22927439Y30639834D01*
X22855000Y30275656D01*
X22855000Y29904344D01*
X22927439Y29540166D01*
X23069534Y29197118D01*
X23111040Y29135000D01*
X22893891Y29135000D01*
X22587673Y29074089D01*
X22299221Y28954609D01*
X22039621Y28781150D01*
X21818850Y28560379D01*
X21645391Y28300779D01*
X21525911Y28012327D01*
X21465000Y27706109D01*
X21465000Y27393891D01*
X21525911Y27087673D01*
X21645391Y26799221D01*
X21818850Y26539621D01*
X22039621Y26318850D01*
X22299221Y26145391D01*
X22587673Y26025911D01*
X22893891Y25965000D01*
X23206109Y25965000D01*
X23512327Y26025911D01*
X23606697Y26065000D01*
X23616260Y26065000D01*
X23903158Y26122068D01*
X24173411Y26234010D01*
X24416632Y26396525D01*
X24623475Y26603368D01*
X24785990Y26846589D01*
X24897932Y27116842D01*
X24955000Y27403740D01*
X24955000Y27696260D01*
X24897932Y27983158D01*
X24806042Y28205000D01*
X24925656Y28205000D01*
X25289834Y28277439D01*
X25632882Y28419534D01*
X25941618Y28625825D01*
X26204175Y28888382D01*
X26410466Y29197118D01*
X26552561Y29540166D01*
X26625000Y29904344D01*
X26625000Y30275656D01*
X26552561Y30639834D01*
X26410466Y30982882D01*
X26204175Y31291618D01*
X25941618Y31554175D01*
X25632882Y31760466D01*
X25475000Y31825863D01*
X25475000Y42875893D01*
X25478556Y42911998D01*
X25475000Y42948103D01*
X25475000Y46393552D01*
X25915000Y46833552D01*
X25915000Y46340475D01*
X26016261Y45831399D01*
X26214893Y45351859D01*
X26503262Y44920285D01*
X26870285Y44553262D01*
X27301859Y44264893D01*
X27781399Y44066261D01*
X28290475Y43965000D01*
X28809525Y43965000D01*
X29318601Y44066261D01*
X29798141Y44264893D01*
X29854991Y44302879D01*
X29854990Y34876439D01*
X28945807Y33967255D01*
X28917762Y33944239D01*
X28825913Y33832321D01*
X28757664Y33704635D01*
X28757663Y33704634D01*
X28715634Y33566086D01*
X28701443Y33422001D01*
X28705000Y33385886D01*
X28704999Y31874104D01*
X28701443Y31837999D01*
X28704999Y31801895D01*
X28715634Y31693915D01*
X28757662Y31555367D01*
X28825912Y31427680D01*
X28917761Y31315762D01*
X28945807Y31292745D01*
X30355001Y29883550D01*
X30355001Y29471452D01*
X30229715Y29596738D01*
X29798141Y29885107D01*
X29318601Y30083739D01*
X28809525Y30185000D01*
X28290475Y30185000D01*
X27781399Y30083739D01*
X27301859Y29885107D01*
X26870285Y29596738D01*
X26503262Y29229715D01*
X26214893Y28798141D01*
X26016261Y28318601D01*
X25915000Y27809525D01*
X25915000Y27290475D01*
X26016261Y26781399D01*
X26214893Y26301859D01*
X26503262Y25870285D01*
X26870285Y25503262D01*
X27301859Y25214893D01*
X27781399Y25016261D01*
X28290475Y24915000D01*
X28809525Y24915000D01*
X29318601Y25016261D01*
X29798141Y25214893D01*
X30229715Y25503262D01*
X30355001Y25628548D01*
X30355000Y15315863D01*
X30197118Y15250466D01*
X29888382Y15044175D01*
X29625825Y14781618D01*
X29419534Y14472882D01*
X29277439Y14129834D01*
X29205000Y13765656D01*
X29205000Y13394344D01*
X29277439Y13030166D01*
X29419534Y12687118D01*
X29625825Y12378382D01*
X29888382Y12115825D01*
X30197118Y11909534D01*
X30521912Y11775000D01*
X26475863Y11775000D01*
X26410466Y11932882D01*
X26204175Y12241618D01*
X25941618Y12504175D01*
X25632882Y12710466D01*
X25289834Y12852561D01*
X24925656Y12925000D01*
X24554344Y12925000D01*
X24190166Y12852561D01*
X23847118Y12710466D01*
X23538382Y12504175D01*
X23275825Y12241618D01*
X23069534Y11932882D01*
X22927439Y11589834D01*
X22855000Y11225656D01*
X22855000Y10854344D01*
X22927439Y10490166D01*
X23069534Y10147118D01*
X23111040Y10085000D01*
X22893891Y10085000D01*
X22587673Y10024089D01*
X22299221Y9904609D01*
X22039621Y9731150D01*
X21818850Y9510379D01*
X21645391Y9250779D01*
X21525911Y8962327D01*
X21465000Y8656109D01*
X21465000Y8343891D01*
X21525911Y8037673D01*
X21645391Y7749221D01*
X21818850Y7489621D01*
X22039621Y7268850D01*
X22299221Y7095391D01*
X22587673Y6975911D01*
X22728462Y6947906D01*
X22615555Y6834999D01*
X11556570Y6834999D01*
X11835107Y7251859D01*
X12033739Y7731399D01*
X12135000Y8240475D01*
X12135000Y8646260D01*
X13095000Y8646260D01*
X13095000Y8353740D01*
X13152068Y8066842D01*
X13264010Y7796589D01*
X13426525Y7553368D01*
X13633368Y7346525D01*
X13876589Y7184010D01*
X14146842Y7072068D01*
X14433740Y7015000D01*
X14443303Y7015000D01*
X14537673Y6975911D01*
X14843891Y6915000D01*
X15156109Y6915000D01*
X15462327Y6975911D01*
X15750779Y7095391D01*
X16010379Y7268850D01*
X16231150Y7489621D01*
X16404609Y7749221D01*
X16524089Y8037673D01*
X16585000Y8343891D01*
X16585000Y8656109D01*
X16524089Y8962327D01*
X16404609Y9250779D01*
X16231150Y9510379D01*
X16010379Y9731150D01*
X15750779Y9904609D01*
X15462327Y10024089D01*
X15156109Y10085000D01*
X14843891Y10085000D01*
X14537673Y10024089D01*
X14443303Y9985000D01*
X14433740Y9985000D01*
X14146842Y9927932D01*
X13876589Y9815990D01*
X13633368Y9653475D01*
X13426525Y9446632D01*
X13264010Y9203411D01*
X13152068Y8933158D01*
X13095000Y8646260D01*
X12135000Y8646260D01*
X12135000Y8759525D01*
X12033739Y9268601D01*
X11835107Y9748141D01*
X11546738Y10179715D01*
X11179715Y10546738D01*
X10748141Y10835107D01*
X10268601Y11033739D01*
X9759525Y11135000D01*
X9240475Y11135000D01*
X8731399Y11033739D01*
X8251859Y10835107D01*
X7820285Y10546738D01*
X7453262Y10179715D01*
X7164893Y9748141D01*
X6966261Y9268601D01*
X6865000Y8759525D01*
X6865000Y8622444D01*
X6425000Y9062444D01*
X6425000Y9304137D01*
X6582882Y9369534D01*
X6891618Y9575825D01*
X7154175Y9838382D01*
X7360466Y10147118D01*
X7502561Y10490166D01*
X7575000Y10854344D01*
X7575000Y11225656D01*
X7502561Y11589834D01*
X7360466Y11932882D01*
X7154175Y12241618D01*
X6891618Y12504175D01*
X6582882Y12710466D01*
X6239834Y12852561D01*
X5875656Y12925000D01*
X5504344Y12925000D01*
X5140166Y12852561D01*
X4797118Y12710466D01*
X4488382Y12504175D01*
X4225825Y12241618D01*
X4019534Y11932882D01*
X3877439Y11589834D01*
X3805000Y11225656D01*
X3805000Y10854344D01*
X3877439Y10490166D01*
X4019534Y10147118D01*
X4061040Y10085000D01*
X3843891Y10085000D01*
X3537673Y10024089D01*
X3249221Y9904609D01*
X2989621Y9731150D01*
X2768850Y9510379D01*
X2595391Y9250779D01*
X2475911Y8962327D01*
X2415000Y8656109D01*
X2415000Y8343891D01*
X2475911Y8037673D01*
X2595391Y7749221D01*
X2768850Y7489621D01*
X2989621Y7268850D01*
X3249221Y7095391D01*
X3537673Y6975911D01*
X3843891Y6915000D01*
X4156109Y6915000D01*
X4462327Y6975911D01*
X4556697Y7015000D01*
X4566260Y7015000D01*
X4853158Y7072068D01*
X5123411Y7184010D01*
X5366632Y7346525D01*
X5573475Y7553368D01*
X5686312Y7722240D01*
X7802745Y5605806D01*
X7825761Y5577761D01*
X7937679Y5485912D01*
X8065366Y5417662D01*
X8203914Y5375634D01*
X8311894Y5364999D01*
X8311903Y5364999D01*
X8347998Y5361444D01*
X8384093Y5364999D01*
X22883896Y5364999D01*
X22920001Y5361443D01*
X22956106Y5364999D01*
X23064086Y5375634D01*
X23202634Y5417662D01*
X23330321Y5485912D01*
X23442239Y5577761D01*
X23465259Y5605811D01*
X25234193Y7374744D01*
X25262238Y7397760D01*
X25354087Y7509678D01*
X25422337Y7637365D01*
X25464365Y7775913D01*
X25475000Y7883893D01*
X25475000Y7883902D01*
X25478555Y7919997D01*
X25475000Y7956092D01*
X25475000Y9304137D01*
X25632882Y9369534D01*
X25941618Y9575825D01*
X26204175Y9838382D01*
X26410466Y10147118D01*
X26475863Y10305000D01*
X26628547Y10305000D01*
X26503262Y10179715D01*
X26214893Y9748141D01*
X26016261Y9268601D01*
X25915000Y8759525D01*
X25915000Y8240475D01*
X26016261Y7731399D01*
X26214893Y7251859D01*
X26503262Y6820285D01*
X26870285Y6453262D01*
X27301859Y6164893D01*
X27781399Y5966261D01*
X28290475Y5865000D01*
X28809525Y5865000D01*
X29318601Y5966261D01*
X29798141Y6164893D01*
X30229715Y6453262D01*
X30596738Y6820285D01*
X30885107Y7251859D01*
X31083739Y7731399D01*
X31185000Y8240475D01*
X31185000Y8646260D01*
X32145000Y8646260D01*
X32145000Y8353740D01*
X32202068Y8066842D01*
X32314010Y7796589D01*
X32476525Y7553368D01*
X32683368Y7346525D01*
X32926589Y7184010D01*
X33196842Y7072068D01*
X33483740Y7015000D01*
X33493303Y7015000D01*
X33587673Y6975911D01*
X33893891Y6915000D01*
X34206109Y6915000D01*
X34512327Y6975911D01*
X34800779Y7095391D01*
X35060379Y7268850D01*
X35281150Y7489621D01*
X35454609Y7749221D01*
X35574089Y8037673D01*
X35635000Y8343891D01*
X35635000Y8656109D01*
X35574089Y8962327D01*
X35454609Y9250779D01*
X35281150Y9510379D01*
X35060379Y9731150D01*
X34800779Y9904609D01*
X34512327Y10024089D01*
X34206109Y10085000D01*
X33893891Y10085000D01*
X33587673Y10024089D01*
X33493303Y9985000D01*
X33483740Y9985000D01*
X33196842Y9927932D01*
X32926589Y9815990D01*
X32683368Y9653475D01*
X32476525Y9446632D01*
X32314010Y9203411D01*
X32202068Y8933158D01*
X32145000Y8646260D01*
X31185000Y8646260D01*
X31185000Y8759525D01*
X31083739Y9268601D01*
X30885107Y9748141D01*
X30596738Y10179715D01*
X30471453Y10305000D01*
X30955897Y10305000D01*
X30992002Y10301444D01*
X31028107Y10305000D01*
X31136087Y10315635D01*
X31274635Y10357663D01*
X31402322Y10425913D01*
X31514240Y10517762D01*
X31537260Y10545812D01*
X33234194Y12242745D01*
X33262239Y12265761D01*
X33354088Y12377679D01*
X33422338Y12505366D01*
X33464366Y12643914D01*
X33475001Y12751894D01*
X33478557Y12787999D01*
X33475001Y12824104D01*
X33475001Y14335896D01*
X33478557Y14372001D01*
X33464366Y14516086D01*
X33422338Y14654633D01*
X33422338Y14654634D01*
X33354088Y14782321D01*
X33307035Y14839655D01*
X33285254Y14866195D01*
X33285251Y14866198D01*
X33262238Y14894239D01*
X33234198Y14917251D01*
X32325010Y15826438D01*
X32325010Y26830126D01*
X32476525Y26603368D01*
X32683368Y26396525D01*
X32926589Y26234010D01*
X33196842Y26122068D01*
X33483740Y26065000D01*
X33493303Y26065000D01*
X33587673Y26025911D01*
X33893891Y25965000D01*
X34206109Y25965000D01*
X34512327Y26025911D01*
X34800779Y26145391D01*
X35060379Y26318850D01*
X35281150Y26539621D01*
X35454609Y26799221D01*
X35574089Y27087673D01*
X35635000Y27393891D01*
X35635000Y27706109D01*
X35574089Y28012327D01*
X35454609Y28300779D01*
X35281150Y28560379D01*
X35060379Y28781150D01*
X34800779Y28954609D01*
X34512327Y29074089D01*
X34206109Y29135000D01*
X33893891Y29135000D01*
X33587673Y29074089D01*
X33493303Y29035000D01*
X33483740Y29035000D01*
X33196842Y28977932D01*
X32926589Y28865990D01*
X32683368Y28703475D01*
X32476525Y28496632D01*
X32325010Y28269874D01*
X32325010Y30383562D01*
X33234194Y31292745D01*
X33262239Y31315761D01*
X33354088Y31427679D01*
X33422338Y31555366D01*
X33464366Y31693914D01*
X33475001Y31801894D01*
X33475001Y31801895D01*
X33478557Y31837999D01*
X33475001Y31874104D01*
X33475001Y33385896D01*
X33478557Y33422001D01*
X33464366Y33566086D01*
X33422338Y33704633D01*
X33422338Y33704634D01*
X33354088Y33832321D01*
X33307035Y33889655D01*
X33285254Y33916195D01*
X33285251Y33916198D01*
X33262238Y33944239D01*
X33234198Y33967251D01*
X32325010Y34876438D01*
X32325010Y44369322D01*
X32444208Y44488520D01*
X32472259Y44511541D01*
X32564108Y44623459D01*
X32632358Y44751146D01*
X32674386Y44889694D01*
X32685021Y44997674D01*
X32685021Y44997683D01*
X32688576Y45033778D01*
X32685021Y45069873D01*
X32685021Y45445421D01*
X32926589Y45284010D01*
X33196842Y45172068D01*
X33483740Y45115000D01*
X33493303Y45115000D01*
X33587673Y45075911D01*
X33893891Y45015000D01*
X34206109Y45015000D01*
X34512327Y45075911D01*
X34800779Y45195391D01*
X35060379Y45368850D01*
X35281150Y45589621D01*
X35454609Y45849221D01*
X35574089Y46137673D01*
X35635000Y46443891D01*
X35635000Y46756109D01*
X35574089Y47062327D01*
X35454609Y47350779D01*
X35281150Y47610379D01*
X35060379Y47831150D01*
X34800779Y48004609D01*
X34512327Y48124089D01*
X34206109Y48185000D01*
X33893891Y48185000D01*
X33587673Y48124089D01*
X33493303Y48085000D01*
X33483740Y48085000D01*
X33196842Y48027932D01*
X32926589Y47915990D01*
X32685021Y47754579D01*
X32685021Y49793573D01*
X34094194Y51202745D01*
X34122239Y51225761D01*
X34214088Y51337679D01*
X34282338Y51465366D01*
X34315289Y51573990D01*
X34324366Y51603913D01*
X34327139Y51632068D01*
X34335001Y51711894D01*
X34335001Y51711901D01*
X34338556Y51747998D01*
X34335001Y51784095D01*
X34335001Y53722073D01*
X35974192Y55361263D01*
X36002237Y55384279D01*
X36025971Y55413199D01*
X36280671Y55290065D01*
X36582873Y55211621D01*
X36894573Y55193641D01*
X37203791Y55236816D01*
X37415001Y55310362D01*
X37415001Y51259703D01*
X37336594Y51235919D01*
X37217593Y51172312D01*
X37113289Y51086711D01*
X37027688Y50982407D01*
X36964081Y50863406D01*
X36924912Y50734283D01*
X36921440Y50699029D01*
X36910197Y50689803D01*
X36894403Y50670557D01*
X36882667Y50648601D01*
X36875440Y50624776D01*
X36873000Y50600000D01*
X36873000Y42600000D01*
X36875440Y42575224D01*
X36882667Y42551399D01*
X36894403Y42529443D01*
X36910197Y42510197D01*
X36921440Y42500971D01*
X36924912Y42465717D01*
X36964081Y42336594D01*
X37027688Y42217593D01*
X37113289Y42113289D01*
X37217593Y42027688D01*
X37336594Y41964081D01*
X37415000Y41940297D01*
X37415001Y13159703D01*
X37336594Y13135919D01*
X37217593Y13072312D01*
X37113289Y12986711D01*
X37027688Y12882407D01*
X36964081Y12763406D01*
X36924912Y12634283D01*
X36921440Y12599029D01*
X36910197Y12589803D01*
X36894403Y12570557D01*
X36882667Y12548601D01*
X36875440Y12524776D01*
X36873000Y12500000D01*
X36873000Y4500000D01*
X36875440Y4475224D01*
X36882667Y4451399D01*
X36894403Y4429443D01*
X36910197Y4410197D01*
X36921440Y4400971D01*
X36924912Y4365717D01*
X36964081Y4236594D01*
X37027688Y4117593D01*
X37113289Y4013289D01*
X37217593Y3927688D01*
X37336594Y3864081D01*
X37415000Y3840297D01*
X37415001Y1033515D01*
X37386733Y745218D01*
X37312741Y500145D01*
X37192554Y274107D01*
X37030754Y75721D01*
X36833503Y-87460D01*
X36608310Y-209221D01*
X36363753Y-284924D01*
X36077602Y-315000D01*
X2033505Y-315000D01*
X1745218Y-286733D01*
X1500145Y-212741D01*
X1274107Y-92554D01*
X1075721Y69246D01*
X912540Y266497D01*
X790779Y491690D01*
X715076Y736247D01*
X685000Y1022398D01*
X685000Y92166495D01*
X713267Y92454782D01*
X787259Y92699855D01*
X907443Y92925890D01*
X1069248Y93124281D01*
X1266497Y93287460D01*
X1491687Y93409220D01*
X1736247Y93484924D01*
X2022398Y93515000D01*
X36066495Y93515000D01*
X36354782Y93486733D01*
G36*
X37023748Y56799143D02*
G01*
X37009605Y56785000D01*
X37023748Y56770858D01*
X36844143Y56591253D01*
X36830000Y56605395D01*
X36815858Y56591253D01*
X36636253Y56770858D01*
X36650395Y56785000D01*
X36636253Y56799143D01*
X36815858Y56978748D01*
X36830000Y56964605D01*
X36844143Y56978748D01*
X37023748Y56799143D01*
X37023748Y56799143D01*
G37*
X37023748Y56799143D02*
X37009605Y56785000D01*
X37023748Y56770858D01*
X36844143Y56591253D01*
X36830000Y56605395D01*
X36815858Y56591253D01*
X36636253Y56770858D01*
X36650395Y56785000D01*
X36636253Y56799143D01*
X36815858Y56978748D01*
X36830000Y56964605D01*
X36844143Y56978748D01*
X37023748Y56799143D01*
M02*
