G04 #@! TF.GenerationSoftware,KiCad,Pcbnew,(5.1.2)-2*
G04 #@! TF.CreationDate,2020-05-16T23:41:00+09:00*
G04 #@! TF.ProjectId,______,e135d7ec-fcc8-42e6-9b69-6361645f7063,rev?*
G04 #@! TF.SameCoordinates,Original*
G04 #@! TF.FileFunction,Soldermask,Bot*
G04 #@! TF.FilePolarity,Negative*
%FSLAX46Y46*%
G04 Gerber Fmt 4.6, Leading zero omitted, Abs format (unit mm)*
G04 Created by KiCad (PCBNEW (5.1.2)-2) date 2020-05-16 23:41:00*
%MOMM*%
%LPD*%
G04 APERTURE LIST*
%ADD10C,1.900000*%
%ADD11C,2.700000*%
%ADD12C,2.100000*%
%ADD13C,4.200000*%
%ADD14R,1.400000X1.400000*%
%ADD15C,4.300000*%
G04 APERTURE END LIST*
D10*
X33630000Y65650000D03*
X23470000Y65650000D03*
D11*
X24740000Y68190000D03*
X31090000Y70730000D03*
D12*
X34050000Y65650000D03*
X23050000Y65650000D03*
D13*
X28550000Y65650000D03*
D10*
X33630000Y84700000D03*
X23470000Y84700000D03*
D11*
X24740000Y87240000D03*
X31090000Y89780000D03*
D12*
X34050000Y84700000D03*
X23050000Y84700000D03*
D13*
X28550000Y84700000D03*
D10*
X33630000Y46600000D03*
X23470000Y46600000D03*
D11*
X24740000Y49140000D03*
X31090000Y51680000D03*
D12*
X34050000Y46600000D03*
X23050000Y46600000D03*
D13*
X28550000Y46600000D03*
D10*
X14580000Y65650000D03*
X4420000Y65650000D03*
D11*
X5690000Y68190000D03*
X12040000Y70730000D03*
D12*
X15000000Y65650000D03*
X4000000Y65650000D03*
D13*
X9500000Y65650000D03*
D10*
X54880000Y46600000D03*
X44720000Y46600000D03*
D11*
X45990000Y49140000D03*
X52340000Y51680000D03*
D12*
X55300000Y46600000D03*
X44300000Y46600000D03*
D13*
X49800000Y46600000D03*
D10*
X33630000Y27550000D03*
X23470000Y27550000D03*
D11*
X24740000Y30090000D03*
X31090000Y32630000D03*
D12*
X34050000Y27550000D03*
X23050000Y27550000D03*
D13*
X28550000Y27550000D03*
D10*
X14580000Y46600000D03*
X4420000Y46600000D03*
D11*
X5690000Y49140000D03*
X12040000Y51680000D03*
D12*
X15000000Y46600000D03*
X4000000Y46600000D03*
D13*
X9500000Y46600000D03*
D10*
X54880000Y27550000D03*
X44720000Y27550000D03*
D11*
X45990000Y30090000D03*
X52340000Y32630000D03*
D12*
X55300000Y27550000D03*
X44300000Y27550000D03*
D13*
X49800000Y27550000D03*
D10*
X54880000Y84700000D03*
X44720000Y84700000D03*
D11*
X45990000Y87240000D03*
X52340000Y89780000D03*
D12*
X55300000Y84700000D03*
X44300000Y84700000D03*
D13*
X49800000Y84700000D03*
D10*
X54880000Y65650000D03*
X44720000Y65650000D03*
D11*
X45990000Y68190000D03*
X52340000Y70730000D03*
D12*
X55300000Y65650000D03*
X44300000Y65650000D03*
D13*
X49800000Y65650000D03*
D10*
X54880000Y8500000D03*
X44720000Y8500000D03*
D11*
X45990000Y11040000D03*
X52340000Y13580000D03*
D12*
X55300000Y8500000D03*
X44300000Y8500000D03*
D13*
X49800000Y8500000D03*
D10*
X73930000Y84700000D03*
X63770000Y84700000D03*
D11*
X65040000Y87240000D03*
X71390000Y89780000D03*
D12*
X74350000Y84700000D03*
X63350000Y84700000D03*
D13*
X68850000Y84700000D03*
D10*
X73930000Y65650000D03*
X63770000Y65650000D03*
D11*
X65040000Y68190000D03*
X71390000Y70730000D03*
D12*
X74350000Y65650000D03*
X63350000Y65650000D03*
D13*
X68850000Y65650000D03*
D10*
X73930000Y46600000D03*
X63770000Y46600000D03*
D11*
X65040000Y49140000D03*
X71390000Y51680000D03*
D12*
X74350000Y46600000D03*
X63350000Y46600000D03*
D13*
X68850000Y46600000D03*
D10*
X73930000Y27550000D03*
X63770000Y27550000D03*
D11*
X65040000Y30090000D03*
X71390000Y32630000D03*
D12*
X74350000Y27550000D03*
X63350000Y27550000D03*
D13*
X68850000Y27550000D03*
D10*
X73930000Y8500000D03*
X63770000Y8500000D03*
D11*
X65040000Y11040000D03*
X71390000Y13580000D03*
D12*
X74350000Y8500000D03*
X63350000Y8500000D03*
D13*
X68850000Y8500000D03*
D10*
X33630000Y8500000D03*
X23470000Y8500000D03*
D11*
X24740000Y11040000D03*
X31090000Y13580000D03*
D12*
X34050000Y8500000D03*
X23050000Y8500000D03*
D13*
X28550000Y8500000D03*
D10*
X14580000Y84700000D03*
X4420000Y84700000D03*
D11*
X5690000Y87240000D03*
X12040000Y89780000D03*
D12*
X15000000Y84700000D03*
X4000000Y84700000D03*
D13*
X9500000Y84700000D03*
D10*
X14580000Y27550000D03*
X4420000Y27550000D03*
D11*
X5690000Y30090000D03*
X12040000Y32630000D03*
D12*
X15000000Y27550000D03*
X4000000Y27550000D03*
D13*
X9500000Y27550000D03*
D10*
X14580000Y8500000D03*
X4420000Y8500000D03*
D11*
X5690000Y11040000D03*
X12040000Y13580000D03*
D12*
X15000000Y8500000D03*
X4000000Y8500000D03*
D13*
X9500000Y8500000D03*
D12*
X41570000Y74565000D03*
X41570000Y72025000D03*
X41570000Y69485000D03*
X41570000Y66945000D03*
X41570000Y64405000D03*
X41570000Y61865000D03*
X41570000Y59325000D03*
X41570000Y56785000D03*
X36830000Y74565000D03*
X36830000Y72025000D03*
X36830000Y69485000D03*
X36830000Y66945000D03*
X36830000Y64405000D03*
X36830000Y61865000D03*
X36830000Y59325000D03*
X36830000Y56785000D03*
D14*
X14502500Y53175000D03*
X14502500Y56725000D03*
X47502500Y59075000D03*
X47502500Y62625000D03*
X52302500Y59075000D03*
X52302500Y62625000D03*
X54802500Y53175000D03*
X54802500Y56725000D03*
X49802500Y53175000D03*
X49802500Y56725000D03*
X46000000Y53175000D03*
X46000000Y56725000D03*
X66352500Y59075000D03*
X66352500Y62625000D03*
X71352500Y59075000D03*
X71352500Y62625000D03*
X73852500Y53175000D03*
X73852500Y56725000D03*
X68852500Y53175000D03*
X68852500Y56725000D03*
X63852500Y53175000D03*
X63852500Y56725000D03*
X25052500Y59075000D03*
X25052500Y62625000D03*
X30052500Y58975000D03*
X30052500Y62525000D03*
X32470000Y54025000D03*
X32470000Y57575000D03*
X27752500Y53175000D03*
X27752500Y56725000D03*
X22952500Y53175000D03*
X22952500Y56725000D03*
X12002500Y59075000D03*
X12002500Y62625000D03*
X7002500Y59075000D03*
X7002500Y62625000D03*
X9502500Y53175000D03*
X9502500Y56725000D03*
X4502500Y53175000D03*
X4502500Y56725000D03*
D15*
X59350000Y37100000D03*
X59350000Y56150000D03*
X59350000Y75200000D03*
X59350000Y18050000D03*
X19050000Y75200000D03*
X19050000Y56150000D03*
X19050000Y37100000D03*
X19050000Y18050000D03*
M02*
