G04 #@! TF.GenerationSoftware,KiCad,Pcbnew,(5.1.2)-2*
G04 #@! TF.CreationDate,2020-05-16T23:41:00+09:00*
G04 #@! TF.ProjectId,______,e135d7ec-fcc8-42e6-9b69-6361645f7063,rev?*
G04 #@! TF.SameCoordinates,Original*
G04 #@! TF.FileFunction,Soldermask,Top*
G04 #@! TF.FilePolarity,Negative*
%FSLAX46Y46*%
G04 Gerber Fmt 4.6, Leading zero omitted, Abs format (unit mm)*
G04 Created by KiCad (PCBNEW (5.1.2)-2) date 2020-05-16 23:41:00*
%MOMM*%
%LPD*%
G04 APERTURE LIST*
%ADD10C,1.900000*%
%ADD11C,2.100000*%
%ADD12C,4.200000*%
G04 APERTURE END LIST*
D10*
X33630000Y65650000D03*
X23470000Y65650000D03*
D11*
X34050000Y65650000D03*
X23050000Y65650000D03*
D12*
X28550000Y65650000D03*
D10*
X33630000Y84700000D03*
X23470000Y84700000D03*
D11*
X34050000Y84700000D03*
X23050000Y84700000D03*
D12*
X28550000Y84700000D03*
D10*
X33630000Y46600000D03*
X23470000Y46600000D03*
D11*
X34050000Y46600000D03*
X23050000Y46600000D03*
D12*
X28550000Y46600000D03*
D10*
X14580000Y65650000D03*
X4420000Y65650000D03*
D11*
X15000000Y65650000D03*
X4000000Y65650000D03*
D12*
X9500000Y65650000D03*
D10*
X54880000Y46600000D03*
X44720000Y46600000D03*
D11*
X55300000Y46600000D03*
X44300000Y46600000D03*
D12*
X49800000Y46600000D03*
D10*
X33630000Y27550000D03*
X23470000Y27550000D03*
D11*
X34050000Y27550000D03*
X23050000Y27550000D03*
D12*
X28550000Y27550000D03*
D10*
X14580000Y46600000D03*
X4420000Y46600000D03*
D11*
X15000000Y46600000D03*
X4000000Y46600000D03*
D12*
X9500000Y46600000D03*
D10*
X54880000Y27550000D03*
X44720000Y27550000D03*
D11*
X55300000Y27550000D03*
X44300000Y27550000D03*
D12*
X49800000Y27550000D03*
D10*
X54880000Y84700000D03*
X44720000Y84700000D03*
D11*
X55300000Y84700000D03*
X44300000Y84700000D03*
D12*
X49800000Y84700000D03*
D10*
X54880000Y65650000D03*
X44720000Y65650000D03*
D11*
X55300000Y65650000D03*
X44300000Y65650000D03*
D12*
X49800000Y65650000D03*
D10*
X54880000Y8500000D03*
X44720000Y8500000D03*
D11*
X55300000Y8500000D03*
X44300000Y8500000D03*
D12*
X49800000Y8500000D03*
D10*
X73930000Y84700000D03*
X63770000Y84700000D03*
D11*
X74350000Y84700000D03*
X63350000Y84700000D03*
D12*
X68850000Y84700000D03*
D10*
X73930000Y65650000D03*
X63770000Y65650000D03*
D11*
X74350000Y65650000D03*
X63350000Y65650000D03*
D12*
X68850000Y65650000D03*
D10*
X73930000Y46600000D03*
X63770000Y46600000D03*
D11*
X74350000Y46600000D03*
X63350000Y46600000D03*
D12*
X68850000Y46600000D03*
D10*
X73930000Y27550000D03*
X63770000Y27550000D03*
D11*
X74350000Y27550000D03*
X63350000Y27550000D03*
D12*
X68850000Y27550000D03*
D10*
X73930000Y8500000D03*
X63770000Y8500000D03*
D11*
X74350000Y8500000D03*
X63350000Y8500000D03*
D12*
X68850000Y8500000D03*
D10*
X33630000Y8500000D03*
X23470000Y8500000D03*
D11*
X34050000Y8500000D03*
X23050000Y8500000D03*
D12*
X28550000Y8500000D03*
D10*
X14580000Y84700000D03*
X4420000Y84700000D03*
D11*
X15000000Y84700000D03*
X4000000Y84700000D03*
D12*
X9500000Y84700000D03*
D10*
X14580000Y27550000D03*
X4420000Y27550000D03*
D11*
X15000000Y27550000D03*
X4000000Y27550000D03*
D12*
X9500000Y27550000D03*
D10*
X14580000Y8500000D03*
X4420000Y8500000D03*
D11*
X15000000Y8500000D03*
X4000000Y8500000D03*
D12*
X9500000Y8500000D03*
M02*
